G04*
G04 #@! TF.GenerationSoftware,Altium Limited,Altium Designer,22.3.1 (43)*
G04*
G04 Layer_Physical_Order=1*
G04 Layer_Color=255*
%FSLAX25Y25*%
%MOIN*%
G70*
G04*
G04 #@! TF.SameCoordinates,28AED8AE-6D8B-4080-ADD8-9E34605278D5*
G04*
G04*
G04 #@! TF.FilePolarity,Positive*
G04*
G01*
G75*
%ADD10C,0.01000*%
%ADD15C,0.02000*%
G04:AMPARAMS|DCode=23|XSize=61.4mil|YSize=32.76mil|CornerRadius=16.38mil|HoleSize=0mil|Usage=FLASHONLY|Rotation=180.000|XOffset=0mil|YOffset=0mil|HoleType=Round|Shape=RoundedRectangle|*
%AMROUNDEDRECTD23*
21,1,0.06140,0.00000,0,0,180.0*
21,1,0.02864,0.03276,0,0,180.0*
1,1,0.03276,-0.01432,0.00000*
1,1,0.03276,0.01432,0.00000*
1,1,0.03276,0.01432,0.00000*
1,1,0.03276,-0.01432,0.00000*
%
%ADD23ROUNDEDRECTD23*%
G04:AMPARAMS|DCode=24|XSize=61.4mil|YSize=123.31mil|CornerRadius=16.27mil|HoleSize=0mil|Usage=FLASHONLY|Rotation=180.000|XOffset=0mil|YOffset=0mil|HoleType=Round|Shape=RoundedRectangle|*
%AMROUNDEDRECTD24*
21,1,0.06140,0.09077,0,0,180.0*
21,1,0.02886,0.12331,0,0,180.0*
1,1,0.03254,-0.01443,0.04538*
1,1,0.03254,0.01443,0.04538*
1,1,0.03254,0.01443,-0.04538*
1,1,0.03254,-0.01443,-0.04538*
%
%ADD24ROUNDEDRECTD24*%
%ADD25R,0.06140X0.03276*%
%ADD28R,0.06316X0.03464*%
G04:AMPARAMS|DCode=29|XSize=63.16mil|YSize=34.64mil|CornerRadius=17.32mil|HoleSize=0mil|Usage=FLASHONLY|Rotation=180.000|XOffset=0mil|YOffset=0mil|HoleType=Round|Shape=RoundedRectangle|*
%AMROUNDEDRECTD29*
21,1,0.06316,0.00000,0,0,180.0*
21,1,0.02852,0.03464,0,0,180.0*
1,1,0.03464,-0.01426,0.00000*
1,1,0.03464,0.01426,0.00000*
1,1,0.03464,0.01426,0.00000*
1,1,0.03464,-0.01426,0.00000*
%
%ADD29ROUNDEDRECTD29*%
G04:AMPARAMS|DCode=30|XSize=63.16mil|YSize=125.19mil|CornerRadius=17.37mil|HoleSize=0mil|Usage=FLASHONLY|Rotation=180.000|XOffset=0mil|YOffset=0mil|HoleType=Round|Shape=RoundedRectangle|*
%AMROUNDEDRECTD30*
21,1,0.06316,0.09045,0,0,180.0*
21,1,0.02842,0.12519,0,0,180.0*
1,1,0.03474,-0.01421,0.04523*
1,1,0.03474,0.01421,0.04523*
1,1,0.03474,0.01421,-0.04523*
1,1,0.03474,-0.01421,-0.04523*
%
%ADD30ROUNDEDRECTD30*%
%ADD35R,0.03740X0.05315*%
%ADD37R,0.05315X0.03740*%
%ADD43R,0.03600X0.04800*%
%ADD48R,0.03150X0.10630*%
%ADD49R,0.06127X0.05727*%
G04:AMPARAMS|DCode=50|XSize=57.25mil|YSize=17.16mil|CornerRadius=8.58mil|HoleSize=0mil|Usage=FLASHONLY|Rotation=90.000|XOffset=0mil|YOffset=0mil|HoleType=Round|Shape=RoundedRectangle|*
%AMROUNDEDRECTD50*
21,1,0.05725,0.00000,0,0,90.0*
21,1,0.04009,0.01716,0,0,90.0*
1,1,0.01716,0.00000,0.02005*
1,1,0.01716,0.00000,-0.02005*
1,1,0.01716,0.00000,-0.02005*
1,1,0.01716,0.00000,0.02005*
%
%ADD50ROUNDEDRECTD50*%
%ADD51R,0.01716X0.05725*%
%ADD54R,0.07087X0.09252*%
%ADD59R,0.08500X0.04016*%
%ADD60R,0.05727X0.06127*%
%ADD62R,0.13504X0.07008*%
%ADD63R,0.10984X0.04685*%
%ADD64R,0.08661X0.04724*%
%ADD65R,0.16535X0.07874*%
%ADD66R,0.05118X0.01181*%
%ADD71C,0.05500*%
%ADD72R,0.07874X0.14961*%
%ADD73R,0.07874X0.05906*%
%ADD74R,0.05118X0.03543*%
%ADD75R,0.06102X0.06102*%
%ADD76R,0.06693X0.04331*%
%ADD77R,0.06102X0.05906*%
%ADD78O,0.08661X0.02362*%
%ADD79R,0.05315X0.03937*%
%ADD80O,0.01378X0.05512*%
%ADD81O,0.07480X0.02362*%
%ADD82O,0.06496X0.01181*%
%ADD83O,0.01181X0.06496*%
%ADD84R,0.06102X0.05315*%
%ADD85O,0.06299X0.01181*%
%ADD86R,0.03740X0.05315*%
%ADD87R,0.05709X0.04528*%
%ADD88R,0.03937X0.05315*%
%ADD89R,0.05315X0.06102*%
%ADD90R,0.05118X0.01181*%
%ADD91R,0.08661X0.07087*%
%ADD92R,0.03937X0.01181*%
%ADD93R,0.08465X0.05512*%
%ADD94R,0.06102X0.05512*%
%ADD95C,0.03000*%
%ADD96R,0.05906X0.05906*%
%ADD97C,0.05906*%
%ADD98R,0.05906X0.05906*%
%ADD99C,0.07500*%
%ADD100C,0.02400*%
%ADD101C,0.02800*%
G36*
X156205Y122332D02*
X148921D01*
Y134536D01*
X156205D01*
Y122332D01*
D02*
G37*
D10*
X349400Y402782D02*
Y444428D01*
X362200Y407801D02*
Y449447D01*
X418138Y359500D02*
X510904D01*
X347600Y402037D02*
X410037Y339600D01*
X364064Y408483D02*
Y450129D01*
X369464Y410720D02*
X418884Y361300D01*
X365864Y409229D02*
X417393Y357700D01*
X349400Y402782D02*
X410782Y341400D01*
X410037Y339600D02*
X649065D01*
X353000Y404274D02*
X412174Y345100D01*
X345800Y401291D02*
Y442937D01*
X351200Y403528D02*
X411428Y343300D01*
X351200Y403528D02*
Y445173D01*
X345800Y401291D02*
X409291Y337800D01*
X347600Y402037D02*
Y443682D01*
X362200Y407801D02*
X415901Y354100D01*
X369464Y410720D02*
Y452365D01*
X413665Y348700D02*
X506431D01*
X409291Y337800D02*
X648320D01*
X418884Y361300D02*
X657912D01*
X354800Y405019D02*
Y446664D01*
X412919Y346900D02*
X505685D01*
X415901Y354100D02*
X508667D01*
X354800Y405019D02*
X412919Y346900D01*
X417393Y357700D02*
X510158D01*
X367664Y409974D02*
X418138Y359500D01*
X358400Y406510D02*
X414410Y350500D01*
X407800Y334200D02*
X646506D01*
X411428Y343300D02*
X504194D01*
X344000Y400546D02*
Y442191D01*
X365864Y409229D02*
Y450874D01*
X416647Y355900D02*
X509413D01*
X408546Y336000D02*
X647500D01*
X360200Y407256D02*
X415156Y352300D01*
X360200Y407256D02*
Y448901D01*
X367664Y409974D02*
Y451620D01*
X358400Y406510D02*
Y448156D01*
X342200Y399800D02*
X407800Y334200D01*
X414410Y350500D02*
X507176D01*
X410782Y341400D02*
X649811D01*
X342200Y399800D02*
Y441317D01*
X356600Y405765D02*
X413665Y348700D01*
X356600Y405765D02*
Y447410D01*
X344000Y400546D02*
X408546Y336000D01*
X364064Y408483D02*
X416647Y355900D01*
X415156Y352300D02*
X507922D01*
X412174Y345100D02*
X504940D01*
X353000Y404274D02*
Y445919D01*
X383986Y446859D02*
Y524951D01*
X383285Y443927D02*
Y446158D01*
X383986Y446859D01*
X383017Y443659D02*
X383285Y443927D01*
X386702Y442531D02*
Y442802D01*
X385954Y443549D02*
X386702Y442802D01*
X385954Y443549D02*
Y524951D01*
X383386Y548942D02*
X383886Y549442D01*
X380700Y548942D02*
X383386D01*
X383886Y549442D02*
X388550D01*
X380686Y548928D02*
X380700Y548942D01*
X385989Y557269D02*
Y562706D01*
X386154Y562872D01*
X391860Y492121D02*
Y492377D01*
Y496912D02*
Y524951D01*
Y496912D02*
X393736Y495036D01*
Y494969D02*
Y495036D01*
X389891Y494346D02*
X391860Y492377D01*
X387923Y491775D02*
X390477Y489221D01*
X389891Y494346D02*
Y524951D01*
X387923Y491775D02*
Y524951D01*
X127900Y469600D02*
X130647Y466853D01*
Y437283D02*
Y466853D01*
X367116Y542077D02*
X374734D01*
X366582Y542611D02*
X367116Y542077D01*
X366203Y542611D02*
X366582D01*
X363328Y537342D02*
X364885D01*
X363060Y537074D02*
X363328Y537342D01*
X364885D02*
X365684Y538140D01*
X374734D01*
X364304Y534038D02*
Y534215D01*
X366261Y536172D01*
X368968Y534203D02*
X374734D01*
X364917Y530153D02*
X368968Y534203D01*
X368084Y527714D02*
Y528093D01*
X369289Y529298D01*
Y530153D01*
X841096Y152541D02*
X868800D01*
X369289Y530153D02*
X371337Y532200D01*
X374699D01*
X374734Y532235D01*
X372576Y527319D02*
Y530183D01*
X372660Y530266D02*
X374734D01*
X370600Y525343D02*
X372576Y527319D01*
Y530183D02*
X372660Y530266D01*
X365372Y547289D02*
X368134D01*
X364394Y545111D02*
X367239D01*
X363490Y546014D02*
X364394Y545111D01*
X363441Y549220D02*
X365372Y547289D01*
X363111Y546014D02*
X363490D01*
X363222Y549220D02*
X363441D01*
X368304Y544046D02*
X374734D01*
X366922Y549718D02*
X368251D01*
X367239Y545111D02*
X368304Y544046D01*
X369409Y546014D02*
X374734D01*
X369986Y547983D02*
X374734D01*
X368134Y547289D02*
X369409Y546014D01*
X368251Y549718D02*
X369986Y547983D01*
X366654Y549986D02*
X366922Y549718D01*
X368126Y553197D02*
Y554788D01*
X367940Y554973D02*
X368126Y554788D01*
X383654Y564736D02*
X383958Y565039D01*
X383654Y561882D02*
Y564736D01*
X383958Y565039D02*
Y565418D01*
X385954Y557235D02*
X385989Y557269D01*
X381154Y563109D02*
X381391Y562872D01*
X383951Y557269D02*
Y561585D01*
X383654Y561882D02*
X383951Y561585D01*
X381391Y561224D02*
Y562872D01*
X673522Y435974D02*
Y441232D01*
X300884Y461469D02*
X304824D01*
X299273Y465626D02*
X301461Y463438D01*
X304824D01*
X296869Y456953D02*
X297541Y456281D01*
X298255Y461553D02*
X299927Y459881D01*
X299273Y465626D02*
Y468600D01*
X298457Y456281D02*
X299209Y455529D01*
X299181Y458081D02*
X299229D01*
X298401Y458861D02*
X299181Y458081D01*
X297541Y456281D02*
X298457D01*
X299927Y459881D02*
X299975D01*
X296300Y466054D02*
X300884Y461469D01*
X296602Y456953D02*
X296869D01*
X295741Y457813D02*
X296602Y456953D01*
X298632Y453560D02*
X304858D01*
X295127Y451514D02*
X301995D01*
X292935Y452098D02*
X294543D01*
X295127Y451514D01*
X298060Y454132D02*
X298632Y453560D01*
X296044Y454132D02*
X298060D01*
X295776Y454400D02*
X296044Y454132D01*
X292667Y452365D02*
X292935Y452098D01*
X294135Y449623D02*
X304858D01*
X292288Y448156D02*
X292667D01*
X294135Y449623D01*
X294684Y460581D02*
X295518D01*
X294140Y457813D02*
X295741D01*
X295518Y460581D02*
X297238Y458861D01*
X293872Y458081D02*
X294140Y457813D01*
X293592Y461673D02*
X294684Y460581D01*
X293213Y461673D02*
X293592D01*
X297238Y458861D02*
X298401D01*
X293872Y465446D02*
X297766Y461553D01*
X293856Y465446D02*
X293872D01*
X297766Y461553D02*
X298255D01*
X296300Y466054D02*
Y467525D01*
X296032Y467793D02*
X296300Y467525D01*
X654818Y500736D02*
X665960D01*
X305800Y472500D02*
X307613Y470686D01*
X665960Y500736D02*
X668006Y502783D01*
X670469Y500736D02*
X670506D01*
X304858Y465372D02*
Y467793D01*
X668578Y498846D02*
X670469Y500736D01*
X304407Y468244D02*
Y468600D01*
X317399Y476855D02*
Y477126D01*
X316079Y475535D02*
X317399Y476855D01*
X304407Y468244D02*
X304858Y467793D01*
X295467Y447106D02*
X295684Y447322D01*
X297677D01*
X297869Y447515D02*
X298996D01*
X297677Y447322D02*
X297869Y447515D01*
X298721Y442068D02*
X300110Y443458D01*
X298721Y441690D02*
Y442068D01*
X300110Y443458D02*
Y443718D01*
X297035Y444135D02*
X298587Y445686D01*
X304858D01*
X296656Y444135D02*
X297035D01*
X300110Y443718D02*
X304858D01*
X320016Y470686D02*
Y515333D01*
X308569Y526780D02*
X320016Y515333D01*
X316079Y470686D02*
Y475535D01*
X313993Y478835D02*
X314075Y478752D01*
Y470721D02*
Y478752D01*
Y470721D02*
X314110Y470686D01*
X680231Y485598D02*
X684077D01*
X678794Y487035D02*
X680231Y485598D01*
X652505Y487035D02*
X678794D01*
X682065Y449868D02*
X682195D01*
X678583Y449912D02*
X681803Y446693D01*
X675023Y449912D02*
X678583D01*
X680221Y451712D02*
X682065Y449868D01*
X675769Y451712D02*
X680221D01*
X678380Y466355D02*
X678635Y466100D01*
X668115Y475313D02*
X677072Y466355D01*
X678380D01*
X666254Y473333D02*
X676269Y463317D01*
X681204D02*
X681472Y463049D01*
X676269Y463317D02*
X681204D01*
X655613Y475313D02*
X668115D01*
X677141Y459900D02*
X680818D01*
X665754Y471287D02*
X677141Y459900D01*
X652505Y471287D02*
X665754D01*
X652505Y469318D02*
X665177D01*
X677783Y456712D02*
X682676D01*
X665177Y469318D02*
X677783Y456712D01*
X655191Y473333D02*
X666254D01*
X682676Y456712D02*
X682939Y456449D01*
X676840Y454130D02*
X680242D01*
X680324Y454212D01*
X663620Y467350D02*
X676840Y454130D01*
X660946Y461444D02*
X674277Y448112D01*
X662100Y465381D02*
X675769Y451712D01*
X661523Y463413D02*
X675023Y449912D01*
X676112Y448112D02*
X681600Y442624D01*
X674277Y448112D02*
X676112D01*
X652505Y467350D02*
X663620D01*
X675829Y438655D02*
Y441470D01*
X677629Y441673D02*
X678756Y440546D01*
X653464Y445618D02*
X656407D01*
X659240Y455513D02*
X673522Y441232D01*
X656980Y447591D02*
X662031Y442540D01*
X653213Y451602D02*
X658060D01*
X653400Y449633D02*
X657483D01*
X677629Y441673D02*
Y442216D01*
X653478Y461444D02*
X660946D01*
X670441Y438716D02*
Y441766D01*
X662031Y438387D02*
Y442540D01*
X653224Y459476D02*
X660369D01*
X677629Y442216D01*
X652505Y463413D02*
X661523D01*
X654434Y447591D02*
X656980D01*
X656407Y445618D02*
X659120Y442906D01*
X658715Y453492D02*
X670441Y441766D01*
X659869Y457429D02*
X675829Y441470D01*
X668006Y436843D02*
Y441656D01*
X658060Y451602D02*
X668006Y441656D01*
X664866Y439383D02*
Y442250D01*
X659120Y436674D02*
Y442906D01*
X657483Y449633D02*
X664866Y442250D01*
X678756Y440167D02*
Y440546D01*
X654890Y457429D02*
X659869D01*
X654624Y453492D02*
X658715D01*
X653400Y465381D02*
X662100D01*
X654818Y455513D02*
X659240D01*
X679053Y477202D02*
X681826D01*
X679695Y474014D02*
X684368D01*
X652505Y479114D02*
X674595D01*
X673950Y477114D02*
X679509Y471555D01*
X681567D01*
X675126Y481129D02*
X679053Y477202D01*
X681567Y471555D02*
X681835Y471287D01*
X674595Y479114D02*
X679695Y474014D01*
X652505Y481129D02*
X675126D01*
X655204Y477114D02*
X673950D01*
X681826Y477202D02*
X681835Y477192D01*
X758900Y316134D02*
X775724D01*
X758484D02*
X758900D01*
X840519Y150573D02*
X868800D01*
X651717Y483098D02*
X652505D01*
X679952Y479953D02*
X683832D01*
X684100Y480221D01*
X676807Y483098D02*
X679952Y479953D01*
X677820Y485066D02*
X679521Y483365D01*
X681567D02*
X681835Y483098D01*
X684077Y485598D02*
X684100Y485621D01*
X679521Y483365D02*
X681567D01*
X680064Y491655D02*
X680442D01*
X652505Y490972D02*
X679380D01*
X680064Y491655D01*
X675470Y493712D02*
X677631D01*
X677898Y493980D01*
X652505Y492940D02*
X674698D01*
X675470Y493712D01*
X675450Y496421D02*
X675829D01*
X673938Y494909D02*
X675450Y496421D01*
X652505Y494909D02*
X673938D01*
X670958Y496877D02*
X672768Y498688D01*
X652505Y496877D02*
X670958D01*
X672768Y498688D02*
X672965D01*
X653400Y498914D02*
X653469Y498846D01*
X668578D01*
X663443Y507441D02*
Y507569D01*
X654818Y502806D02*
X663195D01*
X665856Y505467D01*
X660776Y504775D02*
X663443Y507441D01*
X654818Y504775D02*
X660776D01*
X658458Y506821D02*
X660382Y508745D01*
X653400Y506821D02*
X658458D01*
X675829Y438655D02*
X676096Y438387D01*
X670441Y438716D02*
X670506Y438651D01*
X653386Y445696D02*
X653464Y445618D01*
X664866Y439383D02*
X665115Y439134D01*
X654317Y447708D02*
X654434Y447591D01*
X667837Y436674D02*
X668006Y436843D01*
X662009Y438365D02*
X662031Y438387D01*
X770003Y242965D02*
Y249612D01*
X767924Y238207D02*
Y249146D01*
X829800Y168928D02*
Y278123D01*
X787425Y312285D02*
X793092D01*
X833400Y170420D02*
Y279614D01*
X831600Y169674D02*
Y278869D01*
X828000Y168182D02*
Y277378D01*
X785686Y319087D02*
X791382D01*
X787772Y316134D02*
X791789D01*
X786779Y312931D02*
X787102Y312608D01*
X795908Y304379D02*
X824400Y275887D01*
X787102Y312608D02*
X787425Y312285D01*
X788597Y321373D02*
X791641D01*
X786333Y302579D02*
X795162D01*
X789665Y304379D02*
X795908D01*
X822600Y165946D02*
Y275141D01*
X784702Y316134D02*
X787772D01*
X791641Y321373D02*
X833400Y279614D01*
X787741Y308778D02*
X794054D01*
X791382Y319087D02*
X831600Y278869D01*
X826200Y167437D02*
Y276632D01*
X791789Y316134D02*
X829800Y278123D01*
X795162Y302579D02*
X822600Y275141D01*
X794054Y308778D02*
X826200Y276632D01*
X793092Y312285D02*
X828000Y277378D01*
X785890Y324500D02*
X791221D01*
X789087Y342339D02*
X795749Y335676D01*
X776902Y344381D02*
X789590D01*
X771357Y347981D02*
X791197D01*
X857137Y186817D02*
Y289678D01*
X768375Y355181D02*
X794179D01*
X767629Y356981D02*
X794925D01*
X766138Y360581D02*
X796416D01*
X838800Y172656D02*
Y282443D01*
X837000Y171911D02*
Y281698D01*
X788435Y337900D02*
X842400Y283934D01*
X773005Y346181D02*
X790451D01*
X840600Y173402D02*
Y283189D01*
X765393Y362381D02*
X797162D01*
X851400Y183200D02*
Y287778D01*
X862706Y192700D02*
Y291746D01*
X792688Y351581D02*
X855337Y288932D01*
X794179Y355181D02*
X858937Y290423D01*
X790838Y330405D02*
X838800Y282443D01*
X791698Y327000D02*
X836414Y282284D01*
X791943Y349781D02*
X853537Y288187D01*
X680505Y359441D02*
X764998D01*
X796416Y360581D02*
X864700Y292297D01*
X847800Y178469D02*
Y286171D01*
X789938Y333850D02*
X840600Y283189D01*
X858937Y189880D02*
Y290423D01*
X771580Y344946D02*
X771770D01*
X795670Y358781D02*
X862706Y291746D01*
X778797Y341653D02*
X778982Y341839D01*
X836414Y282284D02*
X836414D01*
X866500Y212714D02*
Y293043D01*
X853537Y184283D02*
Y288187D01*
X788680Y340200D02*
X844200Y284680D01*
X789590Y344381D02*
X847800Y286171D01*
X864700Y195488D02*
Y292297D01*
X769866Y351581D02*
X792688D01*
X678179Y351567D02*
X767307D01*
X846000Y176909D02*
Y285426D01*
X791221Y324500D02*
X835200Y280521D01*
X794925Y356981D02*
X860905Y291000D01*
X681082Y361409D02*
X764421D01*
X770612Y349781D02*
X791943D01*
X795749Y335676D02*
Y335676D01*
X766884Y358781D02*
X795670D01*
X855337Y185942D02*
Y288932D01*
X791197Y347981D02*
X851400Y287778D01*
X835200Y171165D02*
Y280521D01*
X842400Y174147D02*
Y283934D01*
X679333Y355504D02*
X766152D01*
X849600Y182069D02*
Y287032D01*
X769121Y353381D02*
X793434D01*
X790451Y346181D02*
X849600Y287032D01*
X677602Y349598D02*
X767884D01*
X678756Y353535D02*
X766729D01*
X758900Y333850D02*
X789938D01*
X793434Y353381D02*
X857137Y289678D01*
X836414Y282284D02*
X837000Y281698D01*
X795749Y335676D02*
X846000Y285426D01*
X676674Y347630D02*
X768461D01*
X797162Y362381D02*
X866500Y293043D01*
X860905Y191206D02*
Y291000D01*
X844200Y176163D02*
Y284680D01*
X775722Y343201D02*
X776902Y344381D01*
X774964Y343201D02*
X775722D01*
X761051Y341647D02*
X773410D01*
X774964Y343201D01*
X771770Y344946D02*
X773005Y346181D01*
X771340Y344807D02*
X771719D01*
X770226Y343693D02*
X771340Y344807D01*
X759633Y343693D02*
X770226D01*
X778982Y341839D02*
X781497D01*
X766152Y355504D02*
X767629Y356981D01*
X766729Y353535D02*
X768375Y355181D01*
X758900Y345661D02*
X769038D01*
X771357Y347981D01*
X765575Y357472D02*
X766884Y358781D01*
X764421Y361409D02*
X765393Y362381D01*
X764998Y359441D02*
X766138Y360581D01*
X768461Y347630D02*
X770612Y349781D01*
X767307Y351567D02*
X769121Y353381D01*
X760947Y357472D02*
X765575D01*
X767884Y349598D02*
X769866Y351581D01*
X781497Y341839D02*
X781997Y342339D01*
X789087D01*
X776711Y339678D02*
X778797Y341764D01*
X761051Y339678D02*
X776711D01*
X785812Y340200D02*
X788680D01*
X784876Y339264D02*
X785812Y340200D01*
X758900Y337787D02*
X779774D01*
X781250Y339264D01*
X784876D01*
X786070Y337900D02*
X788435D01*
X784481Y336311D02*
X786070Y337900D01*
X784141Y336311D02*
X784481D01*
X758900Y335819D02*
X783231D01*
X783763Y336350D02*
X784141D01*
X783231Y335819D02*
X783763Y336350D01*
X758900Y331882D02*
X784210D01*
X785686Y330405D01*
X758900Y327945D02*
X782445D01*
X785890Y324500D01*
X758900Y329913D02*
X783022D01*
X785668Y327268D01*
X785686Y330405D02*
X790838D01*
X785668Y327268D02*
X788003D01*
X788271Y327000D01*
X785229Y312931D02*
X786779D01*
X788470Y327000D02*
X791698D01*
X784284Y320200D02*
X784573D01*
X788414Y321596D02*
X788423Y321587D01*
X785319Y322000D02*
X785723Y321596D01*
X758900Y325976D02*
X781053D01*
X780476Y324008D02*
X784284Y320200D01*
X758900Y324008D02*
X780476D01*
X785723Y321596D02*
X788414D01*
X784573Y320200D02*
X785686Y319087D01*
X781053Y325976D02*
X785030Y322000D01*
X785319D01*
X788423Y321547D02*
X788597Y321373D01*
X788423Y321547D02*
Y321587D01*
X778797Y322039D02*
X784702Y316134D01*
X758900Y322039D02*
X778797D01*
X824400Y166691D02*
Y275887D01*
X774747Y314165D02*
X786047Y302865D01*
X785130Y309273D02*
X787246D01*
X776301Y318102D02*
X785130Y309273D01*
X787246D02*
X787514Y309006D01*
X785724Y306133D02*
X786630D01*
X786047Y302781D02*
Y302865D01*
X786630Y306133D02*
X786898Y305865D01*
X775724Y316134D02*
X785724Y306133D01*
X786779Y312285D02*
Y312931D01*
X787008Y305933D02*
X787290D01*
X788844Y304379D01*
X789665D01*
X778089Y320071D02*
X785229Y312931D01*
X758900Y318102D02*
X776301D01*
X758900Y320071D02*
X778089D01*
X760869Y314165D02*
X774747D01*
X758837Y274795D02*
X775696D01*
X786760Y263731D01*
X760177Y270858D02*
X772475D01*
X787347Y259609D02*
X787583D01*
X789546Y257646D02*
X790112D01*
X774129Y272827D02*
X787347Y259609D01*
X790112Y257646D02*
X797200Y250558D01*
X787583Y259609D02*
X789546Y257646D01*
X772475Y270858D02*
X787731Y255602D01*
X788054D01*
X788322Y255334D01*
X771231Y268890D02*
X787018Y253102D01*
X787489D02*
X788163Y252428D01*
X788322Y255334D02*
X789735D01*
X795400Y249670D01*
X759281Y268890D02*
X771231D01*
X788163Y252428D02*
X788678D01*
X787018Y253102D02*
X787489D01*
X778391Y278732D02*
X785672Y271452D01*
X777761Y276764D02*
X800800Y253724D01*
X758900Y278732D02*
X778391D01*
X760750Y280701D02*
X781146D01*
X800800Y157199D02*
Y253724D01*
X759281Y276764D02*
X777761D01*
X781146Y280701D02*
X804400Y257447D01*
X833594Y126950D02*
X868800D01*
X802600Y157944D02*
Y255567D01*
X786715Y271452D02*
X802600Y255567D01*
X804400Y158690D02*
Y257447D01*
X785874Y292512D02*
X815400Y262986D01*
Y162963D02*
Y262986D01*
X811600Y161672D02*
Y261695D01*
X784143Y286606D02*
X809800Y260949D01*
X817200Y163709D02*
Y263732D01*
X758900Y296449D02*
X787028D01*
X785297Y290543D02*
X813600Y262241D01*
X758900Y298417D02*
X787605D01*
X809800Y160926D02*
Y260949D01*
X813600Y162218D02*
Y262241D01*
X783566Y284638D02*
X808000Y260204D01*
X820800Y165200D02*
Y265223D01*
X808000Y160181D02*
Y260204D01*
X819000Y164454D02*
Y264477D01*
X786451Y294480D02*
X817200Y263732D01*
X787605Y298417D02*
X820800Y265223D01*
X758900Y284638D02*
X783566D01*
X806200Y159435D02*
Y259458D01*
X758900Y288575D02*
X784720D01*
X758900Y282669D02*
X782989D01*
X758900Y292512D02*
X785874D01*
X782989Y282669D02*
X806200Y259458D01*
X758900Y286606D02*
X784143D01*
X758900Y294480D02*
X786451D01*
X758900Y290543D02*
X785297D01*
X784720Y288575D02*
X811600Y261695D01*
X787028Y296449D02*
X819000Y264477D01*
X795400Y154962D02*
Y249670D01*
X797200Y155708D02*
Y250558D01*
X799000Y156453D02*
Y251445D01*
X786855Y263590D02*
X799000Y251445D01*
X759923Y264875D02*
X770014D01*
X760177Y266843D02*
X770591D01*
X788709Y248492D02*
Y248725D01*
X788678Y252428D02*
X793600Y247506D01*
X770014Y264875D02*
X785445Y249444D01*
Y246971D02*
Y249444D01*
X770591Y266843D02*
X788709Y248725D01*
X788680Y248713D02*
X788894D01*
X791800Y245807D01*
X785672Y246744D02*
X785940Y246476D01*
X786694D02*
X789981Y243189D01*
X785940Y246476D02*
X786694D01*
X793600Y205808D02*
Y247506D01*
X789981Y152744D02*
Y243189D01*
X783145Y244596D02*
X783993Y243748D01*
Y243370D02*
Y243748D01*
X783145Y244596D02*
Y249198D01*
X768808Y260990D02*
X779943Y249854D01*
X778143Y239895D02*
X778183Y239854D01*
X779943Y242359D02*
Y249854D01*
Y242359D02*
X781494Y240808D01*
X778143Y239895D02*
Y249109D01*
X768283Y258969D02*
X778143Y249109D01*
X781629Y240673D02*
X786381Y235921D01*
X781629Y240673D02*
Y240808D01*
X783934Y241352D02*
Y243310D01*
X783993Y243370D01*
X786381Y151253D02*
Y235921D01*
X776694Y158394D02*
Y237986D01*
X778183Y239475D01*
Y239854D01*
X791781Y153490D02*
Y235581D01*
X791800Y235600D01*
Y245807D01*
X783934Y241352D02*
X788181Y237105D01*
X766430Y253185D02*
X770003Y249612D01*
Y242965D02*
X770171Y242797D01*
X765896Y251173D02*
X767924Y249146D01*
Y238207D02*
X768091Y238040D01*
X772939Y157059D02*
Y241482D01*
X772771Y241649D02*
Y243732D01*
X770171Y240714D02*
X770439Y240446D01*
X772771Y241649D02*
X772939Y241482D01*
X770171Y240714D02*
Y242797D01*
X772503Y244000D02*
X772771Y243732D01*
X770591Y156861D02*
Y240446D01*
Y156861D02*
X826092Y101360D01*
X768103Y156803D02*
Y238030D01*
X160929Y124497D02*
X167854D01*
X169595Y126466D02*
X172153Y129025D01*
X167854Y124497D02*
X168185Y124166D01*
X160929Y126466D02*
X169595D01*
X166740Y130403D02*
X167626Y129517D01*
X160929Y130403D02*
X166740D01*
X298996Y447515D02*
X299137Y447655D01*
X304858D01*
X261479Y82244D02*
X263449Y84214D01*
X306132Y536779D02*
X306424D01*
X305503Y537409D02*
X306132Y536779D01*
X305503Y537409D02*
Y538875D01*
X308447Y541819D01*
X308837Y541487D02*
Y541819D01*
Y541487D02*
X315333Y534990D01*
X308447Y541819D02*
X308837D01*
X315333Y534203D02*
Y534990D01*
X305481Y526780D02*
X308569D01*
X304851Y527409D02*
X305481Y526780D01*
X304851Y527409D02*
Y530559D01*
X306424Y515393D02*
Y521779D01*
X276621Y485590D02*
X306424Y515393D01*
X287527Y526780D02*
X294939D01*
X287527Y531959D02*
X292288D01*
X274799Y525343D02*
X275609Y526153D01*
X278567D01*
X284194Y531779D02*
X287527D01*
X278567Y526153D02*
X284194Y531779D01*
X287527Y517969D02*
Y521779D01*
X287162D02*
X287527D01*
X286532Y522409D02*
X287162Y521779D01*
X310280Y549951D02*
X314152D01*
X292288Y531959D02*
X310280Y549951D01*
X271741Y533118D02*
X274799D01*
X275291Y533216D02*
X277653Y535579D01*
X283110D02*
X284311Y536779D01*
X290199D02*
Y553768D01*
X274799Y533216D02*
X275291D01*
X284311Y536779D02*
X290199D01*
X277653Y535579D02*
X283110D01*
X346865Y182044D02*
X348406Y180502D01*
X363713D01*
X357763Y175070D02*
X359956Y177262D01*
X364408D01*
X324756Y182044D02*
X346865D01*
X278900Y227900D02*
X324756Y182044D01*
X363713Y180502D02*
X367993Y176223D01*
X364408Y177262D02*
X365433Y176237D01*
X376194Y48312D02*
X405328D01*
X352432Y72075D02*
X376194Y48312D01*
X270557Y84061D02*
X276500D01*
X270404Y84214D02*
X270557Y84061D01*
X267845Y68463D02*
X270404D01*
X267845D02*
X267982Y68326D01*
Y64389D02*
Y68326D01*
Y64389D02*
X269100Y63271D01*
Y63000D02*
Y63271D01*
X424929Y265231D02*
X429076Y269379D01*
Y276852D01*
X379267Y277890D02*
X382280D01*
X382613Y277558D01*
X376315Y278476D02*
X378681D01*
X379267Y277890D01*
X375970Y278821D02*
X376315Y278476D01*
X371377Y278821D02*
X375970D01*
X371791Y70930D02*
X376194D01*
X371654Y70794D02*
X371791Y70930D01*
X376465D02*
X377405Y69990D01*
X379757D02*
X381128Y68620D01*
X377405Y69990D02*
X379757D01*
X376194Y70930D02*
X376465D01*
X380049Y524951D02*
X382017D01*
X378264Y520509D02*
X380049Y522294D01*
Y524951D01*
X378264Y519964D02*
Y520509D01*
X377920Y519620D02*
X378264Y519964D01*
X305350Y438403D02*
X312142D01*
X321239Y534203D02*
X321272Y534170D01*
X327924D01*
X363509Y300077D02*
Y300939D01*
X359697Y303963D02*
X360484D01*
X363509Y300939D01*
Y300077D02*
X363700Y299885D01*
Y294572D02*
Y299885D01*
X363713Y92800D02*
X363845Y92668D01*
Y86677D02*
X363977Y86545D01*
X363845Y86677D02*
Y92668D01*
X360183Y96689D02*
X360970D01*
X363522Y94137D01*
Y92991D02*
Y94137D01*
Y92991D02*
X363713Y92800D01*
X363011Y188851D02*
Y193582D01*
X362563Y194030D02*
X363011Y193582D01*
X362563Y194030D02*
Y194301D01*
X361374Y196838D02*
X362372Y195840D01*
X359217Y198995D02*
X360004D01*
X361374Y197625D01*
Y196838D02*
Y197625D01*
X362372Y194492D02*
Y195840D01*
Y194492D02*
X362563Y194301D01*
X374968Y173100D02*
X380035D01*
X381128Y172007D01*
X370689Y173100D02*
X374968D01*
X290412Y67400D02*
X294500D01*
X290312Y67300D02*
X290412Y67400D01*
X264598Y36611D02*
Y42950D01*
X263841Y113672D02*
Y119400D01*
X240441Y82244D02*
X244863D01*
X160585Y93808D02*
X165159D01*
X160585Y93808D02*
X160585Y93808D01*
X647006Y434291D02*
X650536Y437822D01*
X652505D01*
X646091Y434291D02*
X647006D01*
X645900Y434100D02*
X646091Y434291D01*
X640271Y443000D02*
X640998Y443728D01*
X640000Y443000D02*
X640271D01*
X642020Y439909D02*
X643870Y441759D01*
X652505D01*
X640998Y443728D02*
X652505D01*
X646643Y439791D02*
X652505D01*
X643870Y437018D02*
X646643Y439791D01*
X708560Y99620D02*
X758900Y149960D01*
Y239362D01*
X634600Y90722D02*
X678078D01*
X631352D02*
X634600D01*
X755802Y241253D02*
X757086D01*
X755041Y240491D02*
X755802Y241253D01*
X757164Y241331D02*
X758900D01*
X757086Y241253D02*
X757164Y241331D01*
X755041Y202086D02*
Y240491D01*
X681078Y128123D02*
X755041Y202086D01*
X651000Y152183D02*
X723684Y79500D01*
X729300D01*
X728833Y59967D02*
Y63953D01*
X729300Y59500D02*
X781394D01*
X640852Y137948D02*
X729300Y49500D01*
X728833Y59967D02*
X729300Y59500D01*
X869222Y95391D02*
X869300Y95469D01*
X868800Y95391D02*
X869222D01*
X729300Y49500D02*
X783520D01*
X651000Y248800D02*
Y287900D01*
X640852Y137948D02*
Y140738D01*
X647400Y145386D02*
X728833Y63953D01*
X634600Y143742D02*
X637848D01*
X649200Y149600D02*
X729300Y69500D01*
X631352Y143742D02*
X634600D01*
X651000Y152183D02*
Y248800D01*
X649200Y149600D02*
Y238428D01*
X729300Y69500D02*
X779268D01*
X647400Y145386D02*
Y187209D01*
X654826Y153493D02*
X744632Y243299D01*
X758900D01*
X640852Y246777D02*
X649200Y238428D01*
X637848Y196762D02*
X647400Y187209D01*
X655874Y195308D02*
X705834Y245268D01*
X758900D01*
X634600Y196762D02*
X637848D01*
X634600Y195308D02*
Y196762D01*
Y184454D02*
Y195308D01*
Y249782D02*
X637848D01*
X631352D02*
X634600D01*
X655874Y247236D02*
X758900D01*
X654722Y246084D02*
X655874Y247236D01*
X654451Y246084D02*
X654722D01*
X651000Y248800D02*
X651405Y249205D01*
X758900D01*
X810220Y30315D02*
X867422Y87517D01*
X788925Y30315D02*
X810220D01*
X867422Y87517D02*
X868800D01*
X804395Y38189D02*
X855692Y89486D01*
X868800D01*
X788925Y38189D02*
X804395D01*
X852778Y91454D02*
X868800D01*
X788925Y46063D02*
X807387D01*
X852778Y91454D01*
X849787Y93423D02*
X868800D01*
X810301Y53937D02*
X849787Y93423D01*
X788925Y53937D02*
X810301D01*
X846873Y95391D02*
X868800D01*
X788925Y61811D02*
X813293D01*
X846873Y95391D01*
X788925Y69685D02*
X790894D01*
X818569Y97360D02*
X868800D01*
X790894Y69685D02*
X818569Y97360D01*
X721098Y37701D02*
X729300Y29500D01*
X788110D02*
X788925Y30315D01*
X729300Y29500D02*
X788110D01*
X787614Y39500D02*
X788925Y38189D01*
X729300Y39500D02*
X787614D01*
X783520Y49500D02*
X786957Y46063D01*
X788925D01*
X781394Y59500D02*
X786957Y53937D01*
X788925D01*
X779268Y69500D02*
X786957Y61811D01*
X788925D01*
X730179Y78621D02*
X778020D01*
X786957Y69685D01*
X788925D01*
X729300Y79500D02*
X730179Y78621D01*
X637848Y143742D02*
X640852Y140738D01*
X640517Y298383D02*
X651000Y287900D01*
X637513Y302801D02*
X640517Y299798D01*
Y298383D02*
Y299798D01*
X631352Y302801D02*
X637513D01*
X640852Y246777D02*
Y246778D01*
X637848Y249782D02*
X640852Y246778D01*
X678078Y90722D02*
X729300Y39500D01*
X634600Y37701D02*
X721098D01*
X866500Y212714D02*
X872069Y207146D01*
Y196625D02*
Y207146D01*
X871307Y195863D02*
X872069Y196625D01*
X868878Y195863D02*
X871307D01*
X868800Y195785D02*
X868878Y195863D01*
X866293Y193895D02*
X869817D01*
X864700Y195488D02*
X866293Y193895D01*
X862706Y192700D02*
X863558Y191848D01*
X868800D01*
X825578Y99328D02*
X869973D01*
X768103Y156803D02*
X825578Y99328D01*
X826092Y101360D02*
X867922D01*
X772939Y157059D02*
X826732Y103265D01*
X869651D01*
X827246Y105297D02*
X868800D01*
X827886Y107202D02*
X868009D01*
X776694Y158394D02*
X827886Y107202D01*
X828463Y109171D02*
X869621D01*
X786381Y151253D02*
X828463Y109171D01*
X828977Y111202D02*
X868800D01*
X829554Y113171D02*
X868800D01*
X830131Y115139D02*
X868800D01*
X758772Y272827D02*
X774129D01*
X831835Y121072D02*
X866633D01*
X797200Y155708D02*
X831835Y121072D01*
X799000Y156453D02*
X832581Y122872D01*
X869129D01*
X866265Y118908D02*
X866293Y118935D01*
X831454Y118908D02*
X866265D01*
X866293Y118935D02*
X868659D01*
X795400Y154962D02*
X831454Y118908D01*
X868659Y118935D02*
X868800Y119076D01*
X833017Y124982D02*
X868800D01*
X834171Y128919D02*
X868800D01*
X834748Y130887D02*
X868800D01*
X835325Y132856D02*
X868800D01*
X837056Y138761D02*
X868800D01*
X839365Y146635D02*
X868800D01*
X839942Y148604D02*
X868800D01*
X841673Y154509D02*
X868800D01*
X842250Y156478D02*
X868800D01*
X842828Y158447D02*
X868800D01*
X843405Y160415D02*
X868800D01*
X843982Y162383D02*
X869577D01*
X844559Y164352D02*
X868800D01*
X845136Y166321D02*
X868800D01*
X845713Y168289D02*
X868800D01*
X846290Y170257D02*
X868800D01*
X848137Y172226D02*
X868800D01*
X848714Y174195D02*
X868800D01*
X850105Y176163D02*
X868800D01*
X853537Y178131D02*
X868800D01*
X855736Y182083D02*
X868800D01*
X800800Y157199D02*
X833017Y124982D01*
X830708Y117108D02*
X869577D01*
X862232Y189880D02*
X869577D01*
X860905Y191206D02*
X862232Y189880D01*
X860905Y187911D02*
X868800D01*
X858937Y189880D02*
X860905Y187911D01*
X858011Y185942D02*
X868800D01*
X857137Y186817D02*
X858011Y185942D01*
X857306Y183974D02*
X868800D01*
X855337Y185942D02*
X857306Y183974D01*
X853537Y184283D02*
X855736Y182083D01*
X851400Y183200D02*
X854563Y180037D01*
X868800D01*
X652505Y483098D02*
X676807D01*
X838850Y144604D02*
X866759D01*
X819000Y164454D02*
X838850Y144604D01*
X838210Y142698D02*
X867100D01*
X837633Y140730D02*
X867100D01*
X836479Y136793D02*
X867100D01*
X835902Y134824D02*
X867100D01*
X849600Y182069D02*
X853537Y178131D01*
X847800Y178469D02*
X850105Y176163D01*
X846000Y176909D02*
X848714Y174195D01*
X844200Y176163D02*
X848137Y172226D01*
X842400Y174147D02*
X846290Y170257D01*
X840600Y173402D02*
X845713Y168289D01*
X838800Y172656D02*
X845136Y166321D01*
X837000Y171911D02*
X844559Y164352D01*
X835200Y171165D02*
X843982Y162383D01*
X833400Y170420D02*
X843405Y160415D01*
X831600Y169674D02*
X842828Y158447D01*
X829800Y168928D02*
X842250Y156478D01*
X828000Y168182D02*
X841673Y154509D01*
X815400Y162963D02*
X837633Y140730D01*
X791781Y153490D02*
X830131Y115139D01*
X793581Y154235D02*
X830708Y117108D01*
X804400Y158690D02*
X834171Y128919D01*
X809800Y160926D02*
X835902Y134824D01*
X813600Y162218D02*
X837056Y138761D01*
X826200Y167437D02*
X841096Y152541D01*
X788181Y151998D02*
X828977Y111202D01*
X820800Y165200D02*
X839365Y146635D01*
X822600Y165946D02*
X839942Y148604D01*
X811600Y161672D02*
X836479Y136793D01*
X824400Y166691D02*
X840519Y150573D01*
X808000Y160181D02*
X835325Y132856D01*
X788181Y151998D02*
Y237105D01*
X817200Y163709D02*
X838210Y142698D01*
X774895Y157648D02*
X827246Y105297D01*
X793581Y154235D02*
Y205789D01*
X806200Y159435D02*
X834748Y130887D01*
X789981Y152744D02*
X829554Y113171D01*
X802600Y157944D02*
X833594Y126950D01*
X774895Y157648D02*
Y241684D01*
X702399Y296449D02*
X758900D01*
X700091Y288575D02*
X758900D01*
X775327Y242116D02*
Y242387D01*
X775343Y242403D01*
X793581Y205789D02*
X793600Y205808D01*
X772939Y243848D02*
Y249222D01*
X774895Y241684D02*
X775327Y242116D01*
X395832Y557269D02*
Y561786D01*
X399428Y565383D02*
X494927D01*
X395797Y557235D02*
X395832Y557269D01*
Y561786D02*
X399428Y565383D01*
X494927D02*
X685121Y375189D01*
X758900D01*
X496477Y546014D02*
X681082Y361409D01*
X406237Y551842D02*
X406315Y551920D01*
X400919Y561783D02*
X493436D01*
X494182Y563583D02*
X684544Y373220D01*
X494151Y538140D02*
X678756Y353535D01*
X495900Y544046D02*
X680505Y359441D01*
X408474Y547905D02*
X408552Y547983D01*
X492069Y532235D02*
X676674Y347630D01*
X495323Y542077D02*
X679928Y357472D01*
X407017Y546014D02*
X496477D01*
X400174Y563583D02*
X494182D01*
X491492Y530266D02*
X676096Y345661D01*
X407017Y538140D02*
X494151D01*
X406315Y551920D02*
X407017D01*
X495439Y557235D02*
X683390Y369284D01*
X407017Y544046D02*
X495900D01*
X494728Y540109D02*
X679333Y355504D01*
X492997Y534203D02*
X677602Y349598D01*
X497054Y547983D02*
X681659Y363378D01*
X493436Y561783D02*
X683967Y371252D01*
X407017Y549951D02*
X497631D01*
X682236Y365347D01*
X407017Y540109D02*
X494728D01*
X498208Y551920D02*
X682813Y367315D01*
X399656Y559201D02*
X399769Y559313D01*
X407017Y530266D02*
X491492D01*
X407017Y532235D02*
X492069D01*
X493574Y536172D02*
X678179Y351567D01*
X401702Y557235D02*
X495439D01*
X407017Y551920D02*
X498208D01*
X408552Y547983D02*
X497054D01*
X407017Y542077D02*
X495323D01*
X407017Y536172D02*
X493574D01*
X407017Y534203D02*
X492997D01*
X684544Y373220D02*
X758900D01*
X397765Y557235D02*
X397800Y557269D01*
Y561209D01*
X400174Y563583D01*
X399769Y560632D02*
X400919Y561783D01*
X399769Y559313D02*
Y560632D01*
X683967Y371252D02*
X758900D01*
X682236Y365347D02*
X758900D01*
X676096Y345661D02*
X758900D01*
X683390Y369284D02*
X758900D01*
X679928Y357472D02*
X758900D01*
X682813Y367315D02*
X758900D01*
X681659Y363378D02*
X758900D01*
X505785Y346800D02*
X652048D01*
X701245Y292512D02*
X758900D01*
X648320Y337800D02*
X699513Y286606D01*
X649065Y339600D02*
X700091Y288575D01*
X656251Y342597D02*
Y342597D01*
X698037Y282669D02*
X758900D01*
X662592Y343892D02*
X704130Y302354D01*
X698862Y284638D02*
X758900D01*
X700667Y290543D02*
X758900D01*
X508022Y352200D02*
X654284D01*
X506531Y348600D02*
X652793D01*
X662592Y343892D02*
Y343892D01*
X652048Y346800D02*
X656251Y342597D01*
X655775Y355800D02*
X705284Y306291D01*
X650556Y343200D02*
X701245Y292512D01*
X652793Y348600D02*
X671348Y330045D01*
X656251Y342597D02*
X702399Y296449D01*
X653539Y350400D02*
X703553Y300386D01*
X505040Y345000D02*
X651302D01*
X509513Y355800D02*
X655775D01*
X508767Y354000D02*
X655030D01*
X647500Y336000D02*
X698862Y284638D01*
X649811Y341400D02*
X700667Y290543D01*
X655030Y354000D02*
X704707Y304323D01*
X656521Y357600D02*
X705861Y308260D01*
X701822Y294480D02*
X758900D01*
X657912Y361300D02*
X707015Y312197D01*
X654284Y352200D02*
X662592Y343892D01*
X504294Y343200D02*
X650556D01*
X671348Y330045D02*
Y330045D01*
X651302Y345000D02*
X654451Y341851D01*
X657267Y359400D02*
X706438Y310228D01*
X507276Y350400D02*
X653539D01*
X703553Y300386D02*
X758900D01*
X654451Y341851D02*
X701822Y294480D01*
X646506Y334200D02*
X698037Y282669D01*
X699513Y286606D02*
X758900D01*
X511004Y359400D02*
X657267D01*
X510258Y357600D02*
X656521D01*
X654451Y341851D02*
Y341851D01*
X335125Y561369D02*
X359397Y585640D01*
X351465Y614610D02*
X359397Y606678D01*
X297799Y561369D02*
X335125D01*
X359397Y585640D02*
Y606678D01*
X707015Y312197D02*
X758900D01*
X706438Y310228D02*
X758900D01*
X705861Y308260D02*
X758900D01*
X705284Y306291D02*
X758900D01*
X704707Y304323D02*
X758900D01*
X504194Y343300D02*
X504294Y343200D01*
X505685Y346900D02*
X505785Y346800D01*
X507176Y350500D02*
X507276Y350400D01*
X507922Y352300D02*
X508022Y352200D01*
X504940Y345100D02*
X505040Y345000D01*
X506431Y348700D02*
X506531Y348600D01*
X704130Y302354D02*
X758900D01*
X671348Y330045D02*
X702976Y298417D01*
X758900D01*
X509413Y355900D02*
X509513Y355800D01*
X508667Y354100D02*
X508767Y354000D01*
X510158Y357700D02*
X510258Y357600D01*
X510904Y359500D02*
X511004Y359400D01*
X353407Y468422D02*
X369464Y452365D01*
X353407Y468422D02*
Y468422D01*
X325956Y470721D02*
Y475238D01*
X329553Y478835D02*
X342995D01*
X353407Y468422D01*
X325921Y470686D02*
X325956Y470721D01*
Y475238D02*
X329553Y478835D01*
X331044Y475235D02*
X341503D01*
X342249Y477035D02*
X367664Y451620D01*
X341503Y475235D02*
X365864Y450874D01*
X343506Y470686D02*
X364064Y450129D01*
X330298Y477035D02*
X342249D01*
X331827Y470686D02*
X343506D01*
X327924Y474661D02*
X330298Y477035D01*
X327924Y470721D02*
Y474661D01*
X327890Y470686D02*
X327924Y470721D01*
X329893Y474084D02*
X331044Y475235D01*
X329893Y470721D02*
Y474084D01*
X329858Y470686D02*
X329893Y470721D01*
X346275Y465372D02*
X362200Y449447D01*
X341116Y447620D02*
X345800Y442937D01*
X345121Y461435D02*
X358400Y448156D01*
X337201Y443659D02*
X339858D01*
X341693Y449589D02*
X347600Y443682D01*
X343967Y457498D02*
X354800Y446664D01*
X343390Y455529D02*
X353000Y445919D01*
X342813Y453560D02*
X351200Y445173D01*
X342236Y451592D02*
X349400Y444428D01*
X344544Y459466D02*
X356600Y447410D01*
X339858Y443659D02*
X342200Y441317D01*
X345698Y463403D02*
X360200Y448901D01*
X340539Y445652D02*
X344000Y442191D01*
X337142Y465372D02*
X346275D01*
X337142Y463403D02*
X345698D01*
X337142Y457498D02*
X343967D01*
X337142Y461435D02*
X345121D01*
X337142Y455529D02*
X343390D01*
X337142Y451592D02*
X342236D01*
X337142Y459466D02*
X344544D01*
X337142Y453560D02*
X342813D01*
X337142Y443718D02*
X337201Y443659D01*
X337142Y449623D02*
X337176Y449589D01*
X341693D01*
X366660Y297470D02*
X374488Y305298D01*
X404769D01*
X337142Y447655D02*
X337176Y447620D01*
X341116D01*
X337176Y445652D02*
X340539D01*
X337142Y445686D02*
X337176Y445652D01*
X242500Y405200D02*
X247500D01*
Y408800D02*
X247800Y408500D01*
X242954Y408800D02*
X247500D01*
X652505Y485066D02*
X677820D01*
X651696D02*
X652505D01*
Y489003D02*
X680090D01*
X680927Y488167D01*
X681197D01*
X775343Y242403D02*
Y249363D01*
X769437Y262906D02*
X783145Y249198D01*
X761666Y262906D02*
X769437D01*
X761595Y260990D02*
X768808D01*
X761401Y258969D02*
X768283D01*
X767706Y257001D02*
X775343Y249363D01*
X759911Y257001D02*
X767706D01*
X760177Y255110D02*
X767051D01*
X772939Y249222D01*
X761094Y253185D02*
X766430D01*
X760162Y251173D02*
X765896D01*
X329858Y438403D02*
Y441110D01*
X329780Y441188D02*
Y441844D01*
X334766Y438370D02*
X334780D01*
X331910Y439442D02*
X333694D01*
X334766Y438370D01*
X331827Y438403D02*
Y439358D01*
X329780Y441188D02*
X329858Y441110D01*
X328673Y442951D02*
X329780Y441844D01*
X331827Y439358D02*
X331910Y439442D01*
X327107Y442951D02*
X328673D01*
X325956Y441800D02*
X327107Y442951D01*
X655094Y475302D02*
X655602D01*
X655613Y475313D01*
X397387Y515016D02*
X401702D01*
X401702Y523770D02*
X404655Y520817D01*
X401702Y523770D02*
Y524951D01*
X399734D02*
X401702D01*
X398548Y529499D02*
X399699Y528348D01*
Y524986D02*
Y528348D01*
X397800Y520169D02*
X400070Y517899D01*
X401539Y515016D02*
X401702D01*
X400070Y516485D02*
X401539Y515016D01*
X400070Y516485D02*
Y517899D01*
X399699Y524986D02*
X399734Y524951D01*
X396982Y529499D02*
X398548D01*
X564368Y200878D02*
X574300Y190946D01*
X563350Y203800D02*
X564368Y202782D01*
Y200878D02*
Y202782D01*
X599600Y209454D02*
X613974Y223828D01*
Y285424D01*
X631352Y302801D01*
X595850Y203800D02*
X598092D01*
X599600Y205308D01*
Y209454D01*
X595850Y173800D02*
X597264D01*
X628348Y206298D02*
Y246778D01*
X597264Y173800D02*
X598772Y175308D01*
Y176722D01*
X628348Y206298D01*
Y246778D02*
X631352Y249782D01*
X598092Y143800D02*
X599600Y145308D01*
Y149454D02*
X634600Y184454D01*
X595850Y143800D02*
X598092D01*
X599600Y145308D02*
Y149454D01*
X613710Y126100D02*
X631352Y143742D01*
X586825Y126100D02*
X613710D01*
X574300Y138625D02*
X586825Y126100D01*
X574300Y138625D02*
Y190946D01*
X567100Y168146D02*
X571600Y163646D01*
Y137200D02*
X593337Y115463D01*
X571600Y137200D02*
Y163646D01*
X567100Y168146D02*
Y172292D01*
X563350Y173800D02*
X565592D01*
X567100Y172292D01*
X606611Y115463D02*
X631352Y90722D01*
X593337Y115463D02*
X606611D01*
X567100Y138146D02*
X634600Y70646D01*
Y37701D02*
Y70646D01*
X563350Y143800D02*
X565592D01*
X567100Y142292D01*
Y138146D02*
Y142292D01*
X528660Y220700D02*
X565763D01*
X580119Y206343D01*
X581919Y175489D02*
Y207089D01*
X562992Y226016D02*
X581919Y207089D01*
X501645Y289909D02*
X592100Y199454D01*
X531030Y226016D02*
X562992D01*
X580119Y147289D02*
Y206343D01*
X501645Y289909D02*
Y308698D01*
X511617Y203658D02*
X528660Y220700D01*
X593608Y193800D02*
X595850D01*
X592100Y195308D02*
Y199454D01*
Y195308D02*
X593608Y193800D01*
Y163800D02*
X595850D01*
X581919Y175489D02*
X593608Y163800D01*
X501645Y255401D02*
X531030Y226016D01*
X580119Y147289D02*
X593608Y133800D01*
X501645Y203658D02*
X511617D01*
X593608Y133800D02*
X595850D01*
X561900Y210446D02*
Y215000D01*
X501645Y150140D02*
Y150191D01*
X561900Y210446D01*
X561108Y183800D02*
X563350D01*
X526095Y148787D02*
X561108Y183800D01*
X501645Y98618D02*
X526095Y123068D01*
Y148787D01*
X561108Y153800D02*
X563350D01*
X536195Y128887D02*
X561108Y153800D01*
X536195Y80026D02*
Y128887D01*
X502267Y46098D02*
X536195Y80026D01*
X501645Y46098D02*
X502267D01*
X263900Y588986D02*
X263933Y588953D01*
X269000D01*
X375687Y62599D02*
X375802Y62714D01*
X381128D01*
X360183Y102595D02*
X360216Y102628D01*
Y106982D01*
X375033Y166102D02*
X381128D01*
X364611Y203916D02*
X364881D01*
X359217Y204901D02*
X363627D01*
X364611Y203916D01*
X377343Y271402D02*
X382362D01*
X382613Y271652D01*
X359697Y309869D02*
X359733Y309905D01*
X365097D01*
X395797Y524951D02*
X395832Y524986D01*
Y528348D01*
X396982Y529499D01*
X393828Y524951D02*
X395797D01*
X365637Y518260D02*
X365670Y518293D01*
X361300Y518260D02*
X365637D01*
X329858Y438403D02*
X331827D01*
X325956Y438438D02*
Y441800D01*
X325921Y438403D02*
X325956Y438438D01*
X323953Y438403D02*
X325921D01*
X150595Y126466D02*
X151664Y127535D01*
X152563Y129517D02*
X152833D01*
X153916Y128434D01*
X160929D01*
X152292Y129517D02*
X152563D01*
X144197Y130403D02*
X151407D01*
X151664Y127535D02*
Y128348D01*
X151407Y130403D02*
X152292Y129517D01*
X151664Y128348D02*
X152563Y129246D01*
Y129517D01*
X144197Y126466D02*
X150595D01*
X160929Y132371D02*
X169064D01*
X381983Y557269D02*
Y560632D01*
X381391Y561224D02*
X381983Y560632D01*
Y557269D02*
X382017Y557235D01*
X383951Y557269D02*
X383986Y557235D01*
X376597Y558884D02*
X378400D01*
X380049Y557235D01*
X372256Y557269D02*
X372416Y557109D01*
X372500Y551920D02*
X374734D01*
X372416Y552003D02*
X372500Y551920D01*
X372416Y552003D02*
Y557109D01*
X368126Y553197D02*
X371337Y549986D01*
X374699D02*
X374734Y549951D01*
X371337Y549986D02*
X374699D01*
X364064Y540112D02*
X364065Y540110D01*
X374732D01*
X374734Y540109D01*
X366261Y536172D02*
X374734D01*
X388550Y549442D02*
X389891Y550784D01*
Y557235D01*
X397800Y520169D02*
Y524917D01*
X310386Y477126D02*
X312142Y475371D01*
Y470686D02*
Y475371D01*
X307613Y470686D02*
X310173D01*
X299209Y455529D02*
X304858D01*
X300355Y459501D02*
X304824D01*
X299975Y459881D02*
X300355Y459501D01*
X299229Y458081D02*
X299813Y457498D01*
X304858D01*
X301995Y451514D02*
X302038Y451557D01*
X304824D02*
X304858Y451592D01*
X302038Y451557D02*
X304824D01*
Y463438D02*
X304858Y463403D01*
X304824Y461469D02*
X304858Y461435D01*
X304824Y459501D02*
X304858Y459466D01*
X312142Y438403D02*
X312142Y438403D01*
X264598Y50430D02*
Y65577D01*
X265286Y66265D01*
Y68463D01*
X421961Y316711D02*
X425919Y320669D01*
X421961Y316318D02*
Y316711D01*
X425919Y320669D02*
X449599D01*
X461570Y308698D01*
X485945D01*
X417770Y280875D02*
X420907Y277738D01*
X421891D01*
X425356Y281203D01*
X468205Y255401D02*
X485945D01*
X442403Y281203D02*
X468205Y255401D01*
X425356Y281203D02*
X442403D01*
X417103Y216308D02*
X421090Y212321D01*
X422074D01*
X425540Y215786D01*
X449331D01*
X461460Y203658D01*
X485945D01*
X419614Y171629D02*
Y172022D01*
X423571Y175980D01*
X441491D01*
X464481Y152990D01*
X482785D01*
X485635Y150140D01*
X485945D01*
X418519Y113174D02*
X421090Y110602D01*
X423606D01*
X448436Y113302D02*
X463120Y98618D01*
X426306Y113302D02*
X448436D01*
X423606Y110602D02*
X426306Y113302D01*
X463120Y98618D02*
X485945D01*
X469302Y46098D02*
X485945D01*
X441645Y73755D02*
X469302Y46098D01*
X422092Y69797D02*
X426049Y73755D01*
X422092Y69403D02*
Y69797D01*
X426049Y73755D02*
X441645D01*
X165700Y372300D02*
X253446D01*
X178055Y370500D02*
X252700D01*
X170555Y363000D02*
X178055Y370500D01*
X253446Y372300D02*
X330076Y295670D01*
X160555Y367155D02*
X165700Y372300D01*
X252700Y370500D02*
X337800Y285400D01*
X160555Y363000D02*
Y367155D01*
X330076Y295670D02*
X358233D01*
X337800Y285400D02*
X365225D01*
X374066Y294572D02*
X374792Y295298D01*
X371377Y294572D02*
X374066D01*
X404928Y265231D02*
Y277871D01*
X364058Y275965D02*
X374792Y265231D01*
X404928D01*
X363700Y278821D02*
X364058Y278463D01*
Y275965D02*
Y278463D01*
X351946Y280727D02*
X354202Y282983D01*
X365097D01*
X366122Y281957D01*
Y278958D02*
Y281957D01*
Y278958D02*
X366259Y278821D01*
X368681Y278958D02*
Y281944D01*
Y278958D02*
X368818Y278821D01*
X365225Y285400D02*
X368681Y281944D01*
X351946Y280038D02*
Y280727D01*
X403140Y317007D02*
X407036Y320903D01*
X403140Y316318D02*
Y317007D01*
X407036Y320903D02*
X417770D01*
X421961Y316711D01*
X431100Y311629D02*
Y317446D01*
X424769Y305298D02*
X431100Y311629D01*
X414769Y305298D02*
Y309905D01*
X409045Y315629D02*
Y316318D01*
Y315629D02*
X414769Y309905D01*
X403140Y315629D02*
X404769Y314000D01*
X403140Y315629D02*
Y316318D01*
X404769Y305298D02*
Y314000D01*
X366259Y294572D02*
Y296770D01*
X366660Y297171D01*
Y297470D01*
X370689Y188851D02*
X373046D01*
X373937Y189742D01*
X374201D01*
X315555Y229700D02*
X351832Y193423D01*
X208501Y229700D02*
X315555D01*
X374201Y199979D02*
X404340D01*
X365707Y191485D02*
X374201Y199979D01*
X180355Y257845D02*
Y265300D01*
Y257845D02*
X208501Y229700D01*
X170355Y265300D02*
X207755Y227900D01*
X278900D01*
X367993Y173237D02*
Y176223D01*
X365433Y173237D02*
Y176237D01*
X367993Y173237D02*
X368130Y173100D01*
X365433Y173237D02*
X365570Y173100D01*
X371654Y86600D02*
X375033D01*
X371654Y86545D02*
Y86600D01*
X298033Y145135D02*
X352806Y90362D01*
X244410Y145135D02*
X298033D01*
X223851Y165694D02*
X244410Y145135D01*
X223851Y165694D02*
Y194950D01*
X221800Y165200D02*
Y193855D01*
X150355Y265300D02*
X221800Y193855D01*
Y165200D02*
X243665Y143335D01*
X273586D01*
X338614Y78307D01*
X160355Y258446D02*
X223851Y194950D01*
X160355Y258446D02*
Y265300D01*
X338614Y78307D02*
X364851D01*
X352343Y83701D02*
X359820D01*
X361808Y81714D02*
X367816D01*
X359820Y83701D02*
X361808Y81714D01*
X367816D02*
X368958Y82857D01*
Y70930D02*
Y74200D01*
Y70930D02*
X369095Y70794D01*
X364851Y78307D02*
X368958Y74200D01*
X361496Y75210D02*
X365402D01*
X359049Y72764D02*
X361496Y75210D01*
X366399Y70930D02*
Y74213D01*
X365402Y75210D02*
X366399Y74213D01*
X352537Y280038D02*
X377343Y255231D01*
X404928D01*
X366259Y276622D02*
Y278821D01*
X404928Y277871D02*
X407932Y280875D01*
X417770D01*
X410569Y269591D02*
X414928Y265231D01*
X410569Y269591D02*
Y276918D01*
X414928Y255231D02*
X424929D01*
X404928D02*
X414928D01*
X414769Y295298D02*
X424769D01*
X404769D02*
X414769D01*
X388844D02*
X404769D01*
X383956Y290409D02*
X388844Y295298D01*
X369219Y291674D02*
X370483Y290409D01*
X383956D01*
X368818Y292374D02*
X369219Y291973D01*
Y291674D02*
Y291973D01*
X368818Y292374D02*
Y294572D01*
X368417Y291973D02*
X368818Y292374D01*
X352165Y290409D02*
X367153D01*
X351552Y291022D02*
X352165Y290409D01*
X368417Y291674D02*
Y291973D01*
X367153Y290409D02*
X368417Y291674D01*
X414340Y150340D02*
X424340D01*
X404340D02*
X414340D01*
X376196D02*
X404340D01*
X351466Y174381D02*
X352935Y172913D01*
X353623D02*
X376196Y150340D01*
X351466Y174381D02*
Y175070D01*
X352935Y172913D02*
X353623D01*
X350734Y186002D02*
X352047Y184689D01*
X366464D01*
X367728Y185953D01*
Y186252D01*
X368130Y186653D01*
Y188851D01*
X368267Y188714D01*
Y186217D02*
Y188714D01*
Y186217D02*
X369795Y184689D01*
X383196D01*
X388487Y189979D01*
X404340D01*
X414340D02*
X424340D01*
X404340D02*
X414340D01*
X365570Y188851D02*
X365707Y188988D01*
Y191485D01*
X424340Y206122D02*
X429260Y211041D01*
X424340Y199979D02*
Y206122D01*
X429260Y211041D02*
Y211435D01*
X403013Y212124D02*
X407197Y216308D01*
X417103D01*
X408919Y205401D02*
X414340Y199979D01*
X408919Y205401D02*
Y211435D01*
X403013D02*
Y212124D01*
X404340Y199979D02*
Y210108D01*
X403013Y211435D02*
X404340Y210108D01*
X404208Y173006D02*
X407477Y176275D01*
X415361D01*
X404208Y172318D02*
Y173006D01*
X415361Y176275D02*
X419614Y172022D01*
X424340Y160340D02*
X427607Y163607D01*
Y172754D01*
X410114Y171629D02*
Y172318D01*
Y171629D02*
X414340Y167402D01*
Y160340D02*
Y167402D01*
X404208Y172318D02*
X404340Y172186D01*
Y160340D02*
Y172186D01*
X370689Y172338D02*
X371019Y172007D01*
X370689Y172338D02*
Y173100D01*
X363369Y170245D02*
Y172742D01*
Y170245D02*
X373274Y160340D01*
X363011Y173100D02*
X363369Y172742D01*
X373274Y160340D02*
X404340D01*
X425327Y58312D02*
Y64568D01*
X429769Y69010D01*
Y69403D01*
X129276Y556824D02*
X132900Y553200D01*
X129276Y556824D02*
Y583483D01*
X125461Y587298D02*
X129276Y583483D01*
X120647Y587298D02*
X125461D01*
X132900Y549157D02*
Y553200D01*
Y549157D02*
X164900Y517157D01*
X139488Y558912D02*
X173500Y524900D01*
X139488Y558912D02*
Y583271D01*
X120647Y553592D02*
Y582112D01*
Y553592D02*
X160801Y513438D01*
X129854Y548588D02*
Y550567D01*
Y548588D02*
X161443Y516998D01*
X115367Y587392D02*
X120647Y582112D01*
X397071Y514700D02*
X397387Y515016D01*
X396800Y514700D02*
X397071D01*
X397765Y524951D02*
X397800Y524917D01*
X115367Y587392D02*
Y591378D01*
X114900Y591845D02*
X115367Y591378D01*
X218257Y433498D02*
X242954Y408800D01*
X153338Y433498D02*
X218257D01*
X149353Y429512D02*
X153338Y433498D01*
X145367Y429512D02*
X149353D01*
X144900Y429045D02*
X145367Y429512D01*
X239992Y402692D02*
X242500Y405200D01*
X174900Y406945D02*
X179153Y402692D01*
X239992D01*
X135367Y587392D02*
X139488Y583271D01*
X135367Y587392D02*
Y591378D01*
X134900Y591845D02*
X135367Y591378D01*
X130647Y437283D02*
X134433Y433498D01*
Y429512D02*
Y433498D01*
Y429512D02*
X134900Y429045D01*
X186662Y618198D02*
X271741Y533118D01*
X149153Y618198D02*
X186662D01*
X290199Y553768D02*
X297799Y561369D01*
X84900Y406945D02*
X106400Y385445D01*
Y279255D02*
X120355Y265300D01*
X106400Y279255D02*
Y385445D01*
X74900Y406945D02*
Y429045D01*
X144900Y613945D02*
X149153Y618198D01*
X181500Y475500D02*
X233100Y423900D01*
X182246Y477300D02*
X233846Y425700D01*
X70170Y461330D02*
X86141Y477300D01*
X99700Y466200D02*
X109000Y475500D01*
X180600Y473700D02*
X232200Y422100D01*
X110190Y461349D02*
X122541Y473700D01*
X180600D01*
X86141Y477300D02*
X182246D01*
X109000Y475500D02*
X181500D01*
X110190Y434335D02*
Y461349D01*
X104900Y429045D02*
X110190Y434335D01*
X109353Y557830D02*
Y583689D01*
Y557830D02*
X236082Y431100D01*
X233100Y423900D02*
X313993D01*
X233846Y425700D02*
X313247D01*
X110937Y553700D02*
X235337Y429300D01*
X111291Y550800D02*
X234591Y427500D01*
X312502D01*
X235337Y429300D02*
X311756D01*
X236082Y431100D02*
X311011D01*
X85231Y553700D02*
X110937D01*
X91502Y550800D02*
X111291D01*
X232200Y422100D02*
X314738D01*
X64272Y429672D02*
X70170Y435570D01*
X62200Y427600D02*
X64272Y429672D01*
X317789Y425150D02*
X327890D01*
X314738Y422100D02*
X317789Y425150D01*
X327890D02*
Y438403D01*
X94900Y429045D02*
X99700Y433845D01*
Y466200D01*
X321984Y431891D02*
Y438403D01*
X313993Y423900D02*
X321984Y431891D01*
X120555Y363000D02*
X124900Y367345D01*
Y406945D01*
X184900D02*
Y429045D01*
X70170Y435570D02*
Y461330D01*
X313247Y425700D02*
X320016Y432468D01*
X311011Y431100D02*
X314110Y434199D01*
X318047Y433046D02*
Y438403D01*
X314110Y434199D02*
Y438403D01*
X316079Y433623D02*
Y438403D01*
X311756Y429300D02*
X316079Y433623D01*
X312502Y427500D02*
X318047Y433046D01*
X320016Y432468D02*
Y438403D01*
X76044Y587256D02*
X79321Y583979D01*
X69489Y587256D02*
X76044D01*
X79321Y559610D02*
Y583979D01*
Y559610D02*
X85231Y553700D01*
X64900Y591845D02*
X69489Y587256D01*
X74900Y591845D02*
X79447Y587298D01*
X105744D01*
X174900Y439045D02*
Y460045D01*
X351466Y175070D02*
X357763D01*
X407794Y72595D02*
Y72748D01*
X408672Y73627D01*
X418262D01*
X422092Y69797D01*
X405357Y69469D02*
Y70158D01*
X407794Y72595D01*
X405156Y97931D02*
Y109017D01*
X405413Y109705D02*
X407850Y112143D01*
Y112295D02*
X408729Y113174D01*
X418519D01*
X405413Y109017D02*
Y109705D01*
X407850Y112143D02*
Y112295D01*
X425156Y97931D02*
X430025Y102801D01*
Y108951D01*
X411318Y108328D02*
X415156Y104490D01*
X411318Y108328D02*
Y109017D01*
X415156Y97931D02*
Y104490D01*
X404898Y97673D02*
X405156Y97931D01*
X374884Y97673D02*
X404898D01*
X366673Y86682D02*
Y89462D01*
X374884Y97673D01*
X366536Y86545D02*
X366673Y86682D01*
X368958Y82857D02*
Y83701D01*
X389565Y87931D02*
X405156D01*
X383816Y82183D02*
X389565Y87931D01*
X370477Y82183D02*
X383816D01*
X368958Y83701D02*
X370477Y82183D01*
X415156Y87931D02*
X425156D01*
X405156D02*
X415156D01*
X352432Y72075D02*
Y72764D01*
X364178Y67812D02*
X373678Y58312D01*
X405328D01*
X415328Y48312D02*
X425327D01*
X405328D02*
X415328D01*
Y58312D02*
X416078Y59062D01*
X411262Y62378D02*
X415328Y58312D01*
X424776D02*
X425327D01*
X423317Y59771D02*
X424776Y58312D01*
X411262Y62378D02*
Y69469D01*
X405328Y69440D02*
X405357Y69469D01*
X405328Y58312D02*
Y69440D01*
X364178Y67812D02*
Y70592D01*
X363977Y70794D02*
X364178Y70592D01*
X105744Y587298D02*
X109353Y583689D01*
X366399Y70930D02*
X366536Y70794D01*
X352432Y72764D02*
X359049D01*
X273294Y67300D02*
X278400D01*
X272963Y67631D02*
X273294Y67300D01*
X272963Y67631D02*
Y68463D01*
X263449Y84214D02*
X265286D01*
X263841Y97176D02*
Y106192D01*
Y97176D02*
X267845Y93172D01*
Y84214D02*
Y93172D01*
X248547Y100011D02*
X257365D01*
X263546Y106192D01*
X263841D01*
X254200Y38454D02*
Y40480D01*
X261894Y48174D01*
X249208Y36611D02*
X252358D01*
X254200Y38454D01*
X261894Y48174D02*
X262342D01*
X264598Y50430D01*
X138732Y124497D02*
X144197D01*
X138594Y132233D02*
X138732Y132371D01*
X144197D01*
X140349Y128735D02*
X140650Y128434D01*
X144197D01*
X137216Y128735D02*
X140349D01*
X114900Y406945D02*
Y429045D01*
X124900Y406945D02*
Y429045D01*
X120500Y250043D02*
Y265155D01*
X120355Y265300D02*
X120500Y265155D01*
X167414Y300286D02*
X189417Y278283D01*
Y276239D02*
X190355Y275300D01*
X167414Y300286D02*
Y302353D01*
X189417Y276239D02*
Y278283D01*
X164855Y296119D02*
Y302353D01*
Y296119D02*
X180355Y280619D01*
Y275300D02*
Y280619D01*
X170355Y275300D02*
Y284340D01*
X162296Y292399D02*
Y302353D01*
Y292399D02*
X170355Y284340D01*
X159737Y289184D02*
X160355Y288566D01*
X159737Y289184D02*
Y302353D01*
X160355Y275300D02*
Y288566D01*
X140355Y281477D02*
X154619Y295741D01*
Y302353D01*
X150355Y284994D02*
X157178Y291817D01*
X150355Y275300D02*
Y284994D01*
X157178Y291817D02*
Y302353D01*
X140355Y275300D02*
Y281477D01*
X130355Y275300D02*
X152060Y297005D01*
Y302353D01*
X145841Y300786D02*
X149326D01*
X149501Y300960D02*
Y302353D01*
X149326Y300786D02*
X149501Y300960D01*
X120355Y275300D02*
X145841Y300786D01*
X120555Y353000D02*
X122996Y350559D01*
Y349414D02*
X146168Y326243D01*
X149326D01*
X122996Y349414D02*
Y350559D01*
X149501Y324400D02*
Y326069D01*
X149326Y326243D02*
X149501Y326069D01*
X140555Y346153D02*
Y353000D01*
X157178Y324400D02*
Y335809D01*
X150555Y342432D02*
X157178Y335809D01*
X154619Y324400D02*
Y332089D01*
X140555Y346153D02*
X154619Y332089D01*
X150555Y342432D02*
Y353000D01*
X167414Y329859D02*
X190555Y353000D01*
X167414Y324400D02*
Y329859D01*
X164855Y335755D02*
X179300Y350200D01*
X164855Y324400D02*
Y335755D01*
X162296Y344741D02*
X170555Y353000D01*
X162296Y324400D02*
Y344741D01*
X159737Y352182D02*
X160555Y353000D01*
X159737Y324400D02*
Y352182D01*
X152060Y324400D02*
Y331495D01*
X130555Y353000D02*
X152060Y331495D01*
X333295Y626441D02*
X341465Y634610D01*
X314152Y626441D02*
X333295D01*
X338295Y621441D02*
X341465Y624610D01*
X314152Y621441D02*
X338295D01*
X314152Y616441D02*
X338426D01*
X340257Y614610D02*
X341465D01*
X338426Y616441D02*
X340257Y614610D01*
X314152Y611441D02*
X334634D01*
X341465Y604610D01*
X263900Y633855D02*
X271314Y626441D01*
X295648D01*
X265227Y623855D02*
X267642Y621441D01*
X295648D01*
X263900Y623855D02*
X265227D01*
X265026Y613855D02*
X267612Y616441D01*
X263900Y613855D02*
X265026D01*
X267612Y616441D02*
X295648D01*
X271486Y611441D02*
X295648D01*
X263900Y603855D02*
X271486Y611441D01*
X144900Y591845D02*
Y613945D01*
X84900Y591845D02*
Y613945D01*
X94900Y591845D02*
Y613945D01*
X104900Y591845D02*
Y613945D01*
X174900Y406945D02*
Y429045D01*
X144900Y406945D02*
Y429045D01*
X14900Y406945D02*
Y429045D01*
X24900Y406945D02*
Y429045D01*
X34900Y406945D02*
Y429045D01*
X44900Y406945D02*
Y429045D01*
X54900Y406945D02*
Y429045D01*
X154900Y406945D02*
Y429045D01*
X164900Y406945D02*
Y429045D01*
X184900Y439045D02*
Y460045D01*
X164900Y439045D02*
Y460045D01*
X154900Y439045D02*
Y460045D01*
X144900Y439045D02*
Y460045D01*
X134900Y439045D02*
Y460045D01*
X124900Y439045D02*
Y460045D01*
X114900Y439045D02*
Y460045D01*
X104900Y439045D02*
Y460045D01*
X94900Y439045D02*
Y460045D01*
X84900Y439045D02*
Y460045D01*
X74900Y439045D02*
Y460045D01*
X64900Y439045D02*
Y460045D01*
X54900Y439045D02*
Y460045D01*
X44900Y439045D02*
Y460045D01*
X34900Y439045D02*
Y460045D01*
X24900Y439045D02*
Y460045D01*
X14900Y439045D02*
Y460045D01*
Y560045D02*
Y581845D01*
X24900Y560045D02*
Y581845D01*
X34900Y560045D02*
Y581845D01*
X44900Y560045D02*
Y581845D01*
X54900Y560045D02*
Y581845D01*
X64900Y560045D02*
Y581845D01*
X74900Y560045D02*
Y581845D01*
X84900Y560045D02*
Y581845D01*
X94900Y560045D02*
Y581845D01*
X104900Y560045D02*
Y581845D01*
X114900Y560045D02*
Y581845D01*
X124900Y560045D02*
Y581845D01*
X134900Y560045D02*
Y581845D01*
X144900Y560045D02*
Y581845D01*
X154900Y560045D02*
Y581845D01*
X164900Y560045D02*
Y581845D01*
X174900Y560045D02*
Y581845D01*
X184900Y560045D02*
Y581845D01*
Y591845D02*
Y613945D01*
X174900Y591845D02*
Y613945D01*
X164900Y591845D02*
Y613945D01*
X154900Y591845D02*
Y613945D01*
X124900Y591845D02*
Y613945D01*
X114900Y591845D02*
Y613945D01*
X44900Y591845D02*
Y613945D01*
X34900Y591845D02*
Y613945D01*
X134900Y406945D02*
Y429045D01*
X24900Y591845D02*
Y613945D01*
X94900Y406945D02*
Y429045D01*
X64900Y406945D02*
Y429045D01*
X74900Y591845D02*
Y613945D01*
X54900Y591845D02*
Y613945D01*
X64900Y591845D02*
Y613945D01*
X14900Y591845D02*
Y613945D01*
X134900Y591845D02*
Y613945D01*
X84900Y406945D02*
Y429045D01*
X104900Y406945D02*
Y429045D01*
D15*
X168185Y124166D02*
X171330D01*
X181195Y111925D02*
X181534Y111586D01*
X171330Y124166D02*
X173755Y121741D01*
X50977Y151885D02*
X51690Y152599D01*
X66525Y153350D02*
Y153889D01*
X65927Y152752D02*
X66525Y153350D01*
X51690Y152599D02*
X58547D01*
X50977Y151559D02*
Y151885D01*
X58547Y152599D02*
X58700Y152752D01*
X65927D01*
X48444Y143335D02*
X48753Y143026D01*
X26887Y143335D02*
X32403D01*
X48444D01*
X50808Y143026D02*
X57081D01*
X57172Y142936D02*
X60035Y140072D01*
X57081Y143026D02*
X57172Y142936D01*
X65367Y140072D02*
X65567D01*
X60035D02*
X65367D01*
X26630Y143593D02*
X26887Y143335D01*
X65567Y140072D02*
X67430Y138209D01*
X50095Y134383D02*
X56866D01*
X57019Y134536D02*
X57172Y134383D01*
X63766D02*
X65367Y132782D01*
X57172Y134383D02*
X63766D01*
X49942Y134536D02*
X50095Y134383D01*
X56866D02*
X57019Y134536D01*
X69176Y137446D02*
X70230Y136391D01*
X68986Y137446D02*
X69176D01*
X68224Y138209D02*
X68986Y137446D01*
X84132Y72547D02*
Y122301D01*
X67430Y138209D02*
X68224D01*
X70230Y136202D02*
X84132Y122301D01*
X70230Y136202D02*
Y136391D01*
X12300Y181001D02*
X25899Y194600D01*
X12300Y30800D02*
Y181001D01*
X154532Y147272D02*
Y148650D01*
X154135Y149339D02*
X154824Y148650D01*
X160579D01*
X154532D02*
Y151456D01*
X160579Y148650D02*
X164024Y145205D01*
X154532Y147272D02*
X154728Y147469D01*
X191100Y155406D02*
X191253Y155560D01*
X184361Y155762D02*
X184717Y155406D01*
X191100D01*
X164024Y145205D02*
X171563D01*
X181534Y111586D02*
X182672Y110447D01*
X172797Y113689D02*
X175689D01*
X171563Y114923D02*
X172797Y113689D01*
X175689D02*
X177792Y111586D01*
X181534D01*
X181195Y111925D02*
Y121741D01*
X125394Y128735D02*
X137216D01*
X119612D02*
X125394D01*
X294939Y526780D02*
X296943D01*
X297799Y525924D01*
Y520940D02*
Y525924D01*
X257995Y588986D02*
Y599531D01*
Y588199D02*
Y588986D01*
X300724Y438403D02*
X305350D01*
X294023D02*
X300724D01*
X38221Y194600D02*
X49521D01*
X36253Y194583D02*
X38205D01*
X31621D02*
X36253D01*
X376593Y518293D02*
X377920Y519620D01*
X401700Y503300D02*
X401702Y503302D01*
Y507930D01*
X588900Y213800D02*
X595850D01*
X589000Y183800D02*
X595850D01*
X589000Y153800D02*
X595850D01*
X588900Y153700D02*
X589000Y153800D01*
X556700Y193800D02*
X563350D01*
X556700Y163800D02*
X563350D01*
X556700Y133800D02*
X563350D01*
X283600Y438370D02*
X288084D01*
X288118Y438403D01*
X203355Y352182D02*
Y355846D01*
X187355Y132313D02*
X187413Y132371D01*
X187297Y121741D02*
X187355Y121799D01*
Y132313D01*
X189479Y88678D02*
X196104D01*
X173755Y121741D02*
X181195D01*
X170089Y133396D02*
Y136227D01*
X169064Y132371D02*
X170089Y133396D01*
Y136227D02*
X171476Y137615D01*
X165512D02*
X170653D01*
X171476D01*
X172718Y137036D02*
X176645D01*
X179972Y133710D02*
X181310Y132371D01*
X176645Y137036D02*
X179972Y133710D01*
X177614Y136854D02*
X180365Y134103D01*
X371576Y518293D02*
X376593D01*
X297799Y520940D02*
X297824Y520914D01*
X66005Y192736D02*
X94491Y164250D01*
Y43511D02*
Y164250D01*
X64822Y192736D02*
X66005D01*
X62958Y194600D02*
X64822Y192736D01*
X76302Y64717D02*
X84132Y72547D01*
X70550Y43511D02*
X73798D01*
X76302Y46015D01*
Y64717D01*
X190555Y363000D02*
X191180Y362376D01*
X202731D02*
X203355Y361751D01*
X191180Y362376D02*
X202731D01*
X327890Y418064D02*
X333164D01*
X381826Y277558D02*
X382613D01*
X269053Y63047D02*
X269100Y63000D01*
X338742Y291022D02*
X344466D01*
X338663Y280117D02*
X338742Y280038D01*
X344859D01*
X338663Y186002D02*
X343648D01*
X338614Y185953D02*
X338663Y186002D01*
X338614Y175664D02*
X343785D01*
X344379Y175070D01*
X339819Y83762D02*
X339879Y83701D01*
X345257D01*
X339912Y72790D02*
X339939Y72764D01*
X345345D01*
X25990Y89500D02*
X50808D01*
X55420Y87532D02*
X55853D01*
X53696Y89256D02*
X55420Y87532D01*
X60895Y86531D02*
X62758Y84668D01*
X51052Y89256D02*
X53696D01*
X55853Y87532D02*
X56853Y86531D01*
X60895D01*
X50808Y89500D02*
X51052Y89256D01*
X48491Y43511D02*
X49031Y44052D01*
Y80445D01*
X56695Y79046D02*
X61090D01*
X55296Y80445D02*
X56695Y79046D01*
X49031Y80445D02*
X55296D01*
X61090Y79046D02*
X62758Y77378D01*
X25932Y194567D02*
X31605D01*
X25899Y194600D02*
X25932Y194567D01*
X38205Y194583D02*
X38221Y194600D01*
X31605Y194567D02*
X31621Y194583D01*
X49521Y194600D02*
X62958D01*
X142481Y159758D02*
X144427D01*
X145227Y160558D02*
Y161158D01*
X128814Y142351D02*
Y146091D01*
X142481Y159758D01*
X144427D02*
X145227Y160558D01*
X147685Y94408D02*
Y108479D01*
Y93808D02*
Y94408D01*
X138086Y100007D02*
X142086D01*
X137216Y100877D02*
Y100879D01*
Y100877D02*
X138086Y100007D01*
X142086D02*
X147685Y94408D01*
X129724Y103252D02*
X131310Y101666D01*
Y100879D02*
Y101666D01*
X129724Y103252D02*
Y115590D01*
X154532Y141367D02*
X161760D01*
X165512Y137615D01*
X145198Y43511D02*
X155087Y53400D01*
X141950Y43511D02*
X145198D01*
X155087Y53400D02*
X201730D01*
X208519Y46611D02*
X230192D01*
X201730Y53400D02*
X208519Y46611D01*
X134891Y124497D02*
X138732D01*
X129724Y115590D02*
Y119330D01*
X134891Y124497D01*
X128814Y138611D02*
X135192Y132233D01*
X128814Y138611D02*
Y142351D01*
X135192Y132233D02*
X138594D01*
X106733Y129379D02*
X113063D01*
X106700Y129346D02*
X106733Y129379D01*
X57592Y203655D02*
X60711D01*
X49521D02*
X57592D01*
X56100Y98555D02*
X59100D01*
X49031D02*
X56100D01*
X118969Y129379D02*
X119612Y128735D01*
X118969Y121424D02*
X121063Y119330D01*
X118969Y121424D02*
Y129379D01*
X121063Y115590D02*
Y119330D01*
X118969Y130166D02*
X120153Y131350D01*
Y142351D01*
X118969Y129379D02*
Y130166D01*
X78481Y8181D02*
X90500Y20200D01*
X34919Y8181D02*
X78481D01*
X12300Y30800D02*
X34919Y8181D01*
X91243Y43511D02*
X94491D01*
X88739Y46015D02*
X91243Y43511D01*
X70201Y102567D02*
Y102767D01*
X74582Y107147D01*
X75080Y152752D02*
X78912Y156584D01*
X78946D01*
X75080Y152552D02*
Y152752D01*
X61255Y185607D02*
X62958Y187310D01*
X56427Y185607D02*
X61255D01*
X56365Y185545D02*
X56427Y185607D01*
X49521Y185545D02*
X56365D01*
X78105Y213960D02*
X78280D01*
X73302Y209156D02*
X78105Y213960D01*
X59100Y98555D02*
X62912Y102367D01*
Y102567D01*
X60711Y203655D02*
X66013Y208956D01*
Y209156D01*
X119811Y242957D02*
X120500D01*
X253900Y603625D02*
X257995Y599531D01*
X253900Y603625D02*
Y603855D01*
X203555Y273053D02*
Y279000D01*
X338426Y590355D02*
X344000D01*
X140355Y243154D02*
X146700D01*
X191412Y265300D02*
X193259Y267147D01*
X190355Y265300D02*
X191412D01*
X193259Y267147D02*
X203555D01*
X127811Y242957D02*
X133914Y249059D01*
X140355D01*
X120500Y242957D02*
X127811D01*
X140355Y249059D02*
Y265300D01*
X132439Y34000D02*
X141950Y43511D01*
X124300Y34000D02*
X132439D01*
X110500Y20200D02*
X124300Y34000D01*
X162439Y41007D02*
X164943Y43511D01*
X143600Y20200D02*
X162439Y39039D01*
Y41007D01*
X120500Y20200D02*
X143600D01*
X164943Y43511D02*
X168191D01*
X100500Y20200D02*
X112926Y32626D01*
Y41007D01*
X115429Y43511D01*
X118677D01*
X70550Y30150D02*
X80500Y20200D01*
X70550Y30150D02*
Y43511D01*
X69753Y20947D02*
Y25497D01*
X48491Y43511D02*
X51739D01*
X69753Y25497D01*
Y20947D02*
X70500Y20200D01*
X52009D02*
X60500D01*
X25450Y43511D02*
X28698D01*
X52009Y20200D01*
X349905Y596120D02*
X351465Y597680D01*
Y604610D01*
X349905Y590355D02*
Y596120D01*
D23*
X49031Y89500D02*
D03*
Y98555D02*
D03*
D24*
X25990Y89500D02*
D03*
D25*
X49031Y80445D02*
D03*
D28*
X47353Y185528D02*
D03*
D29*
Y194583D02*
D03*
Y203639D02*
D03*
D30*
X23731Y194583D02*
D03*
D35*
X245083Y82244D02*
D03*
X250988D02*
D03*
X289700Y67400D02*
D03*
X283795D02*
D03*
X349905Y590355D02*
D03*
X344000D02*
D03*
X257995Y588986D02*
D03*
X263900D02*
D03*
X315333Y534203D02*
D03*
X321239D02*
D03*
X294023Y438403D02*
D03*
X288118D02*
D03*
X137216Y100879D02*
D03*
X131310D02*
D03*
X371576Y518293D02*
D03*
X365670D02*
D03*
X113063Y129379D02*
D03*
X118969D02*
D03*
D37*
X140355Y249059D02*
D03*
Y243154D02*
D03*
X203355Y361751D02*
D03*
Y355846D02*
D03*
X203555Y267147D02*
D03*
Y273053D02*
D03*
X382613Y277558D02*
D03*
Y271652D02*
D03*
X359697Y303963D02*
D03*
Y309869D02*
D03*
X381128Y172007D02*
D03*
Y166102D02*
D03*
X359217Y204901D02*
D03*
Y198995D02*
D03*
X360183Y96689D02*
D03*
Y102595D02*
D03*
X381128Y62714D02*
D03*
Y68620D02*
D03*
D43*
X145227Y161158D02*
D03*
X158127D02*
D03*
X160585Y108479D02*
D03*
X147685D02*
D03*
Y93808D02*
D03*
X160585D02*
D03*
D48*
X128814Y142351D02*
D03*
X120153D02*
D03*
X129724Y115590D02*
D03*
X121063D02*
D03*
D49*
X62758Y77378D02*
D03*
Y84668D02*
D03*
X62958Y194600D02*
D03*
Y187310D02*
D03*
X65367Y140072D02*
D03*
Y132782D02*
D03*
D50*
X363700Y294572D02*
D03*
X366259D02*
D03*
X368818D02*
D03*
X371377D02*
D03*
Y278821D02*
D03*
X368818D02*
D03*
X366259D02*
D03*
X363011Y188851D02*
D03*
X365570D02*
D03*
X368130D02*
D03*
X370689D02*
D03*
Y173100D02*
D03*
X368130D02*
D03*
X365570D02*
D03*
X363977Y86545D02*
D03*
X366536D02*
D03*
X369095D02*
D03*
X371654D02*
D03*
Y70794D02*
D03*
X369095D02*
D03*
X366536D02*
D03*
X270404Y84214D02*
D03*
X267845D02*
D03*
X265286D02*
D03*
Y68463D02*
D03*
X267845D02*
D03*
X270404D02*
D03*
X272963D02*
D03*
D51*
X363700Y278821D02*
D03*
X363011Y173100D02*
D03*
X363977Y70794D02*
D03*
X272963Y84214D02*
D03*
D54*
X781538Y404421D02*
D03*
Y229815D02*
D03*
D59*
X563350Y213800D02*
D03*
Y203800D02*
D03*
Y193800D02*
D03*
Y183800D02*
D03*
Y173800D02*
D03*
Y163800D02*
D03*
Y153800D02*
D03*
Y143800D02*
D03*
Y133800D02*
D03*
X595850D02*
D03*
Y143800D02*
D03*
Y153800D02*
D03*
Y163800D02*
D03*
Y173800D02*
D03*
Y183800D02*
D03*
Y193800D02*
D03*
Y203800D02*
D03*
Y213800D02*
D03*
D60*
X73302Y209156D02*
D03*
X75080Y152552D02*
D03*
X70201Y102567D02*
D03*
X66013Y209156D02*
D03*
X62912Y102567D02*
D03*
X67790Y152552D02*
D03*
D62*
X25450Y43511D02*
D03*
X634600Y249782D02*
D03*
Y143742D02*
D03*
Y37701D02*
D03*
Y302801D02*
D03*
Y196762D02*
D03*
Y90722D02*
D03*
X118677Y43511D02*
D03*
X141950D02*
D03*
X48491D02*
D03*
X94491D02*
D03*
X70550D02*
D03*
X168191D02*
D03*
X286932Y184700D02*
D03*
X242932Y184400D02*
D03*
D63*
X249208Y36611D02*
D03*
Y56611D02*
D03*
X230192Y46611D02*
D03*
X248547Y100011D02*
D03*
Y120010D02*
D03*
X229532Y110011D02*
D03*
D64*
X788925Y69685D02*
D03*
Y61811D02*
D03*
Y53937D02*
D03*
Y46063D02*
D03*
Y38189D02*
D03*
Y30315D02*
D03*
D65*
X766957Y16142D02*
D03*
Y83858D02*
D03*
D66*
X758900Y239362D02*
D03*
Y241331D02*
D03*
Y243299D02*
D03*
Y245268D02*
D03*
Y247236D02*
D03*
Y249205D02*
D03*
Y251173D02*
D03*
Y253142D02*
D03*
Y255110D02*
D03*
Y257079D02*
D03*
Y259047D02*
D03*
Y261016D02*
D03*
Y262984D02*
D03*
Y264953D02*
D03*
Y266921D02*
D03*
Y268890D02*
D03*
Y270858D02*
D03*
Y272827D02*
D03*
Y274795D02*
D03*
Y276764D02*
D03*
Y278732D02*
D03*
Y280701D02*
D03*
Y282669D02*
D03*
Y284638D02*
D03*
Y286606D02*
D03*
Y288575D02*
D03*
Y290543D02*
D03*
Y292512D02*
D03*
Y294480D02*
D03*
Y296449D02*
D03*
Y298417D02*
D03*
Y300386D02*
D03*
Y302354D02*
D03*
Y304323D02*
D03*
Y306291D02*
D03*
Y308260D02*
D03*
Y310228D02*
D03*
Y312197D02*
D03*
Y314165D02*
D03*
Y316134D02*
D03*
Y318102D02*
D03*
Y320071D02*
D03*
Y322039D02*
D03*
Y324008D02*
D03*
Y325976D02*
D03*
Y327945D02*
D03*
Y329913D02*
D03*
Y331882D02*
D03*
Y333850D02*
D03*
Y335819D02*
D03*
Y337787D02*
D03*
Y339756D02*
D03*
Y341724D02*
D03*
Y343693D02*
D03*
Y345661D02*
D03*
Y347630D02*
D03*
Y349598D02*
D03*
Y351567D02*
D03*
Y353535D02*
D03*
Y355504D02*
D03*
Y357472D02*
D03*
Y359441D02*
D03*
Y361409D02*
D03*
Y363378D02*
D03*
Y365347D02*
D03*
Y367315D02*
D03*
Y369284D02*
D03*
Y371252D02*
D03*
Y373220D02*
D03*
Y375189D02*
D03*
Y377157D02*
D03*
Y379126D02*
D03*
Y381095D02*
D03*
Y383063D02*
D03*
Y385032D02*
D03*
Y387000D02*
D03*
Y388968D02*
D03*
Y390937D02*
D03*
Y392905D02*
D03*
Y394874D02*
D03*
D71*
X517345Y98618D02*
D03*
X501645D02*
D03*
X485945D02*
D03*
X517345Y308698D02*
D03*
X501645D02*
D03*
X485945D02*
D03*
X517345Y203658D02*
D03*
X501645D02*
D03*
X485945D02*
D03*
X517345Y255401D02*
D03*
X501645D02*
D03*
X485945D02*
D03*
X517345Y150140D02*
D03*
X501645D02*
D03*
X485945D02*
D03*
X517345Y46098D02*
D03*
X501645D02*
D03*
X485945D02*
D03*
D72*
X23950Y143026D02*
D03*
D73*
X48753Y152081D02*
D03*
Y143026D02*
D03*
Y133971D02*
D03*
D74*
X274799Y526228D02*
D03*
Y532331D02*
D03*
D75*
X154135Y142056D02*
D03*
Y149339D02*
D03*
D76*
X184361Y155166D02*
D03*
Y144930D02*
D03*
X196700Y99510D02*
D03*
Y89274D02*
D03*
D77*
X182672Y110447D02*
D03*
Y103361D02*
D03*
D78*
X287527Y536779D02*
D03*
Y531779D02*
D03*
Y526780D02*
D03*
Y521779D02*
D03*
X306424Y536779D02*
D03*
Y531779D02*
D03*
Y526780D02*
D03*
Y521779D02*
D03*
D79*
X120500Y250043D02*
D03*
Y242957D02*
D03*
X401702Y515016D02*
D03*
Y507930D02*
D03*
X327890Y418064D02*
D03*
Y425150D02*
D03*
D80*
X167414Y324400D02*
D03*
X164855D02*
D03*
X162296D02*
D03*
X159737D02*
D03*
X157178D02*
D03*
X154619D02*
D03*
X152060D02*
D03*
X149501D02*
D03*
X167414Y302353D02*
D03*
X164855D02*
D03*
X162296D02*
D03*
X159737D02*
D03*
X157178D02*
D03*
X154619D02*
D03*
X152060D02*
D03*
X149501D02*
D03*
D81*
X295648Y626441D02*
D03*
Y621441D02*
D03*
Y616441D02*
D03*
Y611441D02*
D03*
X314152Y626441D02*
D03*
Y621441D02*
D03*
Y616441D02*
D03*
Y611441D02*
D03*
D82*
X374734Y551920D02*
D03*
Y549951D02*
D03*
Y547983D02*
D03*
Y546014D02*
D03*
Y544046D02*
D03*
Y542077D02*
D03*
Y540109D02*
D03*
Y538140D02*
D03*
Y536172D02*
D03*
Y534203D02*
D03*
Y532235D02*
D03*
Y530266D02*
D03*
X407017D02*
D03*
Y532235D02*
D03*
Y534203D02*
D03*
Y536172D02*
D03*
Y538140D02*
D03*
Y540109D02*
D03*
Y542077D02*
D03*
Y544046D02*
D03*
Y546014D02*
D03*
Y547983D02*
D03*
Y549951D02*
D03*
Y551920D02*
D03*
X304858Y465372D02*
D03*
Y463403D02*
D03*
Y461435D02*
D03*
Y459466D02*
D03*
Y457498D02*
D03*
Y455529D02*
D03*
Y453560D02*
D03*
Y451592D02*
D03*
Y449623D02*
D03*
Y447655D02*
D03*
Y445686D02*
D03*
Y443718D02*
D03*
X337142D02*
D03*
Y445686D02*
D03*
Y447655D02*
D03*
Y449623D02*
D03*
Y451592D02*
D03*
Y453560D02*
D03*
Y455529D02*
D03*
Y457498D02*
D03*
Y459466D02*
D03*
Y461435D02*
D03*
Y463403D02*
D03*
Y465372D02*
D03*
D83*
X380049Y524951D02*
D03*
X382017D02*
D03*
X383986D02*
D03*
X385954D02*
D03*
X387923D02*
D03*
X389891D02*
D03*
X391860D02*
D03*
X397765D02*
D03*
X401702Y557235D02*
D03*
X399734D02*
D03*
X397765D02*
D03*
X395797D02*
D03*
X393828D02*
D03*
X391860D02*
D03*
X389891D02*
D03*
X387923D02*
D03*
X385954D02*
D03*
X383986D02*
D03*
X382017D02*
D03*
X380049D02*
D03*
X399734Y524951D02*
D03*
X401702D02*
D03*
X393828D02*
D03*
X395797D02*
D03*
X323953Y438403D02*
D03*
X325921D02*
D03*
X331827D02*
D03*
X329858D02*
D03*
X310173D02*
D03*
X312142D02*
D03*
X314110D02*
D03*
X316079D02*
D03*
X318047D02*
D03*
X320016D02*
D03*
X321984D02*
D03*
X327890D02*
D03*
X331827Y470686D02*
D03*
X329858D02*
D03*
X327890D02*
D03*
X325921D02*
D03*
X323953D02*
D03*
X321984D02*
D03*
X320016D02*
D03*
X318047D02*
D03*
X316079D02*
D03*
X314110D02*
D03*
X312142D02*
D03*
X310173D02*
D03*
D84*
X171563Y145205D02*
D03*
Y137528D02*
D03*
D85*
X144197Y132371D02*
D03*
Y128434D02*
D03*
Y124497D02*
D03*
X160929Y132371D02*
D03*
Y130403D02*
D03*
Y126466D02*
D03*
Y124497D02*
D03*
X144197Y126466D02*
D03*
Y130403D02*
D03*
X160929Y128434D02*
D03*
D86*
X181310Y132371D02*
D03*
X187413D02*
D03*
X181195Y121741D02*
D03*
X187297D02*
D03*
D87*
X171563Y114923D02*
D03*
Y108033D02*
D03*
D88*
X351946Y280038D02*
D03*
X344859D02*
D03*
X351552Y291022D02*
D03*
X344466D02*
D03*
X350734Y186002D02*
D03*
X343648D02*
D03*
X410569Y276918D02*
D03*
X404664D02*
D03*
X409045Y316318D02*
D03*
X403140D02*
D03*
X345345Y72764D02*
D03*
X352432D02*
D03*
X344379Y175070D02*
D03*
X351466D02*
D03*
X405357Y69469D02*
D03*
X411262D02*
D03*
X405413Y109017D02*
D03*
X411318D02*
D03*
X404208Y172318D02*
D03*
X410114D02*
D03*
X403013Y211435D02*
D03*
X408919D02*
D03*
X345257Y83701D02*
D03*
X352343D02*
D03*
D89*
X429769Y69403D02*
D03*
X422092D02*
D03*
X430025Y108951D02*
D03*
X422348D02*
D03*
X427291Y171629D02*
D03*
X419614D02*
D03*
X429260Y211435D02*
D03*
X421582D02*
D03*
X429076Y276852D02*
D03*
X421399D02*
D03*
X429638Y316318D02*
D03*
X421961D02*
D03*
D90*
X652505Y437822D02*
D03*
Y439791D02*
D03*
Y441759D02*
D03*
Y443728D02*
D03*
Y445696D02*
D03*
Y447665D02*
D03*
Y449633D02*
D03*
Y451602D02*
D03*
Y453570D02*
D03*
Y455539D02*
D03*
Y457507D02*
D03*
Y459476D02*
D03*
Y461444D02*
D03*
Y463413D02*
D03*
Y465381D02*
D03*
Y467350D02*
D03*
Y469318D02*
D03*
Y471287D02*
D03*
Y473255D02*
D03*
Y475224D02*
D03*
Y477192D02*
D03*
Y479161D02*
D03*
Y481129D02*
D03*
Y483098D02*
D03*
Y485066D02*
D03*
Y487035D02*
D03*
Y489003D02*
D03*
Y490972D02*
D03*
Y492940D02*
D03*
Y494909D02*
D03*
Y496877D02*
D03*
Y498846D02*
D03*
Y500814D02*
D03*
Y502783D02*
D03*
Y504751D02*
D03*
Y506720D02*
D03*
D91*
X665300Y430342D02*
D03*
Y514200D02*
D03*
D92*
X868800Y203659D02*
D03*
Y201691D02*
D03*
Y199722D02*
D03*
Y197754D02*
D03*
Y195785D02*
D03*
Y193816D02*
D03*
Y191848D02*
D03*
Y189880D02*
D03*
Y187911D02*
D03*
Y185942D02*
D03*
Y183974D02*
D03*
Y182006D02*
D03*
Y180037D02*
D03*
Y178068D02*
D03*
Y176100D02*
D03*
Y174132D02*
D03*
Y172163D02*
D03*
Y170194D02*
D03*
Y168226D02*
D03*
Y166258D02*
D03*
Y144604D02*
D03*
Y142635D02*
D03*
Y140667D02*
D03*
Y138698D02*
D03*
Y136730D02*
D03*
Y134761D02*
D03*
Y132793D02*
D03*
Y130824D02*
D03*
Y128856D02*
D03*
Y126887D02*
D03*
Y124919D02*
D03*
Y122950D02*
D03*
Y120982D02*
D03*
Y119013D02*
D03*
Y117045D02*
D03*
Y115076D02*
D03*
Y113108D02*
D03*
Y111139D02*
D03*
Y109171D02*
D03*
Y107202D02*
D03*
Y105234D02*
D03*
Y103265D02*
D03*
Y101297D02*
D03*
Y99328D02*
D03*
Y97360D02*
D03*
Y95391D02*
D03*
Y93423D02*
D03*
Y91454D02*
D03*
Y89486D02*
D03*
Y87517D02*
D03*
Y146572D02*
D03*
Y148541D02*
D03*
Y150510D02*
D03*
Y152478D02*
D03*
Y154446D02*
D03*
Y156415D02*
D03*
Y158384D02*
D03*
Y160352D02*
D03*
Y162320D02*
D03*
Y164289D02*
D03*
D93*
X881103Y79250D02*
D03*
Y211927D02*
D03*
D94*
X263841Y113672D02*
D03*
X264598Y42950D02*
D03*
Y50430D02*
D03*
X263841Y106192D02*
D03*
D95*
X200236Y98845D02*
X232467Y66614D01*
X239318D01*
X230192D02*
X232467D01*
X196700Y99510D02*
X197365Y98845D01*
X200236D01*
X171563Y145205D02*
X195196D01*
X225539Y114862D01*
X154532Y151456D02*
X158127Y155052D01*
Y161158D01*
X172917Y106693D02*
X176250Y103361D01*
X192253D01*
X195508Y100106D01*
X171563Y108033D02*
X172153D01*
X172917Y106693D02*
Y107269D01*
X172153Y108033D02*
X172917Y107269D01*
X171340Y108256D02*
X171563Y108033D01*
X195508Y100106D02*
X196700D01*
X252366Y82244D02*
X261479D01*
X250618Y81874D02*
X250988Y82244D01*
X239318Y66614D02*
X250618Y77914D01*
X250988Y82244D02*
X252366D01*
X250618Y77914D02*
Y81874D01*
X278500Y67400D02*
X283795D01*
Y112183D01*
X266953Y129025D02*
X283795Y112183D01*
X220900Y88000D02*
Y101379D01*
X229532Y110011D01*
Y118776D02*
X239780Y129025D01*
X266953D01*
X229532Y110011D02*
Y118776D01*
X226382Y110011D02*
X229532D01*
X230192Y46611D02*
Y66614D01*
X160585Y108479D02*
X160808Y108256D01*
X171340D01*
X225539Y110853D02*
Y114862D01*
Y110853D02*
X226382Y110011D01*
D96*
X196661Y172099D02*
D03*
X196618Y198800D02*
D03*
X60500Y20200D02*
D03*
X404769Y295298D02*
D03*
X404928Y255231D02*
D03*
X404340Y189979D02*
D03*
Y150340D02*
D03*
X405156Y87931D02*
D03*
X405328Y48312D02*
D03*
X120355Y265300D02*
D03*
X120555Y353000D02*
D03*
X14900Y406945D02*
D03*
X184900Y439045D02*
D03*
X14900Y460045D02*
D03*
Y560045D02*
D03*
X184900Y591845D02*
D03*
X14900Y613945D02*
D03*
D97*
X186661Y172099D02*
D03*
X176661D02*
D03*
X186618Y198800D02*
D03*
X176618D02*
D03*
X120500Y20200D02*
D03*
X110500D02*
D03*
X100500D02*
D03*
X90500D02*
D03*
X70500D02*
D03*
X80500D02*
D03*
X404769Y305298D02*
D03*
X414769Y295298D02*
D03*
Y305298D02*
D03*
X424769Y295298D02*
D03*
Y305298D02*
D03*
X404928Y265231D02*
D03*
X414928Y255231D02*
D03*
Y265231D02*
D03*
X424929Y255231D02*
D03*
Y265231D02*
D03*
X404340Y199979D02*
D03*
X414340Y189979D02*
D03*
Y199979D02*
D03*
X424340Y189979D02*
D03*
Y199979D02*
D03*
X404340Y160340D02*
D03*
X414340Y150340D02*
D03*
Y160340D02*
D03*
X424340Y150340D02*
D03*
Y160340D02*
D03*
X405156Y97931D02*
D03*
X415156Y87931D02*
D03*
Y97931D02*
D03*
X425156Y87931D02*
D03*
Y97931D02*
D03*
X405328Y58312D02*
D03*
X415328Y48312D02*
D03*
Y58312D02*
D03*
X425327Y48312D02*
D03*
Y58312D02*
D03*
X253900Y603855D02*
D03*
X263900Y613855D02*
D03*
X253900D02*
D03*
X263900Y623855D02*
D03*
X253900D02*
D03*
X263900Y633855D02*
D03*
X253900D02*
D03*
X140555Y363000D02*
D03*
X351465Y634610D02*
D03*
Y624610D02*
D03*
X24900Y591845D02*
D03*
Y613945D02*
D03*
X190355Y275300D02*
D03*
Y265300D02*
D03*
X180355Y275300D02*
D03*
Y265300D02*
D03*
X170355Y275300D02*
D03*
Y265300D02*
D03*
X160355Y275300D02*
D03*
Y265300D02*
D03*
X150355Y275300D02*
D03*
Y265300D02*
D03*
X140355Y275300D02*
D03*
Y265300D02*
D03*
X130355Y275300D02*
D03*
Y265300D02*
D03*
X120355Y275300D02*
D03*
X190555Y363000D02*
D03*
Y353000D02*
D03*
X180555Y363000D02*
D03*
Y353000D02*
D03*
X170555Y363000D02*
D03*
Y353000D02*
D03*
X160555Y363000D02*
D03*
Y353000D02*
D03*
X150555Y363000D02*
D03*
Y353000D02*
D03*
X140555D02*
D03*
X130555Y363000D02*
D03*
Y353000D02*
D03*
X120555Y363000D02*
D03*
X341465Y604610D02*
D03*
X351465Y614610D02*
D03*
X341465D02*
D03*
Y624610D02*
D03*
Y634610D02*
D03*
X24900Y406945D02*
D03*
X34900D02*
D03*
X44900D02*
D03*
X54900D02*
D03*
X64900D02*
D03*
X74900D02*
D03*
X84900D02*
D03*
X94900D02*
D03*
X104900D02*
D03*
X114900D02*
D03*
X124900D02*
D03*
X134900D02*
D03*
X144900D02*
D03*
X154900D02*
D03*
X164900D02*
D03*
X174900D02*
D03*
X184900D02*
D03*
Y429045D02*
D03*
X174900Y439045D02*
D03*
Y429045D02*
D03*
X164900Y439045D02*
D03*
Y429045D02*
D03*
X154900Y439045D02*
D03*
Y429045D02*
D03*
X144900Y439045D02*
D03*
Y429045D02*
D03*
X134900Y439045D02*
D03*
Y429045D02*
D03*
X124900Y439045D02*
D03*
Y429045D02*
D03*
X114900Y439045D02*
D03*
Y429045D02*
D03*
X104900Y439045D02*
D03*
Y429045D02*
D03*
X94900Y439045D02*
D03*
Y429045D02*
D03*
X84900Y439045D02*
D03*
Y429045D02*
D03*
X74900Y439045D02*
D03*
Y429045D02*
D03*
X64900Y439045D02*
D03*
Y429045D02*
D03*
X54900Y439045D02*
D03*
Y429045D02*
D03*
X44900Y439045D02*
D03*
Y429045D02*
D03*
X34900Y439045D02*
D03*
Y429045D02*
D03*
X24900Y439045D02*
D03*
Y429045D02*
D03*
X14900Y439045D02*
D03*
Y429045D02*
D03*
X24900Y460045D02*
D03*
X34900D02*
D03*
X44900D02*
D03*
X54900D02*
D03*
X64900D02*
D03*
X74900D02*
D03*
X84900D02*
D03*
X94900D02*
D03*
X104900D02*
D03*
X114900D02*
D03*
X124900D02*
D03*
X134900D02*
D03*
X144900D02*
D03*
X154900D02*
D03*
X164900D02*
D03*
X174900D02*
D03*
X184900D02*
D03*
X24900Y560045D02*
D03*
X34900D02*
D03*
X44900D02*
D03*
X54900D02*
D03*
X64900D02*
D03*
X74900D02*
D03*
X84900D02*
D03*
X94900D02*
D03*
X104900D02*
D03*
X114900D02*
D03*
X124900D02*
D03*
X134900D02*
D03*
X144900D02*
D03*
X154900D02*
D03*
X164900D02*
D03*
X174900D02*
D03*
X184900D02*
D03*
Y581845D02*
D03*
X174900Y591845D02*
D03*
Y581845D02*
D03*
X164900Y591845D02*
D03*
Y581845D02*
D03*
X154900Y591845D02*
D03*
Y581845D02*
D03*
X144900Y591845D02*
D03*
Y581845D02*
D03*
X134900Y591845D02*
D03*
Y581845D02*
D03*
X124900Y591845D02*
D03*
Y581845D02*
D03*
X114900Y591845D02*
D03*
Y581845D02*
D03*
X104900Y591845D02*
D03*
Y581845D02*
D03*
X94900Y591845D02*
D03*
Y581845D02*
D03*
X84900Y591845D02*
D03*
Y581845D02*
D03*
X74900Y591845D02*
D03*
Y581845D02*
D03*
X64900Y591845D02*
D03*
Y581845D02*
D03*
X54900Y591845D02*
D03*
Y581845D02*
D03*
X44900Y591845D02*
D03*
Y581845D02*
D03*
X34900Y591845D02*
D03*
Y581845D02*
D03*
X24900D02*
D03*
X14900Y591845D02*
D03*
Y581845D02*
D03*
X34900Y613945D02*
D03*
X44900D02*
D03*
X54900D02*
D03*
X64900D02*
D03*
X74900D02*
D03*
X84900D02*
D03*
X94900D02*
D03*
X104900D02*
D03*
X114900D02*
D03*
X124900D02*
D03*
X134900D02*
D03*
X144900D02*
D03*
X154900D02*
D03*
X164900D02*
D03*
X174900D02*
D03*
X184900D02*
D03*
X729300Y39500D02*
D03*
Y49500D02*
D03*
Y59500D02*
D03*
Y69500D02*
D03*
Y79500D02*
D03*
D98*
X263900Y603855D02*
D03*
X351465Y604610D02*
D03*
X729300Y29500D02*
D03*
D99*
X531145Y82118D02*
D03*
X472145Y106518D02*
D03*
X531145Y292198D02*
D03*
X472145Y316598D02*
D03*
X531145Y187158D02*
D03*
X472145Y211558D02*
D03*
X531145Y238901D02*
D03*
X472145Y263301D02*
D03*
X531145Y133640D02*
D03*
X472145Y158040D02*
D03*
X531145Y29598D02*
D03*
X472145Y53998D02*
D03*
D100*
X383017Y443659D02*
D03*
X386702Y442531D02*
D03*
X380686Y548928D02*
D03*
X386154Y562872D02*
D03*
X391860Y492121D02*
D03*
X393736Y494969D02*
D03*
X390477Y489221D02*
D03*
X127900Y469600D02*
D03*
X164900Y517157D02*
D03*
X363060Y537074D02*
D03*
X364304Y534038D02*
D03*
X368084Y527714D02*
D03*
X364917Y530153D02*
D03*
X370600Y525343D02*
D03*
X366203Y542611D02*
D03*
X363111Y546014D02*
D03*
X363222Y549220D02*
D03*
X366654Y549986D02*
D03*
X367940Y554973D02*
D03*
X383958Y565418D02*
D03*
X381154Y563109D02*
D03*
X673522Y435974D02*
D03*
X295776Y454400D02*
D03*
X292667Y452365D02*
D03*
X293872Y458081D02*
D03*
X293213Y461673D02*
D03*
X293856Y465446D02*
D03*
X299273Y468600D02*
D03*
X296032Y467793D02*
D03*
X317399Y477126D02*
D03*
X668006Y502783D02*
D03*
X670506Y500736D02*
D03*
X305800Y472500D02*
D03*
X304407Y468600D02*
D03*
X292288Y448156D02*
D03*
X295467Y447106D02*
D03*
X298721Y441690D02*
D03*
X296656Y444135D02*
D03*
X313993Y478835D02*
D03*
X681472Y463049D02*
D03*
X678635Y466100D02*
D03*
X680818Y459900D02*
D03*
X682939Y456449D02*
D03*
X680324Y454212D02*
D03*
X681835Y471287D02*
D03*
Y477192D02*
D03*
X684368Y474014D02*
D03*
X684100Y480221D02*
D03*
X681835Y483098D02*
D03*
X684100Y485621D02*
D03*
X680442Y491655D02*
D03*
X677898Y493980D02*
D03*
X675829Y496421D02*
D03*
X672965Y498688D02*
D03*
X665856Y505467D02*
D03*
X663443Y507569D02*
D03*
X660382Y508745D02*
D03*
X681803Y446693D02*
D03*
X682195Y449868D02*
D03*
X681600Y442624D02*
D03*
X678756Y440167D02*
D03*
X676096Y438387D02*
D03*
X670506Y438651D02*
D03*
X667837Y436674D02*
D03*
X659120D02*
D03*
X662009Y438365D02*
D03*
X665115Y439134D02*
D03*
X770439Y240446D02*
D03*
X775343Y343201D02*
D03*
X771719Y344807D02*
D03*
X778797Y341764D02*
D03*
X781629Y339264D02*
D03*
X784141Y336350D02*
D03*
X786898Y333850D02*
D03*
X786065Y330405D02*
D03*
X788271Y327000D02*
D03*
X786065Y324500D02*
D03*
X788423Y321587D02*
D03*
X786065Y319087D02*
D03*
X787772Y316134D02*
D03*
X787514Y309006D02*
D03*
X786047Y302781D02*
D03*
X786898Y305865D02*
D03*
X786779Y312285D02*
D03*
X786760Y263731D02*
D03*
X787425Y259485D02*
D03*
X788054Y255602D02*
D03*
X787111Y267413D02*
D03*
X786715Y271452D02*
D03*
X787239Y274609D02*
D03*
X788802Y252168D02*
D03*
X788709Y248492D02*
D03*
X785672Y246744D02*
D03*
X783993Y243370D02*
D03*
X781494Y240808D02*
D03*
X778183Y239854D02*
D03*
X768091Y238040D02*
D03*
X772503Y244000D02*
D03*
X172153Y129025D02*
D03*
X167626Y129517D02*
D03*
X141950Y43511D02*
D03*
X118677D02*
D03*
X94485D02*
D03*
X70550D02*
D03*
X48491D02*
D03*
X25450D02*
D03*
X634600Y302801D02*
D03*
X287527Y517969D02*
D03*
X376194Y70930D02*
D03*
X327924Y534170D02*
D03*
X363700Y299885D02*
D03*
X363713Y92800D02*
D03*
X362563Y194301D02*
D03*
X294500Y67400D02*
D03*
X264598Y36611D02*
D03*
X263841Y119400D02*
D03*
X240441Y82244D02*
D03*
X165159Y93808D02*
D03*
X645900Y434100D02*
D03*
X642020Y439909D02*
D03*
X640000Y443000D02*
D03*
X643870Y437018D02*
D03*
X634600Y37701D02*
D03*
X708560Y99620D02*
D03*
X634600Y90184D02*
D03*
X681078Y128123D02*
D03*
X634600Y143742D02*
D03*
X654826Y153493D02*
D03*
X634600Y195308D02*
D03*
X655874D02*
D03*
X634600Y249782D02*
D03*
X654451Y246084D02*
D03*
X247500Y405200D02*
D03*
X247800Y408500D02*
D03*
X681197Y488167D02*
D03*
X775327Y242387D02*
D03*
X588900Y213800D02*
D03*
X589000Y183800D02*
D03*
X588900Y153700D02*
D03*
X556700Y193800D02*
D03*
Y163800D02*
D03*
Y133800D02*
D03*
X269000Y588953D02*
D03*
X375687Y62599D02*
D03*
X360216Y106982D02*
D03*
X375033Y166102D02*
D03*
X364881Y203916D02*
D03*
X377343Y271402D02*
D03*
X365097Y309905D02*
D03*
X404655Y520817D02*
D03*
X361300Y518260D02*
D03*
X334780Y438370D02*
D03*
X283600D02*
D03*
X203355Y352182D02*
D03*
X152563Y123908D02*
D03*
X150595Y126466D02*
D03*
X152563Y129517D02*
D03*
X154851Y126466D02*
D03*
X154649Y132233D02*
D03*
X150594D02*
D03*
X376597Y558884D02*
D03*
X372256Y557269D02*
D03*
X364064Y540112D02*
D03*
X310386Y477126D02*
D03*
X297824Y520914D02*
D03*
X168351Y43319D02*
D03*
X220900Y88000D02*
D03*
X333164Y418064D02*
D03*
X286932Y184700D02*
D03*
X242932Y184400D02*
D03*
X269100Y63000D02*
D03*
X276500Y84061D02*
D03*
X338742Y291022D02*
D03*
X338663Y280117D02*
D03*
X338614Y185953D02*
D03*
Y175664D02*
D03*
X339819Y83762D02*
D03*
X339912Y72790D02*
D03*
X401700Y503300D02*
D03*
X276621Y485590D02*
D03*
X358233Y295670D02*
D03*
X374792Y295298D02*
D03*
X374201Y189742D02*
D03*
X351832Y193423D02*
D03*
X375033Y86600D02*
D03*
X352806Y90362D02*
D03*
X120647Y587298D02*
D03*
X160801Y513438D02*
D03*
X161443Y516998D02*
D03*
X129854Y550567D02*
D03*
X396800Y514700D02*
D03*
X173500Y524900D02*
D03*
X314152Y549951D02*
D03*
X91502Y550800D02*
D03*
X106700Y129346D02*
D03*
X74582Y107147D02*
D03*
X78946Y156584D02*
D03*
X56427Y185607D02*
D03*
X78280Y213960D02*
D03*
D101*
X58700Y152752D02*
D03*
X39479Y143335D02*
D03*
X32403D02*
D03*
X57172Y142936D02*
D03*
X57019Y134536D02*
D03*
X191253Y155560D02*
D03*
X308837Y541819D02*
D03*
X375970Y278821D02*
D03*
X187355Y127056D02*
D03*
X189479Y88678D02*
D03*
X377920Y519620D02*
D03*
X41700Y194600D02*
D03*
X36253Y194583D02*
D03*
X31621D02*
D03*
X300724Y438403D02*
D03*
X374968Y173100D02*
D03*
X55296Y80445D02*
D03*
X49100Y70600D02*
D03*
X49031Y75228D02*
D03*
X55637Y87532D02*
D03*
X125394Y128735D02*
D03*
X56100Y98555D02*
D03*
X57592Y203655D02*
D03*
X203555Y279000D02*
D03*
X338426Y590355D02*
D03*
X146700Y243154D02*
D03*
M02*
