G04*
G04 #@! TF.GenerationSoftware,Altium Limited,Altium Designer,22.3.1 (43)*
G04*
G04 Layer_Color=255*
%FSLAX25Y25*%
%MOIN*%
G70*
G04*
G04 #@! TF.SameCoordinates,6E0130DB-2DEF-44AD-BCF0-1A686082A26A*
G04*
G04*
G04 #@! TF.FilePolarity,Positive*
G04*
G01*
G75*
G04:AMPARAMS|DCode=23|XSize=61.4mil|YSize=32.76mil|CornerRadius=16.38mil|HoleSize=0mil|Usage=FLASHONLY|Rotation=180.000|XOffset=0mil|YOffset=0mil|HoleType=Round|Shape=RoundedRectangle|*
%AMROUNDEDRECTD23*
21,1,0.06140,0.00000,0,0,180.0*
21,1,0.02864,0.03276,0,0,180.0*
1,1,0.03276,-0.01432,0.00000*
1,1,0.03276,0.01432,0.00000*
1,1,0.03276,0.01432,0.00000*
1,1,0.03276,-0.01432,0.00000*
%
%ADD23ROUNDEDRECTD23*%
G04:AMPARAMS|DCode=24|XSize=61.4mil|YSize=123.31mil|CornerRadius=16.27mil|HoleSize=0mil|Usage=FLASHONLY|Rotation=180.000|XOffset=0mil|YOffset=0mil|HoleType=Round|Shape=RoundedRectangle|*
%AMROUNDEDRECTD24*
21,1,0.06140,0.09077,0,0,180.0*
21,1,0.02886,0.12331,0,0,180.0*
1,1,0.03254,-0.01443,0.04538*
1,1,0.03254,0.01443,0.04538*
1,1,0.03254,0.01443,-0.04538*
1,1,0.03254,-0.01443,-0.04538*
%
%ADD24ROUNDEDRECTD24*%
%ADD25R,0.06140X0.03276*%
%ADD28R,0.06316X0.03464*%
G04:AMPARAMS|DCode=29|XSize=63.16mil|YSize=34.64mil|CornerRadius=17.32mil|HoleSize=0mil|Usage=FLASHONLY|Rotation=180.000|XOffset=0mil|YOffset=0mil|HoleType=Round|Shape=RoundedRectangle|*
%AMROUNDEDRECTD29*
21,1,0.06316,0.00000,0,0,180.0*
21,1,0.02852,0.03464,0,0,180.0*
1,1,0.03464,-0.01426,0.00000*
1,1,0.03464,0.01426,0.00000*
1,1,0.03464,0.01426,0.00000*
1,1,0.03464,-0.01426,0.00000*
%
%ADD29ROUNDEDRECTD29*%
G04:AMPARAMS|DCode=30|XSize=63.16mil|YSize=125.19mil|CornerRadius=17.37mil|HoleSize=0mil|Usage=FLASHONLY|Rotation=180.000|XOffset=0mil|YOffset=0mil|HoleType=Round|Shape=RoundedRectangle|*
%AMROUNDEDRECTD30*
21,1,0.06316,0.09045,0,0,180.0*
21,1,0.02842,0.12519,0,0,180.0*
1,1,0.03474,-0.01421,0.04523*
1,1,0.03474,0.01421,0.04523*
1,1,0.03474,0.01421,-0.04523*
1,1,0.03474,-0.01421,-0.04523*
%
%ADD30ROUNDEDRECTD30*%
%ADD35R,0.03740X0.05315*%
%ADD37R,0.05315X0.03740*%
%ADD43R,0.03600X0.04800*%
%ADD48R,0.03150X0.10630*%
%ADD49R,0.06127X0.05727*%
G04:AMPARAMS|DCode=50|XSize=57.25mil|YSize=17.16mil|CornerRadius=8.58mil|HoleSize=0mil|Usage=FLASHONLY|Rotation=90.000|XOffset=0mil|YOffset=0mil|HoleType=Round|Shape=RoundedRectangle|*
%AMROUNDEDRECTD50*
21,1,0.05725,0.00000,0,0,90.0*
21,1,0.04009,0.01716,0,0,90.0*
1,1,0.01716,0.00000,0.02005*
1,1,0.01716,0.00000,-0.02005*
1,1,0.01716,0.00000,-0.02005*
1,1,0.01716,0.00000,0.02005*
%
%ADD50ROUNDEDRECTD50*%
%ADD51R,0.01716X0.05725*%
%ADD54R,0.07087X0.09252*%
%ADD59R,0.08500X0.04016*%
%ADD60R,0.05727X0.06127*%
%ADD62R,0.13504X0.07008*%
%ADD63R,0.10984X0.04685*%
%ADD64R,0.08661X0.04724*%
%ADD65R,0.16535X0.07874*%
%ADD66R,0.05118X0.01181*%
%ADD71C,0.05500*%
%ADD72R,0.07874X0.14961*%
%ADD73R,0.07874X0.05906*%
%ADD74R,0.05118X0.03543*%
%ADD75R,0.06102X0.06102*%
%ADD76R,0.06693X0.04331*%
%ADD77R,0.06102X0.05906*%
%ADD78O,0.08661X0.02362*%
%ADD79R,0.05315X0.03937*%
%ADD80O,0.01378X0.05512*%
%ADD81O,0.07480X0.02362*%
%ADD82O,0.06496X0.01181*%
%ADD83O,0.01181X0.06496*%
%ADD84R,0.06102X0.05315*%
%ADD85O,0.06299X0.01181*%
%ADD86R,0.03740X0.05315*%
%ADD87R,0.05709X0.04528*%
%ADD88R,0.03937X0.05315*%
%ADD89R,0.05315X0.06102*%
%ADD90R,0.05118X0.01181*%
%ADD91R,0.08661X0.07087*%
%ADD92R,0.03937X0.01181*%
%ADD93R,0.08465X0.05512*%
%ADD94R,0.06102X0.05512*%
%ADD96R,0.05906X0.05906*%
%ADD97C,0.05906*%
%ADD98R,0.05906X0.05906*%
%ADD99C,0.07500*%
D23*
X49031Y89500D02*
D03*
Y98555D02*
D03*
D24*
X25990Y89500D02*
D03*
D25*
X49031Y80445D02*
D03*
D28*
X47353Y185528D02*
D03*
D29*
Y194583D02*
D03*
Y203639D02*
D03*
D30*
X23731Y194583D02*
D03*
D35*
X245083Y82244D02*
D03*
X250988D02*
D03*
X289700Y67400D02*
D03*
X283795D02*
D03*
X349905Y590355D02*
D03*
X344000D02*
D03*
X257995Y588986D02*
D03*
X263900D02*
D03*
X315333Y534203D02*
D03*
X321239D02*
D03*
X294023Y438403D02*
D03*
X288118D02*
D03*
X137216Y100879D02*
D03*
X131310D02*
D03*
X371576Y518293D02*
D03*
X365670D02*
D03*
X113063Y129379D02*
D03*
X118969D02*
D03*
D37*
X140355Y249059D02*
D03*
Y243154D02*
D03*
X203355Y361751D02*
D03*
Y355846D02*
D03*
X203555Y267147D02*
D03*
Y273053D02*
D03*
X382613Y277558D02*
D03*
Y271652D02*
D03*
X359697Y303963D02*
D03*
Y309869D02*
D03*
X381128Y172007D02*
D03*
Y166102D02*
D03*
X359217Y204901D02*
D03*
Y198995D02*
D03*
X360183Y96689D02*
D03*
Y102595D02*
D03*
X381128Y62714D02*
D03*
Y68620D02*
D03*
D43*
X145227Y161158D02*
D03*
X158127D02*
D03*
X160585Y108479D02*
D03*
X147685D02*
D03*
Y93808D02*
D03*
X160585D02*
D03*
D48*
X128814Y142351D02*
D03*
X120153D02*
D03*
X129724Y115590D02*
D03*
X121063D02*
D03*
D49*
X62758Y77378D02*
D03*
Y84668D02*
D03*
X62958Y194600D02*
D03*
Y187310D02*
D03*
X65367Y140072D02*
D03*
Y132782D02*
D03*
D50*
X363700Y294572D02*
D03*
X366259D02*
D03*
X368818D02*
D03*
X371377D02*
D03*
Y278821D02*
D03*
X368818D02*
D03*
X366259D02*
D03*
X363011Y188851D02*
D03*
X365570D02*
D03*
X368130D02*
D03*
X370689D02*
D03*
Y173100D02*
D03*
X368130D02*
D03*
X365570D02*
D03*
X363977Y86545D02*
D03*
X366536D02*
D03*
X369095D02*
D03*
X371654D02*
D03*
Y70794D02*
D03*
X369095D02*
D03*
X366536D02*
D03*
X270404Y84214D02*
D03*
X267845D02*
D03*
X265286D02*
D03*
Y68463D02*
D03*
X267845D02*
D03*
X270404D02*
D03*
X272963D02*
D03*
D51*
X363700Y278821D02*
D03*
X363011Y173100D02*
D03*
X363977Y70794D02*
D03*
X272963Y84214D02*
D03*
D54*
X781538Y404421D02*
D03*
Y229815D02*
D03*
D59*
X563350Y213800D02*
D03*
Y203800D02*
D03*
Y193800D02*
D03*
Y183800D02*
D03*
Y173800D02*
D03*
Y163800D02*
D03*
Y153800D02*
D03*
Y143800D02*
D03*
Y133800D02*
D03*
X595850D02*
D03*
Y143800D02*
D03*
Y153800D02*
D03*
Y163800D02*
D03*
Y173800D02*
D03*
Y183800D02*
D03*
Y193800D02*
D03*
Y203800D02*
D03*
Y213800D02*
D03*
D60*
X73302Y209156D02*
D03*
X75080Y152552D02*
D03*
X70201Y102567D02*
D03*
X66013Y209156D02*
D03*
X62912Y102567D02*
D03*
X67790Y152552D02*
D03*
D62*
X25450Y43511D02*
D03*
X634600Y249782D02*
D03*
Y143742D02*
D03*
Y37701D02*
D03*
Y302801D02*
D03*
Y196762D02*
D03*
Y90722D02*
D03*
X118677Y43511D02*
D03*
X141950D02*
D03*
X48491D02*
D03*
X94491D02*
D03*
X70550D02*
D03*
X168191D02*
D03*
X286932Y184700D02*
D03*
X242932Y184400D02*
D03*
D63*
X249208Y36611D02*
D03*
Y56611D02*
D03*
X230192Y46611D02*
D03*
X248547Y100011D02*
D03*
Y120010D02*
D03*
X229532Y110011D02*
D03*
D64*
X788925Y69685D02*
D03*
Y61811D02*
D03*
Y53937D02*
D03*
Y46063D02*
D03*
Y38189D02*
D03*
Y30315D02*
D03*
D65*
X766957Y16142D02*
D03*
Y83858D02*
D03*
D66*
X758900Y239362D02*
D03*
Y241331D02*
D03*
Y243299D02*
D03*
Y245268D02*
D03*
Y247236D02*
D03*
Y249205D02*
D03*
Y251173D02*
D03*
Y253142D02*
D03*
Y255110D02*
D03*
Y257079D02*
D03*
Y259047D02*
D03*
Y261016D02*
D03*
Y262984D02*
D03*
Y264953D02*
D03*
Y266921D02*
D03*
Y268890D02*
D03*
Y270858D02*
D03*
Y272827D02*
D03*
Y274795D02*
D03*
Y276764D02*
D03*
Y278732D02*
D03*
Y280701D02*
D03*
Y282669D02*
D03*
Y284638D02*
D03*
Y286606D02*
D03*
Y288575D02*
D03*
Y290543D02*
D03*
Y292512D02*
D03*
Y294480D02*
D03*
Y296449D02*
D03*
Y298417D02*
D03*
Y300386D02*
D03*
Y302354D02*
D03*
Y304323D02*
D03*
Y306291D02*
D03*
Y308260D02*
D03*
Y310228D02*
D03*
Y312197D02*
D03*
Y314165D02*
D03*
Y316134D02*
D03*
Y318102D02*
D03*
Y320071D02*
D03*
Y322039D02*
D03*
Y324008D02*
D03*
Y325976D02*
D03*
Y327945D02*
D03*
Y329913D02*
D03*
Y331882D02*
D03*
Y333850D02*
D03*
Y335819D02*
D03*
Y337787D02*
D03*
Y339756D02*
D03*
Y341724D02*
D03*
Y343693D02*
D03*
Y345661D02*
D03*
Y347630D02*
D03*
Y349598D02*
D03*
Y351567D02*
D03*
Y353535D02*
D03*
Y355504D02*
D03*
Y357472D02*
D03*
Y359441D02*
D03*
Y361409D02*
D03*
Y363378D02*
D03*
Y365347D02*
D03*
Y367315D02*
D03*
Y369284D02*
D03*
Y371252D02*
D03*
Y373220D02*
D03*
Y375189D02*
D03*
Y377157D02*
D03*
Y379126D02*
D03*
Y381095D02*
D03*
Y383063D02*
D03*
Y385032D02*
D03*
Y387000D02*
D03*
Y388968D02*
D03*
Y390937D02*
D03*
Y392905D02*
D03*
Y394874D02*
D03*
D71*
X517345Y98618D02*
D03*
X501645D02*
D03*
X485945D02*
D03*
X517345Y308698D02*
D03*
X501645D02*
D03*
X485945D02*
D03*
X517345Y203658D02*
D03*
X501645D02*
D03*
X485945D02*
D03*
X517345Y255401D02*
D03*
X501645D02*
D03*
X485945D02*
D03*
X517345Y150140D02*
D03*
X501645D02*
D03*
X485945D02*
D03*
X517345Y46098D02*
D03*
X501645D02*
D03*
X485945D02*
D03*
D72*
X23950Y143026D02*
D03*
D73*
X48753Y152081D02*
D03*
Y143026D02*
D03*
Y133971D02*
D03*
D74*
X274799Y526228D02*
D03*
Y532331D02*
D03*
D75*
X154135Y142056D02*
D03*
Y149339D02*
D03*
D76*
X184361Y155166D02*
D03*
Y144930D02*
D03*
X196700Y99510D02*
D03*
Y89274D02*
D03*
D77*
X182672Y110447D02*
D03*
Y103361D02*
D03*
D78*
X287527Y536779D02*
D03*
Y531779D02*
D03*
Y526780D02*
D03*
Y521779D02*
D03*
X306424Y536779D02*
D03*
Y531779D02*
D03*
Y526780D02*
D03*
Y521779D02*
D03*
D79*
X120500Y250043D02*
D03*
Y242957D02*
D03*
X401702Y515016D02*
D03*
Y507930D02*
D03*
X327890Y418064D02*
D03*
Y425150D02*
D03*
D80*
X167414Y324400D02*
D03*
X164855D02*
D03*
X162296D02*
D03*
X159737D02*
D03*
X157178D02*
D03*
X154619D02*
D03*
X152060D02*
D03*
X149501D02*
D03*
X167414Y302353D02*
D03*
X164855D02*
D03*
X162296D02*
D03*
X159737D02*
D03*
X157178D02*
D03*
X154619D02*
D03*
X152060D02*
D03*
X149501D02*
D03*
D81*
X295648Y626441D02*
D03*
Y621441D02*
D03*
Y616441D02*
D03*
Y611441D02*
D03*
X314152Y626441D02*
D03*
Y621441D02*
D03*
Y616441D02*
D03*
Y611441D02*
D03*
D82*
X374734Y551920D02*
D03*
Y549951D02*
D03*
Y547983D02*
D03*
Y546014D02*
D03*
Y544046D02*
D03*
Y542077D02*
D03*
Y540109D02*
D03*
Y538140D02*
D03*
Y536172D02*
D03*
Y534203D02*
D03*
Y532235D02*
D03*
Y530266D02*
D03*
X407017D02*
D03*
Y532235D02*
D03*
Y534203D02*
D03*
Y536172D02*
D03*
Y538140D02*
D03*
Y540109D02*
D03*
Y542077D02*
D03*
Y544046D02*
D03*
Y546014D02*
D03*
Y547983D02*
D03*
Y549951D02*
D03*
Y551920D02*
D03*
X304858Y465372D02*
D03*
Y463403D02*
D03*
Y461435D02*
D03*
Y459466D02*
D03*
Y457498D02*
D03*
Y455529D02*
D03*
Y453560D02*
D03*
Y451592D02*
D03*
Y449623D02*
D03*
Y447655D02*
D03*
Y445686D02*
D03*
Y443718D02*
D03*
X337142D02*
D03*
Y445686D02*
D03*
Y447655D02*
D03*
Y449623D02*
D03*
Y451592D02*
D03*
Y453560D02*
D03*
Y455529D02*
D03*
Y457498D02*
D03*
Y459466D02*
D03*
Y461435D02*
D03*
Y463403D02*
D03*
Y465372D02*
D03*
D83*
X380049Y524951D02*
D03*
X382017D02*
D03*
X383986D02*
D03*
X385954D02*
D03*
X387923D02*
D03*
X389891D02*
D03*
X391860D02*
D03*
X397765D02*
D03*
X401702Y557235D02*
D03*
X399734D02*
D03*
X397765D02*
D03*
X395797D02*
D03*
X393828D02*
D03*
X391860D02*
D03*
X389891D02*
D03*
X387923D02*
D03*
X385954D02*
D03*
X383986D02*
D03*
X382017D02*
D03*
X380049D02*
D03*
X399734Y524951D02*
D03*
X401702D02*
D03*
X393828D02*
D03*
X395797D02*
D03*
X323953Y438403D02*
D03*
X325921D02*
D03*
X331827D02*
D03*
X329858D02*
D03*
X310173D02*
D03*
X312142D02*
D03*
X314110D02*
D03*
X316079D02*
D03*
X318047D02*
D03*
X320016D02*
D03*
X321984D02*
D03*
X327890D02*
D03*
X331827Y470686D02*
D03*
X329858D02*
D03*
X327890D02*
D03*
X325921D02*
D03*
X323953D02*
D03*
X321984D02*
D03*
X320016D02*
D03*
X318047D02*
D03*
X316079D02*
D03*
X314110D02*
D03*
X312142D02*
D03*
X310173D02*
D03*
D84*
X171563Y145205D02*
D03*
Y137528D02*
D03*
D85*
X144197Y132371D02*
D03*
Y128434D02*
D03*
Y124497D02*
D03*
X160929Y132371D02*
D03*
Y130403D02*
D03*
Y126466D02*
D03*
Y124497D02*
D03*
X144197Y126466D02*
D03*
Y130403D02*
D03*
X160929Y128434D02*
D03*
D86*
X181310Y132371D02*
D03*
X187413D02*
D03*
X181195Y121741D02*
D03*
X187297D02*
D03*
D87*
X171563Y114923D02*
D03*
Y108033D02*
D03*
D88*
X351946Y280038D02*
D03*
X344859D02*
D03*
X351552Y291022D02*
D03*
X344466D02*
D03*
X350734Y186002D02*
D03*
X343648D02*
D03*
X410569Y276918D02*
D03*
X404664D02*
D03*
X409045Y316318D02*
D03*
X403140D02*
D03*
X345345Y72764D02*
D03*
X352432D02*
D03*
X344379Y175070D02*
D03*
X351466D02*
D03*
X405357Y69469D02*
D03*
X411262D02*
D03*
X405413Y109017D02*
D03*
X411318D02*
D03*
X404208Y172318D02*
D03*
X410114D02*
D03*
X403013Y211435D02*
D03*
X408919D02*
D03*
X345257Y83701D02*
D03*
X352343D02*
D03*
D89*
X429769Y69403D02*
D03*
X422092D02*
D03*
X430025Y108951D02*
D03*
X422348D02*
D03*
X427291Y171629D02*
D03*
X419614D02*
D03*
X429260Y211435D02*
D03*
X421582D02*
D03*
X429076Y276852D02*
D03*
X421399D02*
D03*
X429638Y316318D02*
D03*
X421961D02*
D03*
D90*
X652505Y437822D02*
D03*
Y439791D02*
D03*
Y441759D02*
D03*
Y443728D02*
D03*
Y445696D02*
D03*
Y447665D02*
D03*
Y449633D02*
D03*
Y451602D02*
D03*
Y453570D02*
D03*
Y455539D02*
D03*
Y457507D02*
D03*
Y459476D02*
D03*
Y461444D02*
D03*
Y463413D02*
D03*
Y465381D02*
D03*
Y467350D02*
D03*
Y469318D02*
D03*
Y471287D02*
D03*
Y473255D02*
D03*
Y475224D02*
D03*
Y477192D02*
D03*
Y479161D02*
D03*
Y481129D02*
D03*
Y483098D02*
D03*
Y485066D02*
D03*
Y487035D02*
D03*
Y489003D02*
D03*
Y490972D02*
D03*
Y492940D02*
D03*
Y494909D02*
D03*
Y496877D02*
D03*
Y498846D02*
D03*
Y500814D02*
D03*
Y502783D02*
D03*
Y504751D02*
D03*
Y506720D02*
D03*
D91*
X665300Y430342D02*
D03*
Y514200D02*
D03*
D92*
X868800Y203659D02*
D03*
Y201691D02*
D03*
Y199722D02*
D03*
Y197754D02*
D03*
Y195785D02*
D03*
Y193816D02*
D03*
Y191848D02*
D03*
Y189880D02*
D03*
Y187911D02*
D03*
Y185942D02*
D03*
Y183974D02*
D03*
Y182006D02*
D03*
Y180037D02*
D03*
Y178068D02*
D03*
Y176100D02*
D03*
Y174132D02*
D03*
Y172163D02*
D03*
Y170194D02*
D03*
Y168226D02*
D03*
Y166258D02*
D03*
Y144604D02*
D03*
Y142635D02*
D03*
Y140667D02*
D03*
Y138698D02*
D03*
Y136730D02*
D03*
Y134761D02*
D03*
Y132793D02*
D03*
Y130824D02*
D03*
Y128856D02*
D03*
Y126887D02*
D03*
Y124919D02*
D03*
Y122950D02*
D03*
Y120982D02*
D03*
Y119013D02*
D03*
Y117045D02*
D03*
Y115076D02*
D03*
Y113108D02*
D03*
Y111139D02*
D03*
Y109171D02*
D03*
Y107202D02*
D03*
Y105234D02*
D03*
Y103265D02*
D03*
Y101297D02*
D03*
Y99328D02*
D03*
Y97360D02*
D03*
Y95391D02*
D03*
Y93423D02*
D03*
Y91454D02*
D03*
Y89486D02*
D03*
Y87517D02*
D03*
Y146572D02*
D03*
Y148541D02*
D03*
Y150510D02*
D03*
Y152478D02*
D03*
Y154446D02*
D03*
Y156415D02*
D03*
Y158384D02*
D03*
Y160352D02*
D03*
Y162320D02*
D03*
Y164289D02*
D03*
D93*
X881103Y79250D02*
D03*
Y211927D02*
D03*
D94*
X263841Y113672D02*
D03*
X264598Y42950D02*
D03*
Y50430D02*
D03*
X263841Y106192D02*
D03*
D96*
X196661Y172099D02*
D03*
X196618Y198800D02*
D03*
X60500Y20200D02*
D03*
X404769Y295298D02*
D03*
X404928Y255231D02*
D03*
X404340Y189979D02*
D03*
Y150340D02*
D03*
X405156Y87931D02*
D03*
X405328Y48312D02*
D03*
X120355Y265300D02*
D03*
X120555Y353000D02*
D03*
X14900Y406945D02*
D03*
X184900Y439045D02*
D03*
X14900Y460045D02*
D03*
Y560045D02*
D03*
X184900Y591845D02*
D03*
X14900Y613945D02*
D03*
D97*
X186661Y172099D02*
D03*
X176661D02*
D03*
X186618Y198800D02*
D03*
X176618D02*
D03*
X120500Y20200D02*
D03*
X110500D02*
D03*
X100500D02*
D03*
X90500D02*
D03*
X70500D02*
D03*
X80500D02*
D03*
X404769Y305298D02*
D03*
X414769Y295298D02*
D03*
Y305298D02*
D03*
X424769Y295298D02*
D03*
Y305298D02*
D03*
X404928Y265231D02*
D03*
X414928Y255231D02*
D03*
Y265231D02*
D03*
X424929Y255231D02*
D03*
Y265231D02*
D03*
X404340Y199979D02*
D03*
X414340Y189979D02*
D03*
Y199979D02*
D03*
X424340Y189979D02*
D03*
Y199979D02*
D03*
X404340Y160340D02*
D03*
X414340Y150340D02*
D03*
Y160340D02*
D03*
X424340Y150340D02*
D03*
Y160340D02*
D03*
X405156Y97931D02*
D03*
X415156Y87931D02*
D03*
Y97931D02*
D03*
X425156Y87931D02*
D03*
Y97931D02*
D03*
X405328Y58312D02*
D03*
X415328Y48312D02*
D03*
Y58312D02*
D03*
X425327Y48312D02*
D03*
Y58312D02*
D03*
X253900Y603855D02*
D03*
X263900Y613855D02*
D03*
X253900D02*
D03*
X263900Y623855D02*
D03*
X253900D02*
D03*
X263900Y633855D02*
D03*
X253900D02*
D03*
X140555Y363000D02*
D03*
X351465Y634610D02*
D03*
Y624610D02*
D03*
X24900Y591845D02*
D03*
Y613945D02*
D03*
X190355Y275300D02*
D03*
Y265300D02*
D03*
X180355Y275300D02*
D03*
Y265300D02*
D03*
X170355Y275300D02*
D03*
Y265300D02*
D03*
X160355Y275300D02*
D03*
Y265300D02*
D03*
X150355Y275300D02*
D03*
Y265300D02*
D03*
X140355Y275300D02*
D03*
Y265300D02*
D03*
X130355Y275300D02*
D03*
Y265300D02*
D03*
X120355Y275300D02*
D03*
X190555Y363000D02*
D03*
Y353000D02*
D03*
X180555Y363000D02*
D03*
Y353000D02*
D03*
X170555Y363000D02*
D03*
Y353000D02*
D03*
X160555Y363000D02*
D03*
Y353000D02*
D03*
X150555Y363000D02*
D03*
Y353000D02*
D03*
X140555D02*
D03*
X130555Y363000D02*
D03*
Y353000D02*
D03*
X120555Y363000D02*
D03*
X341465Y604610D02*
D03*
X351465Y614610D02*
D03*
X341465D02*
D03*
Y624610D02*
D03*
Y634610D02*
D03*
X24900Y406945D02*
D03*
X34900D02*
D03*
X44900D02*
D03*
X54900D02*
D03*
X64900D02*
D03*
X74900D02*
D03*
X84900D02*
D03*
X94900D02*
D03*
X104900D02*
D03*
X114900D02*
D03*
X124900D02*
D03*
X134900D02*
D03*
X144900D02*
D03*
X154900D02*
D03*
X164900D02*
D03*
X174900D02*
D03*
X184900D02*
D03*
Y429045D02*
D03*
X174900Y439045D02*
D03*
Y429045D02*
D03*
X164900Y439045D02*
D03*
Y429045D02*
D03*
X154900Y439045D02*
D03*
Y429045D02*
D03*
X144900Y439045D02*
D03*
Y429045D02*
D03*
X134900Y439045D02*
D03*
Y429045D02*
D03*
X124900Y439045D02*
D03*
Y429045D02*
D03*
X114900Y439045D02*
D03*
Y429045D02*
D03*
X104900Y439045D02*
D03*
Y429045D02*
D03*
X94900Y439045D02*
D03*
Y429045D02*
D03*
X84900Y439045D02*
D03*
Y429045D02*
D03*
X74900Y439045D02*
D03*
Y429045D02*
D03*
X64900Y439045D02*
D03*
Y429045D02*
D03*
X54900Y439045D02*
D03*
Y429045D02*
D03*
X44900Y439045D02*
D03*
Y429045D02*
D03*
X34900Y439045D02*
D03*
Y429045D02*
D03*
X24900Y439045D02*
D03*
Y429045D02*
D03*
X14900Y439045D02*
D03*
Y429045D02*
D03*
X24900Y460045D02*
D03*
X34900D02*
D03*
X44900D02*
D03*
X54900D02*
D03*
X64900D02*
D03*
X74900D02*
D03*
X84900D02*
D03*
X94900D02*
D03*
X104900D02*
D03*
X114900D02*
D03*
X124900D02*
D03*
X134900D02*
D03*
X144900D02*
D03*
X154900D02*
D03*
X164900D02*
D03*
X174900D02*
D03*
X184900D02*
D03*
X24900Y560045D02*
D03*
X34900D02*
D03*
X44900D02*
D03*
X54900D02*
D03*
X64900D02*
D03*
X74900D02*
D03*
X84900D02*
D03*
X94900D02*
D03*
X104900D02*
D03*
X114900D02*
D03*
X124900D02*
D03*
X134900D02*
D03*
X144900D02*
D03*
X154900D02*
D03*
X164900D02*
D03*
X174900D02*
D03*
X184900D02*
D03*
Y581845D02*
D03*
X174900Y591845D02*
D03*
Y581845D02*
D03*
X164900Y591845D02*
D03*
Y581845D02*
D03*
X154900Y591845D02*
D03*
Y581845D02*
D03*
X144900Y591845D02*
D03*
Y581845D02*
D03*
X134900Y591845D02*
D03*
Y581845D02*
D03*
X124900Y591845D02*
D03*
Y581845D02*
D03*
X114900Y591845D02*
D03*
Y581845D02*
D03*
X104900Y591845D02*
D03*
Y581845D02*
D03*
X94900Y591845D02*
D03*
Y581845D02*
D03*
X84900Y591845D02*
D03*
Y581845D02*
D03*
X74900Y591845D02*
D03*
Y581845D02*
D03*
X64900Y591845D02*
D03*
Y581845D02*
D03*
X54900Y591845D02*
D03*
Y581845D02*
D03*
X44900Y591845D02*
D03*
Y581845D02*
D03*
X34900Y591845D02*
D03*
Y581845D02*
D03*
X24900D02*
D03*
X14900Y591845D02*
D03*
Y581845D02*
D03*
X34900Y613945D02*
D03*
X44900D02*
D03*
X54900D02*
D03*
X64900D02*
D03*
X74900D02*
D03*
X84900D02*
D03*
X94900D02*
D03*
X104900D02*
D03*
X114900D02*
D03*
X124900D02*
D03*
X134900D02*
D03*
X144900D02*
D03*
X154900D02*
D03*
X164900D02*
D03*
X174900D02*
D03*
X184900D02*
D03*
X729300Y39500D02*
D03*
Y49500D02*
D03*
Y59500D02*
D03*
Y69500D02*
D03*
Y79500D02*
D03*
D98*
X263900Y603855D02*
D03*
X351465Y604610D02*
D03*
X729300Y29500D02*
D03*
D99*
X531145Y82118D02*
D03*
X472145Y106518D02*
D03*
X531145Y292198D02*
D03*
X472145Y316598D02*
D03*
X531145Y187158D02*
D03*
X472145Y211558D02*
D03*
X531145Y238901D02*
D03*
X472145Y263301D02*
D03*
X531145Y133640D02*
D03*
X472145Y158040D02*
D03*
X531145Y29598D02*
D03*
X472145Y53998D02*
D03*
M02*
