G04*
G04 #@! TF.GenerationSoftware,Altium Limited,Altium Designer,22.3.1 (43)*
G04*
G04 Layer_Color=16711935*
%FSLAX25Y25*%
%MOIN*%
G70*
G04*
G04 #@! TF.SameCoordinates,0325A3AA-7239-4590-A449-8504E5F850C0*
G04*
G04*
G04 #@! TF.FilePolarity,Negative*
G04*
G01*
G75*
%ADD67R,0.07906X0.07906*%
%ADD68C,0.07906*%
%ADD69R,0.07906X0.07906*%
%ADD70C,0.09500*%
%ADD71C,0.05500*%
D67*
X196661Y172099D02*
D03*
X196618Y198800D02*
D03*
X60500Y20200D02*
D03*
X404769Y295298D02*
D03*
X404928Y255231D02*
D03*
X404340Y189979D02*
D03*
Y150340D02*
D03*
X405156Y87931D02*
D03*
X405328Y48312D02*
D03*
X120355Y265300D02*
D03*
X120555Y353000D02*
D03*
X14900Y406945D02*
D03*
X184900Y439045D02*
D03*
X14900Y460045D02*
D03*
Y560045D02*
D03*
X184900Y591845D02*
D03*
X14900Y613945D02*
D03*
D68*
X186661Y172099D02*
D03*
X176661D02*
D03*
X186618Y198800D02*
D03*
X176618D02*
D03*
X120500Y20200D02*
D03*
X110500D02*
D03*
X100500D02*
D03*
X90500D02*
D03*
X70500D02*
D03*
X80500D02*
D03*
X404769Y305298D02*
D03*
X414769Y295298D02*
D03*
Y305298D02*
D03*
X424769Y295298D02*
D03*
Y305298D02*
D03*
X404928Y265231D02*
D03*
X414928Y255231D02*
D03*
Y265231D02*
D03*
X424929Y255231D02*
D03*
Y265231D02*
D03*
X404340Y199979D02*
D03*
X414340Y189979D02*
D03*
Y199979D02*
D03*
X424340Y189979D02*
D03*
Y199979D02*
D03*
X404340Y160340D02*
D03*
X414340Y150340D02*
D03*
Y160340D02*
D03*
X424340Y150340D02*
D03*
Y160340D02*
D03*
X405156Y97931D02*
D03*
X415156Y87931D02*
D03*
Y97931D02*
D03*
X425156Y87931D02*
D03*
Y97931D02*
D03*
X405328Y58312D02*
D03*
X415328Y48312D02*
D03*
Y58312D02*
D03*
X425327Y48312D02*
D03*
Y58312D02*
D03*
X253900Y603855D02*
D03*
X263900Y613855D02*
D03*
X253900D02*
D03*
X263900Y623855D02*
D03*
X253900D02*
D03*
X263900Y633855D02*
D03*
X253900D02*
D03*
X140555Y363000D02*
D03*
X351465Y634610D02*
D03*
Y624610D02*
D03*
X24900Y591845D02*
D03*
Y613945D02*
D03*
X190355Y275300D02*
D03*
Y265300D02*
D03*
X180355Y275300D02*
D03*
Y265300D02*
D03*
X170355Y275300D02*
D03*
Y265300D02*
D03*
X160355Y275300D02*
D03*
Y265300D02*
D03*
X150355Y275300D02*
D03*
Y265300D02*
D03*
X140355Y275300D02*
D03*
Y265300D02*
D03*
X130355Y275300D02*
D03*
Y265300D02*
D03*
X120355Y275300D02*
D03*
X190555Y363000D02*
D03*
Y353000D02*
D03*
X180555Y363000D02*
D03*
Y353000D02*
D03*
X170555Y363000D02*
D03*
Y353000D02*
D03*
X160555Y363000D02*
D03*
Y353000D02*
D03*
X150555Y363000D02*
D03*
Y353000D02*
D03*
X140555D02*
D03*
X130555Y363000D02*
D03*
Y353000D02*
D03*
X120555Y363000D02*
D03*
X341465Y604610D02*
D03*
X351465Y614610D02*
D03*
X341465D02*
D03*
Y624610D02*
D03*
Y634610D02*
D03*
X24900Y406945D02*
D03*
X34900D02*
D03*
X44900D02*
D03*
X54900D02*
D03*
X64900D02*
D03*
X74900D02*
D03*
X84900D02*
D03*
X94900D02*
D03*
X104900D02*
D03*
X114900D02*
D03*
X124900D02*
D03*
X134900D02*
D03*
X144900D02*
D03*
X154900D02*
D03*
X164900D02*
D03*
X174900D02*
D03*
X184900D02*
D03*
Y429045D02*
D03*
X174900Y439045D02*
D03*
Y429045D02*
D03*
X164900Y439045D02*
D03*
Y429045D02*
D03*
X154900Y439045D02*
D03*
Y429045D02*
D03*
X144900Y439045D02*
D03*
Y429045D02*
D03*
X134900Y439045D02*
D03*
Y429045D02*
D03*
X124900Y439045D02*
D03*
Y429045D02*
D03*
X114900Y439045D02*
D03*
Y429045D02*
D03*
X104900Y439045D02*
D03*
Y429045D02*
D03*
X94900Y439045D02*
D03*
Y429045D02*
D03*
X84900Y439045D02*
D03*
Y429045D02*
D03*
X74900Y439045D02*
D03*
Y429045D02*
D03*
X64900Y439045D02*
D03*
Y429045D02*
D03*
X54900Y439045D02*
D03*
Y429045D02*
D03*
X44900Y439045D02*
D03*
Y429045D02*
D03*
X34900Y439045D02*
D03*
Y429045D02*
D03*
X24900Y439045D02*
D03*
Y429045D02*
D03*
X14900Y439045D02*
D03*
Y429045D02*
D03*
X24900Y460045D02*
D03*
X34900D02*
D03*
X44900D02*
D03*
X54900D02*
D03*
X64900D02*
D03*
X74900D02*
D03*
X84900D02*
D03*
X94900D02*
D03*
X104900D02*
D03*
X114900D02*
D03*
X124900D02*
D03*
X134900D02*
D03*
X144900D02*
D03*
X154900D02*
D03*
X164900D02*
D03*
X174900D02*
D03*
X184900D02*
D03*
X24900Y560045D02*
D03*
X34900D02*
D03*
X44900D02*
D03*
X54900D02*
D03*
X64900D02*
D03*
X74900D02*
D03*
X84900D02*
D03*
X94900D02*
D03*
X104900D02*
D03*
X114900D02*
D03*
X124900D02*
D03*
X134900D02*
D03*
X144900D02*
D03*
X154900D02*
D03*
X164900D02*
D03*
X174900D02*
D03*
X184900D02*
D03*
Y581845D02*
D03*
X174900Y591845D02*
D03*
Y581845D02*
D03*
X164900Y591845D02*
D03*
Y581845D02*
D03*
X154900Y591845D02*
D03*
Y581845D02*
D03*
X144900Y591845D02*
D03*
Y581845D02*
D03*
X134900Y591845D02*
D03*
Y581845D02*
D03*
X124900Y591845D02*
D03*
Y581845D02*
D03*
X114900Y591845D02*
D03*
Y581845D02*
D03*
X104900Y591845D02*
D03*
Y581845D02*
D03*
X94900Y591845D02*
D03*
Y581845D02*
D03*
X84900Y591845D02*
D03*
Y581845D02*
D03*
X74900Y591845D02*
D03*
Y581845D02*
D03*
X64900Y591845D02*
D03*
Y581845D02*
D03*
X54900Y591845D02*
D03*
Y581845D02*
D03*
X44900Y591845D02*
D03*
Y581845D02*
D03*
X34900Y591845D02*
D03*
Y581845D02*
D03*
X24900D02*
D03*
X14900Y591845D02*
D03*
Y581845D02*
D03*
X34900Y613945D02*
D03*
X44900D02*
D03*
X54900D02*
D03*
X64900D02*
D03*
X74900D02*
D03*
X84900D02*
D03*
X94900D02*
D03*
X104900D02*
D03*
X114900D02*
D03*
X124900D02*
D03*
X134900D02*
D03*
X144900D02*
D03*
X154900D02*
D03*
X164900D02*
D03*
X174900D02*
D03*
X184900D02*
D03*
X729300Y39500D02*
D03*
Y49500D02*
D03*
Y59500D02*
D03*
Y69500D02*
D03*
Y79500D02*
D03*
D69*
X263900Y603855D02*
D03*
X351465Y604610D02*
D03*
X729300Y29500D02*
D03*
D70*
X531145Y82118D02*
D03*
X472145Y106518D02*
D03*
X531145Y292198D02*
D03*
X472145Y316598D02*
D03*
X531145Y187158D02*
D03*
X472145Y211558D02*
D03*
X531145Y238901D02*
D03*
X472145Y263301D02*
D03*
X531145Y133640D02*
D03*
X472145Y158040D02*
D03*
X531145Y29598D02*
D03*
X472145Y53998D02*
D03*
D71*
X517345Y98618D02*
D03*
X501645D02*
D03*
X485945D02*
D03*
X517345Y308698D02*
D03*
X501645D02*
D03*
X485945D02*
D03*
X517345Y203658D02*
D03*
X501645D02*
D03*
X485945D02*
D03*
X517345Y255401D02*
D03*
X501645D02*
D03*
X485945D02*
D03*
X517345Y150140D02*
D03*
X501645D02*
D03*
X485945D02*
D03*
X517345Y46098D02*
D03*
X501645D02*
D03*
X485945D02*
D03*
M02*
