G04*
G04 #@! TF.GenerationSoftware,Altium Limited,Altium Designer,22.3.1 (43)*
G04*
G04 Layer_Color=8421504*
%FSLAX25Y25*%
%MOIN*%
G70*
G04*
G04 #@! TF.SameCoordinates,0A97E6FA-FBBB-4BB4-88F3-49EC77A15450*
G04*
G04*
G04 #@! TF.FilePolarity,Positive*
G04*
G01*
G75*
%ADD20R,0.03937X0.00984*%
%ADD21R,0.03937X0.00984*%
%ADD22R,0.03937X0.00984*%
%ADD23R,0.08102X0.08102*%
%ADD24R,0.08693X0.06331*%
%ADD25R,0.08102X0.07906*%
%ADD26R,0.03740X0.05315*%
%ADD27O,0.10661X0.04362*%
%ADD28R,0.05315X0.03740*%
%ADD29R,0.07315X0.05937*%
%ADD30O,0.03378X0.07512*%
%ADD31O,0.09480X0.04362*%
%ADD32R,0.07709X0.06724*%
%ADD33O,0.08496X0.03181*%
%ADD34O,0.03181X0.08496*%
%ADD35R,0.03600X0.04800*%
%ADD36R,0.08102X0.07315*%
%ADD37O,0.08299X0.03181*%
%ADD38R,0.05740X0.07315*%
%ADD39R,0.07709X0.06528*%
%ADD40R,0.03150X0.10630*%
%ADD41R,0.06127X0.05727*%
G04:AMPARAMS|DCode=42|XSize=57.25mil|YSize=17.16mil|CornerRadius=8.58mil|HoleSize=0mil|Usage=FLASHONLY|Rotation=90.000|XOffset=0mil|YOffset=0mil|HoleType=Round|Shape=RoundedRectangle|*
%AMROUNDEDRECTD42*
21,1,0.05725,0.00000,0,0,90.0*
21,1,0.04009,0.01716,0,0,90.0*
1,1,0.01716,0.00000,0.02005*
1,1,0.01716,0.00000,-0.02005*
1,1,0.01716,0.00000,-0.02005*
1,1,0.01716,0.00000,0.02005*
%
%ADD42ROUNDEDRECTD42*%
%ADD43R,0.01716X0.05725*%
%ADD44R,0.05937X0.07315*%
%ADD45R,0.07315X0.08102*%
%ADD46R,0.07087X0.09252*%
%ADD47R,0.07118X0.03181*%
%ADD48R,0.10661X0.09087*%
%ADD49R,0.05937X0.03181*%
%ADD50R,0.10465X0.07512*%
%ADD51R,0.08500X0.04016*%
%ADD52R,0.05727X0.06127*%
%ADD53R,0.08102X0.07512*%
%ADD54R,0.09874X0.07906*%
%ADD55R,0.06316X0.03464*%
G04:AMPARAMS|DCode=56|XSize=61.4mil|YSize=32.76mil|CornerRadius=16.38mil|HoleSize=0mil|Usage=FLASHONLY|Rotation=180.000|XOffset=0mil|YOffset=0mil|HoleType=Round|Shape=RoundedRectangle|*
%AMROUNDEDRECTD56*
21,1,0.06140,0.00000,0,0,180.0*
21,1,0.02864,0.03276,0,0,180.0*
1,1,0.03276,-0.01432,0.00000*
1,1,0.03276,0.01432,0.00000*
1,1,0.03276,0.01432,0.00000*
1,1,0.03276,-0.01432,0.00000*
%
%ADD56ROUNDEDRECTD56*%
G04:AMPARAMS|DCode=57|XSize=61.4mil|YSize=123.31mil|CornerRadius=16.27mil|HoleSize=0mil|Usage=FLASHONLY|Rotation=180.000|XOffset=0mil|YOffset=0mil|HoleType=Round|Shape=RoundedRectangle|*
%AMROUNDEDRECTD57*
21,1,0.06140,0.09077,0,0,180.0*
21,1,0.02886,0.12331,0,0,180.0*
1,1,0.03254,-0.01443,0.04538*
1,1,0.03254,0.01443,0.04538*
1,1,0.03254,0.01443,-0.04538*
1,1,0.03254,-0.01443,-0.04538*
%
%ADD57ROUNDEDRECTD57*%
%ADD58R,0.13504X0.07008*%
%ADD59R,0.09874X0.16961*%
%ADD60R,0.06140X0.03276*%
G04:AMPARAMS|DCode=61|XSize=63.16mil|YSize=34.64mil|CornerRadius=17.32mil|HoleSize=0mil|Usage=FLASHONLY|Rotation=180.000|XOffset=0mil|YOffset=0mil|HoleType=Round|Shape=RoundedRectangle|*
%AMROUNDEDRECTD61*
21,1,0.06316,0.00000,0,0,180.0*
21,1,0.02852,0.03464,0,0,180.0*
1,1,0.03464,-0.01426,0.00000*
1,1,0.03464,0.01426,0.00000*
1,1,0.03464,0.01426,0.00000*
1,1,0.03464,-0.01426,0.00000*
%
%ADD61ROUNDEDRECTD61*%
G04:AMPARAMS|DCode=62|XSize=63.16mil|YSize=125.19mil|CornerRadius=17.37mil|HoleSize=0mil|Usage=FLASHONLY|Rotation=180.000|XOffset=0mil|YOffset=0mil|HoleType=Round|Shape=RoundedRectangle|*
%AMROUNDEDRECTD62*
21,1,0.06316,0.09045,0,0,180.0*
21,1,0.02842,0.12519,0,0,180.0*
1,1,0.03474,-0.01421,0.04523*
1,1,0.03474,0.01421,0.04523*
1,1,0.03474,0.01421,-0.04523*
1,1,0.03474,-0.01421,-0.04523*
%
%ADD62ROUNDEDRECTD62*%
%ADD63R,0.10984X0.04685*%
%ADD64R,0.08661X0.04724*%
%ADD65R,0.16535X0.07874*%
D20*
X759490Y394874D02*
D03*
Y392905D02*
D03*
Y385032D02*
D03*
Y383063D02*
D03*
Y375189D02*
D03*
Y373220D02*
D03*
Y365347D02*
D03*
Y363378D02*
D03*
Y355504D02*
D03*
Y353535D02*
D03*
Y345661D02*
D03*
Y343693D02*
D03*
Y335819D02*
D03*
Y333850D02*
D03*
Y325976D02*
D03*
Y324008D02*
D03*
Y316134D02*
D03*
Y314165D02*
D03*
Y306291D02*
D03*
Y304323D02*
D03*
Y296449D02*
D03*
Y294480D02*
D03*
Y286606D02*
D03*
Y284638D02*
D03*
Y282669D02*
D03*
Y274795D02*
D03*
Y272827D02*
D03*
Y264953D02*
D03*
Y262984D02*
D03*
Y255110D02*
D03*
Y253142D02*
D03*
Y245268D02*
D03*
Y243299D02*
D03*
D21*
Y390937D02*
D03*
Y388968D02*
D03*
Y381095D02*
D03*
Y379126D02*
D03*
Y371252D02*
D03*
Y369284D02*
D03*
Y361409D02*
D03*
Y359441D02*
D03*
Y351567D02*
D03*
Y349598D02*
D03*
Y347630D02*
D03*
Y339756D02*
D03*
Y337787D02*
D03*
Y329913D02*
D03*
Y327945D02*
D03*
Y320071D02*
D03*
Y318102D02*
D03*
Y310228D02*
D03*
Y308260D02*
D03*
Y300386D02*
D03*
Y298417D02*
D03*
Y290543D02*
D03*
Y288575D02*
D03*
Y280701D02*
D03*
Y278732D02*
D03*
Y270858D02*
D03*
Y268890D02*
D03*
Y261016D02*
D03*
Y259047D02*
D03*
Y251173D02*
D03*
Y249205D02*
D03*
Y241331D02*
D03*
Y239362D02*
D03*
D22*
X759491Y387000D02*
D03*
Y377157D02*
D03*
Y367315D02*
D03*
Y357472D02*
D03*
X759490Y341724D02*
D03*
Y331882D02*
D03*
Y322039D02*
D03*
Y312197D02*
D03*
Y302354D02*
D03*
Y292512D02*
D03*
X759491Y276764D02*
D03*
Y266921D02*
D03*
Y257079D02*
D03*
Y247236D02*
D03*
D23*
X154135Y142056D02*
D03*
Y149339D02*
D03*
D24*
X186330Y164308D02*
D03*
Y154072D02*
D03*
X196700Y99510D02*
D03*
Y89274D02*
D03*
D25*
X182672Y110447D02*
D03*
Y103361D02*
D03*
D26*
X245083Y82244D02*
D03*
X250988D02*
D03*
X289700Y67400D02*
D03*
X283795D02*
D03*
X349905Y590355D02*
D03*
X344000D02*
D03*
X257995Y588986D02*
D03*
X263900D02*
D03*
X315333Y534203D02*
D03*
X321239D02*
D03*
X294023Y438403D02*
D03*
X288118D02*
D03*
X137216Y100879D02*
D03*
X131310D02*
D03*
X371576Y518293D02*
D03*
X365670D02*
D03*
X113063Y129379D02*
D03*
X118969D02*
D03*
D27*
X287527Y536779D02*
D03*
Y531779D02*
D03*
Y526780D02*
D03*
Y521779D02*
D03*
X306424Y536779D02*
D03*
Y531779D02*
D03*
Y526780D02*
D03*
Y521779D02*
D03*
D28*
X140355Y249059D02*
D03*
Y243154D02*
D03*
X203355Y361751D02*
D03*
Y355846D02*
D03*
X203555Y267147D02*
D03*
Y273053D02*
D03*
X382613Y277558D02*
D03*
Y271652D02*
D03*
X359697Y303963D02*
D03*
Y309869D02*
D03*
X381128Y172007D02*
D03*
Y166102D02*
D03*
X359217Y204901D02*
D03*
Y198995D02*
D03*
X360183Y96689D02*
D03*
Y102595D02*
D03*
X381128Y62714D02*
D03*
Y68620D02*
D03*
D29*
X120500Y250043D02*
D03*
Y242957D02*
D03*
X401702Y515016D02*
D03*
Y507930D02*
D03*
X327890Y418064D02*
D03*
Y425150D02*
D03*
D30*
X167414Y324400D02*
D03*
X164855D02*
D03*
X162296D02*
D03*
X159737D02*
D03*
X157178D02*
D03*
X154619D02*
D03*
X152060D02*
D03*
X149501D02*
D03*
X167414Y302353D02*
D03*
X164855D02*
D03*
X162296D02*
D03*
X159737D02*
D03*
X157178D02*
D03*
X154619D02*
D03*
X152060D02*
D03*
X149501D02*
D03*
D31*
X295648Y626441D02*
D03*
Y621441D02*
D03*
Y616441D02*
D03*
Y611441D02*
D03*
X314152Y626441D02*
D03*
Y621441D02*
D03*
Y616441D02*
D03*
Y611441D02*
D03*
D32*
X274799Y525343D02*
D03*
Y533216D02*
D03*
D33*
X374734Y551920D02*
D03*
Y549951D02*
D03*
Y547983D02*
D03*
Y546014D02*
D03*
Y544046D02*
D03*
Y542077D02*
D03*
Y540109D02*
D03*
Y538140D02*
D03*
Y536172D02*
D03*
Y534203D02*
D03*
Y532235D02*
D03*
Y530266D02*
D03*
X407017D02*
D03*
Y532235D02*
D03*
Y534203D02*
D03*
Y536172D02*
D03*
Y538140D02*
D03*
Y540109D02*
D03*
Y542077D02*
D03*
Y544046D02*
D03*
Y546014D02*
D03*
Y547983D02*
D03*
Y549951D02*
D03*
Y551920D02*
D03*
X304858Y465372D02*
D03*
Y463403D02*
D03*
Y461435D02*
D03*
Y459466D02*
D03*
Y457498D02*
D03*
Y455529D02*
D03*
Y453560D02*
D03*
Y451592D02*
D03*
Y449623D02*
D03*
Y447655D02*
D03*
Y445686D02*
D03*
Y443718D02*
D03*
X337142D02*
D03*
Y445686D02*
D03*
Y447655D02*
D03*
Y449623D02*
D03*
Y451592D02*
D03*
Y453560D02*
D03*
Y455529D02*
D03*
Y457498D02*
D03*
Y459466D02*
D03*
Y461435D02*
D03*
Y463403D02*
D03*
Y465372D02*
D03*
D34*
X380049Y524951D02*
D03*
X382017D02*
D03*
X383986D02*
D03*
X385954D02*
D03*
X387923D02*
D03*
X389891D02*
D03*
X391860D02*
D03*
X397765D02*
D03*
X401702Y557235D02*
D03*
X399734D02*
D03*
X397765D02*
D03*
X395797D02*
D03*
X393828D02*
D03*
X391860D02*
D03*
X389891D02*
D03*
X387923D02*
D03*
X385954D02*
D03*
X383986D02*
D03*
X382017D02*
D03*
X380049D02*
D03*
X399734Y524951D02*
D03*
X401702D02*
D03*
X393828D02*
D03*
X395797D02*
D03*
X323953Y438403D02*
D03*
X325921D02*
D03*
X331827D02*
D03*
X329858D02*
D03*
X310173D02*
D03*
X312142D02*
D03*
X314110D02*
D03*
X316079D02*
D03*
X318047D02*
D03*
X320016D02*
D03*
X321984D02*
D03*
X327890D02*
D03*
X331827Y470686D02*
D03*
X329858D02*
D03*
X327890D02*
D03*
X325921D02*
D03*
X323953D02*
D03*
X321984D02*
D03*
X320016D02*
D03*
X318047D02*
D03*
X316079D02*
D03*
X314110D02*
D03*
X312142D02*
D03*
X310173D02*
D03*
D35*
X145227Y161158D02*
D03*
X158127D02*
D03*
X160585Y108479D02*
D03*
X147685D02*
D03*
Y93808D02*
D03*
X160585D02*
D03*
D36*
X171563Y145205D02*
D03*
Y137528D02*
D03*
D37*
X144197Y132371D02*
D03*
Y128434D02*
D03*
Y124497D02*
D03*
X160929Y132371D02*
D03*
Y130403D02*
D03*
Y126466D02*
D03*
Y124497D02*
D03*
X144197Y126466D02*
D03*
Y130403D02*
D03*
X160929Y128434D02*
D03*
D38*
X181310Y132371D02*
D03*
X187413D02*
D03*
X181195Y121741D02*
D03*
X187297D02*
D03*
D39*
X171563Y114923D02*
D03*
Y108033D02*
D03*
D40*
X128814Y142351D02*
D03*
X120153D02*
D03*
X129724Y115590D02*
D03*
X121063D02*
D03*
D41*
X62758Y77378D02*
D03*
Y84668D02*
D03*
X62958Y194600D02*
D03*
Y187310D02*
D03*
X64557Y146090D02*
D03*
Y138800D02*
D03*
D42*
X363700Y294572D02*
D03*
X366259D02*
D03*
X368818D02*
D03*
X371377D02*
D03*
Y278821D02*
D03*
X368818D02*
D03*
X366259D02*
D03*
X363011Y188851D02*
D03*
X365570D02*
D03*
X368130D02*
D03*
X370689D02*
D03*
Y173100D02*
D03*
X368130D02*
D03*
X365570D02*
D03*
X363977Y86545D02*
D03*
X366536D02*
D03*
X369095D02*
D03*
X371654D02*
D03*
Y70794D02*
D03*
X369095D02*
D03*
X366536D02*
D03*
X270404Y84214D02*
D03*
X267845D02*
D03*
X265286D02*
D03*
Y68463D02*
D03*
X267845D02*
D03*
X270404D02*
D03*
X272963D02*
D03*
D43*
X363700Y278821D02*
D03*
X363011Y173100D02*
D03*
X363977Y70794D02*
D03*
X272963Y84214D02*
D03*
D44*
X351946Y280038D02*
D03*
X344859D02*
D03*
X351552Y291022D02*
D03*
X344466D02*
D03*
X350734Y186002D02*
D03*
X343648D02*
D03*
X410569Y276918D02*
D03*
X404664D02*
D03*
X409045Y316318D02*
D03*
X403140D02*
D03*
X345345Y72764D02*
D03*
X352432D02*
D03*
X344379Y175070D02*
D03*
X351466D02*
D03*
X405357Y69469D02*
D03*
X411262D02*
D03*
X405413Y109017D02*
D03*
X411318D02*
D03*
X404208Y172318D02*
D03*
X410114D02*
D03*
X403013Y211435D02*
D03*
X408919D02*
D03*
X345257Y83701D02*
D03*
X352343D02*
D03*
D45*
X429769Y69403D02*
D03*
X422092D02*
D03*
X430025Y108951D02*
D03*
X422348D02*
D03*
X427291Y171629D02*
D03*
X419614D02*
D03*
X429260Y211435D02*
D03*
X421582D02*
D03*
X429076Y276852D02*
D03*
X421399D02*
D03*
X429638Y316318D02*
D03*
X421961D02*
D03*
D46*
X781538Y404421D02*
D03*
Y229815D02*
D03*
D47*
X652505Y437822D02*
D03*
Y439791D02*
D03*
Y441759D02*
D03*
Y443728D02*
D03*
Y445696D02*
D03*
Y447665D02*
D03*
Y449633D02*
D03*
Y451602D02*
D03*
Y453570D02*
D03*
Y455539D02*
D03*
Y457507D02*
D03*
Y459476D02*
D03*
Y461444D02*
D03*
Y463413D02*
D03*
Y465381D02*
D03*
Y467350D02*
D03*
Y469318D02*
D03*
Y471287D02*
D03*
Y473255D02*
D03*
Y475224D02*
D03*
Y477192D02*
D03*
Y479161D02*
D03*
Y481129D02*
D03*
Y483098D02*
D03*
Y485066D02*
D03*
Y487035D02*
D03*
Y489003D02*
D03*
Y490972D02*
D03*
Y492940D02*
D03*
Y494909D02*
D03*
Y496877D02*
D03*
Y498846D02*
D03*
Y500814D02*
D03*
Y502783D02*
D03*
Y504751D02*
D03*
Y506720D02*
D03*
D48*
X665300Y430342D02*
D03*
Y514200D02*
D03*
D49*
X868800Y203659D02*
D03*
Y201691D02*
D03*
Y199722D02*
D03*
Y197754D02*
D03*
Y195785D02*
D03*
Y193816D02*
D03*
Y191848D02*
D03*
Y189880D02*
D03*
Y187911D02*
D03*
Y185942D02*
D03*
Y183974D02*
D03*
Y182006D02*
D03*
Y180037D02*
D03*
Y178068D02*
D03*
Y176100D02*
D03*
Y174132D02*
D03*
Y172163D02*
D03*
Y170194D02*
D03*
Y168226D02*
D03*
Y166258D02*
D03*
Y144604D02*
D03*
Y142635D02*
D03*
Y140667D02*
D03*
Y138698D02*
D03*
Y136730D02*
D03*
Y134761D02*
D03*
Y132793D02*
D03*
Y130824D02*
D03*
Y128856D02*
D03*
Y126887D02*
D03*
Y124919D02*
D03*
Y122950D02*
D03*
Y120982D02*
D03*
Y119013D02*
D03*
Y117045D02*
D03*
Y115076D02*
D03*
Y113108D02*
D03*
Y111139D02*
D03*
Y109171D02*
D03*
Y107202D02*
D03*
Y105234D02*
D03*
Y103265D02*
D03*
Y101297D02*
D03*
Y99328D02*
D03*
Y97360D02*
D03*
Y95391D02*
D03*
Y93423D02*
D03*
Y91454D02*
D03*
Y89486D02*
D03*
Y87517D02*
D03*
Y146572D02*
D03*
Y148541D02*
D03*
Y150510D02*
D03*
Y152478D02*
D03*
Y154446D02*
D03*
Y156415D02*
D03*
Y158384D02*
D03*
Y160352D02*
D03*
Y162320D02*
D03*
Y164289D02*
D03*
D50*
X881103Y79250D02*
D03*
Y211927D02*
D03*
D51*
X563350Y213800D02*
D03*
Y203800D02*
D03*
Y193800D02*
D03*
Y183800D02*
D03*
Y173800D02*
D03*
Y163800D02*
D03*
Y153800D02*
D03*
Y143800D02*
D03*
Y133800D02*
D03*
X595850D02*
D03*
Y143800D02*
D03*
Y153800D02*
D03*
Y163800D02*
D03*
Y173800D02*
D03*
Y183800D02*
D03*
Y193800D02*
D03*
Y203800D02*
D03*
Y213800D02*
D03*
D52*
X73302Y209156D02*
D03*
X75233Y162468D02*
D03*
X70201Y102567D02*
D03*
X66013Y209156D02*
D03*
X62912Y102567D02*
D03*
X67944Y162468D02*
D03*
D53*
X263841Y113672D02*
D03*
X264598Y42950D02*
D03*
Y50430D02*
D03*
X263841Y106192D02*
D03*
D54*
X50623Y142445D02*
D03*
Y151500D02*
D03*
Y160555D02*
D03*
D55*
X49521Y185545D02*
D03*
D56*
X49031Y89500D02*
D03*
Y98555D02*
D03*
D57*
X25990Y89500D02*
D03*
D58*
X25450Y43511D02*
D03*
X634600Y249782D02*
D03*
Y143742D02*
D03*
Y37701D02*
D03*
Y302801D02*
D03*
Y196762D02*
D03*
Y90722D02*
D03*
X118677Y43511D02*
D03*
X141950D02*
D03*
X48491D02*
D03*
X94491D02*
D03*
X70550D02*
D03*
X168191D02*
D03*
X286932Y184700D02*
D03*
X242932Y184400D02*
D03*
D59*
X25820Y151500D02*
D03*
D60*
X49031Y80445D02*
D03*
D61*
X49521Y194600D02*
D03*
Y203655D02*
D03*
D62*
X25899Y194600D02*
D03*
D63*
X249208Y36611D02*
D03*
Y56611D02*
D03*
X230192Y46611D02*
D03*
X248547Y100011D02*
D03*
Y120010D02*
D03*
X229532Y110011D02*
D03*
D64*
X788925Y69685D02*
D03*
Y61811D02*
D03*
Y53937D02*
D03*
Y46063D02*
D03*
Y38189D02*
D03*
Y30315D02*
D03*
D65*
X766957Y16142D02*
D03*
Y83858D02*
D03*
M02*
