G04*
G04 #@! TF.GenerationSoftware,Altium Limited,Altium Designer,22.3.1 (43)*
G04*
G04 Layer_Color=65535*
%FSLAX25Y25*%
%MOIN*%
G70*
G04*
G04 #@! TF.SameCoordinates,0A97E6FA-FBBB-4BB4-88F3-49EC77A15450*
G04*
G04*
G04 #@! TF.FilePolarity,Positive*
G04*
G01*
G75*
%ADD10C,0.00984*%
%ADD11C,0.02362*%
%ADD12C,0.01575*%
%ADD13C,0.00394*%
%ADD14C,0.02000*%
%ADD15C,0.00787*%
%ADD16C,0.00600*%
%ADD17C,0.01000*%
%ADD18C,0.01500*%
%ADD19R,0.26300X0.15400*%
D10*
X288019Y540126D02*
G03*
X288019Y540126I-492J0D01*
G01*
X147139Y302353D02*
G03*
X147139Y302353I-492J0D01*
G01*
X314644Y608095D02*
G03*
X314644Y608095I-492J0D01*
G01*
X375226Y554676D02*
G03*
X375226Y554676I-492J0D01*
G01*
X305350Y468127D02*
G03*
X305350Y468127I-492J0D01*
G01*
X162701Y161158D02*
G03*
X162701Y161158I-492J0D01*
G01*
X161421Y121741D02*
G03*
X161421Y121741I-492J0D01*
G01*
X144096Y108479D02*
G03*
X144096Y108479I-492J0D01*
G01*
X165159Y93808D02*
G03*
X165159Y93808I-492J0D01*
G01*
X364192Y273694D02*
G03*
X364192Y273694I-492J0D01*
G01*
X363504Y167973D02*
G03*
X363504Y167973I-492J0D01*
G01*
X364469Y65667D02*
G03*
X364469Y65667I-492J0D01*
G01*
X753684Y239362D02*
G03*
X753684Y239362I-492J0D01*
G01*
X865158Y87517D02*
G03*
X865158Y87517I-492J0D01*
G01*
X557218Y213839D02*
G03*
X557218Y213839I-492J0D01*
G01*
X52213Y137327D02*
G03*
X52213Y137327I-492J0D01*
G01*
X49523Y75721D02*
G03*
X49523Y75721I-492J0D01*
G01*
X57592Y185447D02*
G03*
X57592Y185447I-492J0D01*
G01*
X273455Y89341D02*
G03*
X273455Y89341I-492J0D01*
G01*
X796602Y30315D02*
G03*
X796602Y30315I-492J0D01*
G01*
D11*
X153536Y310620D02*
G03*
X153536Y310620I-1181J0D01*
G01*
X384675Y548475D02*
G03*
X384675Y548475I-1181J0D01*
G01*
X314799Y461927D02*
G03*
X314799Y461927I-1181J0D01*
G01*
D12*
X306475Y612248D02*
G03*
X306475Y612248I-787J0D01*
G01*
X153842Y125481D02*
G03*
X153842Y125481I-787J0D01*
G01*
D13*
X647977Y437625D02*
G03*
X647977Y438019I0J197D01*
G01*
D02*
G03*
X647977Y437625I0J-197D01*
G01*
X655851Y430735D02*
X659788D01*
X655851D02*
Y513806D01*
X659788D01*
X670812Y430735D02*
X677898D01*
Y513806D01*
X670812D02*
X677898D01*
D14*
X464145Y98618D02*
G03*
X464145Y98618I-1500J0D01*
G01*
Y308698D02*
G03*
X464145Y308698I-1500J0D01*
G01*
Y203658D02*
G03*
X464145Y203658I-1500J0D01*
G01*
Y255402D02*
G03*
X464145Y255402I-1500J0D01*
G01*
Y150140D02*
G03*
X464145Y150140I-1500J0D01*
G01*
Y46098D02*
G03*
X464145Y46098I-1500J0D01*
G01*
X457797Y307886D02*
X453499Y305737D01*
X449200Y301438D01*
Y297140D01*
X451349Y294990D01*
X455648D01*
X457797Y297140D01*
Y299289D01*
X455648Y301438D01*
X449200D01*
X457797Y253797D02*
X449200D01*
Y247350D01*
X453499Y249499D01*
X455648D01*
X457797Y247350D01*
Y243051D01*
X455648Y240901D01*
X451349D01*
X449200Y243051D01*
X455648Y190851D02*
Y203747D01*
X449200Y197299D01*
X457797D01*
X449200Y146387D02*
X451349Y148536D01*
X455648D01*
X457797Y146387D01*
Y144237D01*
X455648Y142088D01*
X453499D01*
X455648D01*
X457797Y139939D01*
Y137789D01*
X455648Y135640D01*
X451349D01*
X449200Y137789D01*
X457797Y87600D02*
X449200D01*
X457797Y96197D01*
Y98347D01*
X455648Y100496D01*
X451349D01*
X449200Y98347D01*
X452800Y33100D02*
X457099D01*
X454949D01*
Y45996D01*
X452800Y43846D01*
X374108Y611300D02*
Y619297D01*
X378106Y623296D01*
X382105Y619297D01*
Y611300D01*
Y617298D01*
X374108D01*
X386104Y623296D02*
Y611300D01*
X392102D01*
X394101Y613299D01*
Y621297D01*
X392102Y623296D01*
X386104D01*
X406097Y621297D02*
X404098Y623296D01*
X400099D01*
X398100Y621297D01*
Y613299D01*
X400099Y611300D01*
X404098D01*
X406097Y613299D01*
X61900Y322596D02*
Y310600D01*
X67898D01*
X69897Y312599D01*
Y320597D01*
X67898Y322596D01*
X61900D01*
X73896Y310600D02*
Y318597D01*
X77895Y322596D01*
X81893Y318597D01*
Y310600D01*
Y316598D01*
X73896D01*
X93890Y320597D02*
X91890Y322596D01*
X87892D01*
X85892Y320597D01*
Y312599D01*
X87892Y310600D01*
X91890D01*
X93890Y312599D01*
X74097Y520096D02*
X66100D01*
Y508100D01*
X74097D01*
X66100Y514098D02*
X70099D01*
X86093Y518097D02*
X84094Y520096D01*
X80095D01*
X78096Y518097D01*
Y516097D01*
X80095Y514098D01*
X84094D01*
X86093Y512099D01*
Y510099D01*
X84094Y508100D01*
X80095D01*
X78096Y510099D01*
X90092Y508100D02*
Y520096D01*
X96090D01*
X98090Y518097D01*
Y514098D01*
X96090Y512099D01*
X90092D01*
X102088Y518097D02*
X104088Y520096D01*
X108086D01*
X110086Y518097D01*
Y516097D01*
X108086Y514098D01*
X106087D01*
X108086D01*
X110086Y512099D01*
Y510099D01*
X108086Y508100D01*
X104088D01*
X102088Y510099D01*
X122082Y508100D02*
X114084D01*
X122082Y516097D01*
Y518097D01*
X120082Y520096D01*
X116084D01*
X114084Y518097D01*
D15*
X189283Y157812D02*
Y160568D01*
X183377Y157812D02*
Y160568D01*
X199652Y93014D02*
Y95770D01*
X193747Y93014D02*
Y95770D01*
X243705Y86476D02*
X252366D01*
X243705Y78012D02*
X252366D01*
X282417Y63168D02*
X291078D01*
X282417Y71632D02*
X291078D01*
X293432Y519437D02*
Y539122D01*
X300519Y519437D02*
Y539122D01*
X293432D02*
X300519D01*
X293432Y519437D02*
X300519D01*
X144587Y241776D02*
Y250437D01*
X136123Y241776D02*
Y250437D01*
X122764Y246106D02*
Y246894D01*
X118236Y246106D02*
Y246894D01*
X199123Y354468D02*
Y363129D01*
X207588Y354468D02*
Y363129D01*
X207787Y265769D02*
Y274431D01*
X199323Y265769D02*
Y274431D01*
X168497Y306684D02*
Y320069D01*
X148418Y306684D02*
Y320069D01*
X168497D01*
X148418Y306684D02*
X168497D01*
X300963Y628784D02*
X308837D01*
X300963Y609098D02*
X308837D01*
X300963D02*
Y628784D01*
X308837Y609098D02*
Y628784D01*
X342622Y586123D02*
X351283D01*
X342622Y594587D02*
X351283D01*
X256616Y593219D02*
X265278D01*
X256616Y584754D02*
X265278D01*
X272338Y528886D02*
Y529673D01*
X277259Y528886D02*
Y529673D01*
X313955Y529971D02*
X322617D01*
X313955Y538436D02*
X322617D01*
X379557Y529774D02*
Y552412D01*
X402194Y529774D02*
Y552412D01*
X379557D02*
X402194D01*
X379557Y529774D02*
X402194D01*
X403966Y511079D02*
Y511867D01*
X399439Y511079D02*
Y511867D01*
X309681Y443226D02*
Y465864D01*
X332319Y443226D02*
Y465864D01*
X309681D02*
X332319D01*
X309681Y443226D02*
X332319D01*
X325626Y421213D02*
Y422001D01*
X330153Y421213D02*
Y422001D01*
X286739Y442635D02*
X295401D01*
X286739Y434171D02*
X295401D01*
X55500Y25200D02*
X125500D01*
X55500Y15200D02*
Y25200D01*
Y15200D02*
X125500D01*
Y25200D01*
X148503Y164701D02*
X154851D01*
X148503Y157615D02*
X154851D01*
X148921Y134536D02*
X156205D01*
X148921Y122332D02*
X156205D01*
X148921D02*
Y134536D01*
X156205Y122332D02*
Y134536D01*
X150962Y104936D02*
X157309D01*
X150962Y112022D02*
X157309D01*
X150962Y97351D02*
X157309D01*
X150962Y90264D02*
X157309D01*
X123204Y136051D02*
X125763D01*
X123204Y148650D02*
X125763D01*
X124114Y109291D02*
X126673D01*
X124114Y121889D02*
X126673D01*
X129932Y96647D02*
X138594D01*
X129932Y105111D02*
X138594D01*
X58120Y74515D02*
Y87532D01*
X67397Y74515D02*
Y87532D01*
X67597Y184447D02*
Y197464D01*
X58320Y184447D02*
Y197464D01*
X69195Y135937D02*
Y148953D01*
X59918Y135937D02*
Y148953D01*
X386845Y270274D02*
Y278936D01*
X378381Y270274D02*
Y278936D01*
X361633Y283651D02*
X373444D01*
Y289741D01*
X361633D02*
X373444D01*
X361633Y283651D02*
Y289741D01*
X355465Y302585D02*
Y311246D01*
X363929Y302585D02*
Y311246D01*
X348009Y277774D02*
X348796D01*
X348009Y282302D02*
X348796D01*
X347615Y288758D02*
X348403D01*
X347615Y293286D02*
X348403D01*
X385360Y164724D02*
Y173385D01*
X376895Y164724D02*
Y173385D01*
X363449Y197617D02*
Y206278D01*
X354985Y197617D02*
Y206278D01*
X360944Y177931D02*
X372755D01*
Y184020D01*
X360944D02*
X372755D01*
X360944Y177931D02*
Y184020D01*
X346797Y183738D02*
X347585D01*
X346797Y188265D02*
X347585D01*
X355950Y95311D02*
Y103972D01*
X364415Y95311D02*
Y103972D01*
X361910Y75625D02*
X373721D01*
Y81714D01*
X361910D02*
X373721D01*
X361910Y75625D02*
Y81714D01*
X429769Y290298D02*
Y310298D01*
X399769Y290298D02*
Y310298D01*
X429769D01*
X399769Y290298D02*
X429769D01*
X410602D02*
X429769D01*
X429928Y250231D02*
Y270231D01*
X399928Y250231D02*
Y270231D01*
X429928D01*
X399928Y250231D02*
X429928D01*
X410762D02*
X429928D01*
X429340Y184979D02*
Y204979D01*
X399340Y184979D02*
Y204979D01*
X429340D01*
X399340Y184979D02*
X429340D01*
X410174D02*
X429340D01*
Y145340D02*
Y165340D01*
X399340Y145340D02*
Y165340D01*
X429340D01*
X399340Y145340D02*
X429340D01*
X410174D02*
X429340D01*
X430156Y82931D02*
Y102931D01*
X400156Y82931D02*
Y102931D01*
X430156D01*
X400156Y82931D02*
X430156D01*
X410989D02*
X430156D01*
X430328Y43312D02*
Y63312D01*
X400328Y43312D02*
Y63312D01*
X430328D01*
X400328Y43312D02*
X430328D01*
X411161D02*
X430328D01*
X785672Y235917D02*
Y398319D01*
X760869Y228339D02*
X776518D01*
X760869Y396941D02*
Y405898D01*
Y228339D02*
Y237295D01*
Y405898D02*
X776518D01*
X871320Y78462D02*
X875294D01*
X871320D02*
Y85450D01*
X886908Y78462D02*
X889824D01*
Y212714D01*
X886908D02*
X889824D01*
X871320Y212714D02*
X875298D01*
X871320Y205726D02*
Y212714D01*
X564600Y224292D02*
X594600D01*
Y123308D02*
Y130316D01*
Y217284D02*
Y224292D01*
X564600Y123308D02*
X594600D01*
X564600D02*
Y130316D01*
Y217284D02*
Y224292D01*
X364292Y514060D02*
X372954D01*
X364292Y522525D02*
X372954D01*
X248900Y638855D02*
X268900D01*
X248900Y598855D02*
X268900D01*
X248900D02*
Y638855D01*
X268900Y598855D02*
Y638855D01*
X115355Y280300D02*
X195355D01*
X115355Y260300D02*
X195355D01*
X115355D02*
Y280300D01*
X195355Y260300D02*
Y280300D01*
X115555Y368000D02*
X195555D01*
X115555Y348000D02*
X195555D01*
X115555D02*
Y368000D01*
X195555Y348000D02*
Y368000D01*
X336465Y639610D02*
X356465D01*
X336465Y599610D02*
X356465D01*
X336465D02*
Y639610D01*
X356465Y599610D02*
Y639610D01*
X626079Y255054D02*
X627654D01*
X626079Y253479D02*
Y255054D01*
X643122Y253482D02*
Y255056D01*
X641548D02*
X643122D01*
X626072Y244509D02*
Y246084D01*
Y244509D02*
X627647D01*
X641547Y244507D02*
X643122D01*
Y246082D01*
X626079Y149014D02*
X627654D01*
X626079Y147439D02*
Y149014D01*
X643122Y147442D02*
Y149016D01*
X641548D02*
X643122D01*
X626072Y138469D02*
Y140044D01*
Y138469D02*
X627647D01*
X641547Y138467D02*
X643122D01*
Y140042D01*
X626079Y42974D02*
X627654D01*
X626079Y41399D02*
Y42974D01*
X643122Y41401D02*
Y42976D01*
X641548D02*
X643122D01*
X626072Y32429D02*
Y34004D01*
Y32429D02*
X627647D01*
X641547Y32427D02*
X643122D01*
Y34001D01*
X626079Y308074D02*
X627654D01*
X626079Y306499D02*
Y308074D01*
X643122Y306502D02*
Y308076D01*
X641548D02*
X643122D01*
X626072Y297529D02*
Y299104D01*
Y297529D02*
X627647D01*
X641547Y297527D02*
X643122D01*
Y299101D01*
X626079Y202034D02*
X627654D01*
X626079Y200459D02*
Y202034D01*
X643122Y200462D02*
Y202036D01*
X641548D02*
X643122D01*
X626072Y191489D02*
Y193064D01*
Y191489D02*
X627647D01*
X641547Y191487D02*
X643122D01*
Y193062D01*
X626079Y95994D02*
X627654D01*
X626079Y94419D02*
Y95994D01*
X643122Y94422D02*
Y95996D01*
X641548D02*
X643122D01*
X626072Y85449D02*
Y87024D01*
Y85449D02*
X627647D01*
X641547Y85447D02*
X643122D01*
Y87022D01*
X348495Y75028D02*
X349282D01*
X348495Y70500D02*
X349282D01*
X347529Y177334D02*
X348316D01*
X347529Y172806D02*
X348316D01*
X376895Y61336D02*
Y69998D01*
X385360Y61336D02*
Y69998D01*
X125624Y38239D02*
X127199D01*
Y39814D01*
X110155Y38237D02*
Y39812D01*
Y38237D02*
X111730D01*
X127205Y47209D02*
Y48784D01*
X125630D02*
X127205D01*
X110156Y48786D02*
X111731D01*
X110156Y47212D02*
Y48786D01*
X348406Y85965D02*
X349194D01*
X348406Y81438D02*
X349194D01*
X63149Y204518D02*
X76165D01*
X63149Y213794D02*
X76165D01*
X133428Y47212D02*
Y48786D01*
X135003D01*
X148903Y48784D02*
X150478D01*
Y47209D02*
Y48784D01*
X133427Y38237D02*
X135002D01*
X133427D02*
Y39812D01*
X150471Y38239D02*
Y39814D01*
X148896Y38239D02*
X150471D01*
X31332Y164295D02*
X45111D01*
X31332Y138705D02*
Y164295D01*
X45111Y138705D02*
Y164295D01*
X31332Y138705D02*
X45111D01*
X60048Y97929D02*
X73065D01*
X60048Y107205D02*
X73065D01*
X31605Y76705D02*
X43416D01*
X31605D02*
Y102295D01*
X43416D01*
Y76705D02*
Y102295D01*
X39969Y47212D02*
Y48786D01*
X41544D01*
X55444Y48784D02*
X57019D01*
Y47209D02*
Y48784D01*
X39968Y38237D02*
X41543D01*
X39968D02*
Y39812D01*
X57012Y38239D02*
Y39814D01*
X55437Y38239D02*
X57012D01*
X32396D02*
X33971D01*
Y39814D01*
X16927Y38237D02*
Y39812D01*
Y38237D02*
X18502D01*
X33978Y47209D02*
Y48784D01*
X32403D02*
X33978D01*
X16928Y48786D02*
X18503D01*
X16928Y47212D02*
Y48786D01*
X85969Y47212D02*
Y48786D01*
X87544D01*
X101444Y48784D02*
X103019D01*
Y47209D02*
Y48784D01*
X85968Y38237D02*
X87543D01*
X85968D02*
Y39812D01*
X103012Y38239D02*
Y39814D01*
X101437Y38239D02*
X103012D01*
X62028Y47212D02*
Y48786D01*
X63603D01*
X77503Y48784D02*
X79078D01*
Y47209D02*
Y48784D01*
X62028Y38237D02*
X63602D01*
X62028D02*
Y39812D01*
X79071Y38239D02*
Y39814D01*
X77496Y38239D02*
X79071D01*
X30821Y181805D02*
X44600D01*
X30821D02*
Y207395D01*
X44600D01*
Y181805D02*
Y207395D01*
X111685Y125048D02*
X120347D01*
X111685Y133710D02*
X120347D01*
X65080Y157829D02*
X78097D01*
X65080Y167106D02*
X78097D01*
X159669Y47212D02*
Y48786D01*
X161244D01*
X175144Y48784D02*
X176719D01*
Y47209D02*
Y48784D01*
X159668Y38237D02*
X161243D01*
X159668D02*
Y39812D01*
X176712Y38239D02*
Y39814D01*
X175137Y38239D02*
X176712D01*
X275030Y73294D02*
Y79383D01*
X263219Y73294D02*
X275030D01*
X263219D02*
Y79383D01*
X275030D01*
X230704Y33108D02*
Y42792D01*
Y50430D02*
Y60115D01*
X242239D01*
X248696Y40430D02*
Y52793D01*
X230704Y33108D02*
X242239D01*
X230043Y96507D02*
Y106192D01*
Y113829D02*
Y123515D01*
X241579D01*
X248035Y103829D02*
Y116192D01*
X230043Y96507D02*
X241579D01*
X295453Y179425D02*
Y181000D01*
X293879Y179425D02*
X295453D01*
X278404Y179428D02*
X279978D01*
X278404D02*
Y181002D01*
X293879Y189975D02*
X295454D01*
Y188400D02*
Y189975D01*
X278411Y188398D02*
Y189973D01*
X279985D01*
X251453Y179125D02*
Y180700D01*
X249879Y179125D02*
X251453D01*
X234404Y179128D02*
X235979D01*
X234404D02*
Y180702D01*
X249879Y189675D02*
X251454D01*
Y188100D02*
Y189675D01*
X234411Y188098D02*
Y189673D01*
X235985D01*
X17400Y411945D02*
X189900D01*
Y401945D02*
Y411945D01*
X9900Y401945D02*
X189900D01*
X9900D02*
Y411945D01*
X17400D01*
X9900Y424045D02*
Y444045D01*
X189900Y424045D02*
Y444045D01*
X9900Y424045D02*
X189900D01*
X9900Y444045D02*
X189900D01*
X17400Y465045D02*
X189900D01*
Y455045D02*
Y465045D01*
X9900Y455045D02*
X189900D01*
X9900D02*
Y465045D01*
X17400D01*
Y565045D02*
X189900D01*
Y555045D02*
Y565045D01*
X9900Y555045D02*
X189900D01*
X9900D02*
Y565045D01*
X17400D01*
X9900Y576845D02*
Y596845D01*
X189900Y576845D02*
Y596845D01*
X9900Y576845D02*
X189900D01*
X9900Y596845D02*
X189900D01*
X17400Y618945D02*
X189900D01*
Y608945D02*
Y618945D01*
X9900Y608945D02*
X189900D01*
X9900D02*
Y618945D01*
X17400D01*
X724300Y84500D02*
X734300D01*
X724300Y24500D02*
X734300D01*
X724300D02*
Y84500D01*
X734300Y24500D02*
Y84500D01*
X776701Y87106D02*
X786248D01*
X754752D02*
X757213D01*
X754752Y12894D02*
Y87106D01*
X776701Y12894D02*
X786248D01*
X754752D02*
X757213D01*
X786248D02*
Y26476D01*
Y34154D02*
Y34350D01*
Y42028D02*
Y42224D01*
Y49902D02*
Y50098D01*
Y57775D02*
Y57972D01*
Y65649D02*
Y65847D01*
Y73524D02*
Y87106D01*
D16*
X469645Y80618D02*
Y102119D01*
X476977Y108018D02*
X533645D01*
Y86517D02*
Y108018D01*
X469645Y80618D02*
X526312D01*
X469645Y290698D02*
Y312198D01*
X476977Y318098D02*
X533645D01*
Y296597D02*
Y318098D01*
X469645Y290698D02*
X526312D01*
X469645Y185658D02*
Y207159D01*
X476977Y213058D02*
X533645D01*
Y191557D02*
Y213058D01*
X469645Y185658D02*
X526312D01*
X469645Y237402D02*
Y258902D01*
X476977Y264802D02*
X533645D01*
Y243301D02*
Y264802D01*
X469645Y237402D02*
X526312D01*
X469645Y132140D02*
Y153641D01*
X476977Y159540D02*
X533645D01*
Y138039D02*
Y159540D01*
X469645Y132140D02*
X526312D01*
X469645Y28098D02*
Y49599D01*
X476977Y55498D02*
X533645D01*
Y33997D02*
Y55498D01*
X469645Y28098D02*
X526312D01*
X7999Y489451D02*
Y491450D01*
Y490451D01*
X2001D01*
X3001Y489451D01*
Y494450D02*
X2001Y495449D01*
Y497448D01*
X3001Y498448D01*
X6999D01*
X7999Y497448D01*
Y495449D01*
X6999Y494450D01*
X3001D01*
Y500448D02*
X2001Y501447D01*
Y503447D01*
X3001Y504446D01*
X6999D01*
X7999Y503447D01*
Y501447D01*
X6999Y500448D01*
X3001D01*
Y506446D02*
X2001Y507445D01*
Y509445D01*
X3001Y510444D01*
X6999D01*
X7999Y509445D01*
Y507445D01*
X6999Y506446D01*
X3001D01*
X7999Y512444D02*
X6999D01*
Y513443D01*
X7999D01*
Y512444D01*
X3001Y517442D02*
X2001Y518442D01*
Y520441D01*
X3001Y521441D01*
X6999D01*
X7999Y520441D01*
Y518442D01*
X6999Y517442D01*
X3001D01*
Y523440D02*
X2001Y524440D01*
Y526439D01*
X3001Y527439D01*
X6999D01*
X7999Y526439D01*
Y524440D01*
X6999Y523440D01*
X3001D01*
D17*
X2400Y466045D02*
X4400Y460045D01*
X6400Y466045D01*
X4400Y560045D02*
X6400Y554045D01*
X2400D02*
X4400Y560045D01*
Y460045D02*
Y487851D01*
Y529039D02*
Y560045D01*
X3400Y460045D02*
X9947D01*
X3400Y560045D02*
X9947D01*
X371999Y368193D02*
X370000D01*
X369000Y367193D01*
Y363195D01*
X370000Y362195D01*
X371999D01*
X372999Y363195D01*
Y367193D01*
X371999Y368193D01*
X374998Y362195D02*
Y366194D01*
X377997D01*
X378997Y365194D01*
Y362195D01*
X380996D02*
X382995D01*
X381996D01*
Y368193D01*
X380996D01*
X385995Y366194D02*
Y363195D01*
X386994Y362195D01*
X389993D01*
Y361195D01*
X388994Y360196D01*
X387994D01*
X389993Y362195D02*
Y366194D01*
X401989D02*
X398990D01*
X397991Y365194D01*
Y363195D01*
X398990Y362195D01*
X401989D01*
X404988D02*
X406988D01*
X407987Y363195D01*
Y365194D01*
X406988Y366194D01*
X404988D01*
X403989Y365194D01*
Y363195D01*
X404988Y362195D01*
X409987D02*
Y366194D01*
X412986D01*
X413985Y365194D01*
Y362195D01*
X415985D02*
Y366194D01*
X418984D01*
X419983Y365194D01*
Y362195D01*
X424982D02*
X422983D01*
X421983Y363195D01*
Y365194D01*
X422983Y366194D01*
X424982D01*
X425982Y365194D01*
Y364194D01*
X421983D01*
X431980Y366194D02*
X428981D01*
X427981Y365194D01*
Y363195D01*
X428981Y362195D01*
X431980D01*
X434979Y367193D02*
Y366194D01*
X433979D01*
X435978D01*
X434979D01*
Y363195D01*
X435978Y362195D01*
X370000Y350598D02*
X371999D01*
X372999Y351598D01*
Y353597D01*
X371999Y354597D01*
X370000D01*
X369000Y353597D01*
Y351598D01*
X370000Y350598D01*
X374998D02*
Y354597D01*
X377997D01*
X378997Y353597D01*
Y350598D01*
X383995D02*
X381996D01*
X380996Y351598D01*
Y353597D01*
X381996Y354597D01*
X383995D01*
X384995Y353597D01*
Y352597D01*
X380996D01*
X392992Y348599D02*
X393992D01*
X394991Y349598D01*
Y354597D01*
X398990D02*
Y351598D01*
X399990Y350598D01*
X402989D01*
Y354597D01*
X404988Y350598D02*
Y354597D01*
X405988D01*
X406988Y353597D01*
Y350598D01*
Y353597D01*
X407987Y354597D01*
X408987Y353597D01*
Y350598D01*
X410986Y348599D02*
Y354597D01*
X413985D01*
X414985Y353597D01*
Y351598D01*
X413985Y350598D01*
X410986D01*
X419983D02*
X417984D01*
X416984Y351598D01*
Y353597D01*
X417984Y354597D01*
X419983D01*
X420983Y353597D01*
Y352597D01*
X416984D01*
X422983Y354597D02*
Y350598D01*
Y352597D01*
X423982Y353597D01*
X424982Y354597D01*
X425982D01*
X369000Y337002D02*
Y343000D01*
X371999D01*
X372999Y342000D01*
Y340001D01*
X371999Y339001D01*
X369000D01*
X377997D02*
X375998D01*
X374998Y340001D01*
Y342000D01*
X375998Y343000D01*
X377997D01*
X378997Y342000D01*
Y341000D01*
X374998D01*
X380996Y343000D02*
Y339001D01*
Y341000D01*
X381996Y342000D01*
X382995Y343000D01*
X383995D01*
X392992Y344999D02*
Y339001D01*
Y342000D01*
X393992Y343000D01*
X395991D01*
X396991Y342000D01*
Y339001D01*
X401989D02*
X399990D01*
X398990Y340001D01*
Y342000D01*
X399990Y343000D01*
X401989D01*
X402989Y342000D01*
Y341000D01*
X398990D01*
X405988Y343000D02*
X407987D01*
X408987Y342000D01*
Y339001D01*
X405988D01*
X404988Y340001D01*
X405988Y341000D01*
X408987D01*
X414985Y344999D02*
Y339001D01*
X411986D01*
X410986Y340001D01*
Y342000D01*
X411986Y343000D01*
X414985D01*
X419983Y339001D02*
X417984D01*
X416984Y340001D01*
Y342000D01*
X417984Y343000D01*
X419983D01*
X420983Y342000D01*
Y341000D01*
X416984D01*
X422983Y343000D02*
Y339001D01*
Y341000D01*
X423982Y342000D01*
X424982Y343000D01*
X425982D01*
X428981Y339001D02*
Y340001D01*
X429980D01*
Y339001D01*
X428981D01*
X234200Y167400D02*
Y171399D01*
X236199Y173398D01*
X238199Y171399D01*
Y167400D01*
Y170399D01*
X234200D01*
X244197Y171399D02*
X241198D01*
X240198Y170399D01*
Y168400D01*
X241198Y167400D01*
X244197D01*
X247196Y172398D02*
Y171399D01*
X246196D01*
X248196D01*
X247196D01*
Y168400D01*
X248196Y167400D01*
X251195Y171399D02*
Y168400D01*
X252194Y167400D01*
X255193D01*
Y171399D01*
X258192D02*
X260192D01*
X261191Y170399D01*
Y167400D01*
X258192D01*
X257193Y168400D01*
X258192Y169399D01*
X261191D01*
X263191Y167400D02*
X265190D01*
X264190D01*
Y173398D01*
X263191D01*
X274187D02*
Y169399D01*
X276186Y167400D01*
X278186Y169399D01*
Y173398D01*
X282185Y165401D02*
X283184D01*
X284184Y166400D01*
Y171399D01*
X281185D01*
X280185Y170399D01*
Y168400D01*
X281185Y167400D01*
X284184D01*
X286183D02*
X289182D01*
X290182Y168400D01*
X289182Y169399D01*
X287183D01*
X286183Y170399D01*
X287183Y171399D01*
X290182D01*
X235200Y159801D02*
X237199D01*
X238199Y158802D01*
Y155803D01*
X235200D01*
X234200Y156802D01*
X235200Y157802D01*
X238199D01*
X240198Y159801D02*
Y155803D01*
Y157802D01*
X241198Y158802D01*
X242197Y159801D01*
X243197D01*
X249195Y155803D02*
X247196D01*
X246196Y156802D01*
Y158802D01*
X247196Y159801D01*
X249195D01*
X250195Y158802D01*
Y157802D01*
X246196D01*
X258192Y155803D02*
X260192D01*
X259192D01*
Y161801D01*
X258192Y160801D01*
X263191Y161801D02*
Y157802D01*
X265190Y155803D01*
X267189Y157802D01*
Y161801D01*
X275187Y155803D02*
X277186D01*
X276186D01*
Y161801D01*
X275187D01*
X281185Y155803D02*
X283184D01*
X284184Y156802D01*
Y158802D01*
X283184Y159801D01*
X281185D01*
X280185Y158802D01*
Y156802D01*
X281185Y155803D01*
X286183Y159801D02*
Y156802D01*
X287183Y155803D01*
X288182Y156802D01*
X289182Y155803D01*
X290182Y156802D01*
Y159801D01*
X295180Y155803D02*
X293181D01*
X292181Y156802D01*
Y158802D01*
X293181Y159801D01*
X295180D01*
X296180Y158802D01*
Y157802D01*
X292181D01*
X298179Y159801D02*
Y155803D01*
Y157802D01*
X299179Y158802D01*
X300179Y159801D01*
X301178D01*
X235200Y151204D02*
Y150204D01*
X234200D01*
X236199D01*
X235200D01*
Y147205D01*
X236199Y146205D01*
X239198Y152203D02*
Y146205D01*
Y149204D01*
X240198Y150204D01*
X242197D01*
X243197Y149204D01*
Y146205D01*
X246196Y150204D02*
X248196D01*
X249195Y149204D01*
Y146205D01*
X246196D01*
X245196Y147205D01*
X246196Y148205D01*
X249195D01*
X251195Y146205D02*
Y150204D01*
X254193D01*
X255193Y149204D01*
Y146205D01*
X263191D02*
Y150204D01*
X264190D01*
X265190Y149204D01*
Y146205D01*
Y149204D01*
X266190Y150204D01*
X267189Y149204D01*
Y146205D01*
X272188D02*
X270188D01*
X269189Y147205D01*
Y149204D01*
X270188Y150204D01*
X272188D01*
X273187Y149204D01*
Y148205D01*
X269189D01*
X276186Y150204D02*
X278186D01*
X279185Y149204D01*
Y146205D01*
X276186D01*
X275187Y147205D01*
X276186Y148205D01*
X279185D01*
X281185Y146205D02*
X284184D01*
X285184Y147205D01*
X284184Y148205D01*
X282185D01*
X281185Y149204D01*
X282185Y150204D01*
X285184D01*
X287183D02*
Y147205D01*
X288182Y146205D01*
X291182D01*
Y150204D01*
X293181D02*
Y146205D01*
Y148205D01*
X294181Y149204D01*
X295180Y150204D01*
X296180D01*
X302178Y146205D02*
X300179D01*
X299179Y147205D01*
Y149204D01*
X300179Y150204D01*
X302178D01*
X303178Y149204D01*
Y148205D01*
X299179D01*
X309176Y152203D02*
Y146205D01*
X306177D01*
X305177Y147205D01*
Y149204D01*
X306177Y150204D01*
X309176D01*
X311175Y146205D02*
Y147205D01*
X312175D01*
Y146205D01*
X311175D01*
X567123Y273994D02*
X566124Y274993D01*
X564124D01*
X563125Y273994D01*
Y269995D01*
X564124Y268995D01*
X566124D01*
X567123Y269995D01*
Y271994D01*
X565124D01*
X569123Y274993D02*
Y268995D01*
X573122D01*
X578120Y274993D02*
X576121D01*
X575121Y273994D01*
Y269995D01*
X576121Y268995D01*
X578120D01*
X579120Y269995D01*
Y273994D01*
X578120Y274993D01*
X581119D02*
Y268995D01*
X584118D01*
X585118Y269995D01*
Y270995D01*
X584118Y271994D01*
X581119D01*
X584118D01*
X585118Y272994D01*
Y273994D01*
X584118Y274993D01*
X581119D01*
X587117Y268995D02*
Y272994D01*
X589116Y274993D01*
X591116Y272994D01*
Y268995D01*
Y271994D01*
X587117D01*
X593115Y274993D02*
Y268995D01*
X597114D01*
X573122Y264396D02*
X572122Y265396D01*
X570122D01*
X569123Y264396D01*
Y260397D01*
X570122Y259398D01*
X572122D01*
X573122Y260397D01*
Y262397D01*
X571122D01*
X575121Y259398D02*
Y263396D01*
X577120Y265396D01*
X579120Y263396D01*
Y259398D01*
Y262397D01*
X575121D01*
X581119Y265396D02*
X585118D01*
X583118D01*
Y259398D01*
X591116Y265396D02*
X587117D01*
Y259398D01*
X591116D01*
X587117Y262397D02*
X589116D01*
X567623Y254798D02*
X566624Y255798D01*
X564624D01*
X563625Y254798D01*
Y253799D01*
X564624Y252799D01*
X566624D01*
X567623Y251799D01*
Y250800D01*
X566624Y249800D01*
X564624D01*
X563625Y250800D01*
X569623Y255798D02*
Y249800D01*
X571622Y251799D01*
X573621Y249800D01*
Y255798D01*
X575621D02*
X577620D01*
X576620D01*
Y249800D01*
X575621D01*
X577620D01*
X580619Y255798D02*
X584618D01*
X582618D01*
Y249800D01*
X590616Y254798D02*
X589616Y255798D01*
X587617D01*
X586617Y254798D01*
Y250800D01*
X587617Y249800D01*
X589616D01*
X590616Y250800D01*
X592615Y255798D02*
Y249800D01*
Y252799D01*
X596614D01*
Y255798D01*
Y249800D01*
X470400Y367194D02*
Y362196D01*
X471400Y361196D01*
X473399D01*
X474399Y362196D01*
Y367194D01*
X476398Y361196D02*
X479397D01*
X480397Y362196D01*
X479397Y363196D01*
X477398D01*
X476398Y364195D01*
X477398Y365195D01*
X480397D01*
X485395Y361196D02*
X483396D01*
X482396Y362196D01*
Y364195D01*
X483396Y365195D01*
X485395D01*
X486395Y364195D01*
Y363196D01*
X482396D01*
X494392Y361196D02*
X497391D01*
X498391Y362196D01*
X497391Y363196D01*
X495392D01*
X494392Y364195D01*
X495392Y365195D01*
X498391D01*
X500390D02*
Y362196D01*
X501390Y361196D01*
X502390Y362196D01*
X503389Y361196D01*
X504389Y362196D01*
Y365195D01*
X506388Y361196D02*
X508388D01*
X507388D01*
Y365195D01*
X506388D01*
X512386Y366195D02*
Y365195D01*
X511387D01*
X513386D01*
X512386D01*
Y362196D01*
X513386Y361196D01*
X520384Y365195D02*
X517385D01*
X516385Y364195D01*
Y362196D01*
X517385Y361196D01*
X520384D01*
X522383Y367194D02*
Y361196D01*
Y364195D01*
X523383Y365195D01*
X525382D01*
X526382Y364195D01*
Y361196D01*
X471400Y356597D02*
Y355597D01*
X470400D01*
X472399D01*
X471400D01*
Y352598D01*
X472399Y351599D01*
X476398D02*
X478397D01*
X479397Y352598D01*
Y354598D01*
X478397Y355597D01*
X476398D01*
X475398Y354598D01*
Y352598D01*
X476398Y351599D01*
X487394D02*
X490393D01*
X491393Y352598D01*
X490393Y353598D01*
X488394D01*
X487394Y354598D01*
X488394Y355597D01*
X491393D01*
X496391Y351599D02*
X494392D01*
X493393Y352598D01*
Y354598D01*
X494392Y355597D01*
X496391D01*
X497391Y354598D01*
Y353598D01*
X493393D01*
X500390Y356597D02*
Y355597D01*
X499391D01*
X501390D01*
X500390D01*
Y352598D01*
X501390Y351599D01*
X470400Y347999D02*
Y344000D01*
X472399Y342001D01*
X474399Y344000D01*
Y347999D01*
X478397Y340002D02*
X479397D01*
X480397Y341001D01*
Y346000D01*
X477398D01*
X476398Y345000D01*
Y343001D01*
X477398Y342001D01*
X480397D01*
X482396D02*
X485395D01*
X486395Y343001D01*
X485395Y344000D01*
X483396D01*
X482396Y345000D01*
X483396Y346000D01*
X486395D01*
X495392Y346999D02*
Y346000D01*
X494392D01*
X496391D01*
X495392D01*
Y343001D01*
X496391Y342001D01*
X500390D02*
X502390D01*
X503389Y343001D01*
Y345000D01*
X502390Y346000D01*
X500390D01*
X499391Y345000D01*
Y343001D01*
X500390Y342001D01*
X511387Y346999D02*
X512386Y347999D01*
X514386D01*
X515385Y346999D01*
Y343001D01*
X514386Y342001D01*
X512386D01*
X511387Y343001D01*
Y346999D01*
X517385Y342001D02*
Y343001D01*
X518384D01*
Y342001D01*
X517385D01*
X210600Y49948D02*
Y43950D01*
X214599D01*
X219597Y49948D02*
X217598D01*
X216598Y48948D01*
Y44950D01*
X217598Y43950D01*
X219597D01*
X220597Y44950D01*
Y48948D01*
X219597Y49948D01*
X210600Y113198D02*
Y107200D01*
Y110199D01*
X214599D01*
Y113198D01*
Y107200D01*
X216598Y113198D02*
X218597D01*
X217598D01*
Y107200D01*
X216598D01*
X218597D01*
X704800Y604399D02*
Y610397D01*
X706799Y608398D01*
X708799Y610397D01*
Y604399D01*
X711798Y608398D02*
X713797D01*
X714797Y607398D01*
Y604399D01*
X711798D01*
X710798Y605399D01*
X711798Y606399D01*
X714797D01*
X716796Y608398D02*
Y605399D01*
X717796Y604399D01*
X720795D01*
Y603400D01*
X719795Y602400D01*
X718795D01*
X720795Y604399D02*
Y608398D01*
X732791Y604399D02*
X728792D01*
X732791Y608398D01*
Y609398D01*
X731791Y610397D01*
X729792D01*
X728792Y609398D01*
X734790D02*
X735790Y610397D01*
X737789D01*
X738789Y609398D01*
Y605399D01*
X737789Y604399D01*
X735790D01*
X734790Y605399D01*
Y609398D01*
X744787Y604399D02*
X740788D01*
X744787Y608398D01*
Y609398D01*
X743787Y610397D01*
X741788D01*
X740788Y609398D01*
X750785Y604399D02*
X746786D01*
X750785Y608398D01*
Y609398D01*
X749786Y610397D01*
X747786D01*
X746786Y609398D01*
X704800Y623700D02*
Y629698D01*
X708799Y623700D01*
Y629698D01*
X713797Y623700D02*
X711798D01*
X710798Y624700D01*
Y626699D01*
X711798Y627699D01*
X713797D01*
X714797Y626699D01*
Y625699D01*
X710798D01*
X719795Y623700D02*
X717796D01*
X716796Y624700D01*
Y626699D01*
X717796Y627699D01*
X719795D01*
X720795Y626699D01*
Y625699D01*
X716796D01*
X722794Y623700D02*
X724793D01*
X723794D01*
Y629698D01*
X722794D01*
X733791Y623700D02*
Y629698D01*
X735790Y627699D01*
X737789Y629698D01*
Y623700D01*
X740788D02*
X742788D01*
X743787Y624700D01*
Y626699D01*
X742788Y627699D01*
X740788D01*
X739789Y626699D01*
Y624700D01*
X740788Y623700D01*
X745787D02*
Y627699D01*
X748786D01*
X749786Y626699D01*
Y623700D01*
X755784Y629698D02*
Y623700D01*
X752784D01*
X751785Y624700D01*
Y626699D01*
X752784Y627699D01*
X755784D01*
X758782D02*
X760782D01*
X761782Y626699D01*
Y623700D01*
X758782D01*
X757783Y624700D01*
X758782Y625699D01*
X761782D01*
X763781Y623700D02*
X765780D01*
X764781D01*
Y629698D01*
X763781D01*
X704800Y613999D02*
Y619997D01*
X707799D01*
X708799Y618998D01*
Y616998D01*
X707799Y615999D01*
X704800D01*
X711798Y617998D02*
X713797D01*
X714797Y616998D01*
Y613999D01*
X711798D01*
X710798Y614999D01*
X711798Y615999D01*
X714797D01*
X716796Y613999D02*
X718795D01*
X717796D01*
Y619997D01*
X716796D01*
X722794Y617998D02*
X724793D01*
X725793Y616998D01*
Y613999D01*
X722794D01*
X721795Y614999D01*
X722794Y615999D01*
X725793D01*
X731791Y617998D02*
X728792D01*
X727793Y616998D01*
Y614999D01*
X728792Y613999D01*
X731791D01*
X733791D02*
X735790D01*
X734790D01*
Y617998D01*
X733791D01*
X739789Y613999D02*
X741788D01*
X742788Y614999D01*
Y616998D01*
X741788Y617998D01*
X739789D01*
X738789Y616998D01*
Y614999D01*
X739789Y613999D01*
X744787D02*
X747786D01*
X748786Y614999D01*
X747786Y615999D01*
X745787D01*
X744787Y616998D01*
X745787Y617998D01*
X748786D01*
X760782Y618998D02*
X759782Y619997D01*
X757783D01*
X756783Y618998D01*
Y614999D01*
X757783Y613999D01*
X759782D01*
X760782Y614999D01*
Y616998D01*
X758782D01*
X762781Y617998D02*
Y613999D01*
Y615999D01*
X763781Y616998D01*
X764781Y617998D01*
X765780D01*
X769779Y613999D02*
X771778D01*
X772778Y614999D01*
Y616998D01*
X771778Y617998D01*
X769779D01*
X768779Y616998D01*
Y614999D01*
X769779Y613999D01*
X774777Y617998D02*
Y614999D01*
X775777Y613999D01*
X778776D01*
Y617998D01*
X780775Y612000D02*
Y617998D01*
X783774D01*
X784774Y616998D01*
Y614999D01*
X783774Y613999D01*
X780775D01*
X787773Y613000D02*
X788773Y613999D01*
Y614999D01*
X787773D01*
Y613999D01*
X788773D01*
X787773Y613000D01*
X786773Y612000D01*
X798770Y613999D02*
Y619997D01*
X800769Y617998D01*
X802768Y619997D01*
Y613999D01*
X804768Y619997D02*
X806767D01*
X805767D01*
Y613999D01*
X804768D01*
X806767D01*
X809766Y619997D02*
X813765D01*
X811765D01*
Y613999D01*
X656599Y197100D02*
X655599Y198100D01*
X653600D01*
X652600Y197100D01*
Y193101D01*
X653600Y192102D01*
X655599D01*
X656599Y193101D01*
Y195101D01*
X654599D01*
X658598Y192102D02*
Y196100D01*
X660597Y198100D01*
X662597Y196100D01*
Y192102D01*
Y195101D01*
X658598D01*
X664596Y198100D02*
X668595D01*
X666595D01*
Y192102D01*
X674593Y198100D02*
X670594D01*
Y192102D01*
X674593D01*
X670594Y195101D02*
X672593D01*
X679591Y192102D02*
Y198100D01*
X676592Y195101D01*
X680591D01*
X656599Y252322D02*
X655599Y253322D01*
X653600D01*
X652600Y252322D01*
Y248324D01*
X653600Y247324D01*
X655599D01*
X656599Y248324D01*
Y250323D01*
X654599D01*
X658598Y247324D02*
Y251323D01*
X660597Y253322D01*
X662597Y251323D01*
Y247324D01*
Y250323D01*
X658598D01*
X664596Y253322D02*
X668595D01*
X666595D01*
Y247324D01*
X674593Y253322D02*
X670594D01*
Y247324D01*
X674593D01*
X670594Y250323D02*
X672593D01*
X680591Y253322D02*
X676592D01*
Y250323D01*
X678591Y251323D01*
X679591D01*
X680591Y250323D01*
Y248324D01*
X679591Y247324D01*
X677592D01*
X676592Y248324D01*
X656599Y304038D02*
X655599Y305037D01*
X653600D01*
X652600Y304038D01*
Y300039D01*
X653600Y299039D01*
X655599D01*
X656599Y300039D01*
Y302038D01*
X654599D01*
X658598Y299039D02*
Y303038D01*
X660597Y305037D01*
X662597Y303038D01*
Y299039D01*
Y302038D01*
X658598D01*
X664596Y305037D02*
X668595D01*
X666595D01*
Y299039D01*
X674593Y305037D02*
X670594D01*
Y299039D01*
X674593D01*
X670594Y302038D02*
X672593D01*
X680591Y305037D02*
X678591Y304038D01*
X676592Y302038D01*
Y300039D01*
X677592Y299039D01*
X679591D01*
X680591Y300039D01*
Y301039D01*
X679591Y302038D01*
X676592D01*
X656099Y144538D02*
X655099Y145537D01*
X653100D01*
X652100Y144538D01*
Y140539D01*
X653100Y139539D01*
X655099D01*
X656099Y140539D01*
Y142538D01*
X654099D01*
X658098Y139539D02*
Y143538D01*
X660097Y145537D01*
X662097Y143538D01*
Y139539D01*
Y142538D01*
X658098D01*
X664096Y145537D02*
X668095D01*
X666095D01*
Y139539D01*
X674093Y145537D02*
X670094D01*
Y139539D01*
X674093D01*
X670094Y142538D02*
X672093D01*
X676092Y144538D02*
X677092Y145537D01*
X679091D01*
X680091Y144538D01*
Y143538D01*
X679091Y142538D01*
X678091D01*
X679091D01*
X680091Y141539D01*
Y140539D01*
X679091Y139539D01*
X677092D01*
X676092Y140539D01*
X656099Y92822D02*
X655099Y93822D01*
X653100D01*
X652100Y92822D01*
Y88824D01*
X653100Y87824D01*
X655099D01*
X656099Y88824D01*
Y90823D01*
X654099D01*
X658098Y87824D02*
Y91823D01*
X660097Y93822D01*
X662097Y91823D01*
Y87824D01*
Y90823D01*
X658098D01*
X664096Y93822D02*
X668095D01*
X666095D01*
Y87824D01*
X674093Y93822D02*
X670094D01*
Y87824D01*
X674093D01*
X670094Y90823D02*
X672093D01*
X680091Y87824D02*
X676092D01*
X680091Y91823D01*
Y92822D01*
X679091Y93822D01*
X677092D01*
X676092Y92822D01*
X656099Y37600D02*
X655099Y38600D01*
X653100D01*
X652100Y37600D01*
Y33601D01*
X653100Y32602D01*
X655099D01*
X656099Y33601D01*
Y35601D01*
X654099D01*
X658098Y32602D02*
Y36600D01*
X660097Y38600D01*
X662097Y36600D01*
Y32602D01*
Y35601D01*
X658098D01*
X664096Y38600D02*
X668095D01*
X666095D01*
Y32602D01*
X674093Y38600D02*
X670094D01*
Y32602D01*
X674093D01*
X670094Y35601D02*
X672093D01*
X676092Y32602D02*
X678091D01*
X677092D01*
Y38600D01*
X676092Y37600D01*
X519899Y332998D02*
X517900D01*
X516900Y331998D01*
Y328000D01*
X517900Y327000D01*
X519899D01*
X520899Y328000D01*
Y331998D01*
X519899Y332998D01*
X526897D02*
X522898D01*
Y329999D01*
X524897D01*
X522898D01*
Y327000D01*
X532895Y332998D02*
X528896D01*
Y329999D01*
X530896D01*
X528896D01*
Y327000D01*
X480977Y332997D02*
X478977D01*
X477978Y331998D01*
Y327999D01*
X478977Y326999D01*
X480977D01*
X481976Y327999D01*
Y331998D01*
X480977Y332997D01*
X483976Y326999D02*
Y332997D01*
X487974Y326999D01*
Y332997D01*
X407248Y238998D02*
Y240997D01*
Y239997D01*
X401250D01*
X402250Y238998D01*
X401250Y243996D02*
X407248Y247995D01*
X401250D02*
X407248Y243996D01*
X417648Y232498D02*
Y234497D01*
Y233497D01*
X411650D01*
X412650Y232498D01*
Y237496D02*
X411650Y238496D01*
Y240495D01*
X412650Y241495D01*
X416648D01*
X417648Y240495D01*
Y238496D01*
X416648Y237496D01*
X412650D01*
X411650Y243494D02*
X417648Y247493D01*
X411650D02*
X417648Y243494D01*
X428309Y235496D02*
Y231498D01*
X424311Y235496D01*
X423311D01*
X422311Y234497D01*
Y232497D01*
X423311Y231498D01*
Y237496D02*
X422311Y238495D01*
Y240495D01*
X423311Y241494D01*
X427310D01*
X428309Y240495D01*
Y238495D01*
X427310Y237496D01*
X423311D01*
X422311Y243494D02*
X428309Y247493D01*
X422311D02*
X428309Y243494D01*
X406234Y134502D02*
Y136501D01*
Y135501D01*
X400236D01*
X401236Y134502D01*
X400236Y139500D02*
X406234Y143499D01*
X400236D02*
X406234Y139500D01*
X416634Y128002D02*
Y130001D01*
Y129001D01*
X410636D01*
X411636Y128002D01*
Y133000D02*
X410636Y134000D01*
Y135999D01*
X411636Y136999D01*
X415634D01*
X416634Y135999D01*
Y134000D01*
X415634Y133000D01*
X411636D01*
X410636Y138998D02*
X416634Y142997D01*
X410636D02*
X416634Y138998D01*
X427295Y131000D02*
Y127002D01*
X423297Y131000D01*
X422297D01*
X421297Y130001D01*
Y128001D01*
X422297Y127002D01*
Y133000D02*
X421297Y133999D01*
Y135999D01*
X422297Y136998D01*
X426296D01*
X427295Y135999D01*
Y133999D01*
X426296Y133000D01*
X422297D01*
X421297Y138998D02*
X427295Y142996D01*
X421297D02*
X427295Y138998D01*
X429261Y28700D02*
Y24702D01*
X425262Y28700D01*
X424263D01*
X423263Y27701D01*
Y25701D01*
X424263Y24702D01*
Y30700D02*
X423263Y31699D01*
Y33699D01*
X424263Y34698D01*
X428261D01*
X429261Y33699D01*
Y31699D01*
X428261Y30700D01*
X424263D01*
X423263Y36698D02*
X429261Y40696D01*
X423263D02*
X429261Y36698D01*
X418600Y25702D02*
Y27701D01*
Y26701D01*
X412602D01*
X413602Y25702D01*
Y30700D02*
X412602Y31700D01*
Y33699D01*
X413602Y34699D01*
X417600D01*
X418600Y33699D01*
Y31700D01*
X417600Y30700D01*
X413602D01*
X412602Y36698D02*
X418600Y40697D01*
X412602D02*
X418600Y36698D01*
X408200Y32202D02*
Y34201D01*
Y33201D01*
X402202D01*
X403202Y32202D01*
X402202Y37200D02*
X408200Y41199D01*
X402202D02*
X408200Y37200D01*
X282581Y199498D02*
Y193500D01*
X286580D01*
X291579Y199498D02*
X289579D01*
X288580Y198498D01*
Y194500D01*
X289579Y193500D01*
X291579D01*
X292578Y194500D01*
Y198498D01*
X291579Y199498D01*
X237700D02*
Y193500D01*
Y196499D01*
X241699D01*
Y199498D01*
Y193500D01*
X243698Y199498D02*
X245697D01*
X244698D01*
Y193500D01*
X243698D01*
X245697D01*
X226799Y210498D02*
X225799Y211498D01*
X223800D01*
X222800Y210498D01*
Y206500D01*
X223800Y205500D01*
X225799D01*
X226799Y206500D01*
Y208499D01*
X224799D01*
X228798Y205500D02*
Y209499D01*
X230797Y211498D01*
X232797Y209499D01*
Y205500D01*
Y208499D01*
X228798D01*
X234796Y211498D02*
X238795D01*
X236795D01*
Y205500D01*
X244793Y211498D02*
X240794D01*
Y205500D01*
X244793D01*
X240794Y208499D02*
X242793D01*
X252790Y211498D02*
X256789D01*
X254790D01*
Y205500D01*
X258788Y211498D02*
Y205500D01*
Y208499D01*
X262787D01*
Y211498D01*
Y205500D01*
X264786D02*
Y211498D01*
X267785D01*
X268785Y210498D01*
Y208499D01*
X267785Y207499D01*
X264786D01*
X266786D02*
X268785Y205500D01*
X274783Y211498D02*
X270784D01*
Y205500D01*
X274783D01*
X270784Y208499D02*
X272784D01*
X280781Y210498D02*
X279782Y211498D01*
X277782D01*
X276782Y210498D01*
Y209499D01*
X277782Y208499D01*
X279782D01*
X280781Y207499D01*
Y206500D01*
X279782Y205500D01*
X277782D01*
X276782Y206500D01*
X282781Y211498D02*
Y205500D01*
Y208499D01*
X286779D01*
Y211498D01*
Y205500D01*
X291778Y211498D02*
X289778D01*
X288779Y210498D01*
Y206500D01*
X289778Y205500D01*
X291778D01*
X292777Y206500D01*
Y210498D01*
X291778Y211498D01*
X294777D02*
Y205500D01*
X298775D01*
X300775Y211498D02*
Y205500D01*
X303774D01*
X304773Y206500D01*
Y210498D01*
X303774Y211498D01*
X300775D01*
X310771Y210498D02*
X309772Y211498D01*
X307772D01*
X306773Y210498D01*
Y209499D01*
X307772Y208499D01*
X309772D01*
X310771Y207499D01*
Y206500D01*
X309772Y205500D01*
X307772D01*
X306773Y206500D01*
X160975Y56399D02*
X164973D01*
X162974Y58398D02*
Y54400D01*
X170972Y53400D02*
X166973D01*
X170972Y57399D01*
Y58398D01*
X169972Y59398D01*
X167973D01*
X166973Y58398D01*
X172971D02*
X173971Y59398D01*
X175970D01*
X176970Y58398D01*
Y54400D01*
X175970Y53400D01*
X173971D01*
X172971Y54400D01*
Y58398D01*
X178969Y59398D02*
Y55399D01*
X180968Y53400D01*
X182968Y55399D01*
Y59398D01*
X129362Y56399D02*
X133361D01*
X139359Y53400D02*
X135360D01*
X139359Y57399D01*
Y58398D01*
X138359Y59398D01*
X136360D01*
X135360Y58398D01*
X141358D02*
X142358Y59398D01*
X144358D01*
X145357Y58398D01*
Y54400D01*
X144358Y53400D01*
X142358D01*
X141358Y54400D01*
Y58398D01*
X147356Y59398D02*
Y55399D01*
X149356Y53400D01*
X151355Y55399D01*
Y59398D01*
X113745D02*
X109746D01*
Y56399D01*
X111745Y57399D01*
X112745D01*
X113745Y56399D01*
Y54400D01*
X112745Y53400D01*
X110746D01*
X109746Y54400D01*
X115744Y59398D02*
Y55399D01*
X117743Y53400D01*
X119743Y55399D01*
Y59398D01*
X84132Y58398D02*
X85131Y59398D01*
X87131D01*
X88130Y58398D01*
Y57399D01*
X87131Y56399D01*
X86131D01*
X87131D01*
X88130Y55399D01*
Y54400D01*
X87131Y53400D01*
X85131D01*
X84132Y54400D01*
X90130Y59398D02*
Y55399D01*
X92129Y53400D01*
X94128Y55399D01*
Y59398D01*
X96128Y58398D02*
X97127Y59398D01*
X99127D01*
X100127Y58398D01*
Y57399D01*
X99127Y56399D01*
X98127D01*
X99127D01*
X100127Y55399D01*
Y54400D01*
X99127Y53400D01*
X97127D01*
X96128Y54400D01*
X68514Y53400D02*
X64515D01*
X68514Y57399D01*
Y58398D01*
X67514Y59398D01*
X65515D01*
X64515Y58398D01*
X70513Y59398D02*
Y55399D01*
X72513Y53400D01*
X74512Y55399D01*
Y59398D01*
X45899Y53400D02*
X47898D01*
X46898D01*
Y59398D01*
X45899Y58398D01*
X50897Y59398D02*
Y55399D01*
X52896Y53400D01*
X54896Y55399D01*
Y59398D01*
X24283Y58398D02*
X23283Y59398D01*
X21284D01*
X20284Y58398D01*
Y54400D01*
X21284Y53400D01*
X23283D01*
X24283Y54400D01*
Y56399D01*
X22284D01*
X26282Y53400D02*
Y59398D01*
X30281Y53400D01*
Y59398D01*
X32280D02*
Y53400D01*
X35279D01*
X36279Y54400D01*
Y58398D01*
X35279Y59398D01*
X32280D01*
X755199Y415799D02*
X754200D01*
X754700D01*
Y413300D01*
X754200Y412800D01*
X753700D01*
X753200Y413300D01*
X756199Y412800D02*
X757199D01*
X756699D01*
Y415799D01*
X756199Y415299D01*
X758698Y413300D02*
X759198Y412800D01*
X760198D01*
X760698Y413300D01*
Y415299D01*
X760198Y415799D01*
X759198D01*
X758698Y415299D01*
Y414799D01*
X759198Y414299D01*
X760698D01*
X866699Y221699D02*
X865700D01*
X866199D01*
Y219200D01*
X865700Y218700D01*
X865200D01*
X864700Y219200D01*
X869698Y218700D02*
X867699D01*
X869698Y220699D01*
Y221199D01*
X869199Y221699D01*
X868199D01*
X867699Y221199D01*
X870698D02*
X871198Y221699D01*
X872198D01*
X872697Y221199D01*
Y219200D01*
X872198Y218700D01*
X871198D01*
X870698Y219200D01*
Y221199D01*
X550101Y228200D02*
X549601Y228699D01*
X548601D01*
X548101Y228200D01*
Y227700D01*
X548601Y227200D01*
X549601D01*
X550101Y226700D01*
Y226200D01*
X549601Y225700D01*
X548601D01*
X548101Y226200D01*
X551100Y228699D02*
Y225700D01*
X552100Y226700D01*
X553100Y225700D01*
Y228699D01*
X554099D02*
X556099D01*
Y228200D01*
X554099Y226200D01*
Y225700D01*
X249500Y642200D02*
Y645199D01*
X250999D01*
X251499Y644699D01*
Y643700D01*
X250999Y643200D01*
X249500D01*
X252499Y644699D02*
X252999Y645199D01*
X253998D01*
X254498Y644699D01*
Y644199D01*
X253998Y643700D01*
X254498Y643200D01*
Y642700D01*
X253998Y642200D01*
X252999D01*
X252499Y642700D01*
Y643200D01*
X252999Y643700D01*
X252499Y644199D01*
Y644699D01*
X252999Y643700D02*
X253998D01*
X365816Y563464D02*
Y560965D01*
X366316Y560465D01*
X367316D01*
X367816Y560965D01*
Y563464D01*
X368815Y560465D02*
X369815D01*
X369315D01*
Y563464D01*
X368815Y562964D01*
X371315D02*
X371814Y563464D01*
X372814D01*
X373314Y562964D01*
Y562464D01*
X372814Y561965D01*
X372314D01*
X372814D01*
X373314Y561465D01*
Y560965D01*
X372814Y560465D01*
X371814D01*
X371315Y560965D01*
X358623Y271702D02*
Y269203D01*
X359123Y268703D01*
X360123D01*
X360623Y269203D01*
Y271702D01*
X361622Y268703D02*
X362622D01*
X362122D01*
Y271702D01*
X361622Y271202D01*
X366121Y268703D02*
X364122D01*
X366121Y270702D01*
Y271202D01*
X365621Y271702D01*
X364621D01*
X364122Y271202D01*
X359123Y165663D02*
Y163164D01*
X359623Y162664D01*
X360623D01*
X361122Y163164D01*
Y165663D01*
X362122Y162664D02*
X363122D01*
X362622D01*
Y165663D01*
X362122Y165164D01*
X364621Y162664D02*
X365621D01*
X365121D01*
Y165663D01*
X364621Y165164D01*
X358756Y63501D02*
Y61002D01*
X359256Y60502D01*
X360256D01*
X360756Y61002D01*
Y63501D01*
X361755Y60502D02*
X362755D01*
X362255D01*
Y63501D01*
X361755Y63001D01*
X364254D02*
X364754Y63501D01*
X365754D01*
X366254Y63001D01*
Y61002D01*
X365754Y60502D01*
X364754D01*
X364254Y61002D01*
Y63001D01*
X296943Y476320D02*
Y473821D01*
X297443Y473321D01*
X298443D01*
X298943Y473821D01*
Y476320D01*
X299943Y473821D02*
X300442Y473321D01*
X301442D01*
X301942Y473821D01*
Y475820D01*
X301442Y476320D01*
X300442D01*
X299943Y475820D01*
Y475320D01*
X300442Y474821D01*
X301942D01*
X281812Y545545D02*
Y543046D01*
X282312Y542546D01*
X283312D01*
X283811Y543046D01*
Y545545D01*
X284811Y545045D02*
X285311Y545545D01*
X286311D01*
X286810Y545045D01*
Y544546D01*
X286311Y544046D01*
X286810Y543546D01*
Y543046D01*
X286311Y542546D01*
X285311D01*
X284811Y543046D01*
Y543546D01*
X285311Y544046D01*
X284811Y544546D01*
Y545045D01*
X285311Y544046D02*
X286311D01*
X263400Y96299D02*
Y93800D01*
X263900Y93300D01*
X264899D01*
X265399Y93800D01*
Y96299D01*
X266399D02*
X268398D01*
Y95799D01*
X266399Y93800D01*
Y93300D01*
X157169Y119670D02*
Y117171D01*
X157669Y116671D01*
X158668D01*
X159168Y117171D01*
Y119670D01*
X162167D02*
X161168Y119170D01*
X160168Y118171D01*
Y117171D01*
X160668Y116671D01*
X161668D01*
X162167Y117171D01*
Y117671D01*
X161668Y118171D01*
X160168D01*
X23100Y109099D02*
Y106600D01*
X23600Y106100D01*
X24600D01*
X25099Y106600D01*
Y109099D01*
X28098D02*
X26099D01*
Y107599D01*
X27099Y108099D01*
X27599D01*
X28098Y107599D01*
Y106600D01*
X27599Y106100D01*
X26599D01*
X26099Y106600D01*
X23000Y214199D02*
Y211700D01*
X23500Y211200D01*
X24499D01*
X24999Y211700D01*
Y214199D01*
X27498Y211200D02*
Y214199D01*
X25999Y212700D01*
X27998D01*
X21900Y170799D02*
Y168300D01*
X22400Y167800D01*
X23400D01*
X23899Y168300D01*
Y170799D01*
X24899Y170299D02*
X25399Y170799D01*
X26399D01*
X26898Y170299D01*
Y169799D01*
X26399Y169299D01*
X25899D01*
X26399D01*
X26898Y168800D01*
Y168300D01*
X26399Y167800D01*
X25399D01*
X24899Y168300D01*
X139824Y308183D02*
Y305684D01*
X140324Y305184D01*
X141324D01*
X141824Y305684D01*
Y308183D01*
X144823Y305184D02*
X142823D01*
X144823Y307183D01*
Y307683D01*
X144323Y308183D01*
X143323D01*
X142823Y307683D01*
X316701Y607099D02*
Y604600D01*
X317200Y604101D01*
X318200D01*
X318700Y604600D01*
Y607099D01*
X319700Y604101D02*
X320699D01*
X320199D01*
Y607099D01*
X319700Y606600D01*
X463099Y117101D02*
X462599Y117601D01*
X461600D01*
X461100Y117101D01*
Y116601D01*
X461600Y116101D01*
X462599D01*
X463099Y115601D01*
Y115101D01*
X462599Y114602D01*
X461600D01*
X461100Y115101D01*
X464099Y117601D02*
Y114602D01*
X465099Y115601D01*
X466098Y114602D01*
Y117601D01*
X469097D02*
X468098Y117101D01*
X467098Y116101D01*
Y115101D01*
X467598Y114602D01*
X468598D01*
X469097Y115101D01*
Y115601D01*
X468598Y116101D01*
X467098D01*
X463099Y327101D02*
X462599Y327601D01*
X461600D01*
X461100Y327101D01*
Y326601D01*
X461600Y326101D01*
X462599D01*
X463099Y325601D01*
Y325101D01*
X462599Y324602D01*
X461600D01*
X461100Y325101D01*
X464099Y327601D02*
Y324602D01*
X465099Y325601D01*
X466098Y324602D01*
Y327601D01*
X469097D02*
X467098D01*
Y326101D01*
X468098Y326601D01*
X468598D01*
X469097Y326101D01*
Y325101D01*
X468598Y324602D01*
X467598D01*
X467098Y325101D01*
X463099Y222101D02*
X462599Y222601D01*
X461600D01*
X461100Y222101D01*
Y221601D01*
X461600Y221101D01*
X462599D01*
X463099Y220601D01*
Y220101D01*
X462599Y219601D01*
X461600D01*
X461100Y220101D01*
X464099Y222601D02*
Y219601D01*
X465099Y220601D01*
X466098Y219601D01*
Y222601D01*
X468598Y219601D02*
Y222601D01*
X467098Y221101D01*
X469097D01*
X463144Y273901D02*
X462644Y274401D01*
X461645D01*
X461145Y273901D01*
Y273401D01*
X461645Y272901D01*
X462644D01*
X463144Y272401D01*
Y271901D01*
X462644Y271402D01*
X461645D01*
X461145Y271901D01*
X464144Y274401D02*
Y271402D01*
X465144Y272401D01*
X466143Y271402D01*
Y274401D01*
X467143Y273901D02*
X467643Y274401D01*
X468642D01*
X469142Y273901D01*
Y273401D01*
X468642Y272901D01*
X468143D01*
X468642D01*
X469142Y272401D01*
Y271901D01*
X468642Y271402D01*
X467643D01*
X467143Y271901D01*
X463099Y168601D02*
X462599Y169101D01*
X461600D01*
X461100Y168601D01*
Y168101D01*
X461600Y167601D01*
X462599D01*
X463099Y167101D01*
Y166601D01*
X462599Y166102D01*
X461600D01*
X461100Y166601D01*
X464099Y169101D02*
Y166102D01*
X465099Y167101D01*
X466098Y166102D01*
Y169101D01*
X469097Y166102D02*
X467098D01*
X469097Y168101D01*
Y168601D01*
X468598Y169101D01*
X467598D01*
X467098Y168601D01*
X463099Y64501D02*
X462599Y65001D01*
X461600D01*
X461100Y64501D01*
Y64001D01*
X461600Y63501D01*
X462599D01*
X463099Y63001D01*
Y62501D01*
X462599Y62002D01*
X461600D01*
X461100Y62501D01*
X464099Y65001D02*
Y62002D01*
X465099Y63001D01*
X466098Y62002D01*
Y65001D01*
X467098Y62002D02*
X468098D01*
X467598D01*
Y65001D01*
X467098Y64501D01*
X387861Y509580D02*
Y512579D01*
X389361D01*
X389861Y512079D01*
Y511079D01*
X389361Y510579D01*
X387861D01*
X388861D02*
X389861Y509580D01*
X390860Y512079D02*
X391360Y512579D01*
X392360D01*
X392860Y512079D01*
Y511579D01*
X392360Y511079D01*
X391860D01*
X392360D01*
X392860Y510579D01*
Y510080D01*
X392360Y509580D01*
X391360D01*
X390860Y510080D01*
X393859Y512079D02*
X394359Y512579D01*
X395359D01*
X395859Y512079D01*
Y510080D01*
X395359Y509580D01*
X394359D01*
X393859Y510080D01*
Y512079D01*
X259934Y529357D02*
Y532356D01*
X261434D01*
X261934Y531856D01*
Y530857D01*
X261434Y530357D01*
X259934D01*
X260934D02*
X261934Y529357D01*
X264933D02*
X262933D01*
X264933Y531356D01*
Y531856D01*
X264433Y532356D01*
X263433D01*
X262933Y531856D01*
X265932Y529857D02*
X266432Y529357D01*
X267432D01*
X267932Y529857D01*
Y531856D01*
X267432Y532356D01*
X266432D01*
X265932Y531856D01*
Y531356D01*
X266432Y530857D01*
X267932D01*
X418076Y218102D02*
Y221101D01*
X419575D01*
X420075Y220601D01*
Y219601D01*
X419575Y219102D01*
X418076D01*
X419075D02*
X420075Y218102D01*
X423074D02*
X421075D01*
X423074Y220101D01*
Y220601D01*
X422574Y221101D01*
X421574D01*
X421075Y220601D01*
X424074D02*
X424574Y221101D01*
X425573D01*
X426073Y220601D01*
Y220101D01*
X425573Y219601D01*
X426073Y219102D01*
Y218602D01*
X425573Y218102D01*
X424574D01*
X424074Y218602D01*
Y219102D01*
X424574Y219601D01*
X424074Y220101D01*
Y220601D01*
X424574Y219601D02*
X425573D01*
X419319Y115701D02*
Y118701D01*
X420818D01*
X421318Y118201D01*
Y117201D01*
X420818Y116701D01*
X419319D01*
X420318D02*
X421318Y115701D01*
X424317D02*
X422318D01*
X424317Y117701D01*
Y118201D01*
X423817Y118701D01*
X422817D01*
X422318Y118201D01*
X425317Y118701D02*
X427316D01*
Y118201D01*
X425317Y116201D01*
Y115701D01*
X419833Y323000D02*
Y325999D01*
X421332D01*
X421832Y325500D01*
Y324500D01*
X421332Y324000D01*
X419833D01*
X420832D02*
X421832Y323000D01*
X424831D02*
X422832D01*
X424831Y325000D01*
Y325500D01*
X424331Y325999D01*
X423331D01*
X422832Y325500D01*
X427830Y325999D02*
X426830Y325500D01*
X425831Y324500D01*
Y323500D01*
X426331Y323000D01*
X427330D01*
X427830Y323500D01*
Y324000D01*
X427330Y324500D01*
X425831D01*
X401000Y218102D02*
Y221101D01*
X402499D01*
X402999Y220601D01*
Y219601D01*
X402499Y219101D01*
X401000D01*
X402000D02*
X402999Y218102D01*
X405998D02*
X403999D01*
X405998Y220101D01*
Y220601D01*
X405499Y221101D01*
X404499D01*
X403999Y220601D01*
X408997Y221101D02*
X406998D01*
Y219601D01*
X407998Y220101D01*
X408497D01*
X408997Y219601D01*
Y218601D01*
X408497Y218102D01*
X407498D01*
X406998Y218601D01*
X403400Y115701D02*
Y118701D01*
X404899D01*
X405399Y118201D01*
Y117201D01*
X404899Y116701D01*
X403400D01*
X404400D02*
X405399Y115701D01*
X408398D02*
X406399D01*
X408398Y117701D01*
Y118201D01*
X407899Y118701D01*
X406899D01*
X406399Y118201D01*
X410897Y115701D02*
Y118701D01*
X409398Y117201D01*
X411397D01*
X402094Y323000D02*
Y325999D01*
X403594D01*
X404093Y325500D01*
Y324500D01*
X403594Y324000D01*
X402094D01*
X403094D02*
X404093Y323000D01*
X407092D02*
X405093D01*
X407092Y325000D01*
Y325500D01*
X406593Y325999D01*
X405593D01*
X405093Y325500D01*
X408092D02*
X408592Y325999D01*
X409592D01*
X410091Y325500D01*
Y325000D01*
X409592Y324500D01*
X409092D01*
X409592D01*
X410091Y324000D01*
Y323500D01*
X409592Y323000D01*
X408592D01*
X408092Y323500D01*
X328201Y185381D02*
Y188381D01*
X329701D01*
X330201Y187881D01*
Y186881D01*
X329701Y186381D01*
X328201D01*
X329201D02*
X330201Y185381D01*
X333200D02*
X331200D01*
X333200Y187381D01*
Y187881D01*
X332700Y188381D01*
X331700D01*
X331200Y187881D01*
X336199Y185381D02*
X334199D01*
X336199Y187381D01*
Y187881D01*
X335699Y188381D01*
X334699D01*
X334199Y187881D01*
X329661Y82262D02*
Y85261D01*
X331160D01*
X331660Y84761D01*
Y83762D01*
X331160Y83262D01*
X329661D01*
X330660D02*
X331660Y82262D01*
X334659D02*
X332660D01*
X334659Y84262D01*
Y84761D01*
X334159Y85261D01*
X333159D01*
X332660Y84761D01*
X335659Y82262D02*
X336658D01*
X336158D01*
Y85261D01*
X335659Y84761D01*
X328272Y289430D02*
Y292429D01*
X329771D01*
X330271Y291929D01*
Y290930D01*
X329771Y290430D01*
X328272D01*
X329272D02*
X330271Y289430D01*
X333270D02*
X331271D01*
X333270Y291429D01*
Y291929D01*
X332770Y292429D01*
X331771D01*
X331271Y291929D01*
X334270D02*
X334770Y292429D01*
X335769D01*
X336269Y291929D01*
Y289930D01*
X335769Y289430D01*
X334770D01*
X334270Y289930D01*
Y291929D01*
X314040Y420600D02*
Y423599D01*
X315540D01*
X316039Y423100D01*
Y422100D01*
X315540Y421600D01*
X314040D01*
X315040D02*
X316039Y420600D01*
X317039D02*
X318039D01*
X317539D01*
Y423599D01*
X317039Y423100D01*
X319538Y421100D02*
X320038Y420600D01*
X321038D01*
X321538Y421100D01*
Y423100D01*
X321038Y423599D01*
X320038D01*
X319538Y423100D01*
Y422600D01*
X320038Y422100D01*
X321538D01*
X419520Y283228D02*
Y286227D01*
X421020D01*
X421520Y285727D01*
Y284728D01*
X421020Y284228D01*
X419520D01*
X420520D02*
X421520Y283228D01*
X422519D02*
X423519D01*
X423019D01*
Y286227D01*
X422519Y285727D01*
X425018D02*
X425518Y286227D01*
X426518D01*
X427018Y285727D01*
Y285228D01*
X426518Y284728D01*
X427018Y284228D01*
Y283728D01*
X426518Y283228D01*
X425518D01*
X425018Y283728D01*
Y284228D01*
X425518Y284728D01*
X425018Y285228D01*
Y285727D01*
X425518Y284728D02*
X426518D01*
X417158Y179003D02*
Y182002D01*
X418657D01*
X419157Y181502D01*
Y180502D01*
X418657Y180002D01*
X417158D01*
X418158D02*
X419157Y179003D01*
X420157D02*
X421157D01*
X420657D01*
Y182002D01*
X420157Y181502D01*
X422656Y182002D02*
X424655D01*
Y181502D01*
X422656Y179503D01*
Y179003D01*
X403448Y283502D02*
Y286501D01*
X404948D01*
X405447Y286001D01*
Y285001D01*
X404948Y284501D01*
X403448D01*
X404448D02*
X405447Y283502D01*
X406447D02*
X407447D01*
X406947D01*
Y286501D01*
X406447Y286001D01*
X410946Y286501D02*
X409946Y286001D01*
X408946Y285001D01*
Y284001D01*
X409446Y283502D01*
X410446D01*
X410946Y284001D01*
Y284501D01*
X410446Y285001D01*
X408946D01*
X402200Y179001D02*
Y182001D01*
X403699D01*
X404199Y181501D01*
Y180501D01*
X403699Y180001D01*
X402200D01*
X403200D02*
X404199Y179001D01*
X405199D02*
X406199D01*
X405699D01*
Y182001D01*
X405199Y181501D01*
X409697Y182001D02*
X407698D01*
Y180501D01*
X408698Y181001D01*
X409198D01*
X409697Y180501D01*
Y179501D01*
X409198Y179001D01*
X408198D01*
X407698Y179501D01*
X418599Y76101D02*
Y79101D01*
X420099D01*
X420599Y78601D01*
Y77601D01*
X420099Y77101D01*
X418599D01*
X419599D02*
X420599Y76101D01*
X421598D02*
X422598D01*
X422098D01*
Y79101D01*
X421598Y78601D01*
X425597Y76101D02*
Y79101D01*
X424098Y77601D01*
X426097D01*
X403400Y76101D02*
Y79101D01*
X404899D01*
X405399Y78601D01*
Y77601D01*
X404899Y77101D01*
X403400D01*
X404400D02*
X405399Y76101D01*
X406399D02*
X407399D01*
X406899D01*
Y79101D01*
X406399Y78601D01*
X408898D02*
X409398Y79101D01*
X410398D01*
X410897Y78601D01*
Y78101D01*
X410398Y77601D01*
X409898D01*
X410398D01*
X410897Y77101D01*
Y76601D01*
X410398Y76101D01*
X409398D01*
X408898Y76601D01*
X328570Y278617D02*
Y281616D01*
X330070D01*
X330570Y281117D01*
Y280117D01*
X330070Y279617D01*
X328570D01*
X329570D02*
X330570Y278617D01*
X331569D02*
X332569D01*
X332069D01*
Y281616D01*
X331569Y281117D01*
X336068Y278617D02*
X334068D01*
X336068Y280617D01*
Y281117D01*
X335568Y281616D01*
X334568D01*
X334068Y281117D01*
X328951Y174501D02*
Y177499D01*
X330451D01*
X330950Y177000D01*
Y176000D01*
X330451Y175500D01*
X328951D01*
X329951D02*
X330950Y174501D01*
X331950D02*
X332950D01*
X332450D01*
Y177499D01*
X331950Y177000D01*
X334449Y174501D02*
X335449D01*
X334949D01*
Y177499D01*
X334449Y177000D01*
X329411Y71794D02*
Y74793D01*
X330910D01*
X331410Y74294D01*
Y73294D01*
X330910Y72794D01*
X329411D01*
X330410D02*
X331410Y71794D01*
X332410D02*
X333409D01*
X332909D01*
Y74793D01*
X332410Y74294D01*
X334909D02*
X335409Y74793D01*
X336408D01*
X336908Y74294D01*
Y72294D01*
X336408Y71794D01*
X335409D01*
X334909Y72294D01*
Y74294D01*
X260400Y58300D02*
Y61299D01*
X261899D01*
X262399Y60799D01*
Y59799D01*
X261899Y59300D01*
X260400D01*
X261400D02*
X262399Y58300D01*
X263399Y58800D02*
X263899Y58300D01*
X264898D01*
X265398Y58800D01*
Y60799D01*
X264898Y61299D01*
X263899D01*
X263399Y60799D01*
Y60299D01*
X263899Y59799D01*
X265398D01*
X224900Y63900D02*
Y66899D01*
X226399D01*
X226899Y66399D01*
Y65399D01*
X226399Y64900D01*
X224900D01*
X225900D02*
X226899Y63900D01*
X227899Y66399D02*
X228399Y66899D01*
X229398D01*
X229898Y66399D01*
Y65899D01*
X229398Y65399D01*
X229898Y64900D01*
Y64400D01*
X229398Y63900D01*
X228399D01*
X227899Y64400D01*
Y64900D01*
X228399Y65399D01*
X227899Y65899D01*
Y66399D01*
X228399Y65399D02*
X229398D01*
X259600Y121500D02*
Y124499D01*
X261100D01*
X261599Y123999D01*
Y123000D01*
X261100Y122500D01*
X259600D01*
X260600D02*
X261599Y121500D01*
X262599Y124499D02*
X264598D01*
Y123999D01*
X262599Y122000D01*
Y121500D01*
X224300Y127300D02*
Y130299D01*
X225799D01*
X226299Y129799D01*
Y128799D01*
X225799Y128300D01*
X224300D01*
X225300D02*
X226299Y127300D01*
X229298Y130299D02*
X228299Y129799D01*
X227299Y128799D01*
Y127800D01*
X227799Y127300D01*
X228799D01*
X229298Y127800D01*
Y128300D01*
X228799Y128799D01*
X227299D01*
X169654Y151391D02*
Y154390D01*
X171154D01*
X171654Y153890D01*
Y152891D01*
X171154Y152391D01*
X169654D01*
X170654D02*
X171654Y151391D01*
X174653Y154390D02*
X172653D01*
Y152891D01*
X173653Y153390D01*
X174153D01*
X174653Y152891D01*
Y151891D01*
X174153Y151391D01*
X173153D01*
X172653Y151891D01*
X191636Y130814D02*
Y133813D01*
X193136D01*
X193635Y133313D01*
Y132313D01*
X193136Y131813D01*
X191636D01*
X192636D02*
X193635Y130814D01*
X196135D02*
Y133813D01*
X194635Y132313D01*
X196634D01*
X191636Y120783D02*
Y123782D01*
X193136D01*
X193635Y123282D01*
Y122283D01*
X193136Y121783D01*
X191636D01*
X192636D02*
X193635Y120783D01*
X194635Y123282D02*
X195135Y123782D01*
X196135D01*
X196634Y123282D01*
Y122783D01*
X196135Y122283D01*
X195635D01*
X196135D01*
X196634Y121783D01*
Y121283D01*
X196135Y120783D01*
X195135D01*
X194635Y121283D01*
X169654Y119925D02*
Y122924D01*
X171154D01*
X171654Y122424D01*
Y121424D01*
X171154Y120924D01*
X169654D01*
X170654D02*
X171654Y119925D01*
X174653D02*
X172653D01*
X174653Y121924D01*
Y122424D01*
X174153Y122924D01*
X173153D01*
X172653Y122424D01*
X118501Y255000D02*
Y257999D01*
X120000D01*
X120500Y257499D01*
Y256500D01*
X120000Y256000D01*
X118501D01*
X119500D02*
X120500Y255000D01*
X121500D02*
X122499D01*
X122000D01*
Y257999D01*
X121500Y257499D01*
X45774Y19448D02*
Y22447D01*
X47274D01*
X47774Y21947D01*
Y20947D01*
X47274Y20447D01*
X45774D01*
X48773Y19448D02*
X49773D01*
X49273D01*
Y22447D01*
X48773Y21947D01*
X51272D02*
X51772Y22447D01*
X52772D01*
X53272Y21947D01*
Y21447D01*
X52772Y20947D01*
X53272Y20447D01*
Y19948D01*
X52772Y19448D01*
X51772D01*
X51272Y19948D01*
Y20447D01*
X51772Y20947D01*
X51272Y21447D01*
Y21947D01*
X51772Y20947D02*
X52772D01*
X724900Y87900D02*
Y90899D01*
X726400D01*
X726899Y90399D01*
Y89399D01*
X726400Y88900D01*
X724900D01*
X727899Y87900D02*
X728899D01*
X728399D01*
Y90899D01*
X727899Y90399D01*
X730398Y90899D02*
X732398D01*
Y90399D01*
X730398Y88400D01*
Y87900D01*
X390051Y194341D02*
Y197340D01*
X391551D01*
X392051Y196840D01*
Y195840D01*
X391551Y195340D01*
X390051D01*
X393050Y194341D02*
X394050D01*
X393550D01*
Y197340D01*
X393050Y196840D01*
X397549Y197340D02*
X396549Y196840D01*
X395549Y195840D01*
Y194840D01*
X396049Y194341D01*
X397049D01*
X397549Y194840D01*
Y195340D01*
X397049Y195840D01*
X395549D01*
X390551Y91168D02*
Y94168D01*
X392051D01*
X392551Y93668D01*
Y92668D01*
X392051Y92168D01*
X390551D01*
X393550Y91168D02*
X394550D01*
X394050D01*
Y94168D01*
X393550Y93668D01*
X398049Y94168D02*
X396049D01*
Y92668D01*
X397049Y93168D01*
X397549D01*
X398049Y92668D01*
Y91668D01*
X397549Y91168D01*
X396549D01*
X396049Y91668D01*
X390651Y299248D02*
Y302247D01*
X392151D01*
X392651Y301747D01*
Y300747D01*
X392151Y300248D01*
X390651D01*
X393650Y299248D02*
X394650D01*
X394150D01*
Y302247D01*
X393650Y301747D01*
X397649Y299248D02*
Y302247D01*
X396149Y300747D01*
X398149D01*
X390651Y259101D02*
Y262100D01*
X392151D01*
X392651Y261600D01*
Y260600D01*
X392151Y260100D01*
X390651D01*
X393650Y259101D02*
X394650D01*
X394150D01*
Y262100D01*
X393650Y261600D01*
X396149D02*
X396649Y262100D01*
X397649D01*
X398149Y261600D01*
Y261100D01*
X397649Y260600D01*
X397149D01*
X397649D01*
X398149Y260100D01*
Y259600D01*
X397649Y259101D01*
X396649D01*
X396149Y259600D01*
X390551Y153601D02*
Y156599D01*
X392051D01*
X392551Y156100D01*
Y155100D01*
X392051Y154600D01*
X390551D01*
X393550Y153601D02*
X394550D01*
X394050D01*
Y156599D01*
X393550Y156100D01*
X398049Y153601D02*
X396049D01*
X398049Y155600D01*
Y156100D01*
X397549Y156599D01*
X396549D01*
X396049Y156100D01*
X392451Y52098D02*
Y55097D01*
X393951D01*
X394450Y54597D01*
Y53598D01*
X393951Y53098D01*
X392451D01*
X395450Y52098D02*
X396450D01*
X395950D01*
Y55097D01*
X395450Y54597D01*
X397949Y52098D02*
X398949D01*
X398449D01*
Y55097D01*
X397949Y54597D01*
X116200Y371400D02*
Y374399D01*
X117700D01*
X118199Y373899D01*
Y372900D01*
X117700Y372400D01*
X116200D01*
X119199Y371400D02*
X120199D01*
X119699D01*
Y374399D01*
X119199Y373899D01*
X121698D02*
X122198Y374399D01*
X123198D01*
X123697Y373899D01*
Y371900D01*
X123198Y371400D01*
X122198D01*
X121698Y371900D01*
Y373899D01*
X116000Y283700D02*
Y286699D01*
X117499D01*
X117999Y286199D01*
Y285199D01*
X117499Y284700D01*
X116000D01*
X118999Y284200D02*
X119499Y283700D01*
X120499D01*
X120998Y284200D01*
Y286199D01*
X120499Y286699D01*
X119499D01*
X118999Y286199D01*
Y285699D01*
X119499Y285199D01*
X120998D01*
X337100Y643000D02*
Y645999D01*
X338599D01*
X339099Y645499D01*
Y644499D01*
X338599Y644000D01*
X337100D01*
X340099Y645999D02*
X342098D01*
Y645499D01*
X340099Y643500D01*
Y643000D01*
X10500Y415300D02*
Y418299D01*
X11999D01*
X12499Y417799D01*
Y416799D01*
X11999Y416300D01*
X10500D01*
X15498Y418299D02*
X14499Y417799D01*
X13499Y416799D01*
Y415800D01*
X13999Y415300D01*
X14999D01*
X15498Y415800D01*
Y416300D01*
X14999Y416799D01*
X13499D01*
X10500Y447400D02*
Y450399D01*
X11999D01*
X12499Y449899D01*
Y448900D01*
X11999Y448400D01*
X10500D01*
X15498Y450399D02*
X13499D01*
Y448900D01*
X14499Y449399D01*
X14999D01*
X15498Y448900D01*
Y447900D01*
X14999Y447400D01*
X13999D01*
X13499Y447900D01*
X10500Y468400D02*
Y471399D01*
X11999D01*
X12499Y470899D01*
Y469900D01*
X11999Y469400D01*
X10500D01*
X14999Y468400D02*
Y471399D01*
X13499Y469900D01*
X15498D01*
X10500Y568400D02*
Y571399D01*
X11999D01*
X12499Y570899D01*
Y569900D01*
X11999Y569400D01*
X10500D01*
X13499Y570899D02*
X13999Y571399D01*
X14999D01*
X15498Y570899D01*
Y570399D01*
X14999Y569900D01*
X14499D01*
X14999D01*
X15498Y569400D01*
Y568900D01*
X14999Y568400D01*
X13999D01*
X13499Y568900D01*
X10500Y600200D02*
Y603199D01*
X11999D01*
X12499Y602699D01*
Y601699D01*
X11999Y601200D01*
X10500D01*
X15498Y600200D02*
X13499D01*
X15498Y602199D01*
Y602699D01*
X14999Y603199D01*
X13999D01*
X13499Y602699D01*
X10500Y622300D02*
Y625299D01*
X11999D01*
X12499Y624799D01*
Y623800D01*
X11999Y623300D01*
X10500D01*
X13499Y622300D02*
X14499D01*
X13999D01*
Y625299D01*
X13499Y624799D01*
X111548Y144835D02*
Y141836D01*
X113548D01*
X116546D02*
X114547D01*
X116546Y143835D01*
Y144335D01*
X116047Y144835D01*
X115047D01*
X114547Y144335D01*
X112401Y117089D02*
Y114090D01*
X114400D01*
X115400D02*
X116399D01*
X115900D01*
Y117089D01*
X115400Y116589D01*
X756999Y94599D02*
X756000D01*
X756499D01*
Y92100D01*
X756000Y91600D01*
X755500D01*
X755000Y92100D01*
X757999Y91600D02*
X758999D01*
X758499D01*
Y94599D01*
X757999Y94099D01*
X760498D02*
X760998Y94599D01*
X761998D01*
X762498Y94099D01*
Y92100D01*
X761998Y91600D01*
X760998D01*
X760498Y92100D01*
Y94099D01*
X648799Y527899D02*
X647800D01*
X648300D01*
Y525400D01*
X647800Y524900D01*
X647300D01*
X646800Y525400D01*
X651798Y524900D02*
X649799D01*
X651798Y526899D01*
Y527399D01*
X651299Y527899D01*
X650299D01*
X649799Y527399D01*
X136232Y162899D02*
Y159900D01*
X137732D01*
X138232Y160400D01*
Y162400D01*
X137732Y162899D01*
X136232D01*
X139231Y162400D02*
X139731Y162899D01*
X140731D01*
X141231Y162400D01*
Y161900D01*
X140731Y161400D01*
X140231D01*
X140731D01*
X141231Y160900D01*
Y160400D01*
X140731Y159900D01*
X139731D01*
X139231Y160400D01*
X138501Y94421D02*
Y91422D01*
X140000D01*
X140500Y91922D01*
Y93921D01*
X140000Y94421D01*
X138501D01*
X143499Y91422D02*
X141500D01*
X143499Y93421D01*
Y93921D01*
X142999Y94421D01*
X142000D01*
X141500Y93921D01*
X137775Y110000D02*
Y107000D01*
X139275D01*
X139775Y107500D01*
Y109500D01*
X139275Y110000D01*
X137775D01*
X140774Y107000D02*
X141774D01*
X141274D01*
Y110000D01*
X140774Y109500D01*
X352801Y518969D02*
X352301Y519468D01*
X351301D01*
X350801Y518969D01*
Y516969D01*
X351301Y516469D01*
X352301D01*
X352801Y516969D01*
X355800Y516469D02*
X353800D01*
X355800Y518469D01*
Y518969D01*
X355300Y519468D01*
X354300D01*
X353800Y518969D01*
X356799D02*
X357299Y519468D01*
X358299D01*
X358799Y518969D01*
Y518469D01*
X358299Y517969D01*
X358799Y517469D01*
Y516969D01*
X358299Y516469D01*
X357299D01*
X356799Y516969D01*
Y517469D01*
X357299Y517969D01*
X356799Y518469D01*
Y518969D01*
X357299Y517969D02*
X358299D01*
X316048Y543629D02*
X315548Y544129D01*
X314548D01*
X314049Y543629D01*
Y541630D01*
X314548Y541130D01*
X315548D01*
X316048Y541630D01*
X319047Y541130D02*
X317048D01*
X319047Y543129D01*
Y543629D01*
X318547Y544129D01*
X317547D01*
X317048Y543629D01*
X320047Y544129D02*
X322046D01*
Y543629D01*
X320047Y541630D01*
Y541130D01*
X275457Y439403D02*
X274957Y439903D01*
X273957D01*
X273458Y439403D01*
Y437403D01*
X273957Y436904D01*
X274957D01*
X275457Y437403D01*
X278456Y436904D02*
X276456D01*
X278456Y438903D01*
Y439403D01*
X277956Y439903D01*
X276956D01*
X276456Y439403D01*
X281455Y439903D02*
X280455Y439403D01*
X279455Y438403D01*
Y437403D01*
X279955Y436904D01*
X280955D01*
X281455Y437403D01*
Y437903D01*
X280955Y438403D01*
X279455D01*
X380272Y266231D02*
X379772Y266731D01*
X378773D01*
X378273Y266231D01*
Y264232D01*
X378773Y263732D01*
X379772D01*
X380272Y264232D01*
X383271Y263732D02*
X381272D01*
X383271Y265731D01*
Y266231D01*
X382771Y266731D01*
X381772D01*
X381272Y266231D01*
X386270Y266731D02*
X384271D01*
Y265231D01*
X385271Y265731D01*
X385770D01*
X386270Y265231D01*
Y264232D01*
X385770Y263732D01*
X384771D01*
X384271Y264232D01*
X379128Y160540D02*
X378628Y161039D01*
X377629D01*
X377129Y160540D01*
Y158540D01*
X377629Y158040D01*
X378628D01*
X379128Y158540D01*
X382127Y158040D02*
X380128D01*
X382127Y160040D01*
Y160540D01*
X381627Y161039D01*
X380628D01*
X380128Y160540D01*
X384627Y158040D02*
Y161039D01*
X383127Y159540D01*
X385126D01*
X379095Y57400D02*
X378595Y57899D01*
X377595D01*
X377096Y57400D01*
Y55400D01*
X377595Y54900D01*
X378595D01*
X379095Y55400D01*
X382094Y54900D02*
X380095D01*
X382094Y56900D01*
Y57400D01*
X381594Y57899D01*
X380594D01*
X380095Y57400D01*
X383094D02*
X383593Y57899D01*
X384593D01*
X385093Y57400D01*
Y56900D01*
X384593Y56400D01*
X384093D01*
X384593D01*
X385093Y55900D01*
Y55400D01*
X384593Y54900D01*
X383593D01*
X383094Y55400D01*
X347892Y308900D02*
X347392Y309400D01*
X346392D01*
X345893Y308900D01*
Y306900D01*
X346392Y306400D01*
X347392D01*
X347892Y306900D01*
X350891Y306400D02*
X348891D01*
X350891Y308400D01*
Y308900D01*
X350391Y309400D01*
X349391D01*
X348891Y308900D01*
X353890Y306400D02*
X351890D01*
X353890Y308400D01*
Y308900D01*
X353390Y309400D01*
X352390D01*
X351890Y308900D01*
X347660Y202948D02*
X347160Y203447D01*
X346161D01*
X345661Y202948D01*
Y200948D01*
X346161Y200448D01*
X347160D01*
X347660Y200948D01*
X350659Y200448D02*
X348660D01*
X350659Y202448D01*
Y202948D01*
X350159Y203447D01*
X349160D01*
X348660Y202948D01*
X351659Y200448D02*
X352658D01*
X352159D01*
Y203447D01*
X351659Y202948D01*
X347892Y101010D02*
X347392Y101510D01*
X346392D01*
X345893Y101010D01*
Y99011D01*
X346392Y98511D01*
X347392D01*
X347892Y99011D01*
X350891Y98511D02*
X348891D01*
X350891Y100510D01*
Y101010D01*
X350391Y101510D01*
X349391D01*
X348891Y101010D01*
X351890D02*
X352390Y101510D01*
X353390D01*
X353890Y101010D01*
Y99011D01*
X353390Y98511D01*
X352390D01*
X351890Y99011D01*
Y101010D01*
X245099Y92399D02*
X244600Y92899D01*
X243600D01*
X243100Y92399D01*
Y90400D01*
X243600Y89900D01*
X244600D01*
X245099Y90400D01*
X246099Y89900D02*
X247099D01*
X246599D01*
Y92899D01*
X246099Y92399D01*
X248598Y90400D02*
X249098Y89900D01*
X250098D01*
X250598Y90400D01*
Y92399D01*
X250098Y92899D01*
X249098D01*
X248598Y92399D01*
Y91899D01*
X249098Y91400D01*
X250598D01*
X283799Y77499D02*
X283299Y77999D01*
X282300D01*
X281800Y77499D01*
Y75500D01*
X282300Y75000D01*
X283299D01*
X283799Y75500D01*
X284799Y75000D02*
X285799D01*
X285299D01*
Y77999D01*
X284799Y77499D01*
X287298D02*
X287798Y77999D01*
X288798D01*
X289298Y77499D01*
Y76999D01*
X288798Y76499D01*
X289298Y76000D01*
Y75500D01*
X288798Y75000D01*
X287798D01*
X287298Y75500D01*
Y76000D01*
X287798Y76499D01*
X287298Y76999D01*
Y77499D01*
X287798Y76499D02*
X288798D01*
X140336Y147386D02*
X139836Y147886D01*
X138836D01*
X138336Y147386D01*
Y145387D01*
X138836Y144887D01*
X139836D01*
X140336Y145387D01*
X141335Y144887D02*
X142335D01*
X141835D01*
Y147886D01*
X141335Y147386D01*
X143834Y147886D02*
X145834D01*
Y147386D01*
X143834Y145387D01*
Y144887D01*
X183984Y171900D02*
X183485Y172399D01*
X182485D01*
X181985Y171900D01*
Y169900D01*
X182485Y169401D01*
X183485D01*
X183984Y169900D01*
X184984Y169401D02*
X185984D01*
X185484D01*
Y172399D01*
X184984Y171900D01*
X189483Y172399D02*
X188483Y171900D01*
X187483Y170900D01*
Y169900D01*
X187983Y169401D01*
X188983D01*
X189483Y169900D01*
Y170400D01*
X188983Y170900D01*
X187483D01*
X98011Y129735D02*
X97511Y130235D01*
X96512D01*
X96012Y129735D01*
Y127735D01*
X96512Y127236D01*
X97511D01*
X98011Y127735D01*
X99011Y127236D02*
X100011D01*
X99511D01*
Y130235D01*
X99011Y129735D01*
X103509Y130235D02*
X101510D01*
Y128735D01*
X102510Y129235D01*
X103009D01*
X103509Y128735D01*
Y127735D01*
X103009Y127236D01*
X102010D01*
X101510Y127735D01*
X194950Y85061D02*
X194450Y85561D01*
X193451D01*
X192951Y85061D01*
Y83062D01*
X193451Y82562D01*
X194450D01*
X194950Y83062D01*
X195950Y82562D02*
X196950D01*
X196450D01*
Y85561D01*
X195950Y85061D01*
X199949Y82562D02*
Y85561D01*
X198449Y84061D01*
X200448D01*
X191472Y108934D02*
X190972Y109434D01*
X189972D01*
X189472Y108934D01*
Y106935D01*
X189972Y106435D01*
X190972D01*
X191472Y106935D01*
X192471Y106435D02*
X193471D01*
X192971D01*
Y109434D01*
X192471Y108934D01*
X194971D02*
X195470Y109434D01*
X196470D01*
X196970Y108934D01*
Y108434D01*
X196470Y107934D01*
X195970D01*
X196470D01*
X196970Y107435D01*
Y106935D01*
X196470Y106435D01*
X195470D01*
X194971Y106935D01*
X121676Y102379D02*
X121176Y102878D01*
X120176D01*
X119676Y102379D01*
Y100379D01*
X120176Y99879D01*
X121176D01*
X121676Y100379D01*
X122675Y99879D02*
X123675D01*
X123175D01*
Y102878D01*
X122675Y102379D01*
X127174Y99879D02*
X125175D01*
X127174Y101879D01*
Y102379D01*
X126674Y102878D01*
X125674D01*
X125175Y102379D01*
X71269Y82315D02*
X70769Y82815D01*
X69769D01*
X69270Y82315D01*
Y80316D01*
X69769Y79816D01*
X70769D01*
X71269Y80316D01*
X72269Y79816D02*
X73268D01*
X72768D01*
Y82815D01*
X72269Y82315D01*
X74768Y79816D02*
X75767D01*
X75268D01*
Y82815D01*
X74768Y82315D01*
X60699Y113499D02*
X60199Y113999D01*
X59200D01*
X58700Y113499D01*
Y111500D01*
X59200Y111000D01*
X60199D01*
X60699Y111500D01*
X61699Y111000D02*
X62699D01*
X62199D01*
Y113999D01*
X61699Y113499D01*
X64198D02*
X64698Y113999D01*
X65698D01*
X66198Y113499D01*
Y111500D01*
X65698Y111000D01*
X64698D01*
X64198Y111500D01*
Y113499D01*
X72565Y192498D02*
X72065Y192998D01*
X71066D01*
X70566Y192498D01*
Y190499D01*
X71066Y189999D01*
X72065D01*
X72565Y190499D01*
X73565D02*
X74065Y189999D01*
X75064D01*
X75564Y190499D01*
Y192498D01*
X75064Y192998D01*
X74065D01*
X73565Y192498D01*
Y191998D01*
X74065Y191498D01*
X75564D01*
X63799Y220099D02*
X63300Y220599D01*
X62300D01*
X61800Y220099D01*
Y218100D01*
X62300Y217600D01*
X63300D01*
X63799Y218100D01*
X64799Y220099D02*
X65299Y220599D01*
X66299D01*
X66798Y220099D01*
Y219599D01*
X66299Y219099D01*
X66798Y218600D01*
Y218100D01*
X66299Y217600D01*
X65299D01*
X64799Y218100D01*
Y218600D01*
X65299Y219099D01*
X64799Y219599D01*
Y220099D01*
X65299Y219099D02*
X66299D01*
X74082Y144335D02*
X73582Y144835D01*
X72582D01*
X72082Y144335D01*
Y142335D01*
X72582Y141836D01*
X73582D01*
X74082Y142335D01*
X75081Y144835D02*
X77081D01*
Y144335D01*
X75081Y142335D01*
Y141836D01*
X65699Y173399D02*
X65200Y173899D01*
X64200D01*
X63700Y173399D01*
Y171400D01*
X64200Y170900D01*
X65200D01*
X65699Y171400D01*
X68698Y173899D02*
X67699Y173399D01*
X66699Y172399D01*
Y171400D01*
X67199Y170900D01*
X68199D01*
X68698Y171400D01*
Y171900D01*
X68199Y172399D01*
X66699D01*
X212600Y359798D02*
X212100Y360298D01*
X211101D01*
X210601Y359798D01*
Y357799D01*
X211101Y357299D01*
X212100D01*
X212600Y357799D01*
X215599Y360298D02*
X213600D01*
Y358798D01*
X214599Y359298D01*
X215099D01*
X215599Y358798D01*
Y357799D01*
X215099Y357299D01*
X214100D01*
X213600Y357799D01*
X212600Y271100D02*
X212100Y271600D01*
X211101D01*
X210601Y271100D01*
Y269100D01*
X211101Y268600D01*
X212100D01*
X212600Y269100D01*
X215099Y268600D02*
Y271600D01*
X213600Y270100D01*
X215599D01*
X139855Y257499D02*
X139356Y257999D01*
X138356D01*
X137856Y257499D01*
Y255500D01*
X138356Y255000D01*
X139356D01*
X139855Y255500D01*
X140855Y257499D02*
X141355Y257999D01*
X142355D01*
X142854Y257499D01*
Y256999D01*
X142355Y256500D01*
X141855D01*
X142355D01*
X142854Y256000D01*
Y255500D01*
X142355Y255000D01*
X141355D01*
X140855Y255500D01*
X250400Y590400D02*
X249900Y590900D01*
X248901D01*
X248401Y590400D01*
Y588400D01*
X248901Y587900D01*
X249900D01*
X250400Y588400D01*
X253399Y587900D02*
X251400D01*
X253399Y589900D01*
Y590400D01*
X252899Y590900D01*
X251900D01*
X251400Y590400D01*
X357000Y591300D02*
X356500Y591799D01*
X355501D01*
X355001Y591300D01*
Y589300D01*
X355501Y588800D01*
X356500D01*
X357000Y589300D01*
X358000Y588800D02*
X358999D01*
X358500D01*
Y591799D01*
X358000Y591300D01*
D18*
X711298Y644797D02*
X709798Y646296D01*
X706800D01*
X705300Y644797D01*
Y638799D01*
X706800Y637299D01*
X709798D01*
X711298Y638799D01*
Y641798D01*
X708299D01*
X714297Y643297D02*
Y637299D01*
Y640298D01*
X715797Y641798D01*
X717296Y643297D01*
X718796D01*
X724794D02*
X727793D01*
X729292Y641798D01*
Y637299D01*
X724794D01*
X723294Y638799D01*
X724794Y640298D01*
X729292D01*
X732291Y634300D02*
Y643297D01*
X736790D01*
X738289Y641798D01*
Y638799D01*
X736790Y637299D01*
X732291D01*
X741288Y646296D02*
Y637299D01*
Y641798D01*
X742788Y643297D01*
X745787D01*
X747286Y641798D01*
Y637299D01*
X754784D02*
X751785D01*
X750285Y638799D01*
Y641798D01*
X751785Y643297D01*
X754784D01*
X756284Y641798D01*
Y640298D01*
X750285D01*
X759282Y637299D02*
Y643297D01*
X763781D01*
X765281Y641798D01*
Y637299D01*
X772778D02*
X769779D01*
X768280Y638799D01*
Y641798D01*
X769779Y643297D01*
X772778D01*
X774278Y641798D01*
Y640298D01*
X768280D01*
X792272Y644797D02*
X790772Y646296D01*
X787773D01*
X786274Y644797D01*
Y638799D01*
X787773Y637299D01*
X790772D01*
X792272Y638799D01*
X795271Y646296D02*
Y637299D01*
Y641798D01*
X796770Y643297D01*
X799769D01*
X801269Y641798D01*
Y637299D01*
X804268D02*
X807267D01*
X805768D01*
Y643297D01*
X804268D01*
X811766Y634300D02*
Y643297D01*
X816264D01*
X817764Y641798D01*
Y638799D01*
X816264Y637299D01*
X811766D01*
X829760Y646296D02*
X835758D01*
X832759D01*
Y637299D01*
X843255D02*
X840256D01*
X838757Y638799D01*
Y641798D01*
X840256Y643297D01*
X843255D01*
X844755Y641798D01*
Y640298D01*
X838757D01*
X847754Y637299D02*
X852252D01*
X853752Y638799D01*
X852252Y640298D01*
X849253D01*
X847754Y641798D01*
X849253Y643297D01*
X853752D01*
X858251Y644797D02*
Y643297D01*
X856751D01*
X859750D01*
X858251D01*
Y638799D01*
X859750Y637299D01*
X868747D02*
X865748D01*
X864249Y638799D01*
Y641798D01*
X865748Y643297D01*
X868747D01*
X870247Y641798D01*
Y640298D01*
X864249D01*
X873246Y643297D02*
Y637299D01*
Y640298D01*
X874745Y641798D01*
X876245Y643297D01*
X877744D01*
D19*
X580650Y237301D02*
D03*
Y109900D02*
D03*
M02*
