G04*
G04 #@! TF.GenerationSoftware,Altium Limited,Altium Designer,22.3.1 (43)*
G04*
G04 Layer_Physical_Order=4*
G04 Layer_Color=16711680*
%FSLAX25Y25*%
%MOIN*%
G70*
G04*
G04 #@! TF.SameCoordinates,28AED8AE-6D8B-4080-ADD8-9E34605278D5*
G04*
G04*
G04 #@! TF.FilePolarity,Positive*
G04*
G01*
G75*
%ADD10C,0.01000*%
%ADD15C,0.02000*%
%ADD71C,0.05500*%
%ADD95C,0.03000*%
%ADD96R,0.05906X0.05906*%
%ADD97C,0.05906*%
%ADD98R,0.05906X0.05906*%
%ADD99C,0.07500*%
%ADD100C,0.02400*%
%ADD101C,0.02800*%
G36*
X156205Y122332D02*
X148921D01*
Y134536D01*
X156205D01*
Y122332D01*
D02*
G37*
D10*
X366369Y425596D02*
Y427011D01*
X383017Y443659D01*
X349371Y405200D02*
X386702Y442531D01*
X388518Y545419D02*
X411437D01*
X371765Y553367D02*
X380571D01*
X388518Y545419D01*
X371430Y548928D02*
X380686D01*
X370045Y550313D02*
X371430Y548928D01*
X374359Y555166D02*
X381784D01*
X386154Y562872D02*
X389512Y559514D01*
X381154Y563109D02*
X381200Y563063D01*
Y560842D02*
Y563063D01*
X378515Y556966D02*
X382530D01*
X389512Y557621D02*
X392602Y554531D01*
X383654Y560933D02*
Y563953D01*
X391856Y552731D02*
X414307D01*
X382530Y556966D02*
X390477Y549019D01*
X381200Y560842D02*
X391111Y550931D01*
X413562D01*
X389512Y557621D02*
Y559514D01*
X390477Y549019D02*
X412928D01*
X381784Y555166D02*
X389732Y547219D01*
X392602Y554531D02*
X415053D01*
X383654Y560933D02*
X391856Y552731D01*
X389732Y547219D02*
X412182D01*
X383690Y563988D02*
Y565150D01*
X383654Y563953D02*
X383690Y563988D01*
X370259Y554873D02*
X371765Y553367D01*
X368041Y554873D02*
X370259D01*
X391603Y492377D02*
X391860Y492121D01*
X164900Y517157D02*
X187088Y494969D01*
X393736D01*
X186064Y492377D02*
X391603D01*
X161443Y516998D02*
X186064Y492377D01*
X390098Y489221D02*
X390477D01*
X389219Y490100D02*
X390098Y489221D01*
X184140Y490100D02*
X389219D01*
X160801Y513438D02*
X184140Y490100D01*
X127900Y469600D02*
Y491000D01*
X246200Y609300D01*
X130647Y462697D02*
X130800Y462850D01*
Y490755D02*
X253900Y613855D01*
X130647Y434792D02*
Y462697D01*
X130800Y462850D02*
Y490755D01*
X363215Y537229D02*
X371511D01*
X363060Y537074D02*
X363215Y537229D01*
X364304Y534038D02*
X364572Y534306D01*
X365555D01*
X365774Y534526D01*
X367534Y530153D02*
X368381Y531000D01*
X405492D01*
X365774Y534526D02*
X371669D01*
X369170Y529179D02*
Y529200D01*
X368084Y527714D02*
Y528093D01*
X364917Y530153D02*
X367534D01*
X368084Y528093D02*
X369170Y529179D01*
Y529200D02*
X404746D01*
X370600Y525343D02*
X372657Y527399D01*
X404001D01*
X363441Y549220D02*
X365750Y546910D01*
X363222Y549220D02*
X363441D01*
X364394Y545111D02*
X367239D01*
X365750Y546910D02*
X367985D01*
X363490Y546014D02*
X364394Y545111D01*
X363111Y546014D02*
X363490D01*
X368308Y548710D02*
X368730D01*
X368703Y543215D02*
Y543646D01*
X368730Y548710D02*
X371006Y546435D01*
X366654Y549986D02*
X367033D01*
X367985Y546910D02*
X370465Y544429D01*
X367033Y549986D02*
X368308Y548710D01*
X370465Y544429D02*
X375212D01*
X368241Y540830D02*
X373002D01*
X457453Y489221D02*
X679765D01*
X366203Y542611D02*
X366460D01*
X371006Y546435D02*
X376084D01*
X680818Y488167D02*
X686768D01*
X679765Y489221D02*
X680818Y488167D01*
X368703Y543215D02*
X369289Y542629D01*
X374466D01*
X367239Y545111D02*
X368703Y543646D01*
X366460Y542611D02*
X368241Y540830D01*
X316687Y552486D02*
X367690D01*
X314152Y549951D02*
X316687Y552486D01*
X367940Y554973D02*
X368041Y554873D01*
X367764Y552412D02*
X367947D01*
X367690Y552486D02*
X367764Y552412D01*
X368535Y551824D02*
X368581D01*
X370045Y550313D02*
Y550359D01*
X368581Y551824D02*
X370045Y550359D01*
X367947Y552412D02*
X368535Y551824D01*
X383690Y565150D02*
X383958Y565418D01*
X673506Y435990D02*
Y440306D01*
Y435990D02*
X673522Y435974D01*
Y351732D02*
Y435974D01*
X662031Y352248D02*
Y438365D01*
X676096Y352282D02*
Y438387D01*
X662031Y352248D02*
X769705Y244574D01*
X678737Y353608D02*
Y439384D01*
X670506Y352079D02*
X778143Y244442D01*
X665337Y438616D02*
X665387Y438666D01*
X670506Y352079D02*
Y438666D01*
X659120Y352614D02*
Y436674D01*
X676096Y352282D02*
X783650Y244728D01*
X673522Y351732D02*
X779943Y245310D01*
X659120Y352614D02*
X767905Y243829D01*
X665337Y351487D02*
Y438616D01*
Y351487D02*
X772503Y244321D01*
X678737Y439384D02*
X678756Y439402D01*
X667837Y352202D02*
X775059Y244980D01*
X667837Y352202D02*
Y436674D01*
X678737Y353608D02*
X785602Y246744D01*
X675829Y438655D02*
X676096Y438387D01*
X681718Y355626D02*
X788709Y248635D01*
X678756Y439402D02*
Y441088D01*
X681718Y355626D02*
Y442422D01*
X681952Y446612D02*
X684100Y444464D01*
Y356021D02*
X787018Y253102D01*
X684100Y356021D02*
Y444464D01*
X302315Y465084D02*
X662397D01*
X303745Y447084D02*
X652055D01*
X300379Y443718D02*
X303745Y447084D01*
X656047Y454284D02*
X670238Y440093D01*
X298412Y457884D02*
X658474D01*
X305800Y472500D02*
X309616Y468684D01*
X297982Y451756D02*
X300511Y454284D01*
X302002Y450684D02*
X653887D01*
X661652Y463284D02*
X675023Y449912D01*
X300592Y466807D02*
X302315Y465084D01*
X317870Y472284D02*
X667303D01*
X298341Y457813D02*
X298412Y457884D01*
X660160Y459684D02*
X678756Y441088D01*
X653141Y448884D02*
X661763Y440262D01*
X309616Y468684D02*
X665811D01*
X655301Y452484D02*
X667911Y439875D01*
X299157Y456084D02*
X657728D01*
X302747Y448884D02*
X653141D01*
X295982Y459684D02*
X660160D01*
X666557Y470484D02*
X677141Y459900D01*
X298728Y449956D02*
X301256Y452484D01*
X312103Y470484D02*
X666557D01*
X320441Y474084D02*
X669343D01*
X295713Y462615D02*
X296845Y461484D01*
X314261Y475893D02*
X317870Y472284D01*
X301256Y452484D02*
X655301D01*
X310386Y472200D02*
X312103Y470484D01*
X317399Y477126D02*
X320441Y474084D01*
X658474Y457884D02*
X675829Y440529D01*
X299333Y448015D02*
X302002Y450684D01*
X669343Y474084D02*
X677072Y466355D01*
X299422Y463284D02*
X661652D01*
X297741Y454668D02*
X299157Y456084D01*
X657728D02*
X673506Y440306D01*
X667303Y472284D02*
X676537Y463049D01*
X307240Y468514D02*
X308871Y466884D01*
X300511Y454284D02*
X656047D01*
X297376Y465330D02*
X299422Y463284D01*
X665811Y468684D02*
X677396Y457099D01*
X662397Y465084D02*
X675769Y451712D01*
X308871Y466884D02*
X665066D01*
X296845Y461484D02*
X660906D01*
X653887Y450684D02*
X665115Y439455D01*
X660906Y461484D02*
X674277Y448112D01*
X300078Y446215D02*
X302747Y448884D01*
X295085Y460581D02*
X295982Y459684D01*
X652055Y447084D02*
X659265Y439875D01*
X665066Y466884D02*
X677548Y454402D01*
X294140Y457813D02*
X298341D01*
X293872Y458081D02*
X294140Y457813D01*
X293213Y461673D02*
X293592D01*
X294684Y460581D01*
X295713Y462615D02*
Y463485D01*
X294684Y460581D02*
X295085D01*
X293856Y465342D02*
X295713Y463485D01*
X292667Y452365D02*
X292935Y452098D01*
X294885Y451756D02*
X297982D01*
X292935Y452098D02*
X294543D01*
X294885Y451756D01*
X296044Y454668D02*
X297741D01*
X295776Y454400D02*
X296044Y454668D01*
X296685Y448015D02*
X299333D01*
X298342Y446215D02*
X300078D01*
X292667Y448156D02*
X294467Y449956D01*
X298728D01*
X293856Y465342D02*
Y465446D01*
X297376Y465330D02*
Y466448D01*
X296032Y467793D02*
X297376Y466448D01*
X299273Y468221D02*
X300592Y466903D01*
Y466807D02*
Y466903D01*
X299273Y468221D02*
Y468600D01*
X686880Y503328D02*
X750547Y439661D01*
X675444Y491021D02*
X675904Y491480D01*
X680268D01*
X675610Y496421D02*
X675829D01*
X675590Y493712D02*
X677252D01*
X677898Y494359D01*
X680442Y491183D02*
X680552Y491073D01*
X680866Y491387D01*
X668385Y502783D02*
X668930Y503328D01*
X665856Y505467D02*
X687286D01*
X670697Y496421D02*
X673233Y498956D01*
X674698Y492821D02*
X675590Y493712D01*
X412928Y549019D02*
X461926Y500021D01*
X463418Y503621D02*
X659622D01*
X304407Y468600D02*
X304493Y468514D01*
X411437Y545419D02*
X460435Y496421D01*
X412182Y547219D02*
X461181Y498221D01*
X665244Y500021D02*
X668006Y502783D01*
X414307Y552731D02*
X463418Y503621D01*
X458944Y492821D02*
X674698D01*
X404001Y527399D02*
X452980Y478421D01*
X404746Y529200D02*
X453725Y480221D01*
X675829Y496421D02*
X676096Y496688D01*
X459690Y494621D02*
X673810D01*
X460435Y496421D02*
X670697D01*
X405492Y531000D02*
X454471Y482021D01*
X410691Y543619D02*
X459690Y494621D01*
X461181Y498221D02*
X667990D01*
X313993Y478835D02*
X314261Y478567D01*
X659622Y503621D02*
X663443Y507441D01*
X407728Y536400D02*
X456707Y487421D01*
X668006Y502783D02*
X668385D01*
X406983Y534599D02*
X455962Y485621D01*
X676546D01*
X662209Y501821D02*
X665856Y505467D01*
X453725Y480221D02*
X672817D01*
X667990Y498221D02*
X670506Y500736D01*
X413562Y550931D02*
X462672Y501821D01*
X408474Y538200D02*
X457453Y489221D01*
X409220Y539999D02*
X458198Y491021D01*
X454471Y482021D02*
X673562D01*
X679023Y474014D02*
X687918D01*
X406237Y532799D02*
X455216Y483821D01*
X657057Y505421D02*
X660382Y508745D01*
X673810Y494621D02*
X675610Y496421D01*
X304493Y468514D02*
X307240D01*
X464163Y505421D02*
X657057D01*
X455216Y483821D02*
X675801D01*
X409946Y541819D02*
X458944Y492821D01*
X660382Y508745D02*
X660760D01*
X452980Y478421D02*
X671070D01*
X458198Y491021D02*
X675444D01*
X461926Y500021D02*
X665244D01*
X415053Y554531D02*
X464163Y505421D01*
X314261Y475893D02*
Y478567D01*
X310386Y472200D02*
Y477126D01*
X663443Y507441D02*
Y507569D01*
X677898Y494359D02*
X678103Y494155D01*
X456707Y487421D02*
X678408D01*
X678257Y466100D02*
X681957D01*
X668930Y503328D02*
X686880D01*
X462672Y501821D02*
X662209D01*
X665115Y439134D02*
Y439455D01*
X295467Y447106D02*
X295776D01*
X292288Y448156D02*
X292667D01*
X295776Y447106D02*
X296685Y448015D01*
X298721Y442068D02*
X300086Y443434D01*
X298342Y446199D02*
Y446215D01*
X300086Y443434D02*
Y443718D01*
X298721Y441690D02*
Y442068D01*
X296656Y444135D02*
Y444514D01*
X298342Y446199D01*
X300086Y443718D02*
X300379D01*
X682064Y449868D02*
X682195D01*
X675769Y451712D02*
X679329D01*
X674277Y448112D02*
X676112D01*
X681596Y442628D01*
X675023Y449912D02*
X678583D01*
X679329Y451712D02*
X680220D01*
X682064Y449868D01*
X679329Y451712D02*
X679329Y451712D01*
X678583Y449912D02*
X681803Y446693D01*
X677072Y466355D02*
X678380D01*
X678635Y466100D01*
X676537Y463049D02*
X681472D01*
Y463413D02*
X682086D01*
X681957Y466100D02*
X695900Y452157D01*
Y361955D02*
Y452157D01*
X689700Y360340D02*
Y449688D01*
X682939Y456449D02*
X689700Y449688D01*
X694100Y361209D02*
Y451398D01*
X682086Y463413D02*
X694100Y451398D01*
X681086Y459632D02*
X683291D01*
X692300Y450624D01*
X677141Y459900D02*
X680818D01*
X681086Y459632D01*
X692300Y360464D02*
Y450624D01*
X682939Y456449D02*
X683390Y456900D01*
X677396Y457099D02*
X683190D01*
X677548Y454402D02*
X680134D01*
X680324Y454212D01*
X681655Y453944D02*
X687900Y447699D01*
X680324Y454197D02*
X680577Y453944D01*
X681655D01*
X737900Y348672D02*
Y434215D01*
X681835Y471287D02*
X688100D01*
X684100Y480221D02*
X686803D01*
X732500Y346435D02*
Y431978D01*
X730700Y345690D02*
Y431232D01*
X684100Y485621D02*
X684368Y485353D01*
X688100Y471287D02*
X728900Y430487D01*
X687918Y474014D02*
X730700Y431232D01*
X687554Y476924D02*
X732500Y431978D01*
X736100Y347926D02*
Y433469D01*
X681835Y483098D02*
X686472D01*
X736100Y433469D01*
X686803Y480221D02*
X734300Y432724D01*
X684368Y485353D02*
X686762D01*
X734300Y347181D02*
Y432724D01*
X728900Y344944D02*
Y430487D01*
X686762Y485353D02*
X737900Y434215D01*
X682103Y476924D02*
X687554D01*
X679799Y471019D02*
X681567D01*
X671070Y478421D02*
X678635Y470855D01*
X679635D01*
X681567Y471019D02*
X681835Y471287D01*
X679635Y470855D02*
X679799Y471019D01*
X672817Y480221D02*
X679023Y474014D01*
X681591Y476947D02*
X681835Y477192D01*
X678635Y476947D02*
X681591D01*
X683832Y479953D02*
X684100Y480221D01*
X679669Y479953D02*
X683832D01*
X681835Y477192D02*
X682103Y476924D01*
X673562Y482021D02*
X678635Y476947D01*
X675801Y483821D02*
X679669Y479953D01*
X679069Y483098D02*
X681835D01*
X676546Y485621D02*
X679069Y483098D01*
X678408Y487421D02*
X680231Y485598D01*
X684077D02*
X684100Y485621D01*
X680231Y485598D02*
X684077D01*
X686768Y488167D02*
X739700Y435235D01*
X750547Y354408D02*
Y439661D01*
X687286Y505467D02*
X752347Y440406D01*
X674251Y499063D02*
X686054D01*
X688368Y509477D02*
X755947Y441898D01*
X671477Y501328D02*
X686334D01*
X678601Y497121D02*
X685451D01*
X686093Y491387D02*
X741500Y435980D01*
X755947Y356756D02*
Y441898D01*
X741500Y350163D02*
Y435980D01*
X685451Y497121D02*
X745100Y437471D01*
X743300Y350909D02*
Y436726D01*
X748747Y353098D02*
Y438915D01*
X746900Y352400D02*
Y438217D01*
X678103Y494155D02*
X685871D01*
X739700Y349418D02*
Y435235D01*
X752347Y355265D02*
Y440406D01*
X680866Y491387D02*
X686093D01*
X685871Y494155D02*
X743300Y436726D01*
X668005Y507509D02*
X687790D01*
X686334Y501328D02*
X748747Y438915D01*
X754147Y356010D02*
Y441152D01*
X686054Y499063D02*
X746900Y438217D01*
X668583Y509477D02*
X688368D01*
X745100Y351654D02*
Y437471D01*
X687790Y507509D02*
X754147Y441152D01*
X680268Y491480D02*
X680442Y491655D01*
X678169Y496688D02*
X678601Y497121D01*
X676096Y496688D02*
X678169D01*
X673233Y498956D02*
X674144D01*
X674251Y499063D01*
X670506Y500736D02*
X670885D01*
X671477Y501328D01*
X664820Y507967D02*
X667547D01*
X664690Y507837D02*
X664820Y507967D01*
X663838Y507837D02*
X664690D01*
X667991Y510069D02*
X668583Y509477D01*
X660760Y508745D02*
X662084Y510069D01*
X663511Y507509D02*
X663838Y507837D01*
X667547Y507967D02*
X668005Y507509D01*
X662084Y510069D02*
X667991D01*
X682195Y449868D02*
X686100Y445963D01*
Y357274D02*
Y445963D01*
X681596Y442628D02*
X681596D01*
X687900Y359056D02*
Y447699D01*
X675829Y438655D02*
Y440529D01*
X785602Y246744D02*
X785672D01*
X667911Y436748D02*
Y439875D01*
X670238Y438934D02*
X670506Y438666D01*
X670238Y438934D02*
Y440093D01*
X667837Y436674D02*
X667911Y436748D01*
X661763Y438611D02*
Y440262D01*
Y438611D02*
X662009Y438365D01*
X775059Y242655D02*
Y244980D01*
Y242655D02*
X775327Y242387D01*
X772503Y244000D02*
Y244321D01*
X769705Y243264D02*
Y244574D01*
X770439Y240446D02*
Y242530D01*
X769705Y243264D02*
X770439Y242530D01*
X767905Y238226D02*
Y243829D01*
Y238226D02*
X768091Y238040D01*
X659265Y436820D02*
Y439875D01*
X659120Y436674D02*
X659265Y436820D01*
X750547Y354408D02*
X767167Y337787D01*
X752347Y355265D02*
X767934Y339678D01*
X755947Y356756D02*
X767757Y344946D01*
X754147Y356010D02*
X768511Y341647D01*
X748747Y353098D02*
X766027Y335819D01*
X774964Y343201D02*
X775343D01*
X768511Y341647D02*
X773410D01*
X774964Y343201D01*
X771580Y344946D02*
X771719Y344807D01*
X767757Y344946D02*
X771580D01*
X776711Y339678D02*
X778797Y341764D01*
X767167Y337787D02*
X777774D01*
X778982Y338996D02*
X781361D01*
X777774Y337787D02*
X778982Y338996D01*
X767934Y339678D02*
X776711D01*
X781361Y338996D02*
X781629Y339264D01*
X783119Y336083D02*
X783874D01*
X766027Y335819D02*
X782856D01*
X783874Y336083D02*
X784141Y336350D01*
X782856Y335819D02*
X783119Y336083D01*
X765450Y333850D02*
X786898D01*
X764804Y331951D02*
X784141D01*
X785686Y330405D01*
X788003Y327268D02*
X788271Y327000D01*
X784460Y326105D02*
X786065Y324500D01*
X785030Y327906D02*
X785205D01*
X782445Y327945D02*
X784284Y326105D01*
X785843Y327268D02*
X788003D01*
X783082Y329853D02*
X785030Y327906D01*
X785686Y330405D02*
X786065D01*
X764356Y329853D02*
X783082D01*
X784284Y326105D02*
X784460D01*
X786065Y324500D02*
X786065D01*
X763718Y327945D02*
X782445D01*
X785205Y327906D02*
X785843Y327268D01*
X745100Y351654D02*
X764804Y331951D01*
X743300Y350909D02*
X764356Y329853D01*
X788414Y321596D02*
X788423Y321587D01*
X781991Y325039D02*
X785030Y322000D01*
X784573Y320200D02*
X785686Y319087D01*
X784284Y320200D02*
X784573D01*
X764079Y325039D02*
X781991D01*
X781246Y323239D02*
X784284Y320200D01*
X763334Y323239D02*
X781246D01*
X785030Y322000D02*
X785319D01*
X785686Y319087D02*
X786065D01*
X785723Y321596D02*
X788414D01*
X785319Y322000D02*
X785723Y321596D01*
X786745Y306019D02*
X786898Y305865D01*
X760424Y315965D02*
X775232D01*
X761916Y319565D02*
X778594D01*
X730700Y345690D02*
X760424Y315965D01*
X762661Y321365D02*
X779471D01*
X759679Y314165D02*
X774487D01*
X776553Y317765D02*
X785045Y309273D01*
X787246D02*
X787514Y309006D01*
X785872Y302781D02*
X786047D01*
X775232Y315965D02*
X785179Y306019D01*
X761170Y317765D02*
X776553D01*
X785179Y306019D02*
X786745D01*
X778594Y319565D02*
X784064Y314096D01*
X734300Y347181D02*
X761916Y319565D01*
X784064Y314096D02*
X784771D01*
X737900Y348672D02*
X763334Y323239D01*
X732500Y346435D02*
X761170Y317765D01*
X774487Y314165D02*
X785872Y302781D01*
X784702Y316134D02*
X787772D01*
X736100Y347926D02*
X762661Y321365D01*
X779471D02*
X784702Y316134D01*
X785045Y309273D02*
X787246D01*
X728900Y344944D02*
X759679Y314165D01*
X784771Y314096D02*
X786582Y312285D01*
X786779D01*
X784272Y265769D02*
X784723D01*
X689700Y360340D02*
X784272Y265769D01*
X784723D02*
X786760Y263731D01*
X787425Y259485D02*
Y259531D01*
X687900Y359056D02*
X787425Y259531D01*
X787772Y255602D02*
X788054D01*
X686100Y357274D02*
X787772Y255602D01*
X788423Y252168D02*
X788802D01*
X787018Y253102D02*
X787489D01*
X788423Y252168D01*
X785069Y269455D02*
X787111Y267413D01*
X783309Y269455D02*
X785069D01*
X783857Y271452D02*
X786715D01*
X694100Y361209D02*
X783857Y271452D01*
X786971Y274341D02*
X787239Y274609D01*
X695900Y361955D02*
X784038Y273816D01*
X785039D02*
X785563Y274341D01*
X786971D01*
X784038Y273816D02*
X785039D01*
X788709Y248492D02*
Y248635D01*
X783650Y244091D02*
Y244728D01*
Y244091D02*
X783993Y243748D01*
Y243370D02*
Y243748D01*
X779943Y242738D02*
Y245310D01*
X781494Y240808D02*
Y241187D01*
X779943Y242738D02*
X781494Y241187D01*
X778143Y239895D02*
X778183Y239854D01*
X778143Y239895D02*
Y244442D01*
X167626Y129517D02*
Y173800D01*
X186618Y192792D02*
Y198800D01*
X167626Y173800D02*
X186618Y192792D01*
X172153Y157592D02*
X186661Y172099D01*
X172153Y129025D02*
Y157592D01*
X692300Y360464D02*
X783309Y269455D01*
X638369Y328546D02*
Y426569D01*
X645900Y434100D01*
X632631Y435632D02*
X640000Y443000D01*
X634700Y327123D02*
Y432589D01*
X642020Y439909D01*
X632631Y326646D02*
Y435632D01*
X638369Y328546D02*
X708560Y258354D01*
Y99620D02*
Y258354D01*
X681078Y128123D02*
Y283290D01*
X636568Y327800D02*
Y429716D01*
Y327800D02*
X681078Y283290D01*
X659000Y198434D02*
Y300277D01*
X660800Y159467D02*
Y301023D01*
X632631Y326646D02*
X659000Y300277D01*
X634700Y327123D02*
X660800Y301023D01*
X655874Y195308D02*
X659000Y198434D01*
X654826Y153493D02*
X660800Y159467D01*
X636568Y429716D02*
X643870Y437018D01*
X646642Y37701D02*
X708560Y99620D01*
X634600Y37701D02*
X646642D01*
X634600Y90184D02*
X643139D01*
X681078Y128123D01*
X634600Y143742D02*
X645074D01*
X654826Y153493D01*
X634600Y195308D02*
X655874D01*
X634600Y249782D02*
X638298Y246084D01*
X654451D01*
X349273Y408500D02*
X366369Y425596D01*
X247500Y405200D02*
X349371D01*
X247800Y408500D02*
X349273D01*
X746900Y352400D02*
X765450Y333850D01*
X739700Y349418D02*
X764079Y325039D01*
X741500Y350163D02*
X763718Y327945D01*
X377822Y541819D02*
X409946D01*
X377096Y539999D02*
X409220D01*
X374886Y536400D02*
X407728D01*
X373395Y532799D02*
X406237D01*
X374141Y534599D02*
X406983D01*
X375632Y538200D02*
X408474D01*
X378900Y543619D02*
X410691D01*
X375212Y544429D02*
X377822Y541819D01*
X376084Y546435D02*
X378900Y543619D01*
X376597Y558884D02*
X378515Y556966D01*
X372256Y557269D02*
X374359Y555166D01*
X364064Y540112D02*
X364334D01*
X364917Y539530D01*
X365327D01*
X372256Y539030D02*
X374886Y536400D01*
X373002Y540830D02*
X375632Y538200D01*
X371669Y534526D02*
X373395Y532799D01*
X371511Y537229D02*
X374141Y534599D01*
X374466Y542629D02*
X377096Y539999D01*
X365827Y539030D02*
X372256D01*
X365327Y539530D02*
X365827Y539030D01*
X355513Y189742D02*
X374201D01*
X351832Y193423D02*
X355513Y189742D01*
X186927Y511473D02*
X390257D01*
X393484Y514700D01*
X173500Y524900D02*
X186927Y511473D01*
X276621Y459066D02*
Y485590D01*
X180555Y363000D02*
X276621Y459066D01*
X358233Y295670D02*
X358605Y295298D01*
X374792D01*
X356569Y86600D02*
X375033D01*
X352806Y90362D02*
X356569Y86600D01*
X104900Y591845D02*
X106227D01*
X107652Y590420D01*
X107773D01*
X109488Y588705D01*
Y581242D02*
Y588705D01*
X99153Y596098D02*
X116662D01*
X94900Y591845D02*
X99153Y596098D01*
X120647Y587298D02*
Y592112D01*
X116662Y596098D02*
X120647Y592112D01*
X101207Y466853D02*
X244324Y609970D01*
Y624280D01*
X246200Y609300D02*
Y616155D01*
X85694Y466853D02*
X101207D01*
X129854Y550567D02*
Y561106D01*
X119690Y571270D02*
X129854Y561106D01*
X119461Y571270D02*
X119690D01*
X109488Y581242D02*
X119461Y571270D01*
X393484Y514700D02*
X396800D01*
X79488Y460648D02*
X85694Y466853D01*
X162927Y384972D02*
X184900Y406945D01*
X135008Y363467D02*
X156513Y384972D01*
X131022Y363467D02*
X135008D01*
X130555Y363000D02*
X131022Y363467D01*
X156513Y384972D02*
X162927D01*
X79488Y433634D02*
Y460648D01*
X74900Y429045D02*
X79488Y433634D01*
X244324Y624280D02*
X253900Y633855D01*
X246200Y616155D02*
X253900Y623855D01*
X124900Y429045D02*
X130647Y434792D01*
X112600Y295000D02*
Y403906D01*
X124900Y270755D02*
Y282700D01*
X112600Y295000D02*
X124900Y282700D01*
X114900Y406206D02*
Y406945D01*
X112600Y403906D02*
X114900Y406206D01*
X89153Y553149D02*
X91502Y550800D01*
X89153Y553149D02*
Y583606D01*
X85367Y587392D02*
X89153Y583606D01*
X85367Y587392D02*
Y591378D01*
X84900Y591845D02*
X85367Y591378D01*
X124900Y270755D02*
X130355Y265300D01*
D15*
X269100Y67400D02*
X281236Y79536D01*
Y179004D01*
X286932Y184700D01*
X269100Y63000D02*
Y67400D01*
X276500Y84061D02*
Y150831D01*
X242932Y184400D02*
X276500Y150831D01*
D71*
X517345Y98618D02*
D03*
X501645D02*
D03*
X485945D02*
D03*
X517345Y308698D02*
D03*
X501645D02*
D03*
X485945D02*
D03*
X517345Y203658D02*
D03*
X501645D02*
D03*
X485945D02*
D03*
X517345Y255401D02*
D03*
X501645D02*
D03*
X485945D02*
D03*
X517345Y150140D02*
D03*
X501645D02*
D03*
X485945D02*
D03*
X517345Y46098D02*
D03*
X501645D02*
D03*
X485945D02*
D03*
D95*
X168351Y43319D02*
X176219D01*
X220900Y88000D01*
D96*
X196661Y172099D02*
D03*
X196618Y198800D02*
D03*
X60500Y20200D02*
D03*
X404769Y295298D02*
D03*
X404928Y255231D02*
D03*
X404340Y189979D02*
D03*
Y150340D02*
D03*
X405156Y87931D02*
D03*
X405328Y48312D02*
D03*
X120355Y265300D02*
D03*
X120555Y353000D02*
D03*
X14900Y406945D02*
D03*
X184900Y439045D02*
D03*
X14900Y460045D02*
D03*
Y560045D02*
D03*
X184900Y591845D02*
D03*
X14900Y613945D02*
D03*
D97*
X186661Y172099D02*
D03*
X176661D02*
D03*
X186618Y198800D02*
D03*
X176618D02*
D03*
X120500Y20200D02*
D03*
X110500D02*
D03*
X100500D02*
D03*
X90500D02*
D03*
X70500D02*
D03*
X80500D02*
D03*
X404769Y305298D02*
D03*
X414769Y295298D02*
D03*
Y305298D02*
D03*
X424769Y295298D02*
D03*
Y305298D02*
D03*
X404928Y265231D02*
D03*
X414928Y255231D02*
D03*
Y265231D02*
D03*
X424929Y255231D02*
D03*
Y265231D02*
D03*
X404340Y199979D02*
D03*
X414340Y189979D02*
D03*
Y199979D02*
D03*
X424340Y189979D02*
D03*
Y199979D02*
D03*
X404340Y160340D02*
D03*
X414340Y150340D02*
D03*
Y160340D02*
D03*
X424340Y150340D02*
D03*
Y160340D02*
D03*
X405156Y97931D02*
D03*
X415156Y87931D02*
D03*
Y97931D02*
D03*
X425156Y87931D02*
D03*
Y97931D02*
D03*
X405328Y58312D02*
D03*
X415328Y48312D02*
D03*
Y58312D02*
D03*
X425327Y48312D02*
D03*
Y58312D02*
D03*
X253900Y603855D02*
D03*
X263900Y613855D02*
D03*
X253900D02*
D03*
X263900Y623855D02*
D03*
X253900D02*
D03*
X263900Y633855D02*
D03*
X253900D02*
D03*
X140555Y363000D02*
D03*
X351465Y634610D02*
D03*
Y624610D02*
D03*
X24900Y591845D02*
D03*
Y613945D02*
D03*
X190355Y275300D02*
D03*
Y265300D02*
D03*
X180355Y275300D02*
D03*
Y265300D02*
D03*
X170355Y275300D02*
D03*
Y265300D02*
D03*
X160355Y275300D02*
D03*
Y265300D02*
D03*
X150355Y275300D02*
D03*
Y265300D02*
D03*
X140355Y275300D02*
D03*
Y265300D02*
D03*
X130355Y275300D02*
D03*
Y265300D02*
D03*
X120355Y275300D02*
D03*
X190555Y363000D02*
D03*
Y353000D02*
D03*
X180555Y363000D02*
D03*
Y353000D02*
D03*
X170555Y363000D02*
D03*
Y353000D02*
D03*
X160555Y363000D02*
D03*
Y353000D02*
D03*
X150555Y363000D02*
D03*
Y353000D02*
D03*
X140555D02*
D03*
X130555Y363000D02*
D03*
Y353000D02*
D03*
X120555Y363000D02*
D03*
X341465Y604610D02*
D03*
X351465Y614610D02*
D03*
X341465D02*
D03*
Y624610D02*
D03*
Y634610D02*
D03*
X24900Y406945D02*
D03*
X34900D02*
D03*
X44900D02*
D03*
X54900D02*
D03*
X64900D02*
D03*
X74900D02*
D03*
X84900D02*
D03*
X94900D02*
D03*
X104900D02*
D03*
X114900D02*
D03*
X124900D02*
D03*
X134900D02*
D03*
X144900D02*
D03*
X154900D02*
D03*
X164900D02*
D03*
X174900D02*
D03*
X184900D02*
D03*
Y429045D02*
D03*
X174900Y439045D02*
D03*
Y429045D02*
D03*
X164900Y439045D02*
D03*
Y429045D02*
D03*
X154900Y439045D02*
D03*
Y429045D02*
D03*
X144900Y439045D02*
D03*
Y429045D02*
D03*
X134900Y439045D02*
D03*
Y429045D02*
D03*
X124900Y439045D02*
D03*
Y429045D02*
D03*
X114900Y439045D02*
D03*
Y429045D02*
D03*
X104900Y439045D02*
D03*
Y429045D02*
D03*
X94900Y439045D02*
D03*
Y429045D02*
D03*
X84900Y439045D02*
D03*
Y429045D02*
D03*
X74900Y439045D02*
D03*
Y429045D02*
D03*
X64900Y439045D02*
D03*
Y429045D02*
D03*
X54900Y439045D02*
D03*
Y429045D02*
D03*
X44900Y439045D02*
D03*
Y429045D02*
D03*
X34900Y439045D02*
D03*
Y429045D02*
D03*
X24900Y439045D02*
D03*
Y429045D02*
D03*
X14900Y439045D02*
D03*
Y429045D02*
D03*
X24900Y460045D02*
D03*
X34900D02*
D03*
X44900D02*
D03*
X54900D02*
D03*
X64900D02*
D03*
X74900D02*
D03*
X84900D02*
D03*
X94900D02*
D03*
X104900D02*
D03*
X114900D02*
D03*
X124900D02*
D03*
X134900D02*
D03*
X144900D02*
D03*
X154900D02*
D03*
X164900D02*
D03*
X174900D02*
D03*
X184900D02*
D03*
X24900Y560045D02*
D03*
X34900D02*
D03*
X44900D02*
D03*
X54900D02*
D03*
X64900D02*
D03*
X74900D02*
D03*
X84900D02*
D03*
X94900D02*
D03*
X104900D02*
D03*
X114900D02*
D03*
X124900D02*
D03*
X134900D02*
D03*
X144900D02*
D03*
X154900D02*
D03*
X164900D02*
D03*
X174900D02*
D03*
X184900D02*
D03*
Y581845D02*
D03*
X174900Y591845D02*
D03*
Y581845D02*
D03*
X164900Y591845D02*
D03*
Y581845D02*
D03*
X154900Y591845D02*
D03*
Y581845D02*
D03*
X144900Y591845D02*
D03*
Y581845D02*
D03*
X134900Y591845D02*
D03*
Y581845D02*
D03*
X124900Y591845D02*
D03*
Y581845D02*
D03*
X114900Y591845D02*
D03*
Y581845D02*
D03*
X104900Y591845D02*
D03*
Y581845D02*
D03*
X94900Y591845D02*
D03*
Y581845D02*
D03*
X84900Y591845D02*
D03*
Y581845D02*
D03*
X74900Y591845D02*
D03*
Y581845D02*
D03*
X64900Y591845D02*
D03*
Y581845D02*
D03*
X54900Y591845D02*
D03*
Y581845D02*
D03*
X44900Y591845D02*
D03*
Y581845D02*
D03*
X34900Y591845D02*
D03*
Y581845D02*
D03*
X24900D02*
D03*
X14900Y591845D02*
D03*
Y581845D02*
D03*
X34900Y613945D02*
D03*
X44900D02*
D03*
X54900D02*
D03*
X64900D02*
D03*
X74900D02*
D03*
X84900D02*
D03*
X94900D02*
D03*
X104900D02*
D03*
X114900D02*
D03*
X124900D02*
D03*
X134900D02*
D03*
X144900D02*
D03*
X154900D02*
D03*
X164900D02*
D03*
X174900D02*
D03*
X184900D02*
D03*
X729300Y39500D02*
D03*
Y49500D02*
D03*
Y59500D02*
D03*
Y69500D02*
D03*
Y79500D02*
D03*
D98*
X263900Y603855D02*
D03*
X351465Y604610D02*
D03*
X729300Y29500D02*
D03*
D99*
X531145Y82118D02*
D03*
X472145Y106518D02*
D03*
X531145Y292198D02*
D03*
X472145Y316598D02*
D03*
X531145Y187158D02*
D03*
X472145Y211558D02*
D03*
X531145Y238901D02*
D03*
X472145Y263301D02*
D03*
X531145Y133640D02*
D03*
X472145Y158040D02*
D03*
X531145Y29598D02*
D03*
X472145Y53998D02*
D03*
D100*
X383017Y443659D02*
D03*
X386702Y442531D02*
D03*
X380686Y548928D02*
D03*
X386154Y562872D02*
D03*
X391860Y492121D02*
D03*
X393736Y494969D02*
D03*
X390477Y489221D02*
D03*
X127900Y469600D02*
D03*
X164900Y517157D02*
D03*
X363060Y537074D02*
D03*
X364304Y534038D02*
D03*
X368084Y527714D02*
D03*
X364917Y530153D02*
D03*
X370600Y525343D02*
D03*
X366203Y542611D02*
D03*
X363111Y546014D02*
D03*
X363222Y549220D02*
D03*
X366654Y549986D02*
D03*
X367940Y554973D02*
D03*
X383958Y565418D02*
D03*
X381154Y563109D02*
D03*
X673522Y435974D02*
D03*
X295776Y454400D02*
D03*
X292667Y452365D02*
D03*
X293872Y458081D02*
D03*
X293213Y461673D02*
D03*
X293856Y465446D02*
D03*
X299273Y468600D02*
D03*
X296032Y467793D02*
D03*
X317399Y477126D02*
D03*
X668006Y502783D02*
D03*
X670506Y500736D02*
D03*
X305800Y472500D02*
D03*
X304407Y468600D02*
D03*
X292288Y448156D02*
D03*
X295467Y447106D02*
D03*
X298721Y441690D02*
D03*
X296656Y444135D02*
D03*
X313993Y478835D02*
D03*
X681472Y463049D02*
D03*
X678635Y466100D02*
D03*
X680818Y459900D02*
D03*
X682939Y456449D02*
D03*
X680324Y454212D02*
D03*
X681835Y471287D02*
D03*
Y477192D02*
D03*
X684368Y474014D02*
D03*
X684100Y480221D02*
D03*
X681835Y483098D02*
D03*
X684100Y485621D02*
D03*
X680442Y491655D02*
D03*
X677898Y493980D02*
D03*
X675829Y496421D02*
D03*
X672965Y498688D02*
D03*
X665856Y505467D02*
D03*
X663443Y507569D02*
D03*
X660382Y508745D02*
D03*
X681803Y446693D02*
D03*
X682195Y449868D02*
D03*
X681600Y442624D02*
D03*
X678756Y440167D02*
D03*
X676096Y438387D02*
D03*
X670506Y438651D02*
D03*
X667837Y436674D02*
D03*
X659120D02*
D03*
X662009Y438365D02*
D03*
X665115Y439134D02*
D03*
X770439Y240446D02*
D03*
X775343Y343201D02*
D03*
X771719Y344807D02*
D03*
X778797Y341764D02*
D03*
X781629Y339264D02*
D03*
X784141Y336350D02*
D03*
X786898Y333850D02*
D03*
X786065Y330405D02*
D03*
X788271Y327000D02*
D03*
X786065Y324500D02*
D03*
X788423Y321587D02*
D03*
X786065Y319087D02*
D03*
X787772Y316134D02*
D03*
X787514Y309006D02*
D03*
X786047Y302781D02*
D03*
X786898Y305865D02*
D03*
X786779Y312285D02*
D03*
X786760Y263731D02*
D03*
X787425Y259485D02*
D03*
X788054Y255602D02*
D03*
X787111Y267413D02*
D03*
X786715Y271452D02*
D03*
X787239Y274609D02*
D03*
X788802Y252168D02*
D03*
X788709Y248492D02*
D03*
X785672Y246744D02*
D03*
X783993Y243370D02*
D03*
X781494Y240808D02*
D03*
X778183Y239854D02*
D03*
X768091Y238040D02*
D03*
X772503Y244000D02*
D03*
X172153Y129025D02*
D03*
X167626Y129517D02*
D03*
X141950Y43511D02*
D03*
X118677D02*
D03*
X94485D02*
D03*
X70550D02*
D03*
X48491D02*
D03*
X25450D02*
D03*
X634600Y302801D02*
D03*
X287527Y517969D02*
D03*
X376194Y70930D02*
D03*
X327924Y534170D02*
D03*
X363700Y299885D02*
D03*
X363713Y92800D02*
D03*
X362563Y194301D02*
D03*
X294500Y67400D02*
D03*
X264598Y36611D02*
D03*
X263841Y119400D02*
D03*
X240441Y82244D02*
D03*
X165159Y93808D02*
D03*
X645900Y434100D02*
D03*
X642020Y439909D02*
D03*
X640000Y443000D02*
D03*
X643870Y437018D02*
D03*
X634600Y37701D02*
D03*
X708560Y99620D02*
D03*
X634600Y90184D02*
D03*
X681078Y128123D02*
D03*
X634600Y143742D02*
D03*
X654826Y153493D02*
D03*
X634600Y195308D02*
D03*
X655874D02*
D03*
X634600Y249782D02*
D03*
X654451Y246084D02*
D03*
X247500Y405200D02*
D03*
X247800Y408500D02*
D03*
X681197Y488167D02*
D03*
X775327Y242387D02*
D03*
X588900Y213800D02*
D03*
X589000Y183800D02*
D03*
X588900Y153700D02*
D03*
X556700Y193800D02*
D03*
Y163800D02*
D03*
Y133800D02*
D03*
X269000Y588953D02*
D03*
X375687Y62599D02*
D03*
X360216Y106982D02*
D03*
X375033Y166102D02*
D03*
X364881Y203916D02*
D03*
X377343Y271402D02*
D03*
X365097Y309905D02*
D03*
X404655Y520817D02*
D03*
X361300Y518260D02*
D03*
X334780Y438370D02*
D03*
X283600D02*
D03*
X203355Y352182D02*
D03*
X152563Y123908D02*
D03*
X150595Y126466D02*
D03*
X152563Y129517D02*
D03*
X154851Y126466D02*
D03*
X154649Y132233D02*
D03*
X150594D02*
D03*
X376597Y558884D02*
D03*
X372256Y557269D02*
D03*
X364064Y540112D02*
D03*
X310386Y477126D02*
D03*
X297824Y520914D02*
D03*
X168351Y43319D02*
D03*
X220900Y88000D02*
D03*
X333164Y418064D02*
D03*
X286932Y184700D02*
D03*
X242932Y184400D02*
D03*
X269100Y63000D02*
D03*
X276500Y84061D02*
D03*
X338742Y291022D02*
D03*
X338663Y280117D02*
D03*
X338614Y185953D02*
D03*
Y175664D02*
D03*
X339819Y83762D02*
D03*
X339912Y72790D02*
D03*
X401700Y503300D02*
D03*
X276621Y485590D02*
D03*
X358233Y295670D02*
D03*
X374792Y295298D02*
D03*
X374201Y189742D02*
D03*
X351832Y193423D02*
D03*
X375033Y86600D02*
D03*
X352806Y90362D02*
D03*
X120647Y587298D02*
D03*
X160801Y513438D02*
D03*
X161443Y516998D02*
D03*
X129854Y550567D02*
D03*
X396800Y514700D02*
D03*
X173500Y524900D02*
D03*
X314152Y549951D02*
D03*
X91502Y550800D02*
D03*
X106700Y129346D02*
D03*
X74582Y107147D02*
D03*
X78946Y156584D02*
D03*
X56427Y185607D02*
D03*
X78280Y213960D02*
D03*
D101*
X58700Y152752D02*
D03*
X39479Y143335D02*
D03*
X32403D02*
D03*
X57172Y142936D02*
D03*
X57019Y134536D02*
D03*
X191253Y155560D02*
D03*
X308837Y541819D02*
D03*
X375970Y278821D02*
D03*
X187355Y127056D02*
D03*
X189479Y88678D02*
D03*
X377920Y519620D02*
D03*
X41700Y194600D02*
D03*
X36253Y194583D02*
D03*
X31621D02*
D03*
X300724Y438403D02*
D03*
X374968Y173100D02*
D03*
X55296Y80445D02*
D03*
X49100Y70600D02*
D03*
X49031Y75228D02*
D03*
X55637Y87532D02*
D03*
X125394Y128735D02*
D03*
X56100Y98555D02*
D03*
X57592Y203655D02*
D03*
X203555Y279000D02*
D03*
X338426Y590355D02*
D03*
X146700Y243154D02*
D03*
M02*
