G04*
G04 #@! TF.GenerationSoftware,Altium Limited,Altium Designer,22.3.1 (43)*
G04*
G04 Layer_Color=16711935*
%FSLAX25Y25*%
%MOIN*%
G70*
G04*
G04 #@! TF.SameCoordinates,21BFAABA-1E65-46C2-AEEB-196FA7B9FE0E*
G04*
G04*
G04 #@! TF.FilePolarity,Positive*
G04*
G01*
G75*
%ADD11C,0.00787*%
G36*
X172620Y122761D02*
X170651D01*
X170654Y122757D01*
X170669Y122739D01*
X170691Y122717D01*
X170716Y122681D01*
X170749Y122641D01*
X170786Y122590D01*
X170826Y122531D01*
X170866Y122466D01*
Y122462D01*
X170869Y122459D01*
X170884Y122437D01*
X170902Y122400D01*
X170924Y122357D01*
X170949Y122306D01*
X170975Y122251D01*
X171000Y122197D01*
X171022Y122142D01*
X170724D01*
Y122146D01*
X170716Y122153D01*
X170713Y122168D01*
X170702Y122186D01*
X170691Y122207D01*
X170676Y122233D01*
X170640Y122295D01*
X170600Y122368D01*
X170549Y122441D01*
X170491Y122517D01*
X170429Y122593D01*
X170425Y122597D01*
X170422Y122601D01*
X170411Y122612D01*
X170400Y122626D01*
X170363Y122659D01*
X170320Y122703D01*
X170269Y122746D01*
X170211Y122794D01*
X170152Y122834D01*
X170090Y122870D01*
Y123070D01*
X172620D01*
Y122761D01*
D02*
G37*
G36*
X171899Y121483D02*
X171929D01*
X171998Y121476D01*
X172078Y121469D01*
X172161Y121454D01*
X172238Y121432D01*
X172311Y121407D01*
X172314D01*
X172318Y121403D01*
X172340Y121392D01*
X172369Y121374D01*
X172409Y121349D01*
X172449Y121312D01*
X172493Y121272D01*
X172536Y121221D01*
X172573Y121163D01*
X172576Y121156D01*
X172587Y121134D01*
X172602Y121101D01*
X172617Y121054D01*
X172635Y120995D01*
X172649Y120930D01*
X172660Y120857D01*
X172664Y120777D01*
Y120744D01*
X172660Y120722D01*
X172657Y120693D01*
X172653Y120664D01*
X172638Y120588D01*
X172617Y120508D01*
X172584Y120424D01*
X172562Y120380D01*
X172536Y120340D01*
X172507Y120304D01*
X172475Y120267D01*
X172471Y120264D01*
X172467Y120260D01*
X172453Y120253D01*
X172438Y120242D01*
X172420Y120227D01*
X172395Y120213D01*
X172365Y120198D01*
X172333Y120180D01*
X172296Y120166D01*
X172253Y120151D01*
X172209Y120136D01*
X172158Y120122D01*
X172103Y120115D01*
X172041Y120104D01*
X171979Y120100D01*
X171910D01*
X171867Y120402D01*
X171870D01*
X171878D01*
X171892D01*
X171914Y120406D01*
X171936Y120409D01*
X171961D01*
X172023Y120420D01*
X172089Y120431D01*
X172154Y120453D01*
X172213Y120475D01*
X172238Y120489D01*
X172260Y120508D01*
X172263Y120511D01*
X172274Y120526D01*
X172293Y120548D01*
X172311Y120577D01*
X172333Y120617D01*
X172347Y120660D01*
X172362Y120715D01*
X172365Y120773D01*
Y120795D01*
X172362Y120817D01*
X172358Y120850D01*
X172351Y120882D01*
X172344Y120919D01*
X172329Y120955D01*
X172311Y120992D01*
X172307Y120995D01*
X172300Y121006D01*
X172285Y121021D01*
X172271Y121043D01*
X172245Y121061D01*
X172220Y121083D01*
X172191Y121101D01*
X172154Y121116D01*
X172151D01*
X172136Y121123D01*
X172110Y121126D01*
X172078Y121134D01*
X172034Y121141D01*
X171979Y121145D01*
X171914Y121152D01*
X171838D01*
X170101D01*
Y121487D01*
X171819D01*
X171823D01*
X171834D01*
X171848D01*
X171870D01*
X171899Y121483D01*
D02*
G37*
G36*
X250833Y119798D02*
X250830D01*
X250822D01*
X250808D01*
X250786Y119794D01*
X250764Y119791D01*
X250739D01*
X250677Y119780D01*
X250611Y119769D01*
X250546Y119747D01*
X250487Y119725D01*
X250462Y119711D01*
X250440Y119692D01*
X250437Y119689D01*
X250426Y119674D01*
X250408Y119652D01*
X250389Y119623D01*
X250367Y119583D01*
X250353Y119539D01*
X250338Y119485D01*
X250335Y119427D01*
Y119405D01*
X250338Y119383D01*
X250342Y119350D01*
X250349Y119317D01*
X250357Y119281D01*
X250371Y119245D01*
X250389Y119208D01*
X250393Y119205D01*
X250400Y119194D01*
X250415Y119179D01*
X250429Y119157D01*
X250455Y119139D01*
X250480Y119117D01*
X250509Y119099D01*
X250546Y119085D01*
X250549D01*
X250564Y119077D01*
X250589Y119074D01*
X250622Y119066D01*
X250666Y119059D01*
X250721Y119055D01*
X250786Y119048D01*
X250862D01*
X252599D01*
Y118713D01*
X250881D01*
X250877D01*
X250866D01*
X250851D01*
X250830D01*
X250801Y118717D01*
X250771D01*
X250702Y118724D01*
X250622Y118731D01*
X250538Y118746D01*
X250462Y118768D01*
X250389Y118793D01*
X250386D01*
X250382Y118797D01*
X250360Y118808D01*
X250331Y118826D01*
X250291Y118851D01*
X250251Y118888D01*
X250207Y118928D01*
X250164Y118979D01*
X250127Y119037D01*
X250124Y119044D01*
X250113Y119066D01*
X250098Y119099D01*
X250083Y119146D01*
X250065Y119205D01*
X250051Y119270D01*
X250040Y119343D01*
X250036Y119423D01*
Y119456D01*
X250040Y119478D01*
X250043Y119507D01*
X250047Y119536D01*
X250062Y119612D01*
X250083Y119692D01*
X250116Y119776D01*
X250138Y119820D01*
X250164Y119860D01*
X250193Y119896D01*
X250225Y119933D01*
X250229Y119936D01*
X250233Y119940D01*
X250247Y119947D01*
X250262Y119958D01*
X250280Y119973D01*
X250306Y119987D01*
X250335Y120002D01*
X250367Y120020D01*
X250404Y120035D01*
X250448Y120049D01*
X250491Y120064D01*
X250542Y120078D01*
X250597Y120086D01*
X250659Y120096D01*
X250721Y120100D01*
X250790D01*
X250833Y119798D01*
D02*
G37*
G36*
X250149Y118335D02*
X250182Y118331D01*
X250218Y118324D01*
X250255Y118316D01*
X250295Y118302D01*
X250298D01*
X250302Y118298D01*
X250324Y118291D01*
X250357Y118276D01*
X250400Y118255D01*
X250451Y118226D01*
X250509Y118189D01*
X250568Y118149D01*
X250629Y118098D01*
X250633D01*
X250637Y118091D01*
X250659Y118073D01*
X250691Y118040D01*
X250739Y117992D01*
X250793Y117938D01*
X250859Y117869D01*
X250932Y117785D01*
X251008Y117694D01*
X251012Y117690D01*
X251023Y117676D01*
X251041Y117654D01*
X251063Y117629D01*
X251092Y117596D01*
X251125Y117556D01*
X251161Y117516D01*
X251201Y117468D01*
X251288Y117377D01*
X251376Y117286D01*
X251419Y117243D01*
X251463Y117203D01*
X251503Y117166D01*
X251543Y117137D01*
X251547D01*
X251550Y117130D01*
X251561Y117122D01*
X251576Y117115D01*
X251616Y117090D01*
X251663Y117061D01*
X251722Y117035D01*
X251783Y117010D01*
X251852Y116995D01*
X251918Y116988D01*
X251922D01*
X251925D01*
X251947Y116991D01*
X251984Y116995D01*
X252024Y117006D01*
X252075Y117021D01*
X252126Y117046D01*
X252176Y117079D01*
X252227Y117122D01*
X252235Y117130D01*
X252249Y117148D01*
X252268Y117174D01*
X252293Y117213D01*
X252315Y117264D01*
X252337Y117323D01*
X252351Y117392D01*
X252355Y117468D01*
Y117490D01*
X252351Y117505D01*
X252348Y117548D01*
X252337Y117599D01*
X252322Y117654D01*
X252297Y117716D01*
X252264Y117774D01*
X252220Y117829D01*
X252213Y117836D01*
X252195Y117850D01*
X252166Y117872D01*
X252122Y117894D01*
X252071Y117920D01*
X252005Y117941D01*
X251933Y117956D01*
X251849Y117963D01*
X251882Y118280D01*
X251885D01*
X251896Y118276D01*
X251914D01*
X251940Y118273D01*
X251969Y118265D01*
X252002Y118258D01*
X252042Y118247D01*
X252082Y118236D01*
X252169Y118207D01*
X252257Y118164D01*
X252300Y118138D01*
X252344Y118105D01*
X252384Y118073D01*
X252420Y118036D01*
X252424Y118033D01*
X252428Y118025D01*
X252439Y118014D01*
X252449Y117996D01*
X252464Y117974D01*
X252479Y117949D01*
X252497Y117920D01*
X252515Y117883D01*
X252533Y117843D01*
X252551Y117800D01*
X252566Y117752D01*
X252580Y117701D01*
X252591Y117647D01*
X252602Y117588D01*
X252606Y117527D01*
X252610Y117461D01*
Y117425D01*
X252606Y117399D01*
X252602Y117370D01*
X252599Y117334D01*
X252591Y117294D01*
X252584Y117254D01*
X252559Y117159D01*
X252522Y117064D01*
X252501Y117017D01*
X252475Y116970D01*
X252442Y116926D01*
X252406Y116886D01*
X252402Y116882D01*
X252398Y116875D01*
X252384Y116868D01*
X252369Y116853D01*
X252351Y116835D01*
X252326Y116817D01*
X252300Y116799D01*
X252268Y116777D01*
X252198Y116740D01*
X252111Y116704D01*
X252067Y116689D01*
X252016Y116682D01*
X251965Y116675D01*
X251911Y116671D01*
X251904D01*
X251885D01*
X251856Y116675D01*
X251816Y116678D01*
X251772Y116686D01*
X251722Y116700D01*
X251667Y116715D01*
X251612Y116737D01*
X251605Y116740D01*
X251587Y116748D01*
X251558Y116762D01*
X251518Y116784D01*
X251474Y116813D01*
X251419Y116850D01*
X251365Y116893D01*
X251303Y116944D01*
X251296Y116951D01*
X251274Y116970D01*
X251256Y116988D01*
X251237Y117006D01*
X251216Y117028D01*
X251186Y117057D01*
X251157Y117086D01*
X251125Y117122D01*
X251088Y117159D01*
X251048Y117203D01*
X251008Y117250D01*
X250961Y117301D01*
X250913Y117359D01*
X250862Y117417D01*
X250859Y117421D01*
X250851Y117428D01*
X250841Y117443D01*
X250826Y117461D01*
X250804Y117483D01*
X250782Y117508D01*
X250735Y117567D01*
X250680Y117629D01*
X250626Y117687D01*
X250578Y117738D01*
X250560Y117760D01*
X250542Y117778D01*
X250538Y117781D01*
X250528Y117792D01*
X250513Y117807D01*
X250491Y117825D01*
X250466Y117843D01*
X250440Y117865D01*
X250378Y117909D01*
Y116667D01*
X250080D01*
Y118338D01*
X250083D01*
X250098D01*
X250120D01*
X250149Y118335D01*
D02*
G37*
D11*
X157605Y27777D02*
X187723D01*
Y212423D01*
X157605D02*
X187723D01*
X157605Y27777D02*
Y212423D01*
X234977D02*
X265095D01*
X234977Y27777D02*
Y212423D01*
Y27777D02*
X265095D01*
Y212423D01*
M02*
