G04*
G04 #@! TF.GenerationSoftware,Altium Limited,Altium Designer,22.3.1 (43)*
G04*
G04 Layer_Color=8388736*
%FSLAX25Y25*%
%MOIN*%
G70*
G04*
G04 #@! TF.SameCoordinates,9D4118E4-E203-4AE3-99F8-471285BC0BC6*
G04*
G04*
G04 #@! TF.FilePolarity,Negative*
G04*
G01*
G75*
%ADD18R,0.07087X0.09252*%
%ADD19R,0.05118X0.01181*%
D18*
X162132Y207403D02*
D03*
Y32797D02*
D03*
X260568D02*
D03*
Y207403D02*
D03*
D19*
X184770Y42344D02*
D03*
Y44313D02*
D03*
Y46281D02*
D03*
Y48250D02*
D03*
Y50218D02*
D03*
Y52187D02*
D03*
Y54155D02*
D03*
Y56124D02*
D03*
Y58092D02*
D03*
Y60061D02*
D03*
Y62029D02*
D03*
Y63998D02*
D03*
Y65966D02*
D03*
Y67935D02*
D03*
Y69903D02*
D03*
Y71872D02*
D03*
Y73840D02*
D03*
Y75809D02*
D03*
Y77777D02*
D03*
Y79746D02*
D03*
Y81714D02*
D03*
Y83683D02*
D03*
Y85651D02*
D03*
Y87620D02*
D03*
Y89588D02*
D03*
Y91557D02*
D03*
Y93525D02*
D03*
Y95494D02*
D03*
Y97462D02*
D03*
Y99431D02*
D03*
Y101399D02*
D03*
Y103368D02*
D03*
Y105336D02*
D03*
Y107305D02*
D03*
Y109273D02*
D03*
Y111242D02*
D03*
Y113210D02*
D03*
Y115179D02*
D03*
Y117147D02*
D03*
Y119116D02*
D03*
Y121084D02*
D03*
Y123053D02*
D03*
Y125021D02*
D03*
Y126990D02*
D03*
Y128958D02*
D03*
Y130927D02*
D03*
Y132895D02*
D03*
Y134864D02*
D03*
Y136832D02*
D03*
Y138801D02*
D03*
Y140769D02*
D03*
Y142738D02*
D03*
Y144706D02*
D03*
Y146675D02*
D03*
Y148643D02*
D03*
Y150612D02*
D03*
Y152580D02*
D03*
Y154549D02*
D03*
Y156517D02*
D03*
Y158486D02*
D03*
Y160454D02*
D03*
Y162423D02*
D03*
Y164391D02*
D03*
Y166360D02*
D03*
Y168328D02*
D03*
Y170297D02*
D03*
Y172265D02*
D03*
Y174234D02*
D03*
Y176202D02*
D03*
Y178171D02*
D03*
Y180139D02*
D03*
Y182108D02*
D03*
Y184076D02*
D03*
Y186045D02*
D03*
Y188013D02*
D03*
Y189982D02*
D03*
Y191950D02*
D03*
Y193919D02*
D03*
Y195887D02*
D03*
Y197856D02*
D03*
X237930D02*
D03*
Y195887D02*
D03*
Y193919D02*
D03*
Y191950D02*
D03*
Y189982D02*
D03*
Y188013D02*
D03*
Y186045D02*
D03*
Y184076D02*
D03*
Y182108D02*
D03*
Y180139D02*
D03*
Y178171D02*
D03*
Y176202D02*
D03*
Y174234D02*
D03*
Y172265D02*
D03*
Y170297D02*
D03*
Y168328D02*
D03*
Y166360D02*
D03*
Y164391D02*
D03*
Y162423D02*
D03*
Y160454D02*
D03*
Y158486D02*
D03*
Y156517D02*
D03*
Y154549D02*
D03*
Y152580D02*
D03*
Y150612D02*
D03*
Y148643D02*
D03*
Y146675D02*
D03*
Y144706D02*
D03*
Y142738D02*
D03*
Y140769D02*
D03*
Y138801D02*
D03*
Y136832D02*
D03*
Y134864D02*
D03*
Y132895D02*
D03*
Y130927D02*
D03*
Y128958D02*
D03*
Y126990D02*
D03*
Y125021D02*
D03*
Y123053D02*
D03*
Y121084D02*
D03*
Y119116D02*
D03*
Y117147D02*
D03*
Y115179D02*
D03*
Y113210D02*
D03*
Y111242D02*
D03*
Y109273D02*
D03*
Y107305D02*
D03*
Y105336D02*
D03*
Y103368D02*
D03*
Y101399D02*
D03*
Y99431D02*
D03*
Y97462D02*
D03*
Y95494D02*
D03*
Y93525D02*
D03*
Y91557D02*
D03*
Y89588D02*
D03*
Y87620D02*
D03*
Y85651D02*
D03*
Y83683D02*
D03*
Y81714D02*
D03*
Y79746D02*
D03*
Y77777D02*
D03*
Y75809D02*
D03*
Y73840D02*
D03*
Y71872D02*
D03*
Y69903D02*
D03*
Y67935D02*
D03*
Y65966D02*
D03*
Y63998D02*
D03*
Y62029D02*
D03*
Y60061D02*
D03*
Y58092D02*
D03*
Y56124D02*
D03*
Y54155D02*
D03*
Y52187D02*
D03*
Y50218D02*
D03*
Y48250D02*
D03*
Y46281D02*
D03*
Y44313D02*
D03*
Y42344D02*
D03*
M02*
