M48
;Layer_Color=9474304
;FILE_FORMAT=2:5
INCH,TZ
;TYPE=PLATED
T2F00S00C0.01400
T4F00S00C0.04000
T5F00S00C0.04016
T6F00S00C0.04331
;TYPE=NON_PLATED
T7F00S00C0.05512
%
T02
X655763Y375487
X654162Y412943
X649160
X648483Y441539
X653273
X643562
X678946Y438415
X679937Y433566
X695875Y428010
X710491Y423540
X723058Y419839
X725436Y443447
X724943Y447229
X739743Y447187
X738698Y451322
X753599Y456458
X762288Y455481
X771045Y450790
X766888Y464848
X759972Y441184
X751928Y430156
X766880Y425800
X742244Y406516
X738569Y403368
X742098Y377715
X741900Y373430
X735961Y372302
X732065Y373075
X750574Y372702
X753255Y370211
X762494Y372516
X764943Y369611
X774078Y369508
X771561Y372516
X766400Y343574
X756400
X746400
Y332826
X751400Y332826
X756400Y332826
X766400
X741400
X736400Y332826
X731400Y332826
X726400Y332826
X721400Y332826
X716400
X711400Y332826
X726400Y343574
X698265Y403526
X690394Y400341
X679392Y408841
X688899Y453012
X704106Y451125
X703826Y446606
X707400Y448827
X710125Y446606
X706644Y453776
X704106Y457238
X707736Y460495
X784765Y461625
X789388Y461709
X787042Y458625
X792354
X792887Y465242
X787242
X789388Y454425
X784604Y454360
X787242Y450840
X792708
X806630Y451977
X809552Y448783
X813844Y443975
X810825Y457401
X831380Y454021
X836762Y446637
X840948
X845100Y446695
X850600Y386791
X806630Y381114
X793738Y377897
X785741Y410265
X781400Y343574
Y332826
X818976Y357279
X783270Y517697
X781400Y541826
Y552574
X766400Y552574
X756400Y552574
X751400Y552574
X746400Y552574
X741400Y552574
X736400
X731400
X726400Y552579
X721400Y552574
X716400Y552574
X711400
Y541826
X726400Y543211
X746400Y541826
X751400Y541826
X756400
X761447Y541880
X766400Y541826
X771400Y541826
X780041Y516086
X777400Y512986
X761072Y512101
X756700Y512001
X743089Y512989
X739496Y513207
X754245Y481234
X707931Y478357
X705148Y475398
X709991Y474284
X701920Y478665
X698601Y475398
X695000Y479028
X688700
X691707Y475881
X685299Y475726
X630699Y471607
T04
X636100Y390600
X677400Y377285
X780646Y366174
T05
X657400Y392700
X667400
X677400
X687400
X697400
X707400
X717400
X727400
X737400
X747400
X757400
X767400
X777400
X760660Y357279
X750660
X787400Y392700
X797400
X807400
X817400
X827400
X827400Y492700
X817400
X807400
X797400
X787400
X800626Y534199
X807697Y541270
Y527128
X814769Y534199
Y520057
X821840Y512986
Y527128
X828911Y520057
X845100Y503000
X852171Y495929
X777400Y492700
X767400
X757400
X747400
X737400
X727400
X717400
X707400
X697400
X687400
X677400
X667400
X657400
X748058Y565000
X758057
X768057
T06
X687650Y339416
Y353558
X680579Y346487
X694722
X680579Y360630
X673508Y353558
X810852Y406640
Y416640
X811769Y468480
Y478480
X770197Y520495
X760197
X750197
X730932Y520481
X720932
X710932
X681329Y542029
X674258Y534958
X667187Y527887
X656030Y516548
X648959Y509477
X688400Y549100
T07
X705148Y338200
X787652Y338200
Y547200
X705148
M30
