G04*
G04 #@! TF.GenerationSoftware,Altium Limited,Altium Designer,22.3.1 (43)*
G04*
G04 Layer_Color=255*
%FSLAX25Y25*%
%MOIN*%
G70*
G04*
G04 #@! TF.SameCoordinates,40EC2BD7-1702-4D78-AAFC-A13D33BD6AE8*
G04*
G04*
G04 #@! TF.FilePolarity,Positive*
G04*
G01*
G75*
%ADD15C,0.00700*%
%ADD16C,0.00500*%
G04:AMPARAMS|DCode=19|XSize=39.37mil|YSize=62.99mil|CornerRadius=0mil|HoleSize=0mil|Usage=FLASHONLY|Rotation=45.000|XOffset=0mil|YOffset=0mil|HoleType=Round|Shape=Rectangle|*
%AMROTATEDRECTD19*
4,1,4,0.00835,-0.03619,-0.03619,0.00835,-0.00835,0.03619,0.03619,-0.00835,0.00835,-0.03619,0.0*
%
%ADD19ROTATEDRECTD19*%

%ADD20R,0.03937X0.06299*%
%ADD22R,0.20866X0.06693*%
%ADD23R,0.12598X0.04724*%
%ADD26R,0.03740X0.05315*%
%ADD27R,0.08540X0.02292*%
G04:AMPARAMS|DCode=28|XSize=85.4mil|YSize=22.92mil|CornerRadius=11.46mil|HoleSize=0mil|Usage=FLASHONLY|Rotation=0.000|XOffset=0mil|YOffset=0mil|HoleType=Round|Shape=RoundedRectangle|*
%AMROUNDEDRECTD28*
21,1,0.08540,0.00000,0,0,0.0*
21,1,0.06248,0.02292,0,0,0.0*
1,1,0.02292,0.03124,0.00000*
1,1,0.02292,-0.03124,0.00000*
1,1,0.02292,-0.03124,0.00000*
1,1,0.02292,0.03124,0.00000*
%
%ADD28ROUNDEDRECTD28*%
%ADD30R,0.02800X0.02000*%
%ADD31R,0.02800X0.02000*%
%ADD32R,0.02800X0.02000*%
%ADD33R,0.03600X0.04800*%
%ADD35R,0.03150X0.04134*%
%ADD36R,0.11024X0.06299*%
G04:AMPARAMS|DCode=37|XSize=11.81mil|YSize=37.4mil|CornerRadius=0mil|HoleSize=0mil|Usage=FLASHONLY|Rotation=225.000|XOffset=0mil|YOffset=0mil|HoleType=Round|Shape=Rectangle|*
%AMROTATEDRECTD37*
4,1,4,-0.00905,0.01740,0.01740,-0.00905,0.00905,-0.01740,-0.01740,0.00905,-0.00905,0.01740,0.0*
%
%ADD37ROTATEDRECTD37*%

%ADD38R,0.09843X0.06693*%
G04:AMPARAMS|DCode=39|XSize=98.43mil|YSize=66.93mil|CornerRadius=0mil|HoleSize=0mil|Usage=FLASHONLY|Rotation=45.000|XOffset=0mil|YOffset=0mil|HoleType=Round|Shape=Rectangle|*
%AMROTATEDRECTD39*
4,1,4,-0.01114,-0.05846,-0.05846,-0.01114,0.01114,0.05846,0.05846,0.01114,-0.01114,-0.05846,0.0*
%
%ADD39ROTATEDRECTD39*%

%ADD40R,0.03771X0.04969*%
G04:AMPARAMS|DCode=51|XSize=55.12mil|YSize=39.37mil|CornerRadius=19.68mil|HoleSize=0mil|Usage=FLASHONLY|Rotation=225.000|XOffset=0mil|YOffset=0mil|HoleType=Round|Shape=RoundedRectangle|*
%AMROUNDEDRECTD51*
21,1,0.05512,0.00000,0,0,225.0*
21,1,0.01575,0.03937,0,0,225.0*
1,1,0.03937,-0.00557,-0.00557*
1,1,0.03937,0.00557,0.00557*
1,1,0.03937,0.00557,0.00557*
1,1,0.03937,-0.00557,-0.00557*
%
%ADD51ROUNDEDRECTD51*%
G04:AMPARAMS|DCode=52|XSize=45.28mil|YSize=29.53mil|CornerRadius=14.76mil|HoleSize=0mil|Usage=FLASHONLY|Rotation=225.000|XOffset=0mil|YOffset=0mil|HoleType=Round|Shape=RoundedRectangle|*
%AMROUNDEDRECTD52*
21,1,0.04528,0.00000,0,0,225.0*
21,1,0.01575,0.02953,0,0,225.0*
1,1,0.02953,-0.00557,-0.00557*
1,1,0.02953,0.00557,0.00557*
1,1,0.02953,0.00557,0.00557*
1,1,0.02953,-0.00557,-0.00557*
%
%ADD52ROUNDEDRECTD52*%
%ADD58R,0.13386X0.05906*%
%ADD59R,0.13780X0.03937*%
%ADD60R,0.03937X0.05315*%
%ADD61R,0.03347X0.05315*%
%ADD62R,0.03543X0.05118*%
%ADD63P,0.06681X4X180.0*%
G04:AMPARAMS|DCode=64|XSize=25.59mil|YSize=64.96mil|CornerRadius=1.92mil|HoleSize=0mil|Usage=FLASHONLY|Rotation=90.000|XOffset=0mil|YOffset=0mil|HoleType=Round|Shape=RoundedRectangle|*
%AMROUNDEDRECTD64*
21,1,0.02559,0.06112,0,0,90.0*
21,1,0.02175,0.06496,0,0,90.0*
1,1,0.00384,0.03056,0.01088*
1,1,0.00384,0.03056,-0.01088*
1,1,0.00384,-0.03056,-0.01088*
1,1,0.00384,-0.03056,0.01088*
%
%ADD64ROUNDEDRECTD64*%
%ADD65O,0.05709X0.00984*%
%ADD68C,0.06496*%
%ADD69R,0.06496X0.06496*%
%ADD70C,0.06000*%
%ADD71P,0.08908X4X270.0*%
%ADD72C,0.06299*%
%ADD73R,0.06299X0.06299*%
%ADD74C,0.05984*%
%ADD75P,0.08463X4X360.0*%
%ADD76R,0.05984X0.05984*%
%ADD77P,0.09187X4X360.0*%
%ADD78P,0.08352X4X360.0*%
%ADD79C,0.05906*%
%ADD80C,0.05512*%
D15*
X783510Y460624D02*
Y458125D01*
X784010Y457625D01*
X785009D01*
X785509Y458125D01*
Y460624D01*
X786509Y457625D02*
X787509D01*
X787009D01*
Y460624D01*
X786509Y460124D01*
D16*
X876400Y442700D02*
G03*
X876400Y442700I-130000J0D01*
G01*
D19*
X835289Y360715D02*
D03*
X826937Y352363D02*
D03*
D20*
X662710Y448702D02*
D03*
X674520D02*
D03*
D22*
X862523Y428724D02*
D03*
Y456676D02*
D03*
D23*
X840948Y438763D02*
D03*
Y446637D02*
D03*
D26*
X730105Y409298D02*
D03*
X736010D02*
D03*
X791617Y415099D02*
D03*
X785712Y415099D02*
D03*
X762605Y430199D02*
D03*
X756700D02*
D03*
X764627Y441183D02*
D03*
X770533D02*
D03*
X717448Y441244D02*
D03*
X711542D02*
D03*
D27*
X749952Y421516D02*
D03*
D28*
Y416516D02*
D03*
Y411516D02*
D03*
Y406516D02*
D03*
X768563D02*
D03*
Y411516D02*
D03*
Y416516D02*
D03*
Y421516D02*
D03*
D30*
X766888Y472648D02*
D03*
Y468748D02*
D03*
Y457232D02*
D03*
Y453332D02*
D03*
D31*
Y464848D02*
D03*
Y449432D02*
D03*
D32*
X757688Y468748D02*
D03*
Y464848D02*
D03*
Y472648D02*
D03*
Y449432D02*
D03*
Y453332D02*
D03*
Y457232D02*
D03*
D33*
X795460Y440490D02*
D03*
X782560D02*
D03*
D35*
X802225Y444038D02*
D03*
X809508D02*
D03*
D36*
X651800Y412943D02*
D03*
X634871D02*
D03*
D37*
X820688Y368415D02*
D03*
X819296Y367023D02*
D03*
X817904Y365631D02*
D03*
X816512Y364239D02*
D03*
X815120Y362847D02*
D03*
X813728Y361455D02*
D03*
X812336Y360063D02*
D03*
X810944Y358671D02*
D03*
X809552Y357279D02*
D03*
X808160Y355888D02*
D03*
X806768Y354496D02*
D03*
X805376Y353104D02*
D03*
X801173Y357307D02*
D03*
X802565Y358699D02*
D03*
X803956Y360091D02*
D03*
X805348Y361483D02*
D03*
X806740Y362875D02*
D03*
X808132Y364267D02*
D03*
X809524Y365659D02*
D03*
X810916Y367051D02*
D03*
X812308Y368443D02*
D03*
X813700Y369835D02*
D03*
X815092Y371227D02*
D03*
X816484Y372619D02*
D03*
D38*
X646447Y471607D02*
D03*
X630699D02*
D03*
D39*
X850600Y386791D02*
D03*
X839465Y375656D02*
D03*
D40*
X698601Y441244D02*
D03*
X704327D02*
D03*
D51*
X825545Y365506D02*
D03*
X813575Y377477D02*
D03*
X808285Y348246D02*
D03*
X796315Y360216D02*
D03*
D52*
X821370Y373301D02*
D03*
X800490Y352422D02*
D03*
D58*
X625845Y432287D02*
D03*
Y458665D02*
D03*
D59*
X648483Y441539D02*
D03*
Y449413D02*
D03*
D60*
X708747Y467753D02*
D03*
X702842D02*
D03*
X791834Y405495D02*
D03*
X785929D02*
D03*
X754502Y441183D02*
D03*
X747415D02*
D03*
X744373Y471717D02*
D03*
X751460D02*
D03*
X690382Y429041D02*
D03*
X824412Y453800D02*
D03*
X683296Y429041D02*
D03*
X817325Y453800D02*
D03*
D61*
X759434Y480769D02*
D03*
X765930D02*
D03*
X750443Y450170D02*
D03*
X743947D02*
D03*
X730150Y419233D02*
D03*
X736647D02*
D03*
X791946Y424664D02*
D03*
X785450D02*
D03*
X824510Y443841D02*
D03*
X818014D02*
D03*
X691231Y438955D02*
D03*
X684735D02*
D03*
D62*
X689067Y460388D02*
D03*
X682965D02*
D03*
X721652Y425800D02*
D03*
X721877Y415100D02*
D03*
X715549Y425800D02*
D03*
X715774Y415100D02*
D03*
X729607Y475071D02*
D03*
X723504D02*
D03*
X729607Y454694D02*
D03*
X723504D02*
D03*
X729751Y465036D02*
D03*
X723649D02*
D03*
D63*
X697754Y528494D02*
D03*
X691908Y534340D02*
D03*
X683162Y516548D02*
D03*
X689008Y510702D02*
D03*
X695336Y516548D02*
D03*
X689490Y522395D02*
D03*
X648316Y374791D02*
D03*
X654162Y368945D02*
D03*
X663788Y375625D02*
D03*
X669634Y369779D02*
D03*
D64*
X800132Y451125D02*
D03*
Y456125D02*
D03*
Y461125D02*
D03*
X777888D02*
D03*
Y466125D02*
D03*
X800132D02*
D03*
X777888Y456125D02*
D03*
Y451125D02*
D03*
D65*
X713435Y450993D02*
D03*
Y452961D02*
D03*
X713435Y454930D02*
D03*
Y456898D02*
D03*
X713435Y458867D02*
D03*
X697491Y450993D02*
D03*
Y452961D02*
D03*
X697491Y454930D02*
D03*
Y456898D02*
D03*
X697491Y458867D02*
D03*
D68*
X811769Y468480D02*
D03*
X810852Y406640D02*
D03*
X694722Y346487D02*
D03*
X687650Y353558D02*
D03*
Y339416D02*
D03*
X680579Y346487D02*
D03*
Y360630D02*
D03*
D69*
X811769Y478480D02*
D03*
X810852Y416640D02*
D03*
D70*
X636100Y390600D02*
D03*
X677400Y377285D02*
D03*
X780646Y366174D02*
D03*
D71*
X656030Y516548D02*
D03*
X688400Y549100D02*
D03*
D72*
X648959Y509477D02*
D03*
X770197Y520495D02*
D03*
X760197D02*
D03*
X720932Y520481D02*
D03*
X730932D02*
D03*
X681329Y542029D02*
D03*
X674258Y534958D02*
D03*
X667187Y527887D02*
D03*
D73*
X750197Y520495D02*
D03*
X710932Y520481D02*
D03*
D74*
X697400Y392700D02*
D03*
X852171Y495929D02*
D03*
X667400Y392700D02*
D03*
X758057Y565000D02*
D03*
X768057D02*
D03*
X687400Y392700D02*
D03*
X707400D02*
D03*
X727400D02*
D03*
X747400D02*
D03*
X757400D02*
D03*
X777400D02*
D03*
X787400D02*
D03*
X797400D02*
D03*
X817400D02*
D03*
X807400D02*
D03*
X767400D02*
D03*
X737400D02*
D03*
X717400D02*
D03*
X677400D02*
D03*
X657400D02*
D03*
X760660Y357279D02*
D03*
X657400Y492700D02*
D03*
X667400D02*
D03*
X677400D02*
D03*
X717400D02*
D03*
X737400D02*
D03*
X767400D02*
D03*
X807400D02*
D03*
X817400D02*
D03*
X797400D02*
D03*
X787400D02*
D03*
X777400D02*
D03*
X757400D02*
D03*
X747400D02*
D03*
X727400D02*
D03*
X707400D02*
D03*
X697400D02*
D03*
X687400D02*
D03*
D75*
X845100Y503000D02*
D03*
D76*
X748058Y565000D02*
D03*
X827400Y392700D02*
D03*
X750660Y357279D02*
D03*
X827400Y492700D02*
D03*
D77*
X673508Y353558D02*
D03*
D78*
X800626Y534199D02*
D03*
D79*
X807697Y541270D02*
D03*
Y527128D02*
D03*
X814769Y534199D02*
D03*
Y520057D02*
D03*
X821840Y512986D02*
D03*
Y527128D02*
D03*
X828911Y520057D02*
D03*
D80*
X787652Y338200D02*
D03*
X705148Y338200D02*
D03*
Y547200D02*
D03*
X787652D02*
D03*
M02*
