G04*
G04 #@! TF.GenerationSoftware,Altium Limited,Altium Designer,22.3.1 (43)*
G04*
G04 Layer_Physical_Order=1*
G04 Layer_Color=255*
%FSLAX25Y25*%
%MOIN*%
G70*
G04*
G04 #@! TF.SameCoordinates,40EC2BD7-1702-4D78-AAFC-A13D33BD6AE8*
G04*
G04*
G04 #@! TF.FilePolarity,Positive*
G04*
G01*
G75*
%ADD14C,0.01000*%
%ADD15C,0.00700*%
%ADD16C,0.00500*%
G04:AMPARAMS|DCode=19|XSize=39.37mil|YSize=62.99mil|CornerRadius=0mil|HoleSize=0mil|Usage=FLASHONLY|Rotation=45.000|XOffset=0mil|YOffset=0mil|HoleType=Round|Shape=Rectangle|*
%AMROTATEDRECTD19*
4,1,4,0.00835,-0.03619,-0.03619,0.00835,-0.00835,0.03619,0.03619,-0.00835,0.00835,-0.03619,0.0*
%
%ADD19ROTATEDRECTD19*%

%ADD20R,0.03937X0.06299*%
%ADD22R,0.20866X0.06693*%
%ADD23R,0.12598X0.04724*%
%ADD26R,0.03740X0.05315*%
%ADD27R,0.08540X0.02292*%
G04:AMPARAMS|DCode=28|XSize=85.4mil|YSize=22.92mil|CornerRadius=11.46mil|HoleSize=0mil|Usage=FLASHONLY|Rotation=0.000|XOffset=0mil|YOffset=0mil|HoleType=Round|Shape=RoundedRectangle|*
%AMROUNDEDRECTD28*
21,1,0.08540,0.00000,0,0,0.0*
21,1,0.06248,0.02292,0,0,0.0*
1,1,0.02292,0.03124,0.00000*
1,1,0.02292,-0.03124,0.00000*
1,1,0.02292,-0.03124,0.00000*
1,1,0.02292,0.03124,0.00000*
%
%ADD28ROUNDEDRECTD28*%
%ADD30R,0.02800X0.02000*%
%ADD31R,0.02800X0.02000*%
%ADD32R,0.02800X0.02000*%
%ADD33R,0.03600X0.04800*%
%ADD35R,0.03150X0.04134*%
%ADD36R,0.11024X0.06299*%
G04:AMPARAMS|DCode=37|XSize=11.81mil|YSize=37.4mil|CornerRadius=0mil|HoleSize=0mil|Usage=FLASHONLY|Rotation=225.000|XOffset=0mil|YOffset=0mil|HoleType=Round|Shape=Rectangle|*
%AMROTATEDRECTD37*
4,1,4,-0.00905,0.01740,0.01740,-0.00905,0.00905,-0.01740,-0.01740,0.00905,-0.00905,0.01740,0.0*
%
%ADD37ROTATEDRECTD37*%

%ADD38R,0.09843X0.06693*%
G04:AMPARAMS|DCode=39|XSize=98.43mil|YSize=66.93mil|CornerRadius=0mil|HoleSize=0mil|Usage=FLASHONLY|Rotation=45.000|XOffset=0mil|YOffset=0mil|HoleType=Round|Shape=Rectangle|*
%AMROTATEDRECTD39*
4,1,4,-0.01114,-0.05846,-0.05846,-0.01114,0.01114,0.05846,0.05846,0.01114,-0.01114,-0.05846,0.0*
%
%ADD39ROTATEDRECTD39*%

%ADD40R,0.03771X0.04969*%
G04:AMPARAMS|DCode=51|XSize=55.12mil|YSize=39.37mil|CornerRadius=19.68mil|HoleSize=0mil|Usage=FLASHONLY|Rotation=225.000|XOffset=0mil|YOffset=0mil|HoleType=Round|Shape=RoundedRectangle|*
%AMROUNDEDRECTD51*
21,1,0.05512,0.00000,0,0,225.0*
21,1,0.01575,0.03937,0,0,225.0*
1,1,0.03937,-0.00557,-0.00557*
1,1,0.03937,0.00557,0.00557*
1,1,0.03937,0.00557,0.00557*
1,1,0.03937,-0.00557,-0.00557*
%
%ADD51ROUNDEDRECTD51*%
G04:AMPARAMS|DCode=52|XSize=45.28mil|YSize=29.53mil|CornerRadius=14.76mil|HoleSize=0mil|Usage=FLASHONLY|Rotation=225.000|XOffset=0mil|YOffset=0mil|HoleType=Round|Shape=RoundedRectangle|*
%AMROUNDEDRECTD52*
21,1,0.04528,0.00000,0,0,225.0*
21,1,0.01575,0.02953,0,0,225.0*
1,1,0.02953,-0.00557,-0.00557*
1,1,0.02953,0.00557,0.00557*
1,1,0.02953,0.00557,0.00557*
1,1,0.02953,-0.00557,-0.00557*
%
%ADD52ROUNDEDRECTD52*%
%ADD58R,0.13386X0.05906*%
%ADD59R,0.13780X0.03937*%
%ADD60R,0.03937X0.05315*%
%ADD61R,0.03347X0.05315*%
%ADD62R,0.03543X0.05118*%
%ADD63P,0.06681X4X180.0*%
G04:AMPARAMS|DCode=64|XSize=25.59mil|YSize=64.96mil|CornerRadius=1.92mil|HoleSize=0mil|Usage=FLASHONLY|Rotation=90.000|XOffset=0mil|YOffset=0mil|HoleType=Round|Shape=RoundedRectangle|*
%AMROUNDEDRECTD64*
21,1,0.02559,0.06112,0,0,90.0*
21,1,0.02175,0.06496,0,0,90.0*
1,1,0.00384,0.03056,0.01088*
1,1,0.00384,0.03056,-0.01088*
1,1,0.00384,-0.03056,-0.01088*
1,1,0.00384,-0.03056,0.01088*
%
%ADD64ROUNDEDRECTD64*%
%ADD65O,0.05709X0.00984*%
%ADD66C,0.02000*%
%ADD67C,0.03000*%
%ADD68C,0.06496*%
%ADD69R,0.06496X0.06496*%
%ADD70C,0.06000*%
%ADD71P,0.08908X4X270.0*%
%ADD72C,0.06299*%
%ADD73R,0.06299X0.06299*%
%ADD74C,0.05984*%
%ADD75P,0.08463X4X360.0*%
%ADD76R,0.05984X0.05984*%
%ADD77P,0.09187X4X360.0*%
%ADD78P,0.08352X4X360.0*%
%ADD79C,0.05906*%
%ADD80C,0.05512*%
%ADD81C,0.02800*%
G36*
X716033Y474058D02*
Y460581D01*
X715798Y460388D01*
X713936D01*
Y458867D01*
X712935D01*
Y460388D01*
X711073D01*
X710491Y460272D01*
X709998Y459942D01*
X709668Y459449D01*
X709584Y459028D01*
X709336D01*
X707979Y457670D01*
X709903Y451567D01*
X709856Y451497D01*
X709756Y450993D01*
X709856Y450488D01*
X710142Y450061D01*
X710441Y449861D01*
X711877Y445305D01*
X711582Y444902D01*
X708672D01*
Y441744D01*
X711542D01*
Y440744D01*
X708672D01*
Y437872D01*
X707212D01*
Y440744D01*
X704327D01*
Y441244D01*
X703827D01*
Y444729D01*
X701920D01*
Y458124D01*
X702381D01*
X702968Y460122D01*
X703254Y460409D01*
X703541Y460839D01*
X703642Y461346D01*
Y462358D01*
X706528Y462646D01*
Y463898D01*
X708739D01*
Y467753D01*
Y471607D01*
X705976D01*
X705976Y471607D01*
Y471607D01*
X705640Y471942D01*
X705234Y472348D01*
X682900D01*
Y478301D01*
X686027Y481427D01*
X708664D01*
X716033Y474058D01*
D02*
G37*
G36*
X795309Y467540D02*
Y448783D01*
X782711D01*
Y458625D01*
X782262Y459074D01*
X782067Y459573D01*
X782159Y460038D01*
Y460625D01*
X777888D01*
Y461625D01*
X782159D01*
Y462213D01*
X782067Y462678D01*
X781803Y463072D01*
X781409Y463336D01*
X781235Y463370D01*
Y463880D01*
X781409Y463915D01*
X781803Y464178D01*
X782067Y464573D01*
X782159Y465038D01*
Y465625D01*
X777888D01*
Y466625D01*
X782159D01*
Y467213D01*
X782153Y467246D01*
X782564Y467739D01*
X795309Y467540D01*
D02*
G37*
%LPC*%
G36*
X712503Y471607D02*
X709739D01*
Y468253D01*
X712503D01*
Y471607D01*
D02*
G37*
G36*
Y467253D02*
X709739D01*
Y463898D01*
X712503D01*
Y467253D01*
D02*
G37*
G36*
X707212Y444729D02*
X704827D01*
Y441744D01*
X707212D01*
Y444729D01*
D02*
G37*
%LPD*%
D14*
X726400Y547595D02*
X729884Y544110D01*
X747355Y525762D02*
X759478D01*
X729884Y543232D02*
Y544110D01*
X726400Y547595D02*
Y552579D01*
X721400Y543211D02*
X741400Y523211D01*
X716556Y545510D02*
X739600Y522465D01*
X741400Y520383D02*
Y523211D01*
X739600Y513312D02*
Y522465D01*
X716556Y545510D02*
Y547419D01*
X721400Y543211D02*
Y552574D01*
X802100Y466125D02*
X810825Y457401D01*
X800132Y466125D02*
X802100D01*
X809552Y444081D02*
Y448783D01*
X688400Y549100D02*
X689663D01*
X697754Y541010D01*
Y528494D02*
Y541010D01*
Y528494D02*
Y528494D01*
X678946Y438415D02*
X684195D01*
X826121Y411120D02*
X850027Y435026D01*
Y449550D01*
X669634Y369779D02*
Y369779D01*
X661756Y361900D02*
X669634Y369779D01*
X661756Y355306D02*
Y361900D01*
Y355306D02*
X670574Y346487D01*
X687650Y339416D02*
X696424D01*
X674210D02*
X687650D01*
X654162Y359464D02*
Y367701D01*
X655763Y375487D02*
X662580D01*
X680579Y360630D02*
X682571Y362621D01*
X670574Y346487D02*
X680579D01*
X654162Y359464D02*
X674210Y339416D01*
X696424D02*
X701464Y344457D01*
Y362476D01*
X692393Y371547D02*
X701464Y362476D01*
X682508Y488553D02*
X685567Y485494D01*
X725949D01*
X672441Y488575D02*
X677322Y483694D01*
X725949Y485494D02*
X733873Y477570D01*
X722384Y483694D02*
X728335Y477743D01*
X677322Y483694D02*
X722384D01*
X766536Y426144D02*
X766880Y425800D01*
X765873Y426144D02*
X766536D01*
X766880Y425800D02*
X766925D01*
X762605Y429412D02*
X765873Y426144D01*
X766925Y425800D02*
X768563Y424162D01*
Y421516D02*
Y424162D01*
X809508Y444038D02*
X809552Y444081D01*
X679937Y433089D02*
X683296Y429730D01*
Y429041D02*
Y429730D01*
X679937Y433089D02*
Y433566D01*
X721877Y418658D02*
X723058Y419839D01*
X721877Y415100D02*
Y418658D01*
X685276Y409298D02*
X730105D01*
X668679Y392700D02*
X685276Y409298D01*
X667400Y392700D02*
X668679D01*
X678200Y399149D02*
X685677Y406626D01*
X678200Y393500D02*
Y399149D01*
X685677Y406626D02*
X706010D01*
X709269Y403368D02*
X738569D01*
X706010Y406626D02*
X709269Y403368D01*
X738004Y406516D02*
X749952D01*
X736010Y408510D02*
X738004Y406516D01*
X824632Y454021D02*
X831380D01*
X824412Y453800D02*
X824632Y454021D01*
X750443Y451154D02*
X753254Y453965D01*
Y456114D01*
X750443Y450170D02*
Y451154D01*
X753254Y456114D02*
X753599Y456458D01*
X672441Y488575D02*
Y505828D01*
X683162Y516548D02*
Y516548D01*
X672441Y505828D02*
X683162Y516548D01*
X661899Y482241D02*
Y531417D01*
X674067Y543585D01*
X689490Y517031D02*
Y522622D01*
X682508Y510049D02*
X689490Y517031D01*
X682508Y488553D02*
Y510049D01*
X670923Y527047D02*
X681422Y516548D01*
X683162D01*
X681329Y542029D02*
X689018Y534340D01*
X691908D01*
X674258Y534958D02*
X686821Y522395D01*
X689490D01*
X668026Y527047D02*
X670923D01*
X667187Y527887D02*
X668026Y527047D01*
X777400Y415274D02*
X781458Y419332D01*
X774450Y409070D02*
X777400Y412021D01*
Y415274D01*
X759089Y409070D02*
X774450D01*
X750281Y400262D02*
X759089Y409070D01*
X785741Y405682D02*
X785929Y405495D01*
X785741Y405682D02*
Y410265D01*
X785712Y410295D02*
X785741Y410265D01*
X785712Y410295D02*
Y415099D01*
X781458Y419332D02*
X791342D01*
X785305Y424519D02*
X785450Y424664D01*
X768563Y416516D02*
X774859D01*
X782862Y424519D02*
X785305D01*
X774859Y416516D02*
X782862Y424519D01*
X791342Y419332D02*
X791617Y419057D01*
Y419057D02*
Y424335D01*
Y418693D02*
Y419057D01*
Y424335D02*
X791946Y424664D01*
X791617Y415099D02*
Y418693D01*
X751928Y430156D02*
X756656D01*
X756700Y430199D01*
X677400Y392700D02*
X678200Y393500D01*
X684490Y399996D02*
X690050D01*
X682571Y362621D02*
Y398078D01*
X684490Y399996D01*
X689067Y459600D02*
X691770Y456898D01*
X697491D01*
X689067Y459600D02*
Y460388D01*
X689008Y510702D02*
X689490D01*
X689008D02*
X689008D01*
X692835Y506875D01*
X807835D01*
X821840Y520879D01*
Y527128D01*
X759743Y545169D02*
Y557145D01*
X761400Y541928D02*
X763058Y543585D01*
X751964Y564924D02*
X759743Y557145D01*
X763058Y543585D02*
Y560000D01*
X768057Y565000D01*
X695336Y516548D02*
Y526077D01*
X697754Y528494D01*
X689490Y510702D02*
X695336Y516548D01*
X838348Y461230D02*
X850027Y449550D01*
X838348Y461230D02*
Y505785D01*
X840711Y508148D02*
Y519264D01*
X838348Y505785D02*
X840711Y508148D01*
X832846Y527128D02*
X840711Y519264D01*
X821840Y527128D02*
X832846D01*
X736010Y408510D02*
Y409298D01*
X690050Y399996D02*
X690394Y400341D01*
X692393Y397654D02*
X698265Y403526D01*
X692393Y371547D02*
Y397654D01*
X716400Y354212D02*
X732065Y369878D01*
X711400Y332826D02*
X716400Y337826D01*
Y354212D01*
X753901Y480890D02*
X754245Y481234D01*
X752856Y480890D02*
X753901D01*
X744373Y472406D02*
X752856Y480890D01*
X723058Y336169D02*
Y350988D01*
X719943Y351473D02*
X741900Y373430D01*
X723058Y350988D02*
X742098Y370028D01*
X719943Y334312D02*
Y351473D01*
X723058Y336169D02*
X726400Y332826D01*
X715549Y433037D02*
X716079Y433566D01*
X715549Y425800D02*
Y433037D01*
X762605Y429412D02*
Y430199D01*
X813844Y443975D02*
X817879D01*
X818014Y443841D01*
X701675Y400262D02*
X750281D01*
X697933Y396520D02*
X701675Y400262D01*
X697400Y392700D02*
X697933Y393233D01*
Y396520D01*
X790851Y401045D02*
X791729Y401923D01*
X777070Y401045D02*
X790851D01*
X771598Y406516D02*
X777070Y401045D01*
X768563Y406516D02*
X771598D01*
X791729Y405389D02*
X791834Y405495D01*
X791729Y401923D02*
Y405389D01*
X730665Y410107D02*
X731187Y409585D01*
X730625Y409298D02*
Y416119D01*
X736647Y420218D02*
X737820Y421391D01*
X738406Y421575D02*
X749893D01*
X736647Y419233D02*
Y420218D01*
X737820Y421391D02*
X738222D01*
X738406Y421575D01*
X749952Y416516D02*
Y421516D01*
X720686Y423741D02*
X721609Y424664D01*
X721652D01*
X715982Y417622D02*
X720686Y422327D01*
X721652Y424664D02*
Y425800D01*
X720686Y422327D02*
Y423741D01*
X716033Y416605D02*
X716587Y417159D01*
X715774Y416605D02*
X716033D01*
X716233Y414741D02*
Y415458D01*
X716567Y416679D02*
X717046Y417159D01*
X715774Y415100D02*
Y416605D01*
X716567Y414548D02*
Y416679D01*
X716492Y416605D02*
X716567Y416679D01*
X716033Y416605D02*
X716492D01*
X721762Y424664D02*
X723033Y425936D01*
X728335Y475751D02*
X729802Y474284D01*
X728335Y475751D02*
Y477743D01*
X690382Y429041D02*
X694356D01*
X695388Y428010D02*
X695875D01*
X694356Y429041D02*
X695388Y428010D01*
X768563Y411516D02*
Y416516D01*
X791834Y405495D02*
X808219D01*
X809365Y406640D01*
X810852D01*
X756190Y414631D02*
Y422532D01*
X753076Y411516D02*
X756190Y414631D01*
X752787Y425936D02*
X756190Y422532D01*
X749952Y411516D02*
X753076D01*
X723033Y425936D02*
X752787D01*
X824412Y443939D02*
Y453800D01*
Y443939D02*
X824510Y443841D01*
X691116Y430557D02*
X691231Y430672D01*
Y438955D01*
X750322Y450048D02*
X750443Y450170D01*
X764219Y457232D02*
X766888D01*
X762288Y455481D02*
X762469D01*
X764219Y457232D01*
X766888Y472648D02*
Y479811D01*
X765930Y480769D02*
X766888Y479811D01*
X744373Y471717D02*
Y472406D01*
X754245Y481234D02*
X758969D01*
X759434Y480769D01*
X713435Y454930D02*
X722593D01*
X723699Y456036D01*
X723649Y465036D02*
Y474233D01*
X723699Y474284D01*
X713443Y456906D02*
X716371D01*
X722377Y462912D01*
X713435Y456898D02*
X713443Y456906D01*
X722377Y462912D02*
Y463764D01*
X723649Y465036D01*
X674067Y543585D02*
X682669D01*
X711400Y518763D02*
Y541826D01*
X749783Y512001D02*
X756700D01*
X741400Y520383D02*
X749783Y512001D01*
X731400Y552574D02*
X731684Y552290D01*
X748101Y527562D02*
X764443D01*
X731684Y543978D02*
Y552290D01*
Y543978D02*
X748101Y527562D01*
X729884Y543232D02*
X747355Y525762D01*
X748846Y529362D02*
X776044D01*
X782943Y518025D02*
X783270Y517697D01*
X739600Y538608D02*
X748846Y529362D01*
X782943Y518025D02*
Y522463D01*
X777400Y512986D02*
X786932D01*
X776044Y529362D02*
X782943Y522463D01*
X786932Y512986D02*
X788872Y514926D01*
X754502Y441183D02*
X754502Y441184D01*
X763257D01*
X763459Y441385D01*
Y443139D01*
X788872Y514926D02*
Y522586D01*
X780041Y531417D02*
X788872Y522586D01*
X739600Y550287D02*
X741400Y552087D01*
Y552574D01*
X739600Y538608D02*
Y550287D01*
X741400Y332826D02*
Y332855D01*
X738058Y336198D02*
X741400Y332855D01*
X764343Y364100D02*
X771216Y370972D01*
Y372171D01*
X771561Y372516D01*
X744447Y364100D02*
X764343D01*
X738058Y357710D02*
X744447Y364100D01*
X738058Y336198D02*
Y357710D01*
X760965Y521290D02*
Y524274D01*
X759478Y525762D02*
X760965Y524274D01*
X749337Y531417D02*
X780041D01*
X741400Y539354D02*
X749337Y531417D01*
X764443Y527562D02*
X772494Y519511D01*
X773419Y534755D02*
X788066D01*
X795693Y527128D01*
X771400Y536774D02*
X773419Y534755D01*
X739496Y513207D02*
X739600Y513312D01*
X711400Y552574D02*
X716556Y547419D01*
X818586Y370517D02*
X820688Y368415D01*
X816484Y372619D02*
X818586Y370517D01*
X821370Y373301D01*
X821720Y367510D02*
X822169Y367958D01*
X823093D01*
X825545Y365506D01*
X820688Y368415D02*
X821592Y367510D01*
X821720D01*
X813575Y375656D02*
X816548Y372683D01*
X813575Y375656D02*
Y377477D01*
X803274Y355205D02*
X805376Y353104D01*
X801173Y357307D02*
X803274Y355205D01*
X800490Y352422D02*
X803274Y355205D01*
X805376Y353104D02*
X808280Y350200D01*
Y348251D02*
Y350200D01*
Y348251D02*
X808285Y348246D01*
X800140Y358212D02*
X800268D01*
X796315Y360216D02*
X798767Y357764D01*
X799691D01*
X800140Y358212D01*
X800268D02*
X801173Y357307D01*
X732065Y369878D02*
Y373075D01*
X741400Y539354D02*
Y547574D01*
X648038Y374169D02*
Y375074D01*
X648316Y374791D02*
X650950D01*
X651646Y375487D02*
X655763D01*
X650950Y374791D02*
X651646Y375487D01*
X684195Y438415D02*
X684735Y438955D01*
X803956Y365659D02*
X806740Y362875D01*
X803956Y365659D02*
Y378441D01*
X806630Y381114D01*
X818631Y357624D02*
X818976Y357279D01*
X815120Y362847D02*
X818631Y359336D01*
Y357624D02*
Y359336D01*
X809552Y357279D02*
X813076Y353755D01*
X826102D01*
X816512Y364239D02*
X827216Y353535D01*
X686400Y392700D02*
X687354Y393654D01*
X733873Y469945D02*
Y477570D01*
X729751Y465823D02*
X733873Y469945D01*
X729751Y465036D02*
X729802Y464985D01*
Y456036D02*
Y464985D01*
X729751Y465036D02*
Y465823D01*
X682965Y460388D02*
Y461175D01*
X661899Y482241D02*
X682965Y461175D01*
X826102Y353755D02*
X827216Y352642D01*
X809552Y357279D02*
X809552D01*
X805348Y361483D02*
X809552Y357279D01*
X827216Y352642D02*
Y353535D01*
X812308Y368443D02*
X816512Y364239D01*
Y364239D02*
Y364239D01*
X748134Y564924D02*
X751964D01*
X748058Y565000D02*
X748134Y564924D01*
X756400Y541826D02*
X759743Y545169D01*
X719943Y334312D02*
X721400Y332855D01*
Y332826D02*
Y332855D01*
X795693Y527128D02*
X807697D01*
X757001Y367023D02*
X762494Y372516D01*
X742098Y370028D02*
X747900D01*
X750574Y372702D01*
X731400Y354814D02*
X743609Y367023D01*
X757001D01*
X731400Y332826D02*
Y354814D01*
X711581Y458867D02*
X713435D01*
X707924D02*
X711581D01*
X707763Y459028D02*
X707924Y458867D01*
X688899Y453012D02*
X689165D01*
X691082Y454930D02*
X697491D01*
X689165Y453012D02*
X691082Y454930D01*
X709206Y467720D02*
X709239Y467753D01*
X709206Y464601D02*
Y467720D01*
X702317Y461346D02*
Y467753D01*
X697491Y458867D02*
X699837D01*
X702317Y461346D01*
X711573Y458874D02*
X711581Y458867D01*
X711573Y458874D02*
Y462234D01*
X709206Y464601D02*
X711573Y462234D01*
X751400Y348020D02*
X760660Y357279D01*
X751400Y332826D02*
Y348020D01*
X741400Y547574D02*
X746400Y552574D01*
X771400Y536774D02*
Y541826D01*
D15*
X783510Y460624D02*
Y458125D01*
X784010Y457625D01*
X785009D01*
X785509Y458125D01*
Y460624D01*
X786509Y457625D02*
X787509D01*
X787009D01*
Y460624D01*
X786509Y460124D01*
D16*
X876400Y442700D02*
G03*
X876400Y442700I-130000J0D01*
G01*
D19*
X835289Y360715D02*
D03*
X826937Y352363D02*
D03*
D20*
X662710Y448702D02*
D03*
X674520D02*
D03*
D22*
X862523Y428724D02*
D03*
Y456676D02*
D03*
D23*
X840948Y438763D02*
D03*
Y446637D02*
D03*
D26*
X730105Y409298D02*
D03*
X736010D02*
D03*
X791617Y415099D02*
D03*
X785712Y415099D02*
D03*
X762605Y430199D02*
D03*
X756700D02*
D03*
X764627Y441183D02*
D03*
X770533D02*
D03*
X717448Y441244D02*
D03*
X711542D02*
D03*
D27*
X749952Y421516D02*
D03*
D28*
Y416516D02*
D03*
Y411516D02*
D03*
Y406516D02*
D03*
X768563D02*
D03*
Y411516D02*
D03*
Y416516D02*
D03*
Y421516D02*
D03*
D30*
X766888Y472648D02*
D03*
Y468748D02*
D03*
Y457232D02*
D03*
Y453332D02*
D03*
D31*
Y464848D02*
D03*
Y449432D02*
D03*
D32*
X757688Y468748D02*
D03*
Y464848D02*
D03*
Y472648D02*
D03*
Y449432D02*
D03*
Y453332D02*
D03*
Y457232D02*
D03*
D33*
X795460Y440490D02*
D03*
X782560D02*
D03*
D35*
X802225Y444038D02*
D03*
X809508D02*
D03*
D36*
X651800Y412943D02*
D03*
X634871D02*
D03*
D37*
X820688Y368415D02*
D03*
X819296Y367023D02*
D03*
X817904Y365631D02*
D03*
X816512Y364239D02*
D03*
X815120Y362847D02*
D03*
X813728Y361455D02*
D03*
X812336Y360063D02*
D03*
X810944Y358671D02*
D03*
X809552Y357279D02*
D03*
X808160Y355888D02*
D03*
X806768Y354496D02*
D03*
X805376Y353104D02*
D03*
X801173Y357307D02*
D03*
X802565Y358699D02*
D03*
X803956Y360091D02*
D03*
X805348Y361483D02*
D03*
X806740Y362875D02*
D03*
X808132Y364267D02*
D03*
X809524Y365659D02*
D03*
X810916Y367051D02*
D03*
X812308Y368443D02*
D03*
X813700Y369835D02*
D03*
X815092Y371227D02*
D03*
X816484Y372619D02*
D03*
D38*
X646447Y471607D02*
D03*
X630699D02*
D03*
D39*
X850600Y386791D02*
D03*
X839465Y375656D02*
D03*
D40*
X698601Y441244D02*
D03*
X704327D02*
D03*
D51*
X825545Y365506D02*
D03*
X813575Y377477D02*
D03*
X808285Y348246D02*
D03*
X796315Y360216D02*
D03*
D52*
X821370Y373301D02*
D03*
X800490Y352422D02*
D03*
D58*
X625845Y432287D02*
D03*
Y458665D02*
D03*
D59*
X648483Y441539D02*
D03*
Y449413D02*
D03*
D60*
X708747Y467753D02*
D03*
X702842D02*
D03*
X791834Y405495D02*
D03*
X785929D02*
D03*
X754502Y441183D02*
D03*
X747415D02*
D03*
X744373Y471717D02*
D03*
X751460D02*
D03*
X690382Y429041D02*
D03*
X824412Y453800D02*
D03*
X683296Y429041D02*
D03*
X817325Y453800D02*
D03*
D61*
X759434Y480769D02*
D03*
X765930D02*
D03*
X750443Y450170D02*
D03*
X743947D02*
D03*
X730150Y419233D02*
D03*
X736647D02*
D03*
X791946Y424664D02*
D03*
X785450D02*
D03*
X824510Y443841D02*
D03*
X818014D02*
D03*
X691231Y438955D02*
D03*
X684735D02*
D03*
D62*
X689067Y460388D02*
D03*
X682965D02*
D03*
X721652Y425800D02*
D03*
X721877Y415100D02*
D03*
X715549Y425800D02*
D03*
X715774Y415100D02*
D03*
X729607Y475071D02*
D03*
X723504D02*
D03*
X729607Y454694D02*
D03*
X723504D02*
D03*
X729751Y465036D02*
D03*
X723649D02*
D03*
D63*
X697754Y528494D02*
D03*
X691908Y534340D02*
D03*
X683162Y516548D02*
D03*
X689008Y510702D02*
D03*
X695336Y516548D02*
D03*
X689490Y522395D02*
D03*
X648316Y374791D02*
D03*
X654162Y368945D02*
D03*
X663788Y375625D02*
D03*
X669634Y369779D02*
D03*
D64*
X800132Y451125D02*
D03*
Y456125D02*
D03*
Y461125D02*
D03*
X777888D02*
D03*
Y466125D02*
D03*
X800132D02*
D03*
X777888Y456125D02*
D03*
Y451125D02*
D03*
D65*
X713435Y450993D02*
D03*
Y452961D02*
D03*
X713435Y454930D02*
D03*
Y456898D02*
D03*
X713435Y458867D02*
D03*
X697491Y450993D02*
D03*
Y452961D02*
D03*
X697491Y454930D02*
D03*
Y456898D02*
D03*
X697491Y458867D02*
D03*
D66*
X808670Y453800D02*
X817325D01*
X806847Y451977D02*
X808670Y453800D01*
X801660Y451125D02*
X801939Y451405D01*
X805842D02*
X806413Y451977D01*
X806847D01*
X801939Y451405D02*
X805842D01*
X826121Y411120D02*
X840509Y396732D01*
X807041Y430199D02*
X826121Y411120D01*
X717448Y441244D02*
Y447286D01*
X717504Y447229D02*
X724943D01*
X717448Y447286D02*
X717504Y447229D01*
X717448Y447286D02*
Y449821D01*
X835011Y360437D02*
X838351Y363777D01*
Y374542D01*
X827400Y469225D02*
Y492700D01*
X817545Y459370D02*
X827400Y469225D01*
X739743Y447187D02*
X739896Y447034D01*
Y443922D02*
X741682Y442136D01*
X742634Y441183D01*
X739896Y443922D02*
Y447034D01*
X742634Y441183D02*
X747415D01*
X741284Y448513D02*
X743274D01*
X739959Y447187D02*
X741284Y448513D01*
X743947Y449186D02*
Y450170D01*
X743274Y448513D02*
X743947Y449186D01*
X739743Y447187D02*
X739959D01*
X697491Y452137D02*
X698537D01*
X699344D01*
X752662Y435145D02*
X774793D01*
X747884Y439923D02*
X752662Y435145D01*
X774793D02*
X779676Y430262D01*
X817545Y454021D02*
Y459370D01*
X817325Y453800D02*
X817545Y454021D01*
X713435Y450993D02*
X716276D01*
X717448Y449821D01*
X779676Y430262D02*
X806477D01*
X746447Y442614D02*
X747415Y441646D01*
X840509Y379450D02*
Y396732D01*
X838351Y374542D02*
X840578Y376769D01*
X840509Y379450D02*
X840578Y379381D01*
Y376769D02*
Y379381D01*
X747415Y441183D02*
X747884Y440715D01*
Y439923D02*
Y440715D01*
X747415Y441646D02*
Y442614D01*
Y441183D02*
Y441646D01*
X713435Y450993D02*
Y452630D01*
X835011Y360437D02*
Y360437D01*
X800132Y451125D02*
X801660D01*
X800132D02*
Y456125D01*
X802225Y444038D02*
Y450560D01*
X801660Y451125D02*
X802225Y450560D01*
Y443546D02*
Y444038D01*
X795460Y440490D02*
Y441090D01*
X795760Y441390D01*
X800069D01*
X802225Y443546D01*
X698537Y452137D02*
X699344D01*
X695336D02*
X697491D01*
X699344D02*
X699361Y452121D01*
X691901Y448702D02*
X695336Y452137D01*
D67*
X662748Y449058D02*
X663103Y448702D01*
X648838Y449058D02*
X662748D01*
X648483Y449413D02*
X648838Y449058D01*
X674052Y449171D02*
X674520Y448702D01*
X657025Y469761D02*
X674052Y452734D01*
X648294Y469761D02*
X657025D01*
X674052Y449171D02*
Y452734D01*
X674210Y437594D02*
Y440744D01*
Y448702D01*
X646447Y471607D02*
X648294Y469761D01*
X674210Y448702D02*
X691901D01*
X669287Y432672D02*
X674210Y437594D01*
X656963Y432672D02*
X669287D01*
X729014Y433566D02*
X734431Y438983D01*
Y454656D02*
X743245Y463470D01*
X734431Y438983D02*
Y454656D01*
X751460Y471717D02*
X751512Y471665D01*
X743245Y463470D02*
X748306D01*
X751512Y466675D01*
Y471665D01*
X751460Y471717D02*
Y472180D01*
X757688Y458276D02*
Y464848D01*
X636100Y390600D02*
X636168Y411646D01*
X634871Y412943D02*
X636168Y411646D01*
X767144Y451125D02*
X771041D01*
X766888Y451381D02*
X767144Y451125D01*
X771045Y450790D02*
Y451121D01*
X771041Y451125D02*
X771045Y451121D01*
X757688Y451381D02*
X766888D01*
X771041Y451125D02*
X777888D01*
X771045Y442629D02*
Y450790D01*
X716079Y433566D02*
X729014D01*
X701950D02*
X716079D01*
X834666Y437547D02*
Y437901D01*
X835528Y438763D02*
X839465D01*
X834666Y437901D02*
X835528Y438763D01*
X832908Y435790D02*
X834666Y437547D01*
X785805Y435790D02*
X832908D01*
X782860Y438735D02*
Y440190D01*
X776260Y440490D02*
X782560D01*
X782860Y440190D01*
Y438735D02*
X785805Y435790D01*
X698601Y441244D02*
X698986Y440859D01*
X698537Y441308D02*
X698601Y441244D01*
X698986Y436530D02*
Y440859D01*
Y436530D02*
X701950Y433566D01*
X751460Y472180D02*
X751928Y472648D01*
X757688D01*
X777888Y451125D02*
Y456125D01*
X757688Y464848D02*
X766888D01*
X757688D02*
Y468748D01*
X766888Y464848D02*
Y468748D01*
X774491Y442259D02*
X776260Y440490D01*
X771416Y442259D02*
X774491D01*
X771045Y442629D02*
X771416Y442259D01*
X637233Y412943D02*
X656963Y432672D01*
X697300Y452028D02*
X698537Y450790D01*
X698601Y441086D02*
X698601Y441086D01*
X698537Y441308D02*
Y450790D01*
D68*
X811769Y468480D02*
D03*
X810852Y406640D02*
D03*
X694722Y346487D02*
D03*
X687650Y353558D02*
D03*
Y339416D02*
D03*
X680579Y346487D02*
D03*
Y360630D02*
D03*
D69*
X811769Y478480D02*
D03*
X810852Y416640D02*
D03*
D70*
X636100Y390600D02*
D03*
X677400Y377285D02*
D03*
X780646Y366174D02*
D03*
D71*
X656030Y516548D02*
D03*
X688400Y549100D02*
D03*
D72*
X648959Y509477D02*
D03*
X770197Y520495D02*
D03*
X760197D02*
D03*
X720932Y520481D02*
D03*
X730932D02*
D03*
X681329Y542029D02*
D03*
X674258Y534958D02*
D03*
X667187Y527887D02*
D03*
D73*
X750197Y520495D02*
D03*
X710932Y520481D02*
D03*
D74*
X697400Y392700D02*
D03*
X852171Y495929D02*
D03*
X667400Y392700D02*
D03*
X758057Y565000D02*
D03*
X768057D02*
D03*
X687400Y392700D02*
D03*
X707400D02*
D03*
X727400D02*
D03*
X747400D02*
D03*
X757400D02*
D03*
X777400D02*
D03*
X787400D02*
D03*
X797400D02*
D03*
X817400D02*
D03*
X807400D02*
D03*
X767400D02*
D03*
X737400D02*
D03*
X717400D02*
D03*
X677400D02*
D03*
X657400D02*
D03*
X760660Y357279D02*
D03*
X657400Y492700D02*
D03*
X667400D02*
D03*
X677400D02*
D03*
X717400D02*
D03*
X737400D02*
D03*
X767400D02*
D03*
X807400D02*
D03*
X817400D02*
D03*
X797400D02*
D03*
X787400D02*
D03*
X777400D02*
D03*
X757400D02*
D03*
X747400D02*
D03*
X727400D02*
D03*
X707400D02*
D03*
X697400D02*
D03*
X687400D02*
D03*
D75*
X845100Y503000D02*
D03*
D76*
X748058Y565000D02*
D03*
X827400Y392700D02*
D03*
X750660Y357279D02*
D03*
X827400Y492700D02*
D03*
D77*
X673508Y353558D02*
D03*
D78*
X800626Y534199D02*
D03*
D79*
X807697Y541270D02*
D03*
Y527128D02*
D03*
X814769Y534199D02*
D03*
Y520057D02*
D03*
X821840Y512986D02*
D03*
Y527128D02*
D03*
X828911Y520057D02*
D03*
D80*
X787652Y338200D02*
D03*
X705148Y338200D02*
D03*
Y547200D02*
D03*
X787652D02*
D03*
D81*
X726400Y543211D02*
D03*
X810825Y457401D02*
D03*
X806630Y451977D02*
D03*
X809552Y448783D02*
D03*
X643562Y441539D02*
D03*
X648483D02*
D03*
X653273D02*
D03*
X840948Y446637D02*
D03*
X836762D02*
D03*
X845100Y446695D02*
D03*
X759972Y441184D02*
D03*
X787242Y450840D02*
D03*
X792708D02*
D03*
X784604Y454360D02*
D03*
X787042Y458625D02*
D03*
X784765Y461625D02*
D03*
X766888Y464848D02*
D03*
X787242Y465242D02*
D03*
X789388Y454425D02*
D03*
X792354Y458625D02*
D03*
X789388Y461709D02*
D03*
X792887Y465242D02*
D03*
X783270Y517697D02*
D03*
X741400Y552574D02*
D03*
X679392Y408841D02*
D03*
X738569Y403368D02*
D03*
X766400Y552574D02*
D03*
X756400Y552574D02*
D03*
X751400Y552574D02*
D03*
X630699Y471607D02*
D03*
X762494Y372516D02*
D03*
X750574Y372702D02*
D03*
X741900Y373430D02*
D03*
X732065Y373075D02*
D03*
X707931Y478357D02*
D03*
X726400Y552579D02*
D03*
X736400Y552574D02*
D03*
X726400Y343574D02*
D03*
X685299Y475726D02*
D03*
X709991Y474284D02*
D03*
X705148Y475398D02*
D03*
X701920Y478665D02*
D03*
X698601Y475398D02*
D03*
X695000Y479028D02*
D03*
X691707Y475881D02*
D03*
X688700Y479028D02*
D03*
X710125Y446606D02*
D03*
X707736Y460495D02*
D03*
X703826Y446606D02*
D03*
X704106Y457238D02*
D03*
X688899Y453012D02*
D03*
X751400Y332826D02*
D03*
X781400Y332826D02*
D03*
Y343574D02*
D03*
X766400Y332826D02*
D03*
Y343574D02*
D03*
X756400Y332826D02*
D03*
Y343574D02*
D03*
X746400Y332826D02*
D03*
Y343574D02*
D03*
X736400Y332826D02*
D03*
X716400Y332826D02*
D03*
X731400D02*
D03*
X726400Y332826D02*
D03*
X721400Y332826D02*
D03*
X739743Y447187D02*
D03*
X724943Y447229D02*
D03*
X754245Y481234D02*
D03*
X704106Y451125D02*
D03*
X707400Y448827D02*
D03*
X706644Y453776D02*
D03*
X764943Y369611D02*
D03*
X774078Y369508D02*
D03*
X698265Y403526D02*
D03*
X690394Y400341D02*
D03*
X771045Y450790D02*
D03*
X751400Y541826D02*
D03*
X710491Y423540D02*
D03*
X751928Y430156D02*
D03*
X785741Y410265D02*
D03*
X813844Y443975D02*
D03*
X695875Y428010D02*
D03*
X753599Y456458D02*
D03*
X762288Y455481D02*
D03*
X777400Y512986D02*
D03*
X780041Y516086D02*
D03*
X766880Y425800D02*
D03*
X678946Y438415D02*
D03*
X781400Y552574D02*
D03*
Y541826D02*
D03*
X766400D02*
D03*
X761447Y541880D02*
D03*
X746400Y541826D02*
D03*
X756400Y541826D02*
D03*
X731400Y552574D02*
D03*
X721400Y552574D02*
D03*
X756700Y512001D02*
D03*
X741400Y332826D02*
D03*
X771561Y372516D02*
D03*
X743089Y512989D02*
D03*
X761072Y512101D02*
D03*
X739496Y513207D02*
D03*
X711400Y552574D02*
D03*
X716400D02*
D03*
X742098Y377715D02*
D03*
X735961Y372302D02*
D03*
X753255Y370211D02*
D03*
X655763Y375487D02*
D03*
X654162Y412943D02*
D03*
X649160D02*
D03*
X850600Y386791D02*
D03*
X806630Y381114D02*
D03*
X818976Y357279D02*
D03*
X793738Y377897D02*
D03*
X771400Y541826D02*
D03*
X711400Y541826D02*
D03*
X746400Y552574D02*
D03*
X711400Y332826D02*
D03*
X742244Y406516D02*
D03*
X831380Y454021D02*
D03*
X723058Y419839D02*
D03*
X725436Y443447D02*
D03*
X738698Y451322D02*
D03*
X679937Y433566D02*
D03*
M02*
