G04*
G04 #@! TF.GenerationSoftware,Altium Limited,Altium Designer,22.3.1 (43)*
G04*
G04 Layer_Color=16711935*
%FSLAX25Y25*%
%MOIN*%
G70*
G04*
G04 #@! TF.SameCoordinates,40EC2BD7-1702-4D78-AAFC-A13D33BD6AE8*
G04*
G04*
G04 #@! TF.FilePolarity,Negative*
G04*
G01*
G75*
%ADD15C,0.00700*%
%ADD16C,0.00500*%
%ADD21R,0.05937X0.07315*%
%ADD25R,0.05543X0.07118*%
%ADD26R,0.03740X0.05315*%
%ADD42C,0.00000*%
%ADD43C,0.08496*%
%ADD44R,0.08496X0.08496*%
%ADD45C,0.08000*%
%ADD46P,0.11737X4X270.0*%
%ADD47C,0.08299*%
%ADD48R,0.08299X0.08299*%
%ADD49C,0.07984*%
%ADD50P,0.11291X4X360.0*%
G04:AMPARAMS|DCode=51|XSize=55.12mil|YSize=39.37mil|CornerRadius=19.68mil|HoleSize=0mil|Usage=FLASHONLY|Rotation=225.000|XOffset=0mil|YOffset=0mil|HoleType=Round|Shape=RoundedRectangle|*
%AMROUNDEDRECTD51*
21,1,0.05512,0.00000,0,0,225.0*
21,1,0.01575,0.03937,0,0,225.0*
1,1,0.03937,-0.00557,-0.00557*
1,1,0.03937,0.00557,0.00557*
1,1,0.03937,0.00557,0.00557*
1,1,0.03937,-0.00557,-0.00557*
%
%ADD51ROUNDEDRECTD51*%
G04:AMPARAMS|DCode=52|XSize=45.28mil|YSize=29.53mil|CornerRadius=14.76mil|HoleSize=0mil|Usage=FLASHONLY|Rotation=225.000|XOffset=0mil|YOffset=0mil|HoleType=Round|Shape=RoundedRectangle|*
%AMROUNDEDRECTD52*
21,1,0.04528,0.00000,0,0,225.0*
21,1,0.01575,0.02953,0,0,225.0*
1,1,0.02953,-0.00557,-0.00557*
1,1,0.02953,0.00557,0.00557*
1,1,0.02953,0.00557,0.00557*
1,1,0.02953,-0.00557,-0.00557*
%
%ADD52ROUNDEDRECTD52*%
%ADD53R,0.07984X0.07984*%
%ADD54P,0.12015X4X360.0*%
%ADD55P,0.11180X4X360.0*%
%ADD56C,0.07906*%
%ADD57C,0.07512*%
G04:AMPARAMS|DCode=92|XSize=36mil|YSize=48mil|CornerRadius=0mil|HoleSize=0mil|Usage=FLASHONLY|Rotation=225.000|XOffset=0mil|YOffset=0mil|HoleType=Round|Shape=Rectangle|*
%AMROTATEDRECTD92*
4,1,4,-0.00424,0.02970,0.02970,-0.00424,0.00424,-0.02970,-0.02970,0.00424,-0.00424,0.02970,0.0*
%
%ADD92ROTATEDRECTD92*%

%ADD96R,0.05315X0.03740*%
%ADD97R,0.07315X0.05347*%
G04:AMPARAMS|DCode=98|XSize=73.15mil|YSize=59.37mil|CornerRadius=0mil|HoleSize=0mil|Usage=FLASHONLY|Rotation=225.000|XOffset=0mil|YOffset=0mil|HoleType=Round|Shape=Rectangle|*
%AMROTATEDRECTD98*
4,1,4,0.00487,0.04685,0.04685,0.00487,-0.00487,-0.04685,-0.04685,-0.00487,0.00487,0.04685,0.0*
%
%ADD98ROTATEDRECTD98*%

G36*
X783057Y339003D02*
X779743D01*
Y348145D01*
X783057D01*
X783057Y339003D01*
D02*
G37*
G36*
X778057D02*
X774743D01*
Y348145D01*
X778057D01*
Y339003D01*
D02*
G37*
G36*
X773058D02*
X769743D01*
X769743Y348145D01*
X773058D01*
X773058Y339003D01*
D02*
G37*
G36*
X768057D02*
X764743D01*
Y348145D01*
X768057D01*
Y339003D01*
D02*
G37*
G36*
X763058D02*
X759743D01*
X759743Y348145D01*
X763058Y348145D01*
Y339003D01*
D02*
G37*
G36*
X758057D02*
X754743D01*
X754743Y348145D01*
X758057Y348145D01*
Y339003D01*
D02*
G37*
G36*
X753057D02*
X749743D01*
Y348145D01*
X753057D01*
X753057Y339003D01*
D02*
G37*
G36*
X748058D02*
X744743D01*
X744743Y348145D01*
X748058D01*
Y339003D01*
D02*
G37*
G36*
X743057D02*
X739743D01*
Y348145D01*
X743057D01*
Y339003D01*
D02*
G37*
G36*
X738058Y348145D02*
X738058Y339003D01*
X734743D01*
Y348145D01*
X738058Y348145D01*
D02*
G37*
G36*
X733057Y339003D02*
X729743D01*
Y348145D01*
X733057D01*
Y339003D01*
D02*
G37*
G36*
X728057D02*
X724743D01*
X724743Y348145D01*
X728057D01*
Y339003D01*
D02*
G37*
G36*
X723058D02*
X719743D01*
Y348145D01*
X723058D01*
Y339003D01*
D02*
G37*
G36*
X718057D02*
X714743D01*
Y348145D01*
X718057D01*
Y339003D01*
D02*
G37*
G36*
X713058D02*
X709743D01*
X709743Y348145D01*
X713058D01*
Y339003D01*
D02*
G37*
G36*
X783057Y337397D02*
X783057Y328255D01*
X779743D01*
Y337397D01*
X783057Y337397D01*
D02*
G37*
G36*
X778057Y328255D02*
X774743D01*
Y337397D01*
X778057D01*
Y328255D01*
D02*
G37*
G36*
X773058D02*
X769743D01*
X769743Y337397D01*
X773058D01*
Y328255D01*
D02*
G37*
G36*
X768057D02*
X764743D01*
Y337397D01*
X768057D01*
Y328255D01*
D02*
G37*
G36*
X763058D02*
X759743D01*
Y337397D01*
X763058D01*
Y328255D01*
D02*
G37*
G36*
X758057D02*
X754743D01*
X754743Y337397D01*
X758057D01*
Y328255D01*
D02*
G37*
G36*
X753057D02*
X749743D01*
Y337397D01*
X753057D01*
Y328255D01*
D02*
G37*
G36*
X748058D02*
X744743D01*
Y337397D01*
X748058D01*
Y328255D01*
D02*
G37*
G36*
X743057D02*
X739743D01*
Y337397D01*
X743057D01*
X743057Y328255D01*
D02*
G37*
G36*
X738058D02*
X734743D01*
Y337397D01*
X738058D01*
X738058Y328255D01*
D02*
G37*
G36*
X733057D02*
X729743D01*
Y337397D01*
X733057D01*
Y328255D01*
D02*
G37*
G36*
X728057Y337397D02*
X728057Y328255D01*
X724743D01*
Y337397D01*
X728057Y337397D01*
D02*
G37*
G36*
X723058Y328255D02*
X719743D01*
Y337397D01*
X723058D01*
Y328255D01*
D02*
G37*
G36*
X718057D02*
X714743D01*
Y337397D01*
X718057Y337397D01*
Y328255D01*
D02*
G37*
G36*
X713058D02*
X709743D01*
X709743Y337397D01*
X713058Y337397D01*
Y328255D01*
D02*
G37*
G36*
X773058Y548003D02*
X769743D01*
Y557145D01*
X773058D01*
Y548003D01*
D02*
G37*
G36*
X763058D02*
X759743D01*
Y557145D01*
X763058D01*
Y548003D01*
D02*
G37*
G36*
X758057D02*
X754743D01*
X754743Y557145D01*
X758057D01*
Y548003D01*
D02*
G37*
G36*
X748058D02*
X744743D01*
Y557145D01*
X748058D01*
Y548003D01*
D02*
G37*
G36*
X738058D02*
X734743D01*
Y557145D01*
X738058D01*
X738058Y548003D01*
D02*
G37*
G36*
X733057D02*
X729743D01*
Y557145D01*
X733057D01*
Y548003D01*
D02*
G37*
G36*
X723058D02*
X719743D01*
Y557145D01*
X723058D01*
Y548003D01*
D02*
G37*
G36*
X783057D02*
X779743Y548003D01*
Y557145D01*
X783057D01*
X783057Y548003D01*
D02*
G37*
G36*
X778057Y548003D02*
X774743D01*
Y557145D01*
X778057D01*
Y548003D01*
D02*
G37*
G36*
X768057D02*
X764743Y548003D01*
X764743Y557145D01*
X768057D01*
Y548003D01*
D02*
G37*
G36*
X753057D02*
X749743D01*
Y557145D01*
X753057D01*
Y548003D01*
D02*
G37*
G36*
X743057D02*
X739743D01*
X739743Y557145D01*
X743057D01*
Y548003D01*
D02*
G37*
G36*
X728057D02*
X724743D01*
Y557145D01*
X728057D01*
Y548003D01*
D02*
G37*
G36*
X718057D02*
X714743D01*
Y557145D01*
X718057D01*
Y548003D01*
D02*
G37*
G36*
X713058D02*
X709743Y548003D01*
Y557145D01*
X713058D01*
Y548003D01*
D02*
G37*
G36*
X783057Y537255D02*
X779743D01*
Y546397D01*
X783057D01*
X783057Y537255D01*
D02*
G37*
G36*
X778057D02*
X774743D01*
Y546397D01*
X778057D01*
Y537255D01*
D02*
G37*
G36*
X768057D02*
X764743D01*
Y546397D01*
X768057D01*
Y537255D01*
D02*
G37*
G36*
X753057D02*
X749743D01*
Y546397D01*
X753057D01*
Y537255D01*
D02*
G37*
G36*
X743057D02*
X739743D01*
Y546397D01*
X743057D01*
Y537255D01*
D02*
G37*
G36*
X728057D02*
X724743D01*
Y546397D01*
X728057D01*
Y537255D01*
D02*
G37*
G36*
X723058D02*
X719743D01*
X719743Y546397D01*
X723058D01*
X723058Y537255D01*
D02*
G37*
G36*
X718057D02*
X714743D01*
Y546397D01*
X718057D01*
Y537255D01*
D02*
G37*
G36*
X713058D02*
X709743D01*
Y546397D01*
X713058D01*
Y537255D01*
D02*
G37*
G36*
X773058Y537255D02*
X769743D01*
Y546397D01*
X773058D01*
Y537255D01*
D02*
G37*
G36*
X763058D02*
X759743D01*
Y546397D01*
X763058D01*
Y537255D01*
D02*
G37*
G36*
X758057D02*
X754743Y537255D01*
X754743Y546397D01*
X758057D01*
Y537255D01*
D02*
G37*
G36*
X748058Y537255D02*
X744743Y537255D01*
Y546397D01*
X748058D01*
X748058Y537255D01*
D02*
G37*
G36*
X738058D02*
X734743Y537255D01*
Y546397D01*
X738058D01*
X738058Y537255D01*
D02*
G37*
G36*
X733057Y537255D02*
X729743D01*
Y546397D01*
X733057D01*
Y537255D01*
D02*
G37*
D15*
X783510Y460624D02*
Y458125D01*
X784010Y457625D01*
X785009D01*
X785509Y458125D01*
Y460624D01*
X786509Y457625D02*
X787509D01*
X787009D01*
Y460624D01*
X786509Y460124D01*
D16*
X876400Y442700D02*
G03*
X876400Y442700I-130000J0D01*
G01*
D21*
X690248Y419800D02*
D03*
X683162D02*
D03*
X721601Y403400D02*
D03*
X714514D02*
D03*
D25*
X771045Y482738D02*
D03*
X764943D02*
D03*
X705019Y428293D02*
D03*
X711121D02*
D03*
X698366Y418694D02*
D03*
X704468D02*
D03*
D26*
X689792Y408841D02*
D03*
X683886D02*
D03*
D42*
X790609Y338200D02*
G03*
X790609Y338200I-2957J0D01*
G01*
X708105Y338200D02*
G03*
X708105Y338200I-2957J0D01*
G01*
Y547200D02*
G03*
X708105Y547200I-2957J0D01*
G01*
X790609D02*
G03*
X790609Y547200I-2957J0D01*
G01*
D43*
X811769Y468480D02*
D03*
X810852Y406640D02*
D03*
X694722Y346487D02*
D03*
X687650Y353558D02*
D03*
Y339416D02*
D03*
X680579Y346487D02*
D03*
Y360630D02*
D03*
D44*
X811769Y478480D02*
D03*
X810852Y416640D02*
D03*
D45*
X636100Y390600D02*
D03*
X677400Y377285D02*
D03*
X780646Y366174D02*
D03*
D46*
X656030Y516548D02*
D03*
X688400Y549100D02*
D03*
D47*
X648959Y509477D02*
D03*
X770197Y520495D02*
D03*
X760197D02*
D03*
X720932Y520481D02*
D03*
X730932D02*
D03*
X681329Y542029D02*
D03*
X674258Y534958D02*
D03*
X667187Y527887D02*
D03*
D48*
X750197Y520495D02*
D03*
X710932Y520481D02*
D03*
D49*
X697400Y392700D02*
D03*
X852171Y495929D02*
D03*
X667400Y392700D02*
D03*
X758057Y565000D02*
D03*
X768057D02*
D03*
X687400Y392700D02*
D03*
X707400D02*
D03*
X727400D02*
D03*
X747400D02*
D03*
X757400D02*
D03*
X777400D02*
D03*
X787400D02*
D03*
X797400D02*
D03*
X817400D02*
D03*
X807400D02*
D03*
X767400D02*
D03*
X737400D02*
D03*
X717400D02*
D03*
X677400D02*
D03*
X657400D02*
D03*
X760660Y357279D02*
D03*
X657400Y492700D02*
D03*
X667400D02*
D03*
X677400D02*
D03*
X717400D02*
D03*
X737400D02*
D03*
X767400D02*
D03*
X807400D02*
D03*
X817400D02*
D03*
X797400D02*
D03*
X787400D02*
D03*
X777400D02*
D03*
X757400D02*
D03*
X747400D02*
D03*
X727400D02*
D03*
X707400D02*
D03*
X697400D02*
D03*
X687400D02*
D03*
D50*
X845100Y503000D02*
D03*
D51*
X825545Y365506D02*
D03*
X813575Y377477D02*
D03*
X808285Y348246D02*
D03*
X796315Y360216D02*
D03*
D52*
X821370Y373301D02*
D03*
X800490Y352422D02*
D03*
D53*
X748058Y565000D02*
D03*
X827400Y392700D02*
D03*
X750660Y357279D02*
D03*
X827400Y492700D02*
D03*
D54*
X673508Y353558D02*
D03*
D55*
X800626Y534199D02*
D03*
D56*
X807697Y541270D02*
D03*
Y527128D02*
D03*
X814769Y534199D02*
D03*
Y520057D02*
D03*
X821840Y512986D02*
D03*
Y527128D02*
D03*
X828911Y520057D02*
D03*
D57*
X787652Y338200D02*
D03*
X705148Y338200D02*
D03*
Y547200D02*
D03*
X787652D02*
D03*
D92*
X828211Y504221D02*
D03*
X837333Y513343D02*
D03*
D96*
X655825Y403400D02*
D03*
Y409306D02*
D03*
D97*
X786617Y508154D02*
D03*
X756700Y508154D02*
D03*
X777299Y377200D02*
D03*
X680701Y508154D02*
D03*
X746400Y501691D02*
D03*
Y508187D02*
D03*
X756601Y383696D02*
D03*
Y377200D02*
D03*
X716215Y508154D02*
D03*
Y501658D02*
D03*
X736399Y508154D02*
D03*
Y501658D02*
D03*
X680701D02*
D03*
X737093Y383969D02*
D03*
Y377473D02*
D03*
X666646Y508154D02*
D03*
Y501658D02*
D03*
X716464Y383969D02*
D03*
Y377473D02*
D03*
X766400Y508161D02*
D03*
Y501665D02*
D03*
X696132Y508154D02*
D03*
Y501658D02*
D03*
X756700Y501658D02*
D03*
X706752Y383969D02*
D03*
Y377473D02*
D03*
X776503Y508154D02*
D03*
Y501658D02*
D03*
X786617D02*
D03*
X777299Y383696D02*
D03*
X747355Y383883D02*
D03*
Y377387D02*
D03*
X766644Y383884D02*
D03*
Y377387D02*
D03*
X726751Y383969D02*
D03*
Y377473D02*
D03*
X726556Y508154D02*
D03*
Y501658D02*
D03*
D98*
X790228Y374387D02*
D03*
X794404Y370211D02*
D03*
X797249Y381407D02*
D03*
X801425Y377232D02*
D03*
M02*
