G04*
G04 #@! TF.GenerationSoftware,Altium Limited,Altium Designer,22.3.1 (43)*
G04*
G04 Layer_Color=8421504*
%FSLAX25Y25*%
%MOIN*%
G70*
G04*
G04 #@! TF.SameCoordinates,40EC2BD7-1702-4D78-AAFC-A13D33BD6AE8*
G04*
G04*
G04 #@! TF.FilePolarity,Positive*
G04*
G01*
G75*
%ADD15C,0.00700*%
%ADD16C,0.00500*%
%ADD17R,0.15386X0.07906*%
%ADD18R,0.15780X0.05937*%
G04:AMPARAMS|DCode=19|XSize=39.37mil|YSize=62.99mil|CornerRadius=0mil|HoleSize=0mil|Usage=FLASHONLY|Rotation=45.000|XOffset=0mil|YOffset=0mil|HoleType=Round|Shape=Rectangle|*
%AMROTATEDRECTD19*
4,1,4,0.00835,-0.03619,-0.03619,0.00835,-0.00835,0.03619,0.03619,-0.00835,0.00835,-0.03619,0.0*
%
%ADD19ROTATEDRECTD19*%

%ADD20R,0.03937X0.06299*%
%ADD21R,0.05937X0.07315*%
%ADD22R,0.20866X0.06693*%
%ADD23R,0.12598X0.04724*%
%ADD24R,0.05347X0.07315*%
%ADD25R,0.05543X0.07118*%
%ADD26R,0.03740X0.05315*%
%ADD27R,0.08540X0.02292*%
G04:AMPARAMS|DCode=28|XSize=85.4mil|YSize=22.92mil|CornerRadius=11.46mil|HoleSize=0mil|Usage=FLASHONLY|Rotation=0.000|XOffset=0mil|YOffset=0mil|HoleType=Round|Shape=RoundedRectangle|*
%AMROUNDEDRECTD28*
21,1,0.08540,0.00000,0,0,0.0*
21,1,0.06248,0.02292,0,0,0.0*
1,1,0.02292,0.03124,0.00000*
1,1,0.02292,-0.03124,0.00000*
1,1,0.02292,-0.03124,0.00000*
1,1,0.02292,0.03124,0.00000*
%
%ADD28ROUNDEDRECTD28*%
%ADD29P,0.09510X4X180.0*%
%ADD30R,0.02800X0.02000*%
%ADD31R,0.02800X0.02000*%
%ADD32R,0.02800X0.02000*%
%ADD33R,0.03600X0.04800*%
G04:AMPARAMS|DCode=34|XSize=45.59mil|YSize=84.96mil|CornerRadius=11.92mil|HoleSize=0mil|Usage=FLASHONLY|Rotation=90.000|XOffset=0mil|YOffset=0mil|HoleType=Round|Shape=RoundedRectangle|*
%AMROUNDEDRECTD34*
21,1,0.04559,0.06112,0,0,90.0*
21,1,0.02175,0.08496,0,0,90.0*
1,1,0.02384,0.03056,0.01088*
1,1,0.02384,0.03056,-0.01088*
1,1,0.02384,-0.03056,-0.01088*
1,1,0.02384,-0.03056,0.01088*
%
%ADD34ROUNDEDRECTD34*%
%ADD35R,0.03150X0.04134*%
%ADD36R,0.11024X0.06299*%
G04:AMPARAMS|DCode=37|XSize=11.81mil|YSize=37.4mil|CornerRadius=0mil|HoleSize=0mil|Usage=FLASHONLY|Rotation=225.000|XOffset=0mil|YOffset=0mil|HoleType=Round|Shape=Rectangle|*
%AMROTATEDRECTD37*
4,1,4,-0.00905,0.01740,0.01740,-0.00905,0.00905,-0.01740,-0.01740,0.00905,-0.00905,0.01740,0.0*
%
%ADD37ROTATEDRECTD37*%

%ADD38R,0.09843X0.06693*%
G04:AMPARAMS|DCode=39|XSize=98.43mil|YSize=66.93mil|CornerRadius=0mil|HoleSize=0mil|Usage=FLASHONLY|Rotation=45.000|XOffset=0mil|YOffset=0mil|HoleType=Round|Shape=Rectangle|*
%AMROTATEDRECTD39*
4,1,4,-0.01114,-0.05846,-0.05846,-0.01114,0.01114,0.05846,0.05846,0.01114,-0.01114,-0.05846,0.0*
%
%ADD39ROTATEDRECTD39*%

%ADD40R,0.03771X0.04969*%
%ADD41O,0.07709X0.02984*%
D15*
X783510Y460624D02*
Y458125D01*
X784010Y457625D01*
X785009D01*
X785509Y458125D01*
Y460624D01*
X786509Y457625D02*
X787509D01*
X787009D01*
Y460624D01*
X786509Y460124D01*
D16*
X876400Y442700D02*
G03*
X876400Y442700I-130000J0D01*
G01*
D17*
X625845Y432287D02*
D03*
Y458665D02*
D03*
D18*
X648483Y441539D02*
D03*
Y449413D02*
D03*
D19*
X835289Y360715D02*
D03*
X826937Y352363D02*
D03*
D20*
X662710Y448702D02*
D03*
X674520D02*
D03*
D21*
X708747Y467753D02*
D03*
X702842D02*
D03*
X791834Y405495D02*
D03*
X785929D02*
D03*
X754502Y441183D02*
D03*
X747415D02*
D03*
X744373Y471717D02*
D03*
X751460D02*
D03*
X690382Y429041D02*
D03*
X824412Y453800D02*
D03*
X683296Y429041D02*
D03*
X817325Y453800D02*
D03*
D22*
X862523Y428724D02*
D03*
Y456676D02*
D03*
D23*
X840948Y438763D02*
D03*
Y446637D02*
D03*
D24*
X759434Y480769D02*
D03*
X765930D02*
D03*
X750443Y450170D02*
D03*
X743947D02*
D03*
X730150Y419233D02*
D03*
X736647D02*
D03*
X791946Y424664D02*
D03*
X785450D02*
D03*
X824510Y443841D02*
D03*
X818014D02*
D03*
X691231Y438955D02*
D03*
X684735D02*
D03*
D25*
X689067Y460388D02*
D03*
X682965D02*
D03*
X721652Y425800D02*
D03*
X721877Y415100D02*
D03*
X715549Y425800D02*
D03*
X715774Y415100D02*
D03*
X729607Y475071D02*
D03*
X723504D02*
D03*
X729607Y454694D02*
D03*
X723504D02*
D03*
X729751Y465036D02*
D03*
X723649D02*
D03*
D26*
X730105Y409298D02*
D03*
X736010D02*
D03*
X791617Y415099D02*
D03*
X785712Y415099D02*
D03*
X762605Y430199D02*
D03*
X756700D02*
D03*
X764627Y441183D02*
D03*
X770533D02*
D03*
X717448Y441244D02*
D03*
X711542D02*
D03*
D27*
X749952Y421516D02*
D03*
D28*
Y416516D02*
D03*
Y411516D02*
D03*
Y406516D02*
D03*
X768563D02*
D03*
Y411516D02*
D03*
Y416516D02*
D03*
Y421516D02*
D03*
D29*
X697754Y528494D02*
D03*
X691908Y534340D02*
D03*
X683162Y516548D02*
D03*
X689008Y510702D02*
D03*
X695336Y516548D02*
D03*
X689490Y522395D02*
D03*
X648316Y374791D02*
D03*
X654162Y368945D02*
D03*
X663788Y375625D02*
D03*
X669634Y369779D02*
D03*
D30*
X766888Y472648D02*
D03*
Y468748D02*
D03*
Y457232D02*
D03*
Y453332D02*
D03*
D31*
Y464848D02*
D03*
Y449432D02*
D03*
D32*
X757688Y468748D02*
D03*
Y464848D02*
D03*
Y472648D02*
D03*
Y449432D02*
D03*
Y453332D02*
D03*
Y457232D02*
D03*
D33*
X795460Y440490D02*
D03*
X782560D02*
D03*
D34*
X800132Y451125D02*
D03*
Y456125D02*
D03*
Y461125D02*
D03*
X777888D02*
D03*
Y466125D02*
D03*
X800132D02*
D03*
X777888Y456125D02*
D03*
Y451125D02*
D03*
D35*
X802225Y444038D02*
D03*
X809508D02*
D03*
D36*
X651800Y412943D02*
D03*
X634871D02*
D03*
D37*
X820688Y368415D02*
D03*
X819296Y367023D02*
D03*
X817904Y365631D02*
D03*
X816512Y364239D02*
D03*
X815120Y362847D02*
D03*
X813728Y361455D02*
D03*
X812336Y360063D02*
D03*
X810944Y358671D02*
D03*
X809552Y357279D02*
D03*
X808160Y355888D02*
D03*
X806768Y354496D02*
D03*
X805376Y353104D02*
D03*
X801173Y357307D02*
D03*
X802565Y358699D02*
D03*
X803956Y360091D02*
D03*
X805348Y361483D02*
D03*
X806740Y362875D02*
D03*
X808132Y364267D02*
D03*
X809524Y365659D02*
D03*
X810916Y367051D02*
D03*
X812308Y368443D02*
D03*
X813700Y369835D02*
D03*
X815092Y371227D02*
D03*
X816484Y372619D02*
D03*
D38*
X646447Y471607D02*
D03*
X630699D02*
D03*
D39*
X850600Y386791D02*
D03*
X839465Y375656D02*
D03*
D40*
X698601Y441244D02*
D03*
X704327D02*
D03*
D41*
X713435Y450993D02*
D03*
Y452961D02*
D03*
X713435Y454930D02*
D03*
Y456898D02*
D03*
X713435Y458867D02*
D03*
X697491Y450993D02*
D03*
Y452961D02*
D03*
X697491Y454930D02*
D03*
Y456898D02*
D03*
X697491Y458867D02*
D03*
M02*
