M48
;Layer_Color=9474304
;FILE_FORMAT=2:5
INCH,TZ
;TYPE=PLATED
T1F00S00C0.01200
T2F00S00C0.01400
T3F00S00C0.03500
T4F00S00C0.03543
T5F00S00C0.05500
%
T01
X708560Y99620
X681078Y128123
X654826Y153493
X634600Y143742
Y90184
Y37701
X588900Y153700
X556700Y163800
Y133800
X375033Y166102
X360216Y106982
X363713Y92800
X352806Y90362
X375033Y86600
X376194Y70930
X375687Y62599
X339912Y72790
X339819Y83762
X294500Y67400
X269100Y63000
X276500Y84061
X240441Y82244
X220900Y88000
X263841Y119400
X264598Y36611
X338614Y175664
X172153Y129025
X167626Y129517
X152563
X150594Y132233
X154649
X154851Y126466
X150595
X152563Y123908
X165159Y93808
X168351Y43319
X141950Y43511
X118677
X94485
X70550
X48491
X74582Y107147
X78946Y156584
X106700Y129346
X25450Y43511
X56427Y185607
X78280Y213960
X242932Y184400
X286932Y184700
X338614Y185953
X338663Y280117
X338742Y291022
X358233Y295670
X363700Y299885
X365097Y309905
X374792Y295298
X377343Y271402
X364881Y203916
X362563Y194301
X351832Y193423
X374201Y189742
X556700Y193800
X589000Y183800
X588900Y213800
X634600Y195308
X655874
X654451Y246084
X634600Y249782
Y302801
X786047Y302781
X786898Y305865
X787514Y309006
X786779Y312285
X787772Y316134
X786065Y319087
X788423Y321587
X786065Y324500
X788271Y327000
X786065Y330405
X786898Y333850
X784141Y336350
X787239Y274609
X786715Y271452
X787111Y267413
X786760Y263731
X787425Y259485
X788054Y255602
X788802Y252168
X788709Y248492
X785672Y246744
X783993Y243370
X781494Y240808
X778183Y239854
X775327Y242387
X772503Y244000
X770439Y240446
X768091Y238040
X771719Y344807
X775343Y343201
X778797Y341764
X781629Y339264
X681600Y442624
X681803Y446693
X682195Y449868
X680324Y454212
X682939Y456449
X680818Y459900
X681472Y463049
X678635Y466100
X681835Y471287
X684368Y474014
X681835Y477192
X684100Y480221
X681835Y483098
X684100Y485621
X681197Y488167
X680442Y491655
X677898Y493980
X678756Y440167
X676096Y438387
X673522Y435974
X670506Y438651
X667837Y436674
X665115Y439134
X662009Y438365
X659120Y436674
X643870Y437018
X642020Y439909
X640000Y443000
X645900Y434100
X386702Y442531
X383017Y443659
X390477Y489221
X391860Y492121
X317399Y477126
X313993Y478835
X310386Y477126
X305800Y472500
X304407Y468600
X299273
X296032Y467793
X293856Y465446
X293213Y461673
X293872Y458081
X295776Y454400
X292667Y452365
X292288Y448156
X295467Y447106
X296656Y444135
X298721Y441690
X283600Y438370
X334780
X333164Y418064
X247800Y408500
X247500Y405200
X203355Y352182
X276621Y485590
X127900Y469600
X160801Y513438
X161443Y516998
X164900Y517157
X173500Y524900
X129854Y550567
X91502Y550800
X120647Y587298
X269000Y588953
X314152Y549951
X327924Y534170
X297824Y520914
X287527Y517969
X361300Y518260
X364917Y530153
X364304Y534038
X363060Y537074
X364064Y540112
X366203Y542611
X363111Y546014
X363222Y549220
X366654Y549986
X367940Y554973
X372256Y557269
X376597Y558884
X381154Y563109
X383958Y565418
X386154Y562872
X380686Y548928
X370600Y525343
X368084Y527714
X396800Y514700
X404655Y520817
X401700Y503300
X393736Y494969
X660382Y508745
X663443Y507569
X665856Y505467
X668006Y502783
X670506Y500736
X672965Y498688
X675829Y496421
T02
X374968Y173100
X191253Y155560
X187355Y127056
X189479Y88678
X125394Y128735
X57019Y134536
X57172Y142936
X58700Y152752
X39479Y143335
X56100Y98555
X55637Y87532
X55296Y80445
X49031Y75228
X49100Y70600
X32403Y143335
X31621Y194583
X36253
X41700Y194600
X57592Y203655
X146700Y243154
X203555Y279000
X375970Y278821
X300724Y438403
X308837Y541819
X338426Y590355
X377920Y519620
T03
X517345Y46098
Y98618
Y150140
X501645
X485945
Y98618
X501645
Y46098
X485945
Y203658
X501645
Y255401
X485945
Y308698
X501645
X517345
Y255401
Y203658
T04
X60500Y20200
X70500
X80500
X90500
X100500
X110500
X120500
X729300Y29500
Y39500
Y49500
Y59500
Y69500
Y79500
X425156Y87931
X415156
X405156
Y97931
X415156
X425156
X425327Y58312
X415328
X405328
Y48312
X415328
X425327
X424340Y150340
X414340
X404340
Y160340
X414340
X424340
X196661Y172099
X186661
X176661
X176618Y198800
X186618
X190355Y265300
Y275300
X180355
Y265300
X170355
Y275300
X160355
Y265300
X150355
Y275300
X140355
Y265300
X130355
Y275300
X120355
Y265300
X196618Y198800
X404340Y199979
Y189979
X414340
Y199979
X424340
Y189979
X424929Y255231
X414928
X404928
Y265231
X414928
X424929
X424769Y295298
X414769
X404769
Y305298
X414769
X424769
X190555Y353000
Y363000
X180555
Y353000
X170555
Y363000
X160555
Y353000
X150555
Y363000
X140555
Y353000
X130555
Y363000
X120555
Y353000
X124900Y406945
X114900
X104900
X94900
X84900
X74900
X64900
X54900
X44900
X34900
Y429045
X44900
X54900
X64900
X74900
X84900
X94900
X104900
X114900
X124900
X134900
X144900
X154900
X164900
X174900
X184900
Y439045
X174900
X164900
X154900
X144900
X134900
X124900
X114900
X104900
X94900
X84900
X74900
X64900
X54900
X44900
X34900
Y460045
X44900
X54900
X64900
X74900
X84900
X94900
X104900
X114900
X124900
X134900
X144900
X154900
X164900
X174900
X184900
Y406945
X174900
X164900
X154900
X144900
X134900
X24900
X14900
Y429045
X24900
Y439045
X14900
Y460045
X24900
Y560045
X14900
Y581845
X24900
Y591845
X14900
Y613945
X24900
X34900
X44900
X54900
X64900
X74900
X84900
X94900
X104900
X114900
X124900
X134900
X144900
X154900
X164900
X174900
X184900
Y591845
Y581845
X174900
Y591845
X164900
Y581845
X154900
Y591845
X144900
Y581845
X134900
Y591845
X124900
Y581845
X114900
Y591845
X104900
Y581845
X94900
Y591845
X84900
Y581845
X74900
Y591845
X64900
Y581845
X54900
Y591845
X44900
Y581845
X34900
Y591845
Y560045
X44900
X54900
X64900
X74900
X84900
X94900
X104900
X114900
X124900
X134900
X144900
X154900
X164900
X174900
X184900
X253900Y603855
X263900
Y613855
X253900
Y623855
X263900
Y633855
X253900
X341465Y634610
Y624610
Y614610
Y604610
X351465
Y614610
Y624610
Y634610
T05
X531145Y29598
Y82118
Y133640
X472145Y158040
Y106518
Y53998
Y211558
Y263301
Y316598
X531145Y292198
Y238901
Y187158
M30
