M48
;Layer_Color=9474304
;FILE_FORMAT=2:5
INCH,TZ
;TYPE=PLATED
T1F00S00C0.01200
T2F00S00C0.01400
T3F00S00C0.03500
T4F00S00C0.03543
T5F00S00C0.05500
%
T01
X708560Y99620
X681078Y128123
X654826Y153493
X634600Y143742
Y90184
Y37701
X588900Y153700
X556700Y163800
Y133800
X375033Y166102
X360216Y106982
X363713Y92800
X352806Y90362
X375033Y86600
X376194Y70930
X375687Y62599
X339912Y72790
X339819Y83762
X294500Y67400
X269100Y63000
X276500Y84061
X240441Y82244
X220900Y88000
X263841Y119400
X264598Y36611
X338614Y175664
X166445Y128434
X154851Y126466
X150595
X152563Y123908
Y129517
X150594Y132233
X154649
X165159Y93808
X168351Y43319
X141950Y43511
X118677
X94485
X70550
X48491
X74582Y107147
X106700Y129346
X79100Y166500
X25450Y43511
X56427Y185607
X78280Y213960
X242932Y184400
X286932Y184700
X338614Y185953
X338663Y280117
X338742Y291022
X358233Y295670
X363700Y299885
X365097Y309905
X374792Y295298
X377343Y271402
X364881Y203916
X362563Y194301
X351832Y193423
X374201Y189742
X556700Y193800
X589000Y183800
X588900Y213800
X634600Y195308
X655874
X654451Y246084
X634600Y249782
Y302801
X786875Y307429
X787101Y310455
X786840Y313261
X786875Y316134
X787101Y319160
X786966Y322277
X787430Y325039
X787500Y327945
X786560Y330646
X785466Y333345
X783663Y335487
X782242Y337900
X786947Y273055
X786972Y269777
X786568Y266726
X786619Y263590
Y260574
X786972Y256967
X787244Y253443
X787462Y250145
X785445Y247136
X783214Y245233
X780914Y243396
X778125Y242495
X775327Y242387
X772939Y243848
X770639Y242152
X768103Y240963
X773612Y344946
X776116Y343693
X778519Y342081
X780435Y340039
X678669Y441659
X676437Y439755
X674137Y437919
X671348Y437018
X668550Y436909
X666162Y438371
X663862Y436674
X660929
X680599Y444582
X680467Y447966
X680196Y451490
X679842Y455096
Y458113
X679791Y461248
X679842Y464450
Y467250
X680650Y470413
X680494Y473209
X680642Y476314
Y479262
X680868Y482289
X680733Y485406
X681197Y488167
X681267Y491073
X680348Y493718
X640000Y443000
X642020Y439909
X643870Y437018
X645900Y434100
X386702Y442531
X383656Y443201
X390200Y490077
X391860Y492377
X317399Y477126
X313993Y477900
X310386Y477126
X305800Y472500
X304407Y468514
X294155Y466336
X295715Y464009
X293879Y461380
X296120Y459053
X294477Y456513
X293853Y452774
X293039Y449623
X296279Y447513
X296586Y444730
X298357Y442561
X297032Y454453
X283600Y438370
X334780
X333164Y418064
X247800Y408500
X247500Y405200
X203355Y352182
X276621Y485590
X128300Y469200
X160801Y513438
X161443Y516998
X164900Y517157
X173500Y524900
X129854Y550567
X91502Y550800
X120647Y587298
X269000Y588953
X314152Y549951
X327924Y534170
X297824Y520914
X287527Y517969
X361300Y518260
X367699Y527399
X367472Y530426
X364292Y531349
Y534203
X364066Y537229
X364064Y540112
X365742Y542411
X363030Y544423
X365334Y547011
X367664Y549442
X367934Y554873
X372256Y557269
X376597Y558884
X381200Y563109
X383778Y565129
X385954Y562917
X381200Y549442
X396800Y514700
X404655Y520817
X401700Y503300
X393112Y494881
X667380Y508075
X669884Y506821
X672287Y505209
X674202Y503167
X676009Y501028
X677430Y498616
X679233Y496473
T02
X374968Y173100
X193221Y164701
X187355Y127056
X189479Y88678
X125394Y128735
X57560Y142445
X59525Y160555
X43416Y151500
X37710
X56100Y98555
X55637Y87532
X55296Y80445
X49031Y75228
X49100Y70600
X32800Y151400
X31621Y194583
X36253
X41700Y194600
X57592Y203655
X146700Y243154
X203555Y279000
X375970Y278821
X300724Y438403
X308837Y541819
X338426Y590355
X377920Y519620
T03
X517345Y46098
Y98618
Y150140
X501645
X485945
Y98618
X501645
Y46098
X485945
Y203658
X501645
Y255401
X485945
Y308698
X501645
X517345
Y255401
Y203658
T04
X60500Y20200
X70500
X80500
X90500
X100500
X110500
X120500
X729300Y29500
Y39500
Y49500
Y59500
Y69500
Y79500
X425156Y87931
X415156
X405156
Y97931
X415156
X425156
X425327Y58312
X415328
X405328
Y48312
X415328
X425327
X424340Y150340
X414340
X404340
Y160340
X414340
X424340
X190355Y265300
Y275300
X180355
Y265300
X170355
Y275300
X160355
Y265300
X150355
Y275300
X140355
Y265300
X130355
Y275300
X120355
Y265300
X404928Y265231
Y255231
X414928
Y265231
X424929
Y255231
X424769Y295298
X414769
X404769
Y305298
X414769
X424769
X424340Y199979
X414340
X404340
Y189979
X414340
X424340
X190555Y353000
Y363000
X180555
Y353000
X170555
Y363000
X160555
Y353000
X150555
Y363000
X140555
Y353000
X130555
Y363000
X120555
Y353000
X124900Y406945
X114900
X104900
X94900
X84900
X74900
X64900
X54900
X44900
X34900
Y429045
X44900
X54900
X64900
X74900
X84900
X94900
X104900
X114900
X124900
X134900
X144900
X154900
X164900
X174900
X184900
Y439045
X174900
X164900
X154900
X144900
X134900
X124900
X114900
X104900
X94900
X84900
X74900
X64900
X54900
X44900
X34900
Y460045
X44900
X54900
X64900
X74900
X84900
X94900
X104900
X114900
X124900
X134900
X144900
X154900
X164900
X174900
X184900
Y406945
X174900
X164900
X154900
X144900
X134900
X24900
X14900
Y429045
X24900
Y439045
X14900
Y460045
X24900
Y560045
X14900
Y581845
X24900
Y591845
X14900
Y613945
X24900
X34900
X44900
X54900
X64900
X74900
X84900
X94900
X104900
X114900
X124900
X134900
X144900
X154900
X164900
X174900
X184900
Y591845
Y581845
X174900
Y591845
X164900
Y581845
X154900
Y591845
X144900
Y581845
X134900
Y591845
X124900
Y581845
X114900
Y591845
X104900
Y581845
X94900
Y591845
X84900
Y581845
X74900
Y591845
X64900
Y581845
X54900
Y591845
X44900
Y581845
X34900
Y591845
Y560045
X44900
X54900
X64900
X74900
X84900
X94900
X104900
X114900
X124900
X134900
X144900
X154900
X164900
X174900
X184900
X253900Y603855
X263900
Y613855
X253900
Y623855
X263900
Y633855
X253900
X341465Y634610
Y624610
Y614610
Y604610
X351465
Y614610
Y624610
Y634610
T05
X531145Y29598
Y82118
Y133640
X472145Y158040
Y106518
Y53998
Y211558
Y263301
Y316598
X531145Y292198
Y238901
Y187158
M30
