G04*
G04 #@! TF.GenerationSoftware,Altium Limited,Altium Designer,22.3.1 (43)*
G04*
G04 Layer_Color=255*
%FSLAX25Y25*%
%MOIN*%
G70*
G04*
G04 #@! TF.SameCoordinates,40EC2BD7-1702-4D78-AAFC-A13D33BD6AE8*
G04*
G04*
G04 #@! TF.FilePolarity,Positive*
G04*
G01*
G75*
%ADD15C,0.00700*%
%ADD16C,0.00500*%
%ADD26R,0.03740X0.05315*%
G04:AMPARAMS|DCode=51|XSize=55.12mil|YSize=39.37mil|CornerRadius=19.68mil|HoleSize=0mil|Usage=FLASHONLY|Rotation=225.000|XOffset=0mil|YOffset=0mil|HoleType=Round|Shape=RoundedRectangle|*
%AMROUNDEDRECTD51*
21,1,0.05512,0.00000,0,0,225.0*
21,1,0.01575,0.03937,0,0,225.0*
1,1,0.03937,-0.00557,-0.00557*
1,1,0.03937,0.00557,0.00557*
1,1,0.03937,0.00557,0.00557*
1,1,0.03937,-0.00557,-0.00557*
%
%ADD51ROUNDEDRECTD51*%
G04:AMPARAMS|DCode=52|XSize=45.28mil|YSize=29.53mil|CornerRadius=14.76mil|HoleSize=0mil|Usage=FLASHONLY|Rotation=225.000|XOffset=0mil|YOffset=0mil|HoleType=Round|Shape=RoundedRectangle|*
%AMROUNDEDRECTD52*
21,1,0.04528,0.00000,0,0,225.0*
21,1,0.01575,0.02953,0,0,225.0*
1,1,0.02953,-0.00557,-0.00557*
1,1,0.02953,0.00557,0.00557*
1,1,0.02953,0.00557,0.00557*
1,1,0.02953,-0.00557,-0.00557*
%
%ADD52ROUNDEDRECTD52*%
%ADD60R,0.03937X0.05315*%
%ADD62R,0.03543X0.05118*%
%ADD68C,0.06496*%
%ADD69R,0.06496X0.06496*%
%ADD70C,0.06000*%
%ADD71P,0.08908X4X270.0*%
%ADD72C,0.06299*%
%ADD73R,0.06299X0.06299*%
%ADD74C,0.05984*%
%ADD75P,0.08463X4X360.0*%
%ADD76R,0.05984X0.05984*%
%ADD77P,0.09187X4X360.0*%
%ADD78P,0.08352X4X360.0*%
%ADD79C,0.05906*%
%ADD80C,0.05512*%
G04:AMPARAMS|DCode=92|XSize=36mil|YSize=48mil|CornerRadius=0mil|HoleSize=0mil|Usage=FLASHONLY|Rotation=225.000|XOffset=0mil|YOffset=0mil|HoleType=Round|Shape=Rectangle|*
%AMROTATEDRECTD92*
4,1,4,-0.00424,0.02970,0.02970,-0.00424,0.00424,-0.02970,-0.02970,0.00424,-0.00424,0.02970,0.0*
%
%ADD92ROTATEDRECTD92*%

%ADD93R,0.02913X0.08740*%
%ADD94R,0.05315X0.03347*%
G04:AMPARAMS|DCode=95|XSize=53.15mil|YSize=39.37mil|CornerRadius=0mil|HoleSize=0mil|Usage=FLASHONLY|Rotation=225.000|XOffset=0mil|YOffset=0mil|HoleType=Round|Shape=Rectangle|*
%AMROTATEDRECTD95*
4,1,4,0.00487,0.03271,0.03271,0.00487,-0.00487,-0.03271,-0.03271,-0.00487,0.00487,0.03271,0.0*
%
%ADD95ROTATEDRECTD95*%

%ADD96R,0.05315X0.03740*%
D15*
X783510Y460624D02*
Y458125D01*
X784010Y457625D01*
X785009D01*
X785509Y458125D01*
Y460624D01*
X786509Y457625D02*
X787509D01*
X787009D01*
Y460624D01*
X786509Y460124D01*
D16*
X876400Y442700D02*
G03*
X876400Y442700I-130000J0D01*
G01*
D26*
X689792Y408841D02*
D03*
X683886D02*
D03*
D51*
X825545Y365506D02*
D03*
X813575Y377477D02*
D03*
X808285Y348246D02*
D03*
X796315Y360216D02*
D03*
D52*
X821370Y373301D02*
D03*
X800490Y352422D02*
D03*
D60*
X690248Y419800D02*
D03*
X683162D02*
D03*
X721601Y403400D02*
D03*
X714514D02*
D03*
D62*
X771045Y482738D02*
D03*
X764943D02*
D03*
X705019Y428293D02*
D03*
X711121D02*
D03*
X698366Y418694D02*
D03*
X704468D02*
D03*
D68*
X811769Y468480D02*
D03*
X810852Y406640D02*
D03*
X694722Y346487D02*
D03*
X687650Y353558D02*
D03*
Y339416D02*
D03*
X680579Y346487D02*
D03*
Y360630D02*
D03*
D69*
X811769Y478480D02*
D03*
X810852Y416640D02*
D03*
D70*
X636100Y390600D02*
D03*
X677400Y377285D02*
D03*
X780646Y366174D02*
D03*
D71*
X656030Y516548D02*
D03*
X688400Y549100D02*
D03*
D72*
X648959Y509477D02*
D03*
X770197Y520495D02*
D03*
X760197D02*
D03*
X720932Y520481D02*
D03*
X730932D02*
D03*
X681329Y542029D02*
D03*
X674258Y534958D02*
D03*
X667187Y527887D02*
D03*
D73*
X750197Y520495D02*
D03*
X710932Y520481D02*
D03*
D74*
X697400Y392700D02*
D03*
X852171Y495929D02*
D03*
X667400Y392700D02*
D03*
X758057Y565000D02*
D03*
X768057D02*
D03*
X687400Y392700D02*
D03*
X707400D02*
D03*
X727400D02*
D03*
X747400D02*
D03*
X757400D02*
D03*
X777400D02*
D03*
X787400D02*
D03*
X797400D02*
D03*
X817400D02*
D03*
X807400D02*
D03*
X767400D02*
D03*
X737400D02*
D03*
X717400D02*
D03*
X677400D02*
D03*
X657400D02*
D03*
X760660Y357279D02*
D03*
X657400Y492700D02*
D03*
X667400D02*
D03*
X677400D02*
D03*
X717400D02*
D03*
X737400D02*
D03*
X767400D02*
D03*
X807400D02*
D03*
X817400D02*
D03*
X797400D02*
D03*
X787400D02*
D03*
X777400D02*
D03*
X757400D02*
D03*
X747400D02*
D03*
X727400D02*
D03*
X707400D02*
D03*
X697400D02*
D03*
X687400D02*
D03*
D75*
X845100Y503000D02*
D03*
D76*
X748058Y565000D02*
D03*
X827400Y392700D02*
D03*
X750660Y357279D02*
D03*
X827400Y492700D02*
D03*
D77*
X673508Y353558D02*
D03*
D78*
X800626Y534199D02*
D03*
D79*
X807697Y541270D02*
D03*
Y527128D02*
D03*
X814769Y534199D02*
D03*
Y520057D02*
D03*
X821840Y512986D02*
D03*
Y527128D02*
D03*
X828911Y520057D02*
D03*
D80*
X787652Y338200D02*
D03*
X705148Y338200D02*
D03*
Y547200D02*
D03*
X787652D02*
D03*
D92*
X828211Y504221D02*
D03*
X837333Y513343D02*
D03*
D93*
X741400Y552574D02*
D03*
X721400Y343574D02*
D03*
Y552574D02*
D03*
X741400Y332826D02*
D03*
X716400Y541826D02*
D03*
X711400Y332826D02*
D03*
X711400Y343574D02*
D03*
X716400Y332826D02*
D03*
Y343574D02*
D03*
X721400Y332826D02*
D03*
X726400Y332826D02*
D03*
X726400Y343574D02*
D03*
X731400Y332826D02*
D03*
Y343574D02*
D03*
X736400Y332826D02*
D03*
X736400Y343574D02*
D03*
X741400D02*
D03*
X746400Y332826D02*
D03*
Y343574D02*
D03*
X751400Y332826D02*
D03*
X751400Y343574D02*
D03*
X756400Y332826D02*
D03*
Y343574D02*
D03*
X761400Y332826D02*
D03*
X761400Y343574D02*
D03*
X766400Y332826D02*
D03*
Y343574D02*
D03*
X771400Y332826D02*
D03*
Y343574D02*
D03*
X776400Y332826D02*
D03*
Y343574D02*
D03*
X781400Y332826D02*
D03*
Y343574D02*
D03*
Y552574D02*
D03*
Y541826D02*
D03*
X776400Y552574D02*
D03*
Y541826D02*
D03*
X771400Y552574D02*
D03*
Y541826D02*
D03*
X766400Y552574D02*
D03*
Y541826D02*
D03*
X761400Y552574D02*
D03*
Y541826D02*
D03*
X756400Y552574D02*
D03*
Y541826D02*
D03*
X751400Y552574D02*
D03*
Y541826D02*
D03*
X746400Y552574D02*
D03*
X746400Y541826D02*
D03*
X741400Y541826D02*
D03*
X736400Y552574D02*
D03*
Y541826D02*
D03*
X731400Y552574D02*
D03*
X731400Y541826D02*
D03*
X726400Y552574D02*
D03*
Y541826D02*
D03*
X721400Y541826D02*
D03*
X716400Y552574D02*
D03*
X711400D02*
D03*
Y541826D02*
D03*
D94*
X786617Y508154D02*
D03*
X756700Y508154D02*
D03*
X777299Y377200D02*
D03*
X680701Y508154D02*
D03*
X746400Y501691D02*
D03*
Y508187D02*
D03*
X756601Y383696D02*
D03*
Y377200D02*
D03*
X716215Y508154D02*
D03*
Y501658D02*
D03*
X736399Y508154D02*
D03*
Y501658D02*
D03*
X680701D02*
D03*
X737093Y383969D02*
D03*
Y377473D02*
D03*
X666646Y508154D02*
D03*
Y501658D02*
D03*
X716464Y383969D02*
D03*
Y377473D02*
D03*
X766400Y508161D02*
D03*
Y501665D02*
D03*
X696132Y508154D02*
D03*
Y501658D02*
D03*
X756700Y501658D02*
D03*
X706752Y383969D02*
D03*
Y377473D02*
D03*
X776503Y508154D02*
D03*
Y501658D02*
D03*
X786617D02*
D03*
X777299Y383696D02*
D03*
X747355Y383883D02*
D03*
Y377387D02*
D03*
X766644Y383884D02*
D03*
Y377387D02*
D03*
X726751Y383969D02*
D03*
Y377473D02*
D03*
X726556Y508154D02*
D03*
Y501658D02*
D03*
D95*
X790228Y374387D02*
D03*
X794404Y370211D02*
D03*
X797249Y381407D02*
D03*
X801425Y377232D02*
D03*
D96*
X655825Y403400D02*
D03*
Y409306D02*
D03*
M02*
