G04*
G04 #@! TF.GenerationSoftware,Altium Limited,Altium Designer,22.3.1 (43)*
G04*
G04 Layer_Physical_Order=3*
G04 Layer_Color=128*
%FSLAX25Y25*%
%MOIN*%
G70*
G04*
G04 #@! TF.SameCoordinates,40EC2BD7-1702-4D78-AAFC-A13D33BD6AE8*
G04*
G04*
G04 #@! TF.FilePolarity,Negative*
G04*
G01*
G75*
%ADD15C,0.00700*%
%ADD16C,0.00500*%
%ADD82C,0.04000*%
G04:AMPARAMS|DCode=83|XSize=103.307mil|YSize=103.307mil|CornerRadius=0mil|HoleSize=0mil|Usage=FLASHONLY|Rotation=0.000|XOffset=0mil|YOffset=0mil|HoleType=Round|Shape=Relief|Width=10mil|Gap=10mil|Entries=4|*
%AMTHD83*
7,0,0,0.10331,0.08331,0.01000,45*
%
%ADD83THD83*%
%ADD84C,0.07331*%
%ADD85C,0.07000*%
%ADD86C,0.07016*%
%AMTHOVALD87*
21,1,0.01575,0.08362,0,0,225.0*
1,1,0.08362,0.00557,0.00557*
1,1,0.08362,-0.00557,-0.00557*
21,0,0.01575,0.06362,0,0,225.0*
1,0,0.06362,0.00557,0.00557*
1,0,0.06362,-0.00557,-0.00557*
4,0,4,0.00057,0.00557,0.00057,0.04738,0.01057,0.04738,0.01057,0.00557,0.00057,0.00557,0.0*
4,0,4,-0.01057,-0.00557,-0.01057,-0.04738,-0.00057,-0.04738,-0.00057,-0.00557,-0.01057,-0.00557,0.0*
4,0,4,0.00557,0.01057,0.04738,0.01057,0.04738,0.00057,0.00557,0.00057,0.00557,0.01057,0.0*
4,0,4,-0.00557,-0.00057,-0.04738,-0.00057,-0.04738,-0.01057,-0.00557,-0.01057,-0.00557,-0.00057,0.0*
%
%ADD87THOVALD87*%

%AMTHOVALD88*
21,1,0.01575,0.07378,0,0,225.0*
1,1,0.07378,0.00557,0.00557*
1,1,0.07378,-0.00557,-0.00557*
21,0,0.01575,0.05378,0,0,225.0*
1,0,0.05378,0.00557,0.00557*
1,0,0.05378,-0.00557,-0.00557*
4,0,4,0.00057,0.00557,0.00057,0.04246,0.01057,0.04246,0.01057,0.00557,0.00057,0.00557,0.0*
4,0,4,-0.01057,-0.00557,-0.01057,-0.04246,-0.00057,-0.04246,-0.00057,-0.00557,-0.01057,-0.00557,0.0*
4,0,4,0.00557,0.01057,0.04246,0.01057,0.04246,0.00057,0.00557,0.00057,0.00557,0.01057,0.0*
4,0,4,-0.00557,-0.00057,-0.04246,-0.00057,-0.04246,-0.01057,-0.00557,-0.01057,-0.00557,-0.00057,0.0*
%
%ADD88THOVALD88*%

G04:AMPARAMS|DCode=89|XSize=100.157mil|YSize=100.157mil|CornerRadius=0mil|HoleSize=0mil|Usage=FLASHONLY|Rotation=0.000|XOffset=0mil|YOffset=0mil|HoleType=Round|Shape=Relief|Width=10mil|Gap=10mil|Entries=4|*
%AMTHD89*
7,0,0,0.10016,0.08016,0.01000,45*
%
%ADD89THD89*%
%ADD90C,0.08512*%
%ADD91C,0.04400*%
D15*
X783510Y460624D02*
Y458125D01*
X784010Y457625D01*
X785009D01*
X785509Y458125D01*
Y460624D01*
X786509Y457625D02*
X787509D01*
X787009D01*
Y460624D01*
X786509Y460124D01*
D16*
X876400Y442700D02*
G03*
X876400Y442700I-130000J0D01*
G01*
D82*
X746400Y572700D02*
G03*
X616400Y442700I0J-130000D01*
G01*
X876400D02*
G03*
X746400Y572700I-130000J0D01*
G01*
Y312700D02*
G03*
X876400Y442700I0J130000D01*
G01*
X616400D02*
G03*
X746400Y312700I130000J0D01*
G01*
D83*
X811769Y468480D02*
D03*
X648959Y509477D02*
D03*
X694722Y346487D02*
D03*
X687650Y353558D02*
D03*
D84*
X811769Y478480D02*
D03*
X656030Y516548D02*
D03*
X770197Y520495D02*
D03*
X760197D02*
D03*
X750197D02*
D03*
X810852Y416640D02*
D03*
Y406640D02*
D03*
X687650Y339416D02*
D03*
X680579Y346487D02*
D03*
Y360630D02*
D03*
X673508Y353558D02*
D03*
X710932Y520481D02*
D03*
X720932D02*
D03*
X730932D02*
D03*
X681329Y542029D02*
D03*
X688400Y549100D02*
D03*
X674258Y534958D02*
D03*
X667187Y527887D02*
D03*
D85*
X636100Y390600D02*
D03*
X677400Y377285D02*
D03*
X780646Y366174D02*
D03*
D86*
X697400Y392700D02*
D03*
X845100Y503000D02*
D03*
X852171Y495929D02*
D03*
X667400Y392700D02*
D03*
X748058Y565000D02*
D03*
X758057D02*
D03*
X768057D02*
D03*
X687400Y392700D02*
D03*
X707400D02*
D03*
X727400D02*
D03*
X747400D02*
D03*
X757400D02*
D03*
X777400D02*
D03*
X787400D02*
D03*
X797400D02*
D03*
X827400D02*
D03*
X807400D02*
D03*
X767400D02*
D03*
X737400D02*
D03*
X717400D02*
D03*
X677400D02*
D03*
X657400D02*
D03*
X807697Y527128D02*
D03*
X814769Y534199D02*
D03*
Y520057D02*
D03*
X821840Y512986D02*
D03*
Y527128D02*
D03*
X828911Y520057D02*
D03*
X750660Y357279D02*
D03*
X760660D02*
D03*
X657400Y492700D02*
D03*
X667400D02*
D03*
X677400D02*
D03*
X717400D02*
D03*
X737400D02*
D03*
X767400D02*
D03*
X807400D02*
D03*
X827400D02*
D03*
X817400D02*
D03*
X797400D02*
D03*
X787400D02*
D03*
X777400D02*
D03*
X757400D02*
D03*
X747400D02*
D03*
X727400D02*
D03*
X707400D02*
D03*
X697400D02*
D03*
X687400D02*
D03*
D87*
X825545Y365506D02*
D03*
X813575Y377477D02*
D03*
X808285Y348246D02*
D03*
X796315Y360216D02*
D03*
D88*
X821370Y373301D02*
D03*
X800490Y352422D02*
D03*
D89*
X817400Y392700D02*
D03*
X800626Y534199D02*
D03*
X807697Y541270D02*
D03*
D90*
X787652Y338200D02*
D03*
X705148Y338200D02*
D03*
Y547200D02*
D03*
X787652D02*
D03*
D91*
X810825Y457401D02*
D03*
X806630Y451977D02*
D03*
X766888Y464848D02*
D03*
X783270Y517697D02*
D03*
X741400Y552574D02*
D03*
X738569Y403368D02*
D03*
X762494Y372516D02*
D03*
X750574Y372702D02*
D03*
X741900Y373430D02*
D03*
X732065Y373075D02*
D03*
X726400Y552579D02*
D03*
X688899Y453012D02*
D03*
X751400Y332826D02*
D03*
X731400Y332826D02*
D03*
X726400Y332826D02*
D03*
X721400Y332826D02*
D03*
X739743Y447187D02*
D03*
X724943Y447229D02*
D03*
X754245Y481234D02*
D03*
X698265Y403526D02*
D03*
X690394Y400341D02*
D03*
X771045Y450790D02*
D03*
X813844Y443975D02*
D03*
X695875Y428010D02*
D03*
X753599Y456458D02*
D03*
X762288Y455481D02*
D03*
X777400Y512986D02*
D03*
X766880Y425800D02*
D03*
X678946Y438415D02*
D03*
X761447Y541880D02*
D03*
X756400Y541826D02*
D03*
X731400Y552574D02*
D03*
X721400Y552574D02*
D03*
X756700Y512001D02*
D03*
X741400Y332826D02*
D03*
X771561Y372516D02*
D03*
X739496Y513207D02*
D03*
X711400Y552574D02*
D03*
X806630Y381114D02*
D03*
X818976Y357279D02*
D03*
X771400Y541826D02*
D03*
X711400Y541826D02*
D03*
X746400Y552574D02*
D03*
X711400Y332826D02*
D03*
X831380Y454021D02*
D03*
M02*
