G04*
G04 #@! TF.GenerationSoftware,Altium Limited,Altium Designer,22.3.1 (43)*
G04*
G04 Layer_Color=2752767*
%FSLAX25Y25*%
%MOIN*%
G70*
G04*
G04 #@! TF.SameCoordinates,40EC2BD7-1702-4D78-AAFC-A13D33BD6AE8*
G04*
G04*
G04 #@! TF.FilePolarity,Positive*
G04*
G01*
G75*
%ADD15C,0.00700*%
%ADD16C,0.00500*%
%ADD101C,0.00667*%
D15*
X783510Y460624D02*
Y458125D01*
X784010Y457625D01*
X785009D01*
X785509Y458125D01*
Y460624D01*
X786509Y457625D02*
X787509D01*
X787009D01*
Y460624D01*
X786509Y460124D01*
D16*
X876400Y442700D02*
G03*
X876400Y442700I-130000J0D01*
G01*
X809769Y466480D02*
Y470480D01*
X813769D01*
Y466480D01*
X809769D01*
Y476480D02*
Y480480D01*
X813769D01*
Y476480D01*
X809769D01*
X654030Y514548D02*
Y518548D01*
X658030D01*
Y514548D01*
X654030D01*
X646959Y507477D02*
Y511477D01*
X650959D01*
Y507477D01*
X646959D01*
X768197Y518495D02*
Y522495D01*
X772197D01*
Y518495D01*
X768197D01*
X758197D02*
Y522495D01*
X762197D01*
Y518495D01*
X758197D01*
X748197D02*
Y522495D01*
X752197D01*
Y518495D01*
X748197D01*
X808852Y414640D02*
Y418640D01*
X812852D01*
Y414640D01*
X808852D01*
Y404640D02*
Y408640D01*
X812852D01*
Y404640D01*
X808852D01*
X697400Y390700D02*
X695400Y394700D01*
X699400D01*
X697400Y390700D01*
X845100Y501000D02*
X843100Y505000D01*
X847100D01*
X845100Y501000D01*
X852171Y493929D02*
X850171Y497929D01*
X854171D01*
X852171Y493929D01*
X667400Y390700D02*
X665400Y394700D01*
X669400D01*
X667400Y390700D01*
X825545Y363506D02*
X826545Y364506D01*
X827545D01*
X826545Y365506D01*
X827545Y366506D01*
X826545D01*
X825545Y367506D01*
X824545Y366506D01*
X823545D01*
X824545Y365506D01*
X823545Y364506D01*
X824545D01*
X825545Y363506D01*
X813575Y375477D02*
X814575Y376477D01*
X815575D01*
X814575Y377477D01*
X815575Y378477D01*
X814575D01*
X813575Y379477D01*
X812575Y378477D01*
X811575D01*
X812575Y377477D01*
X811575Y376477D01*
X812575D01*
X813575Y375477D01*
X808285Y346246D02*
X809285Y347246D01*
X810285D01*
X809285Y348246D01*
X810285Y349246D01*
X809285D01*
X808285Y350246D01*
X807285Y349246D01*
X806285D01*
X807285Y348246D01*
X806285Y347246D01*
X807285D01*
X808285Y346246D01*
X796315Y358217D02*
X797315Y359216D01*
X798315D01*
X797315Y360216D01*
X798315Y361216D01*
X797315D01*
X796315Y362216D01*
X795315Y361216D01*
X794315D01*
X795315Y360216D01*
X794315Y359216D01*
X795315D01*
X796315Y358217D01*
X819370Y371301D02*
X820370Y373301D01*
X819370Y375301D01*
X821370Y374301D01*
X823370Y375301D01*
X822370Y373301D01*
X823370Y371301D01*
X821370Y372301D01*
X819370Y371301D01*
X798490Y350422D02*
X799490Y352422D01*
X798490Y354422D01*
X800490Y353422D01*
X802491Y354422D01*
X801490Y352422D01*
X802491Y350422D01*
X800490Y351422D01*
X798490Y350422D01*
X748058Y563000D02*
X746058Y567000D01*
X750058D01*
X748058Y563000D01*
X758057D02*
X756058Y567000D01*
X760057D01*
X758057Y563000D01*
X768057D02*
X766057Y567000D01*
X770057D01*
X768057Y563000D01*
X692722Y344487D02*
Y348487D01*
X696722D01*
Y344487D01*
X692722D01*
X685650Y351558D02*
Y355558D01*
X689650D01*
Y351558D01*
X685650D01*
Y337416D02*
Y341416D01*
X689650D01*
Y337416D01*
X685650D01*
X678579Y344487D02*
Y348487D01*
X682579D01*
Y344487D01*
X678579D01*
Y358630D02*
Y362630D01*
X682579D01*
Y358630D01*
X678579D01*
X671508Y351558D02*
Y355558D01*
X675508D01*
Y351558D01*
X671508D01*
X687400Y390700D02*
X685400Y394700D01*
X689400D01*
X687400Y390700D01*
X707400D02*
X705400Y394700D01*
X709400D01*
X707400Y390700D01*
X727400D02*
X725400Y394700D01*
X729400D01*
X727400Y390700D01*
X747400D02*
X745400Y394700D01*
X749400D01*
X747400Y390700D01*
X757400D02*
X755400Y394700D01*
X759400D01*
X757400Y390700D01*
X777400D02*
X775400Y394700D01*
X779400D01*
X777400Y390700D01*
X787400D02*
X785400Y394700D01*
X789400D01*
X787400Y390700D01*
X797400D02*
X795400Y394700D01*
X799400D01*
X797400Y390700D01*
X817400D02*
X815400Y394700D01*
X819400D01*
X817400Y390700D01*
X827400D02*
X825400Y394700D01*
X829400D01*
X827400Y390700D01*
X807400D02*
X805400Y394700D01*
X809400D01*
X807400Y390700D01*
X767400D02*
X765400Y394700D01*
X769400D01*
X767400Y390700D01*
X737400D02*
X735400Y394700D01*
X739400D01*
X737400Y390700D01*
X717400D02*
X715400Y394700D01*
X719400D01*
X717400Y390700D01*
X677400D02*
X675400Y394700D01*
X679400D01*
X677400Y390700D01*
X657400D02*
X655400Y394700D01*
X659400D01*
X657400Y390700D01*
X800626Y532199D02*
X798626Y536199D01*
X802626D01*
X800626Y532199D01*
X807697Y539270D02*
X805698Y543270D01*
X809698D01*
X807697Y539270D01*
Y525128D02*
X805698Y529128D01*
X809698D01*
X807697Y525128D01*
X814769Y532199D02*
X812769Y536199D01*
X816769D01*
X814769Y532199D01*
Y518057D02*
X812769Y522057D01*
X816769D01*
X814769Y518057D01*
X821840Y510986D02*
X819840Y514986D01*
X823840D01*
X821840Y510986D01*
Y525128D02*
X819840Y529128D01*
X823840D01*
X821840Y525128D01*
X828911Y518057D02*
X826911Y522057D01*
X830911D01*
X828911Y518057D01*
X786652Y337200D02*
Y336200D01*
X788652D01*
Y337200D01*
X789652D01*
Y339200D01*
X788652D01*
Y340200D01*
X786652D01*
Y339200D01*
X785652D01*
Y337200D01*
X786652D01*
X704148Y337200D02*
Y336200D01*
X706148D01*
Y337200D01*
X707148D01*
Y339200D01*
X706148D01*
Y340200D01*
X704148D01*
Y339200D01*
X703148D01*
Y337200D01*
X704148D01*
X708932Y518481D02*
Y522481D01*
X712932D01*
Y518481D01*
X708932D01*
X718932D02*
Y522481D01*
X722932D01*
Y518481D01*
X718932D01*
X728932D02*
Y522481D01*
X732932D01*
Y518481D01*
X728932D01*
X750660Y355279D02*
X748660Y359279D01*
X752660D01*
X750660Y355279D01*
X760660D02*
X758660Y359279D01*
X762660D01*
X760660Y355279D01*
X657400Y490700D02*
X655400Y494700D01*
X659400D01*
X657400Y490700D01*
X667400D02*
X665400Y494700D01*
X669400D01*
X667400Y490700D01*
X677400D02*
X675400Y494700D01*
X679400D01*
X677400Y490700D01*
X717400D02*
X715400Y494700D01*
X719400D01*
X717400Y490700D01*
X737400D02*
X735400Y494700D01*
X739400D01*
X737400Y490700D01*
X767400D02*
X765400Y494700D01*
X769400D01*
X767400Y490700D01*
X807400D02*
X805400Y494700D01*
X809400D01*
X807400Y490700D01*
X827400D02*
X825400Y494700D01*
X829400D01*
X827400Y490700D01*
X817400D02*
X815400Y494700D01*
X819400D01*
X817400Y490700D01*
X797400D02*
X795400Y494700D01*
X799400D01*
X797400Y490700D01*
X787400D02*
X785400Y494700D01*
X789400D01*
X787400Y490700D01*
X777400D02*
X775400Y494700D01*
X779400D01*
X777400Y490700D01*
X757400D02*
X755400Y494700D01*
X759400D01*
X757400Y490700D01*
X747400D02*
X745400Y494700D01*
X749400D01*
X747400Y490700D01*
X727400D02*
X725400Y494700D01*
X729400D01*
X727400Y490700D01*
X707400D02*
X705400Y494700D01*
X709400D01*
X707400Y490700D01*
X697400D02*
X695400Y494700D01*
X699400D01*
X697400Y490700D01*
X687400D02*
X685400Y494700D01*
X689400D01*
X687400Y490700D01*
X704148Y546200D02*
Y545200D01*
X706148D01*
Y546200D01*
X707148D01*
Y548200D01*
X706148D01*
Y549200D01*
X704148D01*
Y548200D01*
X703148D01*
Y546200D01*
X704148D01*
X786652D02*
Y545200D01*
X788652D01*
Y546200D01*
X789652D01*
Y548200D01*
X788652D01*
Y549200D01*
X786652D01*
Y548200D01*
X785652D01*
Y546200D01*
X786652D01*
X679329Y540029D02*
Y544029D01*
X683329D01*
Y540029D01*
X679329D01*
X686400Y547100D02*
Y551100D01*
X690400D01*
Y547100D01*
X686400D01*
X672258Y532958D02*
Y536958D01*
X676258D01*
Y532958D01*
X672258D01*
X665187Y525887D02*
Y529887D01*
X669187D01*
Y525887D01*
X665187D01*
X724400Y541211D02*
X725400D01*
X726400Y542211D01*
X727400Y541211D01*
X728400D01*
Y542211D01*
X727400Y543211D01*
X728400Y544211D01*
Y545211D01*
X727400D01*
X726400Y544211D01*
X725400Y545211D01*
X724400D01*
Y544211D01*
X725400Y543211D01*
X724400Y542211D01*
Y541211D01*
X808825Y455401D02*
X809825D01*
X810825Y456400D01*
X811825Y455401D01*
X812825D01*
Y456400D01*
X811825Y457401D01*
X812825Y458400D01*
Y459401D01*
X811825D01*
X810825Y458400D01*
X809825Y459401D01*
X808825D01*
Y458400D01*
X809825Y457401D01*
X808825Y456400D01*
Y455401D01*
X804630Y449977D02*
X805630D01*
X806630Y450977D01*
X807630Y449977D01*
X808630D01*
Y450977D01*
X807630Y451977D01*
X808630Y452977D01*
Y453977D01*
X807630D01*
X806630Y452977D01*
X805630Y453977D01*
X804630D01*
Y452977D01*
X805630Y451977D01*
X804630Y450977D01*
Y449977D01*
X807552Y446783D02*
X808552D01*
X809552Y447783D01*
X810552Y446783D01*
X811552D01*
Y447783D01*
X810552Y448783D01*
X811552Y449783D01*
Y450783D01*
X810552D01*
X809552Y449783D01*
X808552Y450783D01*
X807552D01*
Y449783D01*
X808552Y448783D01*
X807552Y447783D01*
Y446783D01*
X641562Y439539D02*
X642561D01*
X643562Y440539D01*
X644561Y439539D01*
X645562D01*
Y440539D01*
X644561Y441539D01*
X645562Y442539D01*
Y443539D01*
X644561D01*
X643562Y442539D01*
X642561Y443539D01*
X641562D01*
Y442539D01*
X642561Y441539D01*
X641562Y440539D01*
Y439539D01*
X646483D02*
X647483D01*
X648483Y440539D01*
X649483Y439539D01*
X650483D01*
Y440539D01*
X649483Y441539D01*
X650483Y442539D01*
Y443539D01*
X649483D01*
X648483Y442539D01*
X647483Y443539D01*
X646483D01*
Y442539D01*
X647483Y441539D01*
X646483Y440539D01*
Y439539D01*
X651273D02*
X652273D01*
X653273Y440539D01*
X654273Y439539D01*
X655273D01*
Y440539D01*
X654273Y441539D01*
X655273Y442539D01*
Y443539D01*
X654273D01*
X653273Y442539D01*
X652273Y443539D01*
X651273D01*
Y442539D01*
X652273Y441539D01*
X651273Y440539D01*
Y439539D01*
X838948Y444637D02*
X839948D01*
X840948Y445637D01*
X841948Y444637D01*
X842948D01*
Y445637D01*
X841948Y446637D01*
X842948Y447637D01*
Y448637D01*
X841948D01*
X840948Y447637D01*
X839948Y448637D01*
X838948D01*
Y447637D01*
X839948Y446637D01*
X838948Y445637D01*
Y444637D01*
X834762D02*
X835762D01*
X836762Y445637D01*
X837762Y444637D01*
X838762D01*
Y445637D01*
X837762Y446637D01*
X838762Y447637D01*
Y448637D01*
X837762D01*
X836762Y447637D01*
X835762Y448637D01*
X834762D01*
Y447637D01*
X835762Y446637D01*
X834762Y445637D01*
Y444637D01*
X843100Y444695D02*
X844100D01*
X845100Y445695D01*
X846100Y444695D01*
X847100D01*
Y445695D01*
X846100Y446695D01*
X847100Y447695D01*
Y448695D01*
X846100D01*
X845100Y447695D01*
X844100Y448695D01*
X843100D01*
Y447695D01*
X844100Y446695D01*
X843100Y445695D01*
Y444695D01*
X757972Y439184D02*
X758972D01*
X759972Y440183D01*
X760972Y439184D01*
X761972D01*
Y440183D01*
X760972Y441184D01*
X761972Y442183D01*
Y443184D01*
X760972D01*
X759972Y442183D01*
X758972Y443184D01*
X757972D01*
Y442183D01*
X758972Y441184D01*
X757972Y440183D01*
Y439184D01*
X785242Y448840D02*
X786242D01*
X787242Y449839D01*
X788242Y448840D01*
X789242D01*
Y449839D01*
X788242Y450840D01*
X789242Y451839D01*
Y452840D01*
X788242D01*
X787242Y451839D01*
X786242Y452840D01*
X785242D01*
Y451839D01*
X786242Y450840D01*
X785242Y449839D01*
Y448840D01*
X790708D02*
X791708D01*
X792708Y449839D01*
X793708Y448840D01*
X794708D01*
Y449839D01*
X793708Y450840D01*
X794708Y451839D01*
Y452840D01*
X793708D01*
X792708Y451839D01*
X791708Y452840D01*
X790708D01*
Y451839D01*
X791708Y450840D01*
X790708Y449839D01*
Y448840D01*
X782604Y452360D02*
X783604D01*
X784604Y453360D01*
X785604Y452360D01*
X786604D01*
Y453360D01*
X785604Y454360D01*
X786604Y455360D01*
Y456360D01*
X785604D01*
X784604Y455360D01*
X783604Y456360D01*
X782604D01*
Y455360D01*
X783604Y454360D01*
X782604Y453360D01*
Y452360D01*
X785042Y456625D02*
X786041D01*
X787042Y457625D01*
X788041Y456625D01*
X789042D01*
Y457625D01*
X788041Y458625D01*
X789042Y459625D01*
Y460625D01*
X788041D01*
X787042Y459625D01*
X786041Y460625D01*
X785042D01*
Y459625D01*
X786041Y458625D01*
X785042Y457625D01*
Y456625D01*
X782765Y459625D02*
X783765D01*
X784765Y460625D01*
X785765Y459625D01*
X786765D01*
Y460625D01*
X785765Y461625D01*
X786765Y462625D01*
Y463625D01*
X785765D01*
X784765Y462625D01*
X783765Y463625D01*
X782765D01*
Y462625D01*
X783765Y461625D01*
X782765Y460625D01*
Y459625D01*
X764888Y462848D02*
X765888D01*
X766888Y463848D01*
X767888Y462848D01*
X768888D01*
Y463848D01*
X767888Y464848D01*
X768888Y465848D01*
Y466848D01*
X767888D01*
X766888Y465848D01*
X765888Y466848D01*
X764888D01*
Y465848D01*
X765888Y464848D01*
X764888Y463848D01*
Y462848D01*
X785242Y463242D02*
X786242D01*
X787242Y464242D01*
X788242Y463242D01*
X789242D01*
Y464242D01*
X788242Y465242D01*
X789242Y466242D01*
Y467242D01*
X788242D01*
X787242Y466242D01*
X786242Y467242D01*
X785242D01*
Y466242D01*
X786242Y465242D01*
X785242Y464242D01*
Y463242D01*
X787388Y452425D02*
X788388D01*
X789388Y453425D01*
X790388Y452425D01*
X791388D01*
Y453425D01*
X790388Y454425D01*
X791388Y455425D01*
Y456425D01*
X790388D01*
X789388Y455425D01*
X788388Y456425D01*
X787388D01*
Y455425D01*
X788388Y454425D01*
X787388Y453425D01*
Y452425D01*
X790354Y456625D02*
X791354D01*
X792354Y457625D01*
X793354Y456625D01*
X794354D01*
Y457625D01*
X793354Y458625D01*
X794354Y459625D01*
Y460625D01*
X793354D01*
X792354Y459625D01*
X791354Y460625D01*
X790354D01*
Y459625D01*
X791354Y458625D01*
X790354Y457625D01*
Y456625D01*
X787388Y459709D02*
X788388D01*
X789388Y460709D01*
X790388Y459709D01*
X791388D01*
Y460709D01*
X790388Y461709D01*
X791388Y462709D01*
Y463709D01*
X790388D01*
X789388Y462709D01*
X788388Y463709D01*
X787388D01*
Y462709D01*
X788388Y461709D01*
X787388Y460709D01*
Y459709D01*
X790887Y463242D02*
X791887D01*
X792887Y464242D01*
X793887Y463242D01*
X794887D01*
Y464242D01*
X793887Y465242D01*
X794887Y466242D01*
Y467242D01*
X793887D01*
X792887Y466242D01*
X791887Y467242D01*
X790887D01*
Y466242D01*
X791887Y465242D01*
X790887Y464242D01*
Y463242D01*
X781270Y515697D02*
X782270D01*
X783270Y516698D01*
X784270Y515697D01*
X785270D01*
Y516698D01*
X784270Y517697D01*
X785270Y518698D01*
Y519698D01*
X784270D01*
X783270Y518698D01*
X782270Y519698D01*
X781270D01*
Y518698D01*
X782270Y517697D01*
X781270Y516698D01*
Y515697D01*
X739400Y550574D02*
X740400D01*
X741400Y551574D01*
X742400Y550574D01*
X743400D01*
Y551574D01*
X742400Y552574D01*
X743400Y553574D01*
Y554574D01*
X742400D01*
X741400Y553574D01*
X740400Y554574D01*
X739400D01*
Y553574D01*
X740400Y552574D01*
X739400Y551574D01*
Y550574D01*
X677392Y406841D02*
X678392D01*
X679392Y407841D01*
X680392Y406841D01*
X681392D01*
Y407841D01*
X680392Y408841D01*
X681392Y409841D01*
Y410841D01*
X680392D01*
X679392Y409841D01*
X678392Y410841D01*
X677392D01*
Y409841D01*
X678392Y408841D01*
X677392Y407841D01*
Y406841D01*
X736569Y401368D02*
X737569D01*
X738569Y402368D01*
X739569Y401368D01*
X740569D01*
Y402368D01*
X739569Y403368D01*
X740569Y404368D01*
Y405368D01*
X739569D01*
X738569Y404368D01*
X737569Y405368D01*
X736569D01*
Y404368D01*
X737569Y403368D01*
X736569Y402368D01*
Y401368D01*
X764400Y550574D02*
X765400D01*
X766400Y551574D01*
X767400Y550574D01*
X768400D01*
Y551574D01*
X767400Y552574D01*
X768400Y553574D01*
Y554574D01*
X767400D01*
X766400Y553574D01*
X765400Y554574D01*
X764400D01*
Y553574D01*
X765400Y552574D01*
X764400Y551574D01*
Y550574D01*
X754400Y550574D02*
X755400D01*
X756400Y551574D01*
X757400Y550574D01*
X758400D01*
Y551574D01*
X757400Y552574D01*
X758400Y553574D01*
Y554574D01*
X757400D01*
X756400Y553574D01*
X755400Y554574D01*
X754400D01*
Y553574D01*
X755400Y552574D01*
X754400Y551574D01*
Y550574D01*
X749400Y550574D02*
X750400D01*
X751400Y551574D01*
X752400Y550574D01*
X753400D01*
Y551574D01*
X752400Y552574D01*
X753400Y553574D01*
Y554574D01*
X752400D01*
X751400Y553574D01*
X750400Y554574D01*
X749400D01*
Y553574D01*
X750400Y552574D01*
X749400Y551574D01*
Y550574D01*
X628699Y469607D02*
X629699D01*
X630699Y470607D01*
X631699Y469607D01*
X632699D01*
Y470607D01*
X631699Y471607D01*
X632699Y472607D01*
Y473607D01*
X631699D01*
X630699Y472607D01*
X629699Y473607D01*
X628699D01*
Y472607D01*
X629699Y471607D01*
X628699Y470607D01*
Y469607D01*
X760494Y370516D02*
X761494D01*
X762494Y371516D01*
X763494Y370516D01*
X764494D01*
Y371516D01*
X763494Y372516D01*
X764494Y373516D01*
Y374516D01*
X763494D01*
X762494Y373516D01*
X761494Y374516D01*
X760494D01*
Y373516D01*
X761494Y372516D01*
X760494Y371516D01*
Y370516D01*
X748574Y370702D02*
X749574D01*
X750574Y371702D01*
X751574Y370702D01*
X752574D01*
Y371702D01*
X751574Y372702D01*
X752574Y373702D01*
Y374702D01*
X751574D01*
X750574Y373702D01*
X749574Y374702D01*
X748574D01*
Y373702D01*
X749574Y372702D01*
X748574Y371702D01*
Y370702D01*
X739900Y371430D02*
X740900D01*
X741900Y372430D01*
X742900Y371430D01*
X743900D01*
Y372430D01*
X742900Y373430D01*
X743900Y374430D01*
Y375430D01*
X742900D01*
X741900Y374430D01*
X740900Y375430D01*
X739900D01*
Y374430D01*
X740900Y373430D01*
X739900Y372430D01*
Y371430D01*
X730065Y371075D02*
X731066D01*
X732065Y372075D01*
X733066Y371075D01*
X734065D01*
Y372075D01*
X733066Y373075D01*
X734065Y374075D01*
Y375075D01*
X733066D01*
X732065Y374075D01*
X731066Y375075D01*
X730065D01*
Y374075D01*
X731066Y373075D01*
X730065Y372075D01*
Y371075D01*
X705931Y476357D02*
X706930D01*
X707931Y477357D01*
X708930Y476357D01*
X709931D01*
Y477357D01*
X708930Y478357D01*
X709931Y479357D01*
Y480357D01*
X708930D01*
X707931Y479357D01*
X706930Y480357D01*
X705931D01*
Y479357D01*
X706930Y478357D01*
X705931Y477357D01*
Y476357D01*
X724400Y550579D02*
X725400D01*
X726400Y551579D01*
X727400Y550579D01*
X728400D01*
Y551579D01*
X727400Y552579D01*
X728400Y553579D01*
Y554579D01*
X727400D01*
X726400Y553579D01*
X725400Y554579D01*
X724400D01*
Y553579D01*
X725400Y552579D01*
X724400Y551579D01*
Y550579D01*
X734400Y550574D02*
X735400D01*
X736400Y551574D01*
X737400Y550574D01*
X738400D01*
Y551574D01*
X737400Y552574D01*
X738400Y553574D01*
Y554574D01*
X737400D01*
X736400Y553574D01*
X735400Y554574D01*
X734400D01*
Y553574D01*
X735400Y552574D01*
X734400Y551574D01*
Y550574D01*
X724400Y341574D02*
X725400D01*
X726400Y342574D01*
X727400Y341574D01*
X728400D01*
Y342574D01*
X727400Y343574D01*
X728400Y344574D01*
Y345574D01*
X727400D01*
X726400Y344574D01*
X725400Y345574D01*
X724400D01*
Y344574D01*
X725400Y343574D01*
X724400Y342574D01*
Y341574D01*
X683299Y473726D02*
X684299D01*
X685299Y474726D01*
X686299Y473726D01*
X687299D01*
Y474726D01*
X686299Y475726D01*
X687299Y476726D01*
Y477726D01*
X686299D01*
X685299Y476726D01*
X684299Y477726D01*
X683299D01*
Y476726D01*
X684299Y475726D01*
X683299Y474726D01*
Y473726D01*
X707991Y472284D02*
X708990D01*
X709991Y473284D01*
X710990Y472284D01*
X711990D01*
Y473284D01*
X710990Y474284D01*
X711990Y475284D01*
Y476284D01*
X710990D01*
X709991Y475284D01*
X708990Y476284D01*
X707991D01*
Y475284D01*
X708990Y474284D01*
X707991Y473284D01*
Y472284D01*
X703148Y473398D02*
X704148D01*
X705148Y474398D01*
X706148Y473398D01*
X707148D01*
Y474398D01*
X706148Y475398D01*
X707148Y476398D01*
Y477398D01*
X706148D01*
X705148Y476398D01*
X704148Y477398D01*
X703148D01*
Y476398D01*
X704148Y475398D01*
X703148Y474398D01*
Y473398D01*
X699920Y476665D02*
X700920D01*
X701920Y477665D01*
X702920Y476665D01*
X703920D01*
Y477665D01*
X702920Y478665D01*
X703920Y479665D01*
Y480665D01*
X702920D01*
X701920Y479665D01*
X700920Y480665D01*
X699920D01*
Y479665D01*
X700920Y478665D01*
X699920Y477665D01*
Y476665D01*
X696601Y473398D02*
X697601D01*
X698601Y474398D01*
X699601Y473398D01*
X700601D01*
Y474398D01*
X699601Y475398D01*
X700601Y476398D01*
Y477398D01*
X699601D01*
X698601Y476398D01*
X697601Y477398D01*
X696601D01*
Y476398D01*
X697601Y475398D01*
X696601Y474398D01*
Y473398D01*
X693000Y477028D02*
X694000D01*
X695000Y478028D01*
X696000Y477028D01*
X697000D01*
Y478028D01*
X696000Y479028D01*
X697000Y480028D01*
Y481028D01*
X696000D01*
X695000Y480028D01*
X694000Y481028D01*
X693000D01*
Y480028D01*
X694000Y479028D01*
X693000Y478028D01*
Y477028D01*
X689707Y473881D02*
X690706D01*
X691707Y474881D01*
X692706Y473881D01*
X693707D01*
Y474881D01*
X692706Y475881D01*
X693707Y476881D01*
Y477881D01*
X692706D01*
X691707Y476881D01*
X690706Y477881D01*
X689707D01*
Y476881D01*
X690706Y475881D01*
X689707Y474881D01*
Y473881D01*
X686700Y477028D02*
X687700D01*
X688700Y478028D01*
X689700Y477028D01*
X690700D01*
Y478028D01*
X689700Y479028D01*
X690700Y480028D01*
Y481028D01*
X689700D01*
X688700Y480028D01*
X687700Y481028D01*
X686700D01*
Y480028D01*
X687700Y479028D01*
X686700Y478028D01*
Y477028D01*
X708125Y444606D02*
X709125D01*
X710125Y445606D01*
X711125Y444606D01*
X712125D01*
Y445606D01*
X711125Y446606D01*
X712125Y447606D01*
Y448606D01*
X711125D01*
X710125Y447606D01*
X709125Y448606D01*
X708125D01*
Y447606D01*
X709125Y446606D01*
X708125Y445606D01*
Y444606D01*
X705736Y458495D02*
X706736D01*
X707736Y459495D01*
X708736Y458495D01*
X709736D01*
Y459495D01*
X708736Y460495D01*
X709736Y461495D01*
Y462495D01*
X708736D01*
X707736Y461495D01*
X706736Y462495D01*
X705736D01*
Y461495D01*
X706736Y460495D01*
X705736Y459495D01*
Y458495D01*
X701826Y444606D02*
X702826D01*
X703826Y445606D01*
X704826Y444606D01*
X705826D01*
Y445606D01*
X704826Y446606D01*
X705826Y447606D01*
Y448606D01*
X704826D01*
X703826Y447606D01*
X702826Y448606D01*
X701826D01*
Y447606D01*
X702826Y446606D01*
X701826Y445606D01*
Y444606D01*
X702106Y455238D02*
X703106D01*
X704106Y456238D01*
X705106Y455238D01*
X706106D01*
Y456238D01*
X705106Y457238D01*
X706106Y458238D01*
Y459238D01*
X705106D01*
X704106Y458238D01*
X703106Y459238D01*
X702106D01*
Y458238D01*
X703106Y457238D01*
X702106Y456238D01*
Y455238D01*
X686899Y451012D02*
X687899D01*
X688899Y452012D01*
X689899Y451012D01*
X690899D01*
Y452012D01*
X689899Y453012D01*
X690899Y454012D01*
Y455012D01*
X689899D01*
X688899Y454012D01*
X687899Y455012D01*
X686899D01*
Y454012D01*
X687899Y453012D01*
X686899Y452012D01*
Y451012D01*
X749400Y330826D02*
X750400D01*
X751400Y331826D01*
X752400Y330826D01*
X753400D01*
Y331826D01*
X752400Y332826D01*
X753400Y333826D01*
Y334826D01*
X752400D01*
X751400Y333826D01*
X750400Y334826D01*
X749400D01*
Y333826D01*
X750400Y332826D01*
X749400Y331826D01*
Y330826D01*
X779400Y330826D02*
X780400D01*
X781400Y331826D01*
X782400Y330826D01*
X783400D01*
Y331826D01*
X782400Y332826D01*
X783400Y333826D01*
Y334826D01*
X782400D01*
X781400Y333826D01*
X780400Y334826D01*
X779400D01*
Y333826D01*
X780400Y332826D01*
X779400Y331826D01*
Y330826D01*
Y341574D02*
X780400D01*
X781400Y342574D01*
X782400Y341574D01*
X783400D01*
Y342574D01*
X782400Y343574D01*
X783400Y344574D01*
Y345574D01*
X782400D01*
X781400Y344574D01*
X780400Y345574D01*
X779400D01*
Y344574D01*
X780400Y343574D01*
X779400Y342574D01*
Y341574D01*
X764400Y330826D02*
X765400D01*
X766400Y331826D01*
X767400Y330826D01*
X768400D01*
Y331826D01*
X767400Y332826D01*
X768400Y333826D01*
Y334826D01*
X767400D01*
X766400Y333826D01*
X765400Y334826D01*
X764400D01*
Y333826D01*
X765400Y332826D01*
X764400Y331826D01*
Y330826D01*
Y341574D02*
X765400D01*
X766400Y342574D01*
X767400Y341574D01*
X768400D01*
Y342574D01*
X767400Y343574D01*
X768400Y344574D01*
Y345574D01*
X767400D01*
X766400Y344574D01*
X765400Y345574D01*
X764400D01*
Y344574D01*
X765400Y343574D01*
X764400Y342574D01*
Y341574D01*
X754400Y330826D02*
X755400D01*
X756400Y331826D01*
X757400Y330826D01*
X758400D01*
Y331826D01*
X757400Y332826D01*
X758400Y333826D01*
Y334826D01*
X757400D01*
X756400Y333826D01*
X755400Y334826D01*
X754400D01*
Y333826D01*
X755400Y332826D01*
X754400Y331826D01*
Y330826D01*
Y341574D02*
X755400D01*
X756400Y342574D01*
X757400Y341574D01*
X758400D01*
Y342574D01*
X757400Y343574D01*
X758400Y344574D01*
Y345574D01*
X757400D01*
X756400Y344574D01*
X755400Y345574D01*
X754400D01*
Y344574D01*
X755400Y343574D01*
X754400Y342574D01*
Y341574D01*
X744400Y330826D02*
X745400D01*
X746400Y331826D01*
X747400Y330826D01*
X748400D01*
Y331826D01*
X747400Y332826D01*
X748400Y333826D01*
Y334826D01*
X747400D01*
X746400Y333826D01*
X745400Y334826D01*
X744400D01*
Y333826D01*
X745400Y332826D01*
X744400Y331826D01*
Y330826D01*
Y341574D02*
X745400D01*
X746400Y342574D01*
X747400Y341574D01*
X748400D01*
Y342574D01*
X747400Y343574D01*
X748400Y344574D01*
Y345574D01*
X747400D01*
X746400Y344574D01*
X745400Y345574D01*
X744400D01*
Y344574D01*
X745400Y343574D01*
X744400Y342574D01*
Y341574D01*
X734400Y330826D02*
X735400D01*
X736400Y331826D01*
X737400Y330826D01*
X738400D01*
Y331826D01*
X737400Y332826D01*
X738400Y333826D01*
Y334826D01*
X737400D01*
X736400Y333826D01*
X735400Y334826D01*
X734400D01*
Y333826D01*
X735400Y332826D01*
X734400Y331826D01*
Y330826D01*
X714400Y330826D02*
X715400D01*
X716400Y331826D01*
X717400Y330826D01*
X718400D01*
Y331826D01*
X717400Y332826D01*
X718400Y333826D01*
Y334826D01*
X717400D01*
X716400Y333826D01*
X715400Y334826D01*
X714400D01*
Y333826D01*
X715400Y332826D01*
X714400Y331826D01*
Y330826D01*
X729400D02*
X730400D01*
X731400Y331826D01*
X732400Y330826D01*
X733400D01*
Y331826D01*
X732400Y332826D01*
X733400Y333826D01*
Y334826D01*
X732400D01*
X731400Y333826D01*
X730400Y334826D01*
X729400D01*
Y333826D01*
X730400Y332826D01*
X729400Y331826D01*
Y330826D01*
X724400Y330826D02*
X725400D01*
X726400Y331826D01*
X727400Y330826D01*
X728400D01*
Y331826D01*
X727400Y332826D01*
X728400Y333826D01*
Y334826D01*
X727400D01*
X726400Y333826D01*
X725400Y334826D01*
X724400D01*
Y333826D01*
X725400Y332826D01*
X724400Y331826D01*
Y330826D01*
X719400Y330826D02*
X720400D01*
X721400Y331826D01*
X722400Y330826D01*
X723400D01*
Y331826D01*
X722400Y332826D01*
X723400Y333826D01*
Y334826D01*
X722400D01*
X721400Y333826D01*
X720400Y334826D01*
X719400D01*
Y333826D01*
X720400Y332826D01*
X719400Y331826D01*
Y330826D01*
X737743Y445187D02*
X738743D01*
X739743Y446187D01*
X740743Y445187D01*
X741743D01*
Y446187D01*
X740743Y447187D01*
X741743Y448187D01*
Y449187D01*
X740743D01*
X739743Y448187D01*
X738743Y449187D01*
X737743D01*
Y448187D01*
X738743Y447187D01*
X737743Y446187D01*
Y445187D01*
X722943Y445229D02*
X723943D01*
X724943Y446229D01*
X725943Y445229D01*
X726943D01*
Y446229D01*
X725943Y447229D01*
X726943Y448229D01*
Y449229D01*
X725943D01*
X724943Y448229D01*
X723943Y449229D01*
X722943D01*
Y448229D01*
X723943Y447229D01*
X722943Y446229D01*
Y445229D01*
X752245Y479234D02*
X753245D01*
X754245Y480234D01*
X755245Y479234D01*
X756245D01*
Y480234D01*
X755245Y481234D01*
X756245Y482234D01*
Y483234D01*
X755245D01*
X754245Y482234D01*
X753245Y483234D01*
X752245D01*
Y482234D01*
X753245Y481234D01*
X752245Y480234D01*
Y479234D01*
X702106Y449125D02*
X703106D01*
X704106Y450125D01*
X705106Y449125D01*
X706106D01*
Y450125D01*
X705106Y451125D01*
X706106Y452125D01*
Y453125D01*
X705106D01*
X704106Y452125D01*
X703106Y453125D01*
X702106D01*
Y452125D01*
X703106Y451125D01*
X702106Y450125D01*
Y449125D01*
X705400Y446827D02*
X706400D01*
X707400Y447827D01*
X708400Y446827D01*
X709400D01*
Y447827D01*
X708400Y448827D01*
X709400Y449827D01*
Y450827D01*
X708400D01*
X707400Y449827D01*
X706400Y450827D01*
X705400D01*
Y449827D01*
X706400Y448827D01*
X705400Y447827D01*
Y446827D01*
X704644Y451776D02*
X705644D01*
X706644Y452776D01*
X707644Y451776D01*
X708644D01*
Y452776D01*
X707644Y453776D01*
X708644Y454776D01*
Y455776D01*
X707644D01*
X706644Y454776D01*
X705644Y455776D01*
X704644D01*
Y454776D01*
X705644Y453776D01*
X704644Y452776D01*
Y451776D01*
X762943Y367611D02*
X763943D01*
X764943Y368611D01*
X765943Y367611D01*
X766943D01*
Y368611D01*
X765943Y369611D01*
X766943Y370611D01*
Y371611D01*
X765943D01*
X764943Y370611D01*
X763943Y371611D01*
X762943D01*
Y370611D01*
X763943Y369611D01*
X762943Y368611D01*
Y367611D01*
X772078Y367508D02*
X773078D01*
X774078Y368508D01*
X775078Y367508D01*
X776078D01*
Y368508D01*
X775078Y369508D01*
X776078Y370508D01*
Y371508D01*
X775078D01*
X774078Y370508D01*
X773078Y371508D01*
X772078D01*
Y370508D01*
X773078Y369508D01*
X772078Y368508D01*
Y367508D01*
X696265Y401526D02*
X697265D01*
X698265Y402526D01*
X699265Y401526D01*
X700265D01*
Y402526D01*
X699265Y403526D01*
X700265Y404526D01*
Y405526D01*
X699265D01*
X698265Y404526D01*
X697265Y405526D01*
X696265D01*
Y404526D01*
X697265Y403526D01*
X696265Y402526D01*
Y401526D01*
X688394Y398341D02*
X689394D01*
X690394Y399341D01*
X691394Y398341D01*
X692394D01*
Y399341D01*
X691394Y400341D01*
X692394Y401341D01*
Y402341D01*
X691394D01*
X690394Y401341D01*
X689394Y402341D01*
X688394D01*
Y401341D01*
X689394Y400341D01*
X688394Y399341D01*
Y398341D01*
X769045Y448790D02*
X770045D01*
X771045Y449790D01*
X772045Y448790D01*
X773045D01*
Y449790D01*
X772045Y450790D01*
X773045Y451790D01*
Y452790D01*
X772045D01*
X771045Y451790D01*
X770045Y452790D01*
X769045D01*
Y451790D01*
X770045Y450790D01*
X769045Y449790D01*
Y448790D01*
X749400Y539826D02*
X750400D01*
X751400Y540826D01*
X752400Y539826D01*
X753400D01*
Y540826D01*
X752400Y541826D01*
X753400Y542826D01*
Y543826D01*
X752400D01*
X751400Y542826D01*
X750400Y543826D01*
X749400D01*
Y542826D01*
X750400Y541826D01*
X749400Y540826D01*
Y539826D01*
X708491Y421540D02*
X709491D01*
X710491Y422540D01*
X711491Y421540D01*
X712491D01*
Y422540D01*
X711491Y423540D01*
X712491Y424540D01*
Y425540D01*
X711491D01*
X710491Y424540D01*
X709491Y425540D01*
X708491D01*
Y424540D01*
X709491Y423540D01*
X708491Y422540D01*
Y421540D01*
X749928Y428156D02*
X750928D01*
X751928Y429156D01*
X752928Y428156D01*
X753928D01*
Y429156D01*
X752928Y430156D01*
X753928Y431156D01*
Y432156D01*
X752928D01*
X751928Y431156D01*
X750928Y432156D01*
X749928D01*
Y431156D01*
X750928Y430156D01*
X749928Y429156D01*
Y428156D01*
X783741Y408265D02*
X784741D01*
X785741Y409265D01*
X786741Y408265D01*
X787741D01*
Y409265D01*
X786741Y410265D01*
X787741Y411265D01*
Y412265D01*
X786741D01*
X785741Y411265D01*
X784741Y412265D01*
X783741D01*
Y411265D01*
X784741Y410265D01*
X783741Y409265D01*
Y408265D01*
X811844Y441975D02*
X812844D01*
X813844Y442976D01*
X814844Y441975D01*
X815844D01*
Y442976D01*
X814844Y443975D01*
X815844Y444976D01*
Y445975D01*
X814844D01*
X813844Y444976D01*
X812844Y445975D01*
X811844D01*
Y444976D01*
X812844Y443975D01*
X811844Y442976D01*
Y441975D01*
X693875Y426010D02*
X694875D01*
X695875Y427010D01*
X696875Y426010D01*
X697875D01*
Y427010D01*
X696875Y428010D01*
X697875Y429010D01*
Y430010D01*
X696875D01*
X695875Y429010D01*
X694875Y430010D01*
X693875D01*
Y429010D01*
X694875Y428010D01*
X693875Y427010D01*
Y426010D01*
X751599Y454458D02*
X752599D01*
X753599Y455458D01*
X754599Y454458D01*
X755599D01*
Y455458D01*
X754599Y456458D01*
X755599Y457458D01*
Y458458D01*
X754599D01*
X753599Y457458D01*
X752599Y458458D01*
X751599D01*
Y457458D01*
X752599Y456458D01*
X751599Y455458D01*
Y454458D01*
X760288Y453481D02*
X761288D01*
X762288Y454482D01*
X763288Y453481D01*
X764288D01*
Y454482D01*
X763288Y455481D01*
X764288Y456482D01*
Y457481D01*
X763288D01*
X762288Y456482D01*
X761288Y457481D01*
X760288D01*
Y456482D01*
X761288Y455481D01*
X760288Y454482D01*
Y453481D01*
X775400Y510986D02*
X776400D01*
X777400Y511986D01*
X778400Y510986D01*
X779400D01*
Y511986D01*
X778400Y512986D01*
X779400Y513986D01*
Y514986D01*
X778400D01*
X777400Y513986D01*
X776400Y514986D01*
X775400D01*
Y513986D01*
X776400Y512986D01*
X775400Y511986D01*
Y510986D01*
X778041Y514086D02*
X779041D01*
X780041Y515086D01*
X781041Y514086D01*
X782041D01*
Y515086D01*
X781041Y516086D01*
X782041Y517086D01*
Y518086D01*
X781041D01*
X780041Y517086D01*
X779041Y518086D01*
X778041D01*
Y517086D01*
X779041Y516086D01*
X778041Y515086D01*
Y514086D01*
X764880Y423800D02*
X765880D01*
X766880Y424800D01*
X767880Y423800D01*
X768880D01*
Y424800D01*
X767880Y425800D01*
X768880Y426800D01*
Y427800D01*
X767880D01*
X766880Y426800D01*
X765880Y427800D01*
X764880D01*
Y426800D01*
X765880Y425800D01*
X764880Y424800D01*
Y423800D01*
X676946Y436415D02*
X677946D01*
X678946Y437415D01*
X679946Y436415D01*
X680946D01*
Y437415D01*
X679946Y438415D01*
X680946Y439415D01*
Y440415D01*
X679946D01*
X678946Y439415D01*
X677946Y440415D01*
X676946D01*
Y439415D01*
X677946Y438415D01*
X676946Y437415D01*
Y436415D01*
X779400Y550574D02*
X780400D01*
X781400Y551574D01*
X782400Y550574D01*
X783400D01*
Y551574D01*
X782400Y552574D01*
X783400Y553574D01*
Y554574D01*
X782400D01*
X781400Y553574D01*
X780400Y554574D01*
X779400D01*
Y553574D01*
X780400Y552574D01*
X779400Y551574D01*
Y550574D01*
Y539826D02*
X780400D01*
X781400Y540826D01*
X782400Y539826D01*
X783400D01*
Y540826D01*
X782400Y541826D01*
X783400Y542826D01*
Y543826D01*
X782400D01*
X781400Y542826D01*
X780400Y543826D01*
X779400D01*
Y542826D01*
X780400Y541826D01*
X779400Y540826D01*
Y539826D01*
X764400D02*
X765400D01*
X766400Y540826D01*
X767400Y539826D01*
X768400D01*
Y540826D01*
X767400Y541826D01*
X768400Y542826D01*
Y543826D01*
X767400D01*
X766400Y542826D01*
X765400Y543826D01*
X764400D01*
Y542826D01*
X765400Y541826D01*
X764400Y540826D01*
Y539826D01*
X759447Y539880D02*
X760448D01*
X761447Y540880D01*
X762448Y539880D01*
X763448D01*
Y540880D01*
X762448Y541880D01*
X763448Y542880D01*
Y543880D01*
X762448D01*
X761447Y542880D01*
X760448Y543880D01*
X759447D01*
Y542880D01*
X760448Y541880D01*
X759447Y540880D01*
Y539880D01*
X744400Y539826D02*
X745400D01*
X746400Y540826D01*
X747400Y539826D01*
X748400D01*
Y540826D01*
X747400Y541826D01*
X748400Y542826D01*
Y543826D01*
X747400D01*
X746400Y542826D01*
X745400Y543826D01*
X744400D01*
Y542826D01*
X745400Y541826D01*
X744400Y540826D01*
Y539826D01*
X754400Y539826D02*
X755400D01*
X756400Y540826D01*
X757400Y539826D01*
X758400D01*
Y540826D01*
X757400Y541826D01*
X758400Y542826D01*
Y543826D01*
X757400D01*
X756400Y542826D01*
X755400Y543826D01*
X754400D01*
Y542826D01*
X755400Y541826D01*
X754400Y540826D01*
Y539826D01*
X729400Y550574D02*
X730400D01*
X731400Y551574D01*
X732400Y550574D01*
X733400D01*
Y551574D01*
X732400Y552574D01*
X733400Y553574D01*
Y554574D01*
X732400D01*
X731400Y553574D01*
X730400Y554574D01*
X729400D01*
Y553574D01*
X730400Y552574D01*
X729400Y551574D01*
Y550574D01*
X719400Y550574D02*
X720400D01*
X721400Y551574D01*
X722400Y550574D01*
X723400D01*
Y551574D01*
X722400Y552574D01*
X723400Y553574D01*
Y554574D01*
X722400D01*
X721400Y553574D01*
X720400Y554574D01*
X719400D01*
Y553574D01*
X720400Y552574D01*
X719400Y551574D01*
Y550574D01*
X754700Y510001D02*
X755700D01*
X756700Y511000D01*
X757700Y510001D01*
X758700D01*
Y511000D01*
X757700Y512001D01*
X758700Y513000D01*
Y514001D01*
X757700D01*
X756700Y513000D01*
X755700Y514001D01*
X754700D01*
Y513000D01*
X755700Y512001D01*
X754700Y511000D01*
Y510001D01*
X739400Y330826D02*
X740400D01*
X741400Y331826D01*
X742400Y330826D01*
X743400D01*
Y331826D01*
X742400Y332826D01*
X743400Y333826D01*
Y334826D01*
X742400D01*
X741400Y333826D01*
X740400Y334826D01*
X739400D01*
Y333826D01*
X740400Y332826D01*
X739400Y331826D01*
Y330826D01*
X769561Y370516D02*
X770561D01*
X771561Y371516D01*
X772561Y370516D01*
X773561D01*
Y371516D01*
X772561Y372516D01*
X773561Y373516D01*
Y374516D01*
X772561D01*
X771561Y373516D01*
X770561Y374516D01*
X769561D01*
Y373516D01*
X770561Y372516D01*
X769561Y371516D01*
Y370516D01*
X741089Y510989D02*
X742089D01*
X743089Y511989D01*
X744089Y510989D01*
X745089D01*
Y511989D01*
X744089Y512989D01*
X745089Y513989D01*
Y514989D01*
X744089D01*
X743089Y513989D01*
X742089Y514989D01*
X741089D01*
Y513989D01*
X742089Y512989D01*
X741089Y511989D01*
Y510989D01*
X759072Y510101D02*
X760072D01*
X761072Y511100D01*
X762072Y510101D01*
X763072D01*
Y511100D01*
X762072Y512101D01*
X763072Y513100D01*
Y514101D01*
X762072D01*
X761072Y513100D01*
X760072Y514101D01*
X759072D01*
Y513100D01*
X760072Y512101D01*
X759072Y511100D01*
Y510101D01*
X737496Y511207D02*
X738496D01*
X739496Y512208D01*
X740496Y511207D01*
X741496D01*
Y512208D01*
X740496Y513207D01*
X741496Y514208D01*
Y515207D01*
X740496D01*
X739496Y514208D01*
X738496Y515207D01*
X737496D01*
Y514208D01*
X738496Y513207D01*
X737496Y512208D01*
Y511207D01*
X709400Y550574D02*
X710400D01*
X711400Y551574D01*
X712400Y550574D01*
X713400D01*
Y551574D01*
X712400Y552574D01*
X713400Y553574D01*
Y554574D01*
X712400D01*
X711400Y553574D01*
X710400Y554574D01*
X709400D01*
Y553574D01*
X710400Y552574D01*
X709400Y551574D01*
Y550574D01*
X714400D02*
X715400D01*
X716400Y551574D01*
X717400Y550574D01*
X718400D01*
Y551574D01*
X717400Y552574D01*
X718400Y553574D01*
Y554574D01*
X717400D01*
X716400Y553574D01*
X715400Y554574D01*
X714400D01*
Y553574D01*
X715400Y552574D01*
X714400Y551574D01*
Y550574D01*
X740098Y375715D02*
X741098D01*
X742098Y376715D01*
X743098Y375715D01*
X744098D01*
Y376715D01*
X743098Y377715D01*
X744098Y378715D01*
Y379715D01*
X743098D01*
X742098Y378715D01*
X741098Y379715D01*
X740098D01*
Y378715D01*
X741098Y377715D01*
X740098Y376715D01*
Y375715D01*
X733961Y370302D02*
X734961D01*
X735961Y371302D01*
X736961Y370302D01*
X737961D01*
Y371302D01*
X736961Y372302D01*
X737961Y373302D01*
Y374302D01*
X736961D01*
X735961Y373302D01*
X734961Y374302D01*
X733961D01*
Y373302D01*
X734961Y372302D01*
X733961Y371302D01*
Y370302D01*
X751255Y368211D02*
X752255D01*
X753255Y369211D01*
X754255Y368211D01*
X755255D01*
Y369211D01*
X754255Y370211D01*
X755255Y371211D01*
Y372211D01*
X754255D01*
X753255Y371211D01*
X752255Y372211D01*
X751255D01*
Y371211D01*
X752255Y370211D01*
X751255Y369211D01*
Y368211D01*
X653763Y373487D02*
X654763D01*
X655763Y374487D01*
X656763Y373487D01*
X657763D01*
Y374487D01*
X656763Y375487D01*
X657763Y376487D01*
Y377487D01*
X656763D01*
X655763Y376487D01*
X654763Y377487D01*
X653763D01*
Y376487D01*
X654763Y375487D01*
X653763Y374487D01*
Y373487D01*
X652162Y410943D02*
X653162D01*
X654162Y411943D01*
X655162Y410943D01*
X656162D01*
Y411943D01*
X655162Y412943D01*
X656162Y413943D01*
Y414943D01*
X655162D01*
X654162Y413943D01*
X653162Y414943D01*
X652162D01*
Y413943D01*
X653162Y412943D01*
X652162Y411943D01*
Y410943D01*
X647160D02*
X648160D01*
X649160Y411943D01*
X650160Y410943D01*
X651160D01*
Y411943D01*
X650160Y412943D01*
X651160Y413943D01*
Y414943D01*
X650160D01*
X649160Y413943D01*
X648160Y414943D01*
X647160D01*
Y413943D01*
X648160Y412943D01*
X647160Y411943D01*
Y410943D01*
X848600Y384791D02*
X849600D01*
X850600Y385791D01*
X851600Y384791D01*
X852600D01*
Y385791D01*
X851600Y386791D01*
X852600Y387791D01*
Y388791D01*
X851600D01*
X850600Y387791D01*
X849600Y388791D01*
X848600D01*
Y387791D01*
X849600Y386791D01*
X848600Y385791D01*
Y384791D01*
X804630Y379114D02*
X805630D01*
X806630Y380114D01*
X807630Y379114D01*
X808630D01*
Y380114D01*
X807630Y381114D01*
X808630Y382114D01*
Y383114D01*
X807630D01*
X806630Y382114D01*
X805630Y383114D01*
X804630D01*
Y382114D01*
X805630Y381114D01*
X804630Y380114D01*
Y379114D01*
X816975Y355279D02*
X817976D01*
X818976Y356279D01*
X819975Y355279D01*
X820975D01*
Y356279D01*
X819975Y357279D01*
X820975Y358279D01*
Y359279D01*
X819975D01*
X818976Y358279D01*
X817976Y359279D01*
X816975D01*
Y358279D01*
X817976Y357279D01*
X816975Y356279D01*
Y355279D01*
X791738Y375897D02*
X792738D01*
X793738Y376897D01*
X794738Y375897D01*
X795738D01*
Y376897D01*
X794738Y377897D01*
X795738Y378897D01*
Y379897D01*
X794738D01*
X793738Y378897D01*
X792738Y379897D01*
X791738D01*
Y378897D01*
X792738Y377897D01*
X791738Y376897D01*
Y375897D01*
X769400Y539826D02*
X770400D01*
X771400Y540826D01*
X772400Y539826D01*
X773400D01*
Y540826D01*
X772400Y541826D01*
X773400Y542826D01*
Y543826D01*
X772400D01*
X771400Y542826D01*
X770400Y543826D01*
X769400D01*
Y542826D01*
X770400Y541826D01*
X769400Y540826D01*
Y539826D01*
X709400Y539826D02*
X710400D01*
X711400Y540826D01*
X712400Y539826D01*
X713400D01*
Y540826D01*
X712400Y541826D01*
X713400Y542826D01*
Y543826D01*
X712400D01*
X711400Y542826D01*
X710400Y543826D01*
X709400D01*
Y542826D01*
X710400Y541826D01*
X709400Y540826D01*
Y539826D01*
X744400Y550574D02*
X745400D01*
X746400Y551574D01*
X747400Y550574D01*
X748400D01*
Y551574D01*
X747400Y552574D01*
X748400Y553574D01*
Y554574D01*
X747400D01*
X746400Y553574D01*
X745400Y554574D01*
X744400D01*
Y553574D01*
X745400Y552574D01*
X744400Y551574D01*
Y550574D01*
X709400Y330826D02*
X710400D01*
X711400Y331826D01*
X712400Y330826D01*
X713400D01*
Y331826D01*
X712400Y332826D01*
X713400Y333826D01*
Y334826D01*
X712400D01*
X711400Y333826D01*
X710400Y334826D01*
X709400D01*
Y333826D01*
X710400Y332826D01*
X709400Y331826D01*
Y330826D01*
X740244Y404516D02*
X741244D01*
X742244Y405516D01*
X743244Y404516D01*
X744244D01*
Y405516D01*
X743244Y406516D01*
X744244Y407516D01*
Y408516D01*
X743244D01*
X742244Y407516D01*
X741244Y408516D01*
X740244D01*
Y407516D01*
X741244Y406516D01*
X740244Y405516D01*
Y404516D01*
X829380Y452021D02*
X830380D01*
X831380Y453021D01*
X832380Y452021D01*
X833380D01*
Y453021D01*
X832380Y454021D01*
X833380Y455021D01*
Y456021D01*
X832380D01*
X831380Y455021D01*
X830380Y456021D01*
X829380D01*
Y455021D01*
X830380Y454021D01*
X829380Y453021D01*
Y452021D01*
X721058Y417839D02*
X722058D01*
X723058Y418839D01*
X724058Y417839D01*
X725058D01*
Y418839D01*
X724058Y419839D01*
X725058Y420839D01*
Y421839D01*
X724058D01*
X723058Y420839D01*
X722058Y421839D01*
X721058D01*
Y420839D01*
X722058Y419839D01*
X721058Y418839D01*
Y417839D01*
X723436Y441447D02*
X724436D01*
X725436Y442447D01*
X726436Y441447D01*
X727436D01*
Y442447D01*
X726436Y443447D01*
X727436Y444447D01*
Y445447D01*
X726436D01*
X725436Y444447D01*
X724436Y445447D01*
X723436D01*
Y444447D01*
X724436Y443447D01*
X723436Y442447D01*
Y441447D01*
X736698Y449322D02*
X737698D01*
X738698Y450322D01*
X739698Y449322D01*
X740698D01*
Y450322D01*
X739698Y451322D01*
X740698Y452322D01*
Y453322D01*
X739698D01*
X738698Y452322D01*
X737698Y453322D01*
X736698D01*
Y452322D01*
X737698Y451322D01*
X736698Y450322D01*
Y449322D01*
X677937Y431566D02*
X678937D01*
X679937Y432566D01*
X680937Y431566D01*
X681937D01*
Y432566D01*
X680937Y433566D01*
X681937Y434566D01*
Y435566D01*
X680937D01*
X679937Y434566D01*
X678937Y435566D01*
X677937D01*
Y434566D01*
X678937Y433566D01*
X677937Y432566D01*
Y431566D01*
D101*
X638100Y390600D02*
G03*
X638100Y390600I-2000J0D01*
G01*
X679400Y377285D02*
G03*
X679400Y377285I-2000J0D01*
G01*
X782646Y366174D02*
G03*
X782646Y366174I-2000J0D01*
G01*
M02*
