G04*
G04 #@! TF.GenerationSoftware,Altium Limited,Altium Designer,22.3.1 (43)*
G04*
G04 Layer_Physical_Order=3*
G04 Layer_Color=128*
%FSLAX25Y25*%
%MOIN*%
G70*
G04*
G04 #@! TF.SameCoordinates,28AED8AE-6D8B-4080-ADD8-9E34605278D5*
G04*
G04*
G04 #@! TF.FilePolarity,Negative*
G04*
G01*
G75*
%ADD10C,0.01000*%
%ADD15C,0.02000*%
%ADD102C,0.04000*%
G04:AMPARAMS|DCode=103|XSize=95.433mil|YSize=95.433mil|CornerRadius=0mil|HoleSize=0mil|Usage=FLASHONLY|Rotation=0.000|XOffset=0mil|YOffset=0mil|HoleType=Round|Shape=Relief|Width=10mil|Gap=10mil|Entries=4|*
%AMTHD103*
7,0,0,0.09543,0.07543,0.01000,45*
%
%ADD103THD103*%
%ADD104C,0.06543*%
%ADD105C,0.08500*%
%ADD106C,0.06500*%
%ADD107C,0.04200*%
%ADD108C,0.04400*%
G04:AMPARAMS|DCode=109|XSize=95mil|YSize=95mil|CornerRadius=0mil|HoleSize=0mil|Usage=FLASHONLY|Rotation=0.000|XOffset=0mil|YOffset=0mil|HoleType=Round|Shape=Relief|Width=10mil|Gap=10mil|Entries=4|*
%AMTHD109*
7,0,0,0.09500,0.07500,0.01000,45*
%
%ADD109THD109*%
D10*
X43416Y69495D02*
X45111Y67800D01*
X36841Y154989D02*
X39479Y152352D01*
X36031Y155799D02*
X44559Y147272D01*
X275968Y588068D02*
X310680D01*
X377130Y301200D02*
X377582Y300747D01*
X583000Y317900D02*
X617900D01*
X617900Y25500D01*
X382175Y646600D02*
X404100D01*
X325400D02*
X347325D01*
X20100Y177800D02*
Y200875D01*
X68132Y80079D02*
X250375D01*
X325921Y349600D02*
X327890D01*
X299728Y323407D02*
X325921Y349600D01*
X299728Y317009D02*
Y323407D01*
X332319Y349600D02*
X333164D01*
X299728Y310601D02*
Y317009D01*
Y310601D02*
X299728Y110853D01*
X271652D02*
X299728D01*
X250375Y89575D02*
X271652Y110853D01*
X250375Y80079D02*
Y89575D01*
X362149Y314349D02*
X453100Y405300D01*
Y597600D01*
X404100Y646600D02*
X453100Y597600D01*
X347325Y646600D02*
X382175D01*
X311199Y632399D02*
X325400Y646600D01*
X311199Y559201D02*
Y632399D01*
Y559201D02*
X325921Y544479D01*
Y529381D02*
Y544479D01*
X323852Y527311D02*
X325921Y529381D01*
X302981Y527311D02*
X323852D01*
X299044Y531248D02*
X302981Y527311D01*
X286532Y531248D02*
X299044D01*
X281300Y526015D02*
X286532Y531248D01*
X281300Y512200D02*
Y526015D01*
X97000Y161400D02*
X98019Y162419D01*
X113400Y177800D02*
X114400D01*
X97000Y161400D02*
X113400Y177800D01*
X323953Y563109D02*
X338586Y548475D01*
X323953Y563109D02*
Y601787D01*
X331466Y609300D01*
X400000D01*
X436200Y573100D01*
Y427300D02*
Y573100D01*
X358500Y349600D02*
X436200Y427300D01*
X221300Y349600D02*
X358500D01*
X213100Y341400D02*
X221300Y349600D01*
X213100Y245742D02*
Y341400D01*
X91266Y123908D02*
X213100Y245742D01*
X23492Y123908D02*
X91266D01*
X16787Y130613D02*
X23492Y123908D01*
X16787Y130613D02*
Y151559D01*
X20910Y155682D01*
X36148D01*
X36841Y154989D01*
X44559Y147272D02*
X82972D01*
X97000Y161300D01*
X129000Y400400D02*
X145300D01*
X93400Y364800D02*
X129000Y400400D01*
X93400Y224600D02*
Y364800D01*
X69675Y200875D02*
X93400Y224600D01*
X20100Y200875D02*
X69675D01*
X145300Y400400D02*
X186100D01*
X236889Y451189D01*
X236889Y640332D02*
X236889Y451189D01*
X-0Y262400D02*
X1700Y264100D01*
X173200Y236600D02*
X185734Y249134D01*
Y371734D01*
X188300Y374300D01*
X347100D01*
X417400Y444600D01*
Y480800D01*
X45111Y67800D02*
X249975D01*
X43416Y69495D02*
Y70106D01*
X272420Y53828D02*
X286748Y39500D01*
X272420Y53828D02*
Y55155D01*
X286748Y39500D02*
X505400D01*
X508900Y43000D01*
Y317900D01*
X250375Y55369D02*
Y67800D01*
Y55369D02*
X280243Y25500D01*
X617900D01*
X508900Y317900D02*
X583000D01*
X367835Y65135D02*
X368130Y65429D01*
X57726Y82992D02*
X65219D01*
X68132Y80079D01*
X43416Y70106D02*
Y81316D01*
X45092Y82992D01*
X60298D01*
X236889Y640332D02*
X275968D01*
Y588068D02*
Y640332D01*
X281300Y512315D02*
X329691D01*
X337142Y519766D01*
Y547030D01*
X360412Y570300D01*
X407800D01*
X417400Y560700D01*
Y480800D02*
Y560700D01*
X114400Y177800D02*
X173200Y236600D01*
X20100Y177800D02*
X114400Y177800D01*
D15*
X319965Y92165D02*
X320600Y92800D01*
Y307900D01*
X267845Y80079D02*
X331117D01*
X335100Y84061D01*
X262825Y70106D02*
X347315D01*
X374066Y301200D02*
X377130D01*
X377582Y300747D02*
X387400Y290930D01*
Y60356D02*
Y290930D01*
X382199Y55155D02*
X387400Y60356D01*
X266055Y55155D02*
X382199D01*
X262825Y58385D02*
X266055Y55155D01*
X262825Y58385D02*
Y70106D01*
X347315D02*
X352287Y65135D01*
X367835D01*
X368130Y65429D02*
Y291913D01*
X374066Y297849D01*
Y309677D01*
X369394Y314349D02*
X374066Y309677D01*
X327049Y314349D02*
X369394D01*
X320600Y307900D02*
X327049Y314349D01*
X272420Y92165D02*
X319965D01*
X267845Y87590D02*
X272420Y92165D01*
X267845Y80079D02*
Y87590D01*
X335100Y299885D02*
X335100Y84061D01*
X335100Y299885D02*
X340162Y304947D01*
X348821D01*
X349891Y303877D01*
Y84431D02*
Y303877D01*
Y84431D02*
X352806Y81516D01*
Y69398D02*
Y81516D01*
X350415Y67007D02*
X352806Y69398D01*
D102*
X-501Y20272D02*
G03*
X19801Y-498I20693J-80D01*
G01*
X-490Y20376D02*
G03*
X-502Y20272I490J-106D01*
G01*
X873328Y-502D02*
G03*
X894102Y20098I80J20693D01*
G01*
X873287Y-500D02*
G03*
X873328Y-502I42J501D01*
G01*
X873246Y-501D02*
G03*
X873287Y-500I0J501D01*
G01*
X19801Y-498D02*
G03*
X19859Y-501I59J500D01*
G01*
X-501Y20481D02*
G03*
X-490Y20376I501J0D01*
G01*
X-481Y641543D02*
G03*
X-501Y641400I480J-143D01*
G01*
X-502Y641689D02*
G03*
X-481Y641543I501J-2D01*
G01*
X20272Y662301D02*
G03*
X-501Y641689I-80J-20693D01*
G01*
X20335Y662297D02*
G03*
X20272Y662302I-65J-495D01*
G01*
X20400Y662301D02*
G03*
X20335Y662297I-0J-499D01*
G01*
X873870Y662296D02*
G03*
X873800Y662301I-70J-496D01*
G01*
X894096Y642070D02*
G03*
X873870Y662296I-20688J-462D01*
G01*
X894102Y642000D02*
G03*
X894096Y642070I-500J0D01*
G01*
X894102Y641608D02*
G03*
X894102Y641699I-18770J4D01*
G01*
X894102Y641528D02*
G03*
X894102Y641608I-21719J81D01*
G01*
X894102Y641523D02*
G03*
X894102Y641528I-264J5D01*
G01*
X894102Y20098D02*
G03*
X894102Y20100I-100620J442D01*
G01*
X20124Y-501D02*
X873246Y-501D01*
X19859Y-501D02*
X20124D01*
X-501Y20481D02*
Y641400D01*
X20400Y662301D02*
X873800D01*
X894102Y641699D02*
Y642000D01*
Y20100D02*
Y641523D01*
D103*
X176661Y172099D02*
D03*
X176618Y198800D02*
D03*
X100500Y20200D02*
D03*
X253900Y603855D02*
D03*
X190355Y265300D02*
D03*
X140355D02*
D03*
X190555Y363000D02*
D03*
X351465Y604610D02*
D03*
X14900Y591845D02*
D03*
Y613945D02*
D03*
D104*
X196661Y172099D02*
D03*
X186661D02*
D03*
X196618Y198800D02*
D03*
X186618D02*
D03*
X120500Y20200D02*
D03*
X110500D02*
D03*
X90500D02*
D03*
X70500D02*
D03*
X80500D02*
D03*
X60500D02*
D03*
X404769Y295298D02*
D03*
Y305298D02*
D03*
X414769Y295298D02*
D03*
Y305298D02*
D03*
X424769Y295298D02*
D03*
Y305298D02*
D03*
X404928Y255231D02*
D03*
Y265231D02*
D03*
X414928Y255231D02*
D03*
Y265231D02*
D03*
X424929Y255231D02*
D03*
Y265231D02*
D03*
X404340Y189979D02*
D03*
Y199979D02*
D03*
X414340Y189979D02*
D03*
Y199979D02*
D03*
X424340Y189979D02*
D03*
Y199979D02*
D03*
X404340Y150340D02*
D03*
Y160340D02*
D03*
X414340Y150340D02*
D03*
Y160340D02*
D03*
X424340Y150340D02*
D03*
Y160340D02*
D03*
X405156Y87931D02*
D03*
Y97931D02*
D03*
X415156Y87931D02*
D03*
Y97931D02*
D03*
X425156Y87931D02*
D03*
Y97931D02*
D03*
X405328Y48312D02*
D03*
Y58312D02*
D03*
X415328Y48312D02*
D03*
Y58312D02*
D03*
X425327Y48312D02*
D03*
Y58312D02*
D03*
X263900Y603855D02*
D03*
Y613855D02*
D03*
X253900D02*
D03*
X263900Y623855D02*
D03*
X253900D02*
D03*
X263900Y633855D02*
D03*
X253900D02*
D03*
X140555Y363000D02*
D03*
X351465Y634610D02*
D03*
Y624610D02*
D03*
X24900Y591845D02*
D03*
Y613945D02*
D03*
X190355Y275300D02*
D03*
X180355D02*
D03*
Y265300D02*
D03*
X170355Y275300D02*
D03*
Y265300D02*
D03*
X160355Y275300D02*
D03*
Y265300D02*
D03*
X150355Y275300D02*
D03*
Y265300D02*
D03*
X140355Y275300D02*
D03*
X130355D02*
D03*
Y265300D02*
D03*
X120355Y275300D02*
D03*
Y265300D02*
D03*
X190555Y353000D02*
D03*
X180555Y363000D02*
D03*
Y353000D02*
D03*
X170555Y363000D02*
D03*
Y353000D02*
D03*
X160555Y363000D02*
D03*
Y353000D02*
D03*
X150555Y363000D02*
D03*
Y353000D02*
D03*
X140555D02*
D03*
X130555Y363000D02*
D03*
Y353000D02*
D03*
X120555Y363000D02*
D03*
Y353000D02*
D03*
X341465Y604610D02*
D03*
X351465Y614610D02*
D03*
X341465D02*
D03*
Y624610D02*
D03*
Y634610D02*
D03*
X14900Y406945D02*
D03*
X24900D02*
D03*
X34900D02*
D03*
X44900D02*
D03*
X54900D02*
D03*
X64900D02*
D03*
X74900D02*
D03*
X84900D02*
D03*
X94900D02*
D03*
X104900D02*
D03*
X114900D02*
D03*
X124900D02*
D03*
X134900D02*
D03*
X144900D02*
D03*
X154900D02*
D03*
X164900D02*
D03*
X174900D02*
D03*
X184900D02*
D03*
Y439045D02*
D03*
Y429045D02*
D03*
X174900Y439045D02*
D03*
Y429045D02*
D03*
X164900Y439045D02*
D03*
Y429045D02*
D03*
X154900Y439045D02*
D03*
Y429045D02*
D03*
X144900Y439045D02*
D03*
Y429045D02*
D03*
X134900Y439045D02*
D03*
Y429045D02*
D03*
X124900Y439045D02*
D03*
Y429045D02*
D03*
X114900Y439045D02*
D03*
Y429045D02*
D03*
X104900Y439045D02*
D03*
Y429045D02*
D03*
X94900Y439045D02*
D03*
Y429045D02*
D03*
X84900Y439045D02*
D03*
Y429045D02*
D03*
X74900Y439045D02*
D03*
Y429045D02*
D03*
X64900Y439045D02*
D03*
Y429045D02*
D03*
X54900Y439045D02*
D03*
Y429045D02*
D03*
X44900Y439045D02*
D03*
Y429045D02*
D03*
X34900Y439045D02*
D03*
Y429045D02*
D03*
X24900Y439045D02*
D03*
Y429045D02*
D03*
X14900Y439045D02*
D03*
Y429045D02*
D03*
Y460045D02*
D03*
X24900D02*
D03*
X34900D02*
D03*
X44900D02*
D03*
X54900D02*
D03*
X64900D02*
D03*
X74900D02*
D03*
X84900D02*
D03*
X94900D02*
D03*
X104900D02*
D03*
X114900D02*
D03*
X124900D02*
D03*
X134900D02*
D03*
X144900D02*
D03*
X154900D02*
D03*
X164900D02*
D03*
X174900D02*
D03*
X184900D02*
D03*
X14900Y560045D02*
D03*
X24900D02*
D03*
X34900D02*
D03*
X44900D02*
D03*
X54900D02*
D03*
X64900D02*
D03*
X74900D02*
D03*
X84900D02*
D03*
X94900D02*
D03*
X104900D02*
D03*
X114900D02*
D03*
X124900D02*
D03*
X134900D02*
D03*
X144900D02*
D03*
X154900D02*
D03*
X164900D02*
D03*
X174900D02*
D03*
X184900D02*
D03*
Y591845D02*
D03*
Y581845D02*
D03*
X174900Y591845D02*
D03*
Y581845D02*
D03*
X164900Y591845D02*
D03*
Y581845D02*
D03*
X154900Y591845D02*
D03*
Y581845D02*
D03*
X144900Y591845D02*
D03*
Y581845D02*
D03*
X134900Y591845D02*
D03*
Y581845D02*
D03*
X124900Y591845D02*
D03*
Y581845D02*
D03*
X114900Y591845D02*
D03*
Y581845D02*
D03*
X104900Y591845D02*
D03*
Y581845D02*
D03*
X94900Y591845D02*
D03*
Y581845D02*
D03*
X84900Y591845D02*
D03*
Y581845D02*
D03*
X74900Y591845D02*
D03*
Y581845D02*
D03*
X64900Y591845D02*
D03*
Y581845D02*
D03*
X54900Y591845D02*
D03*
Y581845D02*
D03*
X44900Y591845D02*
D03*
Y581845D02*
D03*
X34900Y591845D02*
D03*
Y581845D02*
D03*
X24900D02*
D03*
X14900D02*
D03*
X34900Y613945D02*
D03*
X44900D02*
D03*
X54900D02*
D03*
X64900D02*
D03*
X74900D02*
D03*
X84900D02*
D03*
X94900D02*
D03*
X104900D02*
D03*
X114900D02*
D03*
X124900D02*
D03*
X134900D02*
D03*
X144900D02*
D03*
X154900D02*
D03*
X164900D02*
D03*
X174900D02*
D03*
X184900D02*
D03*
X729300Y29500D02*
D03*
Y39500D02*
D03*
Y49500D02*
D03*
Y59500D02*
D03*
Y69500D02*
D03*
Y79500D02*
D03*
D105*
X531145Y82118D02*
D03*
X472145Y106518D02*
D03*
X531145Y292198D02*
D03*
X472145Y316598D02*
D03*
X531145Y187158D02*
D03*
X472145Y211558D02*
D03*
X531145Y238901D02*
D03*
X472145Y263301D02*
D03*
X531145Y133640D02*
D03*
X472145Y158040D02*
D03*
X531145Y29598D02*
D03*
X472145Y53998D02*
D03*
D106*
X501645Y98618D02*
D03*
X485945D02*
D03*
X501645Y308698D02*
D03*
X485945D02*
D03*
X501645Y203658D02*
D03*
X485945D02*
D03*
X501645Y255401D02*
D03*
X485945D02*
D03*
X501645Y150140D02*
D03*
X485945D02*
D03*
X501645Y46098D02*
D03*
X485945D02*
D03*
D107*
X383017Y443659D02*
D03*
X386702Y442531D02*
D03*
X380686Y548928D02*
D03*
X386154Y562872D02*
D03*
X391860Y492121D02*
D03*
X393736Y494969D02*
D03*
X390477Y489221D02*
D03*
X127900Y469600D02*
D03*
X164900Y517157D02*
D03*
X363060Y537074D02*
D03*
X364304Y534038D02*
D03*
X368084Y527714D02*
D03*
X364917Y530153D02*
D03*
X370600Y525343D02*
D03*
X366203Y542611D02*
D03*
X363111Y546014D02*
D03*
X363222Y549220D02*
D03*
X366654Y549986D02*
D03*
X367940Y554973D02*
D03*
X383958Y565418D02*
D03*
X381154Y563109D02*
D03*
X673522Y435974D02*
D03*
X295776Y454400D02*
D03*
X292667Y452365D02*
D03*
X293872Y458081D02*
D03*
X293213Y461673D02*
D03*
X293856Y465446D02*
D03*
X299273Y468600D02*
D03*
X296032Y467793D02*
D03*
X317399Y477126D02*
D03*
X668006Y502783D02*
D03*
X670506Y500736D02*
D03*
X305800Y472500D02*
D03*
X304407Y468600D02*
D03*
X292288Y448156D02*
D03*
X295467Y447106D02*
D03*
X298721Y441690D02*
D03*
X296656Y444135D02*
D03*
X313993Y478835D02*
D03*
X681472Y463049D02*
D03*
X678635Y466100D02*
D03*
X680818Y459900D02*
D03*
X682939Y456449D02*
D03*
X680324Y454212D02*
D03*
X681835Y471287D02*
D03*
Y477192D02*
D03*
X684368Y474014D02*
D03*
X684100Y480221D02*
D03*
X681835Y483098D02*
D03*
X684100Y485621D02*
D03*
X680442Y491655D02*
D03*
X677898Y493980D02*
D03*
X675829Y496421D02*
D03*
X672965Y498688D02*
D03*
X665856Y505467D02*
D03*
X663443Y507569D02*
D03*
X660382Y508745D02*
D03*
X681803Y446693D02*
D03*
X682195Y449868D02*
D03*
X681600Y442624D02*
D03*
X678756Y440167D02*
D03*
X676096Y438387D02*
D03*
X670506Y438651D02*
D03*
X667837Y436674D02*
D03*
X659120D02*
D03*
X662009Y438365D02*
D03*
X665115Y439134D02*
D03*
X770439Y240446D02*
D03*
X775343Y343201D02*
D03*
X771719Y344807D02*
D03*
X778797Y341764D02*
D03*
X781629Y339264D02*
D03*
X784141Y336350D02*
D03*
X786898Y333850D02*
D03*
X786065Y330405D02*
D03*
X788271Y327000D02*
D03*
X786065Y324500D02*
D03*
X788423Y321587D02*
D03*
X786065Y319087D02*
D03*
X787772Y316134D02*
D03*
X787514Y309006D02*
D03*
X786047Y302781D02*
D03*
X786898Y305865D02*
D03*
X786779Y312285D02*
D03*
X786760Y263731D02*
D03*
X787425Y259485D02*
D03*
X788054Y255602D02*
D03*
X787111Y267413D02*
D03*
X786715Y271452D02*
D03*
X787239Y274609D02*
D03*
X788802Y252168D02*
D03*
X788709Y248492D02*
D03*
X785672Y246744D02*
D03*
X783993Y243370D02*
D03*
X781494Y240808D02*
D03*
X778183Y239854D02*
D03*
X768091Y238040D02*
D03*
X772503Y244000D02*
D03*
X172153Y129025D02*
D03*
X167626Y129517D02*
D03*
X141950Y43511D02*
D03*
X94485D02*
D03*
X70550D02*
D03*
X48491D02*
D03*
X25450D02*
D03*
X634600Y302801D02*
D03*
X287527Y517969D02*
D03*
X327924Y534170D02*
D03*
X294500Y67400D02*
D03*
X264598Y36611D02*
D03*
X263841Y119400D02*
D03*
X240441Y82244D02*
D03*
X165159Y93808D02*
D03*
X645900Y434100D02*
D03*
X642020Y439909D02*
D03*
X640000Y443000D02*
D03*
X643870Y437018D02*
D03*
X634600Y37701D02*
D03*
X708560Y99620D02*
D03*
X634600Y90184D02*
D03*
X681078Y128123D02*
D03*
X634600Y143742D02*
D03*
X654826Y153493D02*
D03*
X634600Y195308D02*
D03*
X655874D02*
D03*
X634600Y249782D02*
D03*
X654451Y246084D02*
D03*
X247500Y405200D02*
D03*
X247800Y408500D02*
D03*
X681197Y488167D02*
D03*
X775327Y242387D02*
D03*
X269000Y588953D02*
D03*
X375687Y62599D02*
D03*
X360216Y106982D02*
D03*
X375033Y166102D02*
D03*
X364881Y203916D02*
D03*
X377343Y271402D02*
D03*
X365097Y309905D02*
D03*
X404655Y520817D02*
D03*
X361300Y518260D02*
D03*
X334780Y438370D02*
D03*
X283600D02*
D03*
X203355Y352182D02*
D03*
X152563Y123908D02*
D03*
X150595Y126466D02*
D03*
X152563Y129517D02*
D03*
X154851Y126466D02*
D03*
X154649Y132233D02*
D03*
X150594D02*
D03*
X376597Y558884D02*
D03*
X372256Y557269D02*
D03*
X364064Y540112D02*
D03*
X310386Y477126D02*
D03*
X168351Y43319D02*
D03*
X220900Y88000D02*
D03*
X286932Y184700D02*
D03*
X242932Y184400D02*
D03*
X276621Y485590D02*
D03*
X358233Y295670D02*
D03*
X374792Y295298D02*
D03*
X374201Y189742D02*
D03*
X351832Y193423D02*
D03*
X375033Y86600D02*
D03*
X352806Y90362D02*
D03*
X120647Y587298D02*
D03*
X160801Y513438D02*
D03*
X161443Y516998D02*
D03*
X129854Y550567D02*
D03*
X396800Y514700D02*
D03*
X173500Y524900D02*
D03*
X314152Y549951D02*
D03*
X91502Y550800D02*
D03*
X106700Y129346D02*
D03*
X74582Y107147D02*
D03*
X78946Y156584D02*
D03*
X56427Y185607D02*
D03*
X78280Y213960D02*
D03*
D108*
X57019Y134536D02*
D03*
X191253Y155560D02*
D03*
X187355Y127056D02*
D03*
X189479Y88678D02*
D03*
X55637Y87532D02*
D03*
X203555Y279000D02*
D03*
X338426Y590355D02*
D03*
X146700Y243154D02*
D03*
D109*
X517345Y98618D02*
D03*
Y308698D02*
D03*
Y203658D02*
D03*
Y255401D02*
D03*
Y150140D02*
D03*
Y46098D02*
D03*
M02*
