G04*
G04 #@! TF.GenerationSoftware,Altium Limited,Altium Designer,22.3.1 (43)*
G04*
G04 Layer_Color=255*
%FSLAX25Y25*%
%MOIN*%
G70*
G04*
G04 #@! TF.SameCoordinates,26406105-7067-4880-9C5C-2A59F93044AC*
G04*
G04*
G04 #@! TF.FilePolarity,Positive*
G04*
G01*
G75*
%ADD14C,0.00500*%
%ADD16R,0.03740X0.05315*%
%ADD21R,0.05725X0.01716*%
G04:AMPARAMS|DCode=22|XSize=57.25mil|YSize=17.16mil|CornerRadius=8.58mil|HoleSize=0mil|Usage=FLASHONLY|Rotation=0.000|XOffset=0mil|YOffset=0mil|HoleType=Round|Shape=RoundedRectangle|*
%AMROUNDEDRECTD22*
21,1,0.05725,0.00000,0,0,0.0*
21,1,0.04009,0.01716,0,0,0.0*
1,1,0.01716,0.02005,0.00000*
1,1,0.01716,-0.02005,0.00000*
1,1,0.01716,-0.02005,0.00000*
1,1,0.01716,0.02005,0.00000*
%
%ADD22ROUNDEDRECTD22*%
%ADD26R,0.10630X0.03150*%
%ADD27R,0.03600X0.04800*%
%ADD32R,0.05315X0.03740*%
%ADD34R,0.02253X0.06120*%
G04:AMPARAMS|DCode=35|XSize=61.2mil|YSize=22.53mil|CornerRadius=11.26mil|HoleSize=0mil|Usage=FLASHONLY|Rotation=270.000|XOffset=0mil|YOffset=0mil|HoleType=Round|Shape=RoundedRectangle|*
%AMROUNDEDRECTD35*
21,1,0.06120,0.00000,0,0,270.0*
21,1,0.03867,0.02253,0,0,270.0*
1,1,0.02253,0.00000,-0.01934*
1,1,0.02253,0.00000,0.01934*
1,1,0.02253,0.00000,0.01934*
1,1,0.02253,0.00000,-0.01934*
%
%ADD35ROUNDEDRECTD35*%
%ADD49O,0.06102X0.01378*%
%ADD50R,0.03937X0.05315*%
%ADD51R,0.04724X0.05709*%
%ADD52R,0.05315X0.03347*%
%ADD53R,0.05315X0.03937*%
%ADD54R,0.04331X0.06693*%
%ADD55R,0.05906X0.06102*%
%ADD56R,0.02913X0.11496*%
%ADD57O,0.06299X0.01181*%
%ADD58R,0.06102X0.06102*%
%ADD59R,0.05315X0.06102*%
%ADD60R,0.02756X0.05118*%
%ADD61O,0.05512X0.01378*%
%ADD62R,0.03347X0.05315*%
%ADD63O,0.01772X0.06693*%
%ADD64R,0.03740X0.05315*%
%ADD65R,0.06102X0.05315*%
%ADD68C,0.05512*%
%ADD69P,0.09187X4X165.0*%
%ADD70C,0.06496*%
%ADD71P,0.09187X4X285.0*%
%ADD72P,0.09187X4X325.0*%
%ADD73P,0.09187X4X125.0*%
%ADD74C,0.08465*%
D14*
X876400Y442700D02*
G03*
X876400Y442700I-130000J0D01*
G01*
D16*
X696653Y457985D02*
D03*
X702559D02*
D03*
X763322Y440295D02*
D03*
X769227D02*
D03*
X833123Y452204D02*
D03*
X827217Y452204D02*
D03*
X819967Y431240D02*
D03*
X814062D02*
D03*
X729292Y446102D02*
D03*
X735197D02*
D03*
X672988Y378012D02*
D03*
X667082D02*
D03*
X683517Y362877D02*
D03*
X689423D02*
D03*
X662066Y471918D02*
D03*
X656160Y471918D02*
D03*
X643368Y448661D02*
D03*
X649273Y448661D02*
D03*
X779708Y505961D02*
D03*
X773802D02*
D03*
X747055Y500430D02*
D03*
X741150D02*
D03*
X726103D02*
D03*
X732009D02*
D03*
X715462Y519732D02*
D03*
X709556D02*
D03*
X729220Y454639D02*
D03*
X735125D02*
D03*
X841227Y475240D02*
D03*
X847133D02*
D03*
X756507Y476652D02*
D03*
X750602D02*
D03*
D21*
X740731Y468540D02*
D03*
X660991Y456662D02*
D03*
X847317Y460017D02*
D03*
D22*
X740731Y465981D02*
D03*
Y463422D02*
D03*
Y460863D02*
D03*
X756482Y460863D02*
D03*
Y463422D02*
D03*
Y465981D02*
D03*
Y468540D02*
D03*
X660991Y459221D02*
D03*
Y461780D02*
D03*
Y464339D02*
D03*
X645240D02*
D03*
Y461780D02*
D03*
Y459221D02*
D03*
Y456662D02*
D03*
X847317Y462577D02*
D03*
Y465136D02*
D03*
Y467695D02*
D03*
X831565Y467695D02*
D03*
Y465136D02*
D03*
Y462577D02*
D03*
Y460017D02*
D03*
D26*
X669807Y385569D02*
D03*
Y394231D02*
D03*
X670172Y370528D02*
D03*
Y361866D02*
D03*
D27*
X676030Y350200D02*
D03*
X688930D02*
D03*
X698524Y360908D02*
D03*
X711424D02*
D03*
X695380Y391568D02*
D03*
X682480D02*
D03*
D32*
X825214Y520410D02*
D03*
Y526315D02*
D03*
X797493Y527015D02*
D03*
Y521110D02*
D03*
X764943Y522982D02*
D03*
Y517077D02*
D03*
X694740Y518060D02*
D03*
Y512154D02*
D03*
X669260Y504190D02*
D03*
Y510096D02*
D03*
D34*
X781237Y524362D02*
D03*
D35*
X777496D02*
D03*
X773756D02*
D03*
Y515698D02*
D03*
X781237D02*
D03*
D49*
X805695Y434980D02*
D03*
Y437539D02*
D03*
Y440098D02*
D03*
Y442657D02*
D03*
X805695Y445216D02*
D03*
X805695Y447775D02*
D03*
X805695Y450334D02*
D03*
X805695Y452893D02*
D03*
X783057Y434980D02*
D03*
Y437539D02*
D03*
Y440098D02*
D03*
Y442657D02*
D03*
X783057Y445216D02*
D03*
X783057Y447775D02*
D03*
X783057Y450334D02*
D03*
X783057Y452893D02*
D03*
X714926Y433307D02*
D03*
Y435865D02*
D03*
Y438425D02*
D03*
Y440984D02*
D03*
Y443543D02*
D03*
Y446102D02*
D03*
Y448661D02*
D03*
Y451220D02*
D03*
X692288Y433307D02*
D03*
Y435865D02*
D03*
Y438425D02*
D03*
Y440984D02*
D03*
Y443543D02*
D03*
Y446102D02*
D03*
Y448661D02*
D03*
Y451220D02*
D03*
D50*
X863588Y451489D02*
D03*
X856501D02*
D03*
X815439Y475240D02*
D03*
X822526D02*
D03*
X771393Y459954D02*
D03*
X764306D02*
D03*
X726832Y466670D02*
D03*
X733919D02*
D03*
X669851Y458826D02*
D03*
X676938D02*
D03*
X629528Y463962D02*
D03*
X636615D02*
D03*
D51*
X815031Y466670D02*
D03*
X822905D02*
D03*
X863942Y460063D02*
D03*
X856068D02*
D03*
X771196Y451489D02*
D03*
X763322D02*
D03*
X726438Y474684D02*
D03*
X734312D02*
D03*
X670172Y450629D02*
D03*
X678046D02*
D03*
X629725Y472409D02*
D03*
X637599D02*
D03*
D52*
X801846Y418155D02*
D03*
Y424651D02*
D03*
X793614Y418155D02*
D03*
Y424651D02*
D03*
X785300Y418155D02*
D03*
Y424651D02*
D03*
X711809Y417719D02*
D03*
Y424215D02*
D03*
X703005Y424215D02*
D03*
Y417719D02*
D03*
X693700Y424609D02*
D03*
Y418113D02*
D03*
D53*
X728856Y421066D02*
D03*
Y428152D02*
D03*
X755523Y377237D02*
D03*
Y384324D02*
D03*
D54*
X743984Y371100D02*
D03*
X733747D02*
D03*
Y383667D02*
D03*
X743984D02*
D03*
D55*
X727815Y360167D02*
D03*
X720729D02*
D03*
D56*
X711400Y331448D02*
D03*
Y344952D02*
D03*
X716400Y331448D02*
D03*
Y344952D02*
D03*
X721400Y331448D02*
D03*
Y344952D02*
D03*
X726400Y331448D02*
D03*
Y344952D02*
D03*
X731400Y331448D02*
D03*
X731400Y344952D02*
D03*
X736400Y331448D02*
D03*
Y344952D02*
D03*
X741400Y331448D02*
D03*
X741400Y344952D02*
D03*
X746400Y331448D02*
D03*
Y344952D02*
D03*
X751400Y331448D02*
D03*
Y344952D02*
D03*
X756400Y331448D02*
D03*
X756400Y344952D02*
D03*
X761400Y331448D02*
D03*
Y344952D02*
D03*
X766400Y331448D02*
D03*
X766400Y344952D02*
D03*
X771400Y331448D02*
D03*
Y344952D02*
D03*
X776400Y331448D02*
D03*
Y344952D02*
D03*
X781400Y331448D02*
D03*
Y344952D02*
D03*
X711400Y540448D02*
D03*
Y553952D02*
D03*
X716400Y540448D02*
D03*
Y553952D02*
D03*
X721400Y540448D02*
D03*
X721400Y553952D02*
D03*
X726400Y540448D02*
D03*
Y553952D02*
D03*
X731400Y540448D02*
D03*
Y553952D02*
D03*
X736400Y540448D02*
D03*
Y553952D02*
D03*
X741400Y540448D02*
D03*
Y553952D02*
D03*
X746400Y540448D02*
D03*
Y553952D02*
D03*
X751400Y540448D02*
D03*
X751400Y553952D02*
D03*
X756400Y540448D02*
D03*
Y553952D02*
D03*
X761400Y540448D02*
D03*
Y553952D02*
D03*
X766400Y540448D02*
D03*
Y553952D02*
D03*
X771400Y540448D02*
D03*
Y553952D02*
D03*
X776400Y540448D02*
D03*
Y553952D02*
D03*
X781400Y540448D02*
D03*
Y553952D02*
D03*
D57*
X700938Y372840D02*
D03*
Y374809D02*
D03*
X700938Y376777D02*
D03*
Y378746D02*
D03*
X700938Y380714D02*
D03*
X684206Y372840D02*
D03*
Y374809D02*
D03*
X684206Y376777D02*
D03*
Y378746D02*
D03*
X684206Y380714D02*
D03*
D58*
X724272Y399700D02*
D03*
X716989D02*
D03*
D59*
X807704Y509800D02*
D03*
X815382D02*
D03*
D60*
Y520322D02*
D03*
X807901D02*
D03*
X807901Y529771D02*
D03*
X811641D02*
D03*
X815382D02*
D03*
D61*
X747326Y507143D02*
D03*
Y509702D02*
D03*
Y512261D02*
D03*
Y514820D02*
D03*
Y517379D02*
D03*
Y519938D02*
D03*
Y522497D02*
D03*
Y525056D02*
D03*
X725279Y507143D02*
D03*
Y509702D02*
D03*
Y512261D02*
D03*
Y514820D02*
D03*
Y517379D02*
D03*
Y519938D02*
D03*
Y522497D02*
D03*
Y525056D02*
D03*
D62*
X688676Y530595D02*
D03*
X682180D02*
D03*
X718564Y371100D02*
D03*
X712068D02*
D03*
D63*
X685723Y519873D02*
D03*
X683164D02*
D03*
X680605D02*
D03*
X678046D02*
D03*
X685723Y503337D02*
D03*
X683164Y503337D02*
D03*
X680605Y503337D02*
D03*
X678046D02*
D03*
D64*
X712264Y379730D02*
D03*
X718367D02*
D03*
X721812Y389600D02*
D03*
X715709D02*
D03*
D65*
X705860Y390600D02*
D03*
Y398277D02*
D03*
D68*
X705148Y338200D02*
D03*
X787652Y338200D02*
D03*
X843962Y408950D02*
D03*
X839445Y402500D02*
D03*
X834929Y396050D02*
D03*
X830413Y389600D02*
D03*
X825896Y383150D02*
D03*
X821380Y376700D02*
D03*
X816864Y370250D02*
D03*
X812347Y363800D02*
D03*
X807831Y357350D02*
D03*
X835899Y414596D02*
D03*
X831383Y408146D02*
D03*
X826867Y401696D02*
D03*
X822350Y395246D02*
D03*
X817834Y388795D02*
D03*
X813318Y382346D02*
D03*
X808801Y375896D02*
D03*
X804285Y369445D02*
D03*
X799769Y362996D02*
D03*
X705148Y547200D02*
D03*
X787652Y547200D02*
D03*
D69*
X845912Y508468D02*
D03*
D70*
X850912Y499808D02*
D03*
X855912Y491148D02*
D03*
X649273Y497576D02*
D03*
X654273Y506236D02*
D03*
X634703Y427192D02*
D03*
X632967Y437040D02*
D03*
X863133Y420431D02*
D03*
X864870Y430279D02*
D03*
D71*
X644273Y488916D02*
D03*
D72*
X636440Y417344D02*
D03*
D73*
X866606Y440127D02*
D03*
D74*
X852574Y410610D02*
D03*
X834514Y423256D02*
D03*
X791157Y361336D02*
D03*
X809217Y348690D02*
D03*
M02*
