G04*
G04 #@! TF.GenerationSoftware,Altium Limited,Altium Designer,22.3.1 (43)*
G04*
G04 Layer_Color=32896*
%FSLAX25Y25*%
%MOIN*%
G70*
G04*
G04 #@! TF.SameCoordinates,26406105-7067-4880-9C5C-2A59F93044AC*
G04*
G04*
G04 #@! TF.FilePolarity,Positive*
G04*
G01*
G75*
%ADD12C,0.00787*%
%ADD14C,0.00500*%
%ADD15C,0.00700*%
%ADD66C,0.01000*%
%ADD84C,0.00800*%
D12*
X792183Y326680D02*
Y349720D01*
X700617Y326680D02*
X792183D01*
X700617D02*
Y349720D01*
X792183D01*
Y535680D02*
Y558720D01*
X700617Y535680D02*
X792183D01*
X700617D02*
Y558720D01*
X792183D01*
D14*
X876400Y442700D02*
G03*
X876400Y442700I-130000J0D01*
G01*
D15*
X798813Y349644D02*
X799813D01*
X799313D01*
Y347145D01*
X799813Y346645D01*
X800313D01*
X800813Y347145D01*
X796314Y346645D02*
Y349644D01*
X797814Y348145D01*
X795814D01*
X797623Y558644D02*
X798623D01*
X798123D01*
Y556145D01*
X798623Y555645D01*
X799122D01*
X799622Y556145D01*
X796623Y558145D02*
X796123Y558644D01*
X795124D01*
X794624Y558145D01*
Y557645D01*
X795124Y557145D01*
X795623D01*
X795124D01*
X794624Y556645D01*
Y556145D01*
X795124Y555645D01*
X796123D01*
X796623Y556145D01*
D66*
X797308Y453106D02*
Y447108D01*
X794309D01*
X793309Y448108D01*
Y449108D01*
X794309Y450107D01*
X797308D01*
X794309D01*
X793309Y451107D01*
Y452107D01*
X794309Y453106D01*
X797308D01*
X791310Y451107D02*
Y447108D01*
Y449108D01*
X790310Y450107D01*
X789311Y451107D01*
X788311D01*
X782313Y447108D02*
X784312D01*
X785312Y448108D01*
Y450107D01*
X784312Y451107D01*
X782313D01*
X781313Y450107D01*
Y449108D01*
X785312D01*
X778314Y451107D02*
X776315D01*
X775315Y450107D01*
Y447108D01*
X778314D01*
X779314Y448108D01*
X778314Y449108D01*
X775315D01*
X772316Y452107D02*
Y451107D01*
X773316D01*
X771316D01*
X772316D01*
Y448108D01*
X771316Y447108D01*
X768317Y453106D02*
Y447108D01*
Y450107D01*
X767318Y451107D01*
X765318D01*
X764319Y450107D01*
Y447108D01*
X761320Y451107D02*
X759320D01*
X758321Y450107D01*
Y447108D01*
X761320D01*
X762319Y448108D01*
X761320Y449108D01*
X758321D01*
X756321Y447108D02*
X754322D01*
X755322D01*
Y453106D01*
X756321D01*
X751323Y451107D02*
Y448108D01*
X750323Y447108D01*
X747324D01*
Y446109D01*
X748324Y445109D01*
X749324D01*
X747324Y447108D02*
Y451107D01*
X745325D02*
X741326D01*
X745325Y447108D01*
X741326D01*
X736328D02*
X738327D01*
X739327Y448108D01*
Y450107D01*
X738327Y451107D01*
X736328D01*
X735328Y450107D01*
Y449108D01*
X739327D01*
X733329Y451107D02*
Y447108D01*
Y449108D01*
X732329Y450107D01*
X731329Y451107D01*
X730330D01*
X727331Y450107D02*
X723332D01*
X715335Y447108D02*
Y451107D01*
X713335Y453106D01*
X711336Y451107D01*
Y447108D01*
Y450107D01*
X715335D01*
X709337Y447108D02*
Y451107D01*
X708337D01*
X707337Y450107D01*
Y447108D01*
Y450107D01*
X706337Y451107D01*
X705338Y450107D01*
Y447108D01*
X703338Y445109D02*
Y451107D01*
X700339D01*
X699340Y450107D01*
Y448108D01*
X700339Y447108D01*
X703338D01*
X697340D02*
X695341D01*
X696341D01*
Y453106D01*
X697340D01*
X692342Y447108D02*
X690343D01*
X691342D01*
Y451107D01*
X692342D01*
X686344Y447108D02*
Y452107D01*
Y450107D01*
X687344D01*
X685344D01*
X686344D01*
Y452107D01*
X685344Y453106D01*
X682345Y447108D02*
X680346D01*
X681346D01*
Y451107D01*
X682345D01*
X674348Y447108D02*
X676347D01*
X677347Y448108D01*
Y450107D01*
X676347Y451107D01*
X674348D01*
X673348Y450107D01*
Y449108D01*
X677347D01*
X671349Y451107D02*
Y447108D01*
Y449108D01*
X670349Y450107D01*
X669349Y451107D01*
X668350D01*
D84*
X796508Y437790D02*
Y441789D01*
X793842Y437790D01*
Y441789D01*
X790510Y437790D02*
X791843D01*
X792509Y438457D01*
Y439789D01*
X791843Y440456D01*
X790510D01*
X789844Y439789D01*
Y439123D01*
X792509D01*
X786511Y437790D02*
X787844D01*
X788511Y438457D01*
Y439789D01*
X787844Y440456D01*
X786511D01*
X785845Y439789D01*
Y439123D01*
X788511D01*
X784512Y437790D02*
X783179D01*
X783845D01*
Y441789D01*
X784512D01*
X777181Y437790D02*
Y441789D01*
X775848Y440456D01*
X774515Y441789D01*
Y437790D01*
X772516D02*
X771183D01*
X770516Y438457D01*
Y439789D01*
X771183Y440456D01*
X772516D01*
X773182Y439789D01*
Y438457D01*
X772516Y437790D01*
X769183D02*
Y440456D01*
X767184D01*
X766518Y439789D01*
Y437790D01*
X762519Y441789D02*
Y437790D01*
X764518D01*
X765185Y438457D01*
Y439789D01*
X764518Y440456D01*
X762519D01*
X760520D02*
X759187D01*
X758520Y439789D01*
Y437790D01*
X760520D01*
X761186Y438457D01*
X760520Y439123D01*
X758520D01*
X757187Y437790D02*
X755855D01*
X756521D01*
Y441789D01*
X757187D01*
X796508Y431072D02*
Y435070D01*
X794509D01*
X793842Y434404D01*
Y433071D01*
X794509Y432405D01*
X796508D01*
X791843Y433738D02*
X790510D01*
X789844Y433071D01*
Y431072D01*
X791843D01*
X792509Y431738D01*
X791843Y432405D01*
X789844D01*
X788511Y431072D02*
X787178D01*
X787844D01*
Y435070D01*
X788511D01*
X784512Y433738D02*
X783179D01*
X782513Y433071D01*
Y431072D01*
X784512D01*
X785178Y431738D01*
X784512Y432405D01*
X782513D01*
X778514Y433738D02*
X780513D01*
X781180Y433071D01*
Y431738D01*
X780513Y431072D01*
X778514D01*
X777181D02*
X775848D01*
X776514D01*
Y433738D01*
X777181D01*
X773182Y431072D02*
X771849D01*
X771183Y431738D01*
Y433071D01*
X771849Y433738D01*
X773182D01*
X773849Y433071D01*
Y431738D01*
X773182Y431072D01*
X769850D02*
X767851D01*
X767184Y431738D01*
X767851Y432405D01*
X769183D01*
X769850Y433071D01*
X769183Y433738D01*
X767184D01*
X759187Y434404D02*
X759853Y435070D01*
X761186D01*
X761853Y434404D01*
Y431738D01*
X761186Y431072D01*
X759853D01*
X759187Y431738D01*
Y433071D01*
X760520D01*
X757854Y433738D02*
Y431072D01*
Y432405D01*
X757187Y433071D01*
X756521Y433738D01*
X755855D01*
X753189Y431072D02*
X751856D01*
X751189Y431738D01*
Y433071D01*
X751856Y433738D01*
X753189D01*
X753855Y433071D01*
Y431738D01*
X753189Y431072D01*
X749856Y433738D02*
Y431738D01*
X749190Y431072D01*
X747191D01*
Y433738D01*
X745858Y429739D02*
Y433738D01*
X743858D01*
X743192Y433071D01*
Y431738D01*
X743858Y431072D01*
X745858D01*
X741192Y430405D02*
X740526Y431072D01*
Y431738D01*
X741192D01*
Y431072D01*
X740526D01*
X741192Y430405D01*
X741859Y429739D01*
X733862Y431072D02*
Y435070D01*
X732529Y433738D01*
X731196Y435070D01*
Y431072D01*
X729863Y435070D02*
X728530D01*
X729196D01*
Y431072D01*
X729863D01*
X728530D01*
X726531Y435070D02*
X723865D01*
X725198D01*
Y431072D01*
X796508Y423020D02*
Y425686D01*
X795175Y427019D01*
X793842Y425686D01*
Y423020D01*
Y425020D01*
X796508D01*
X792509Y421688D02*
Y425686D01*
X790510D01*
X789844Y425020D01*
Y423687D01*
X790510Y423020D01*
X792509D01*
X788511Y425686D02*
Y423020D01*
Y424353D01*
X787844Y425020D01*
X787178Y425686D01*
X786511D01*
X784512Y423020D02*
X783179D01*
X783845D01*
Y425686D01*
X784512D01*
X781180Y423020D02*
X779847D01*
X780513D01*
Y427019D01*
X781180D01*
X771183Y423020D02*
X773849D01*
X771183Y425686D01*
Y426353D01*
X771849Y427019D01*
X773182D01*
X773849Y426353D01*
X769850D02*
X769183Y427019D01*
X767851D01*
X767184Y426353D01*
Y423687D01*
X767851Y423020D01*
X769183D01*
X769850Y423687D01*
Y426353D01*
X763186Y423020D02*
X765851D01*
X763186Y425686D01*
Y426353D01*
X763852Y427019D01*
X765185D01*
X765851Y426353D01*
X761853D02*
X761186Y427019D01*
X759853D01*
X759187Y426353D01*
Y425686D01*
X759853Y425020D01*
X760520D01*
X759853D01*
X759187Y424353D01*
Y423687D01*
X759853Y423020D01*
X761186D01*
X761853Y423687D01*
M02*
