G04*
G04 #@! TF.GenerationSoftware,Altium Limited,Altium Designer,22.3.1 (43)*
G04*
G04 Layer_Physical_Order=4*
G04 Layer_Color=16711680*
%FSLAX25Y25*%
%MOIN*%
G70*
G04*
G04 #@! TF.SameCoordinates,26406105-7067-4880-9C5C-2A59F93044AC*
G04*
G04*
G04 #@! TF.FilePolarity,Positive*
G04*
G01*
G75*
%ADD14C,0.00500*%
%ADD66C,0.01000*%
%ADD67C,0.02000*%
%ADD68C,0.05512*%
%ADD69P,0.09187X4X165.0*%
%ADD70C,0.06496*%
%ADD71P,0.09187X4X285.0*%
%ADD72P,0.09187X4X325.0*%
%ADD73P,0.09187X4X125.0*%
%ADD74C,0.08465*%
%ADD75C,0.02800*%
%ADD82R,0.02913X0.08740*%
G36*
X696214Y370675D02*
X688930D01*
Y382880D01*
X696214D01*
Y370675D01*
D02*
G37*
D14*
X876400Y442700D02*
G03*
X876400Y442700I-130000J0D01*
G01*
D66*
X716319Y503063D02*
X722388Y509132D01*
X758057D02*
X764943Y516018D01*
X722388Y509132D02*
X758057D01*
X690508Y503063D02*
X716319D01*
X718487Y499374D02*
X725173Y506060D01*
X758548D02*
X767456Y514968D01*
X725173Y506060D02*
X758548D01*
X718057Y499374D02*
X718487D01*
X749447Y528573D02*
X751790Y526230D01*
Y523753D02*
X752134Y523409D01*
X751790Y523753D02*
Y526230D01*
X767456Y514968D02*
Y529586D01*
X764943Y516018D02*
Y526442D01*
X710541Y484951D02*
X727269D01*
X773272D02*
X783770Y474453D01*
X727269Y484951D02*
X773272D01*
X659916Y427192D02*
X660655D01*
X703603Y470139D01*
X658693Y428414D02*
X659916Y427192D01*
X682938Y404169D01*
X703603Y470139D02*
X754473D01*
X699602Y471868D02*
X701827Y474093D01*
X691033Y471868D02*
X699602D01*
X666870D02*
X691033D01*
X704431Y523949D02*
Y524236D01*
X698822Y529845D02*
X704431Y524236D01*
X696237Y555445D02*
X701476Y560684D01*
X696237Y542368D02*
Y555445D01*
Y542368D02*
X699278Y539326D01*
X706235D02*
X709405Y536156D01*
X708034Y533428D02*
X709546Y531917D01*
X699278Y539326D02*
X706235D01*
X707932Y533428D02*
X708034D01*
X709405Y536156D02*
X713643D01*
X716400Y538913D02*
Y541826D01*
X713643Y536156D02*
X716400Y538913D01*
X701476Y560684D02*
X784189D01*
X709546Y531917D02*
X718411D01*
X658365Y428743D02*
X658693Y428414D01*
X711015Y404169D02*
X713219Y406373D01*
X682938Y404169D02*
X711015D01*
X758537Y431880D02*
X765865D01*
X740082Y450334D02*
X758537Y431880D01*
X765865D02*
X768353Y434368D01*
X828484Y472583D02*
X833454Y477553D01*
X812137Y472583D02*
X828484D01*
X808779Y475940D02*
X812137Y472583D01*
X833454Y477553D02*
X853453D01*
X808779Y496594D02*
X815053Y502868D01*
X808779Y475940D02*
Y496594D01*
X771766Y492488D02*
X779708Y500430D01*
X732517Y492488D02*
X771766D01*
X763549Y445152D02*
X774413Y456017D01*
X783057D01*
X763549Y445152D02*
X777768Y430932D01*
Y428831D02*
Y430932D01*
X718761Y366030D02*
X731400Y353391D01*
Y343574D02*
Y353391D01*
X718761Y366030D02*
Y394524D01*
X728406Y404169D01*
Y424003D01*
X721869Y430540D02*
X728406Y424003D01*
X718411Y531917D02*
X721755Y528573D01*
X749447D01*
X731188Y376133D02*
Y445807D01*
X726661Y450334D02*
X731188Y445807D01*
X726155Y371100D02*
X731188Y376133D01*
X771935Y536542D02*
Y541291D01*
Y536542D02*
X779708Y528769D01*
Y500430D02*
Y528769D01*
X771400Y541826D02*
X771935Y541291D01*
X644273Y473079D02*
Y488916D01*
X651952Y465401D02*
X652416D01*
X644273Y473079D02*
X651952Y465401D01*
X739943Y450334D02*
X740082D01*
X732172Y492832D02*
X732517Y492488D01*
X675199Y492832D02*
X732172D01*
X701827Y474093D02*
X750995D01*
X756615Y479713D02*
X764077D01*
X750995Y474093D02*
X756615Y479713D01*
X754473Y470139D02*
X760947Y476613D01*
X764077Y479713D02*
X774463Y469327D01*
X751266Y488464D02*
X782729D01*
X654273Y506236D02*
X671594Y488916D01*
X664059Y503972D02*
X675199Y492832D01*
X782729Y488464D02*
X785535Y491270D01*
X671594Y488916D02*
X714743D01*
X853453Y477553D02*
X869203Y461803D01*
X846770Y448080D02*
X864571Y430279D01*
X864870D01*
X814137Y452196D02*
X814529Y452588D01*
X814137Y425817D02*
Y452196D01*
X824106Y459483D02*
Y459507D01*
X863133Y420431D02*
Y420455D01*
X824106Y459483D02*
X863133Y420455D01*
X829014Y480058D02*
X844822D01*
X855912Y491148D01*
X774463Y469327D02*
X849815D01*
X852078Y471590D01*
X721072Y459035D02*
X721353Y458755D01*
X722893D01*
X754117Y427532D01*
X774070D01*
X678668Y424215D02*
X718564D01*
X718564Y424215D01*
X678668Y424215D02*
X678668Y424215D01*
X869203Y451821D02*
Y461803D01*
X721869Y430540D02*
Y452738D01*
X717321Y457286D02*
X721869Y452738D01*
X794376Y473798D02*
Y550497D01*
X630002Y458058D02*
X682180D01*
X754943Y377204D02*
X794521Y416782D01*
Y460353D01*
X760947Y476594D02*
X772268Y465273D01*
X801845D02*
X814529Y452588D01*
X772268Y465273D02*
X801845D01*
X784189Y560684D02*
X794376Y550497D01*
X774168Y402663D02*
Y427499D01*
X814529Y452588D02*
X815053Y452065D01*
X821728D01*
X644352Y442755D02*
X658365Y428743D01*
X684218Y430540D02*
X721869D01*
X684039Y430361D02*
X684218Y430540D01*
X756400Y534985D02*
Y541826D01*
Y534985D02*
X764943Y526442D01*
X698822Y529845D02*
Y534250D01*
X736400Y364895D02*
X774168Y402663D01*
X736400Y343574D02*
Y364895D01*
X754943Y370250D02*
Y377204D01*
X761400Y366028D02*
X803517Y408146D01*
X831383D01*
X771680Y343854D02*
Y365932D01*
X761400Y343574D02*
Y366028D01*
X771680Y365932D02*
X794543Y388795D01*
X817834D01*
X784876Y369445D02*
X804285D01*
X776400Y360969D02*
X784876Y369445D01*
X771400Y343574D02*
X771680Y343854D01*
X842613Y369133D02*
Y399333D01*
X806305Y332826D02*
X842613Y369133D01*
X795011Y332826D02*
X806305D01*
X795540Y335900D02*
X806535D01*
X817834Y347199D01*
Y358313D01*
X776400Y332826D02*
X776600Y332626D01*
Y326940D02*
Y332626D01*
X761656Y326956D02*
Y332570D01*
X761400Y332826D02*
X761656Y332570D01*
X776400Y343574D02*
Y360969D01*
X761400Y343574D02*
X761400Y343574D01*
X785539Y325900D02*
X795540Y335900D01*
X777640Y325900D02*
X785539D01*
X785185Y323000D02*
X795011Y332826D01*
X765612Y323000D02*
X785185D01*
X761656Y326956D02*
X765612Y323000D01*
X776600Y326940D02*
X777640Y325900D01*
X839445Y402500D02*
X842613Y399333D01*
X812347Y363800D02*
X817834Y358313D01*
X761400Y535642D02*
Y541826D01*
Y535642D02*
X767456Y529586D01*
D67*
X625902Y413722D02*
X657886Y381737D01*
X673085D01*
X678046Y376777D01*
X716849Y517379D02*
X756615D01*
X712903Y513433D02*
X716849Y517379D01*
X625902Y462894D02*
X635631Y472623D01*
X625902Y413722D02*
Y462894D01*
X659624Y523011D02*
X694852D01*
X635631Y499018D02*
X659624Y523011D01*
X635631Y472623D02*
Y499018D01*
X694852Y523011D02*
X704431Y513433D01*
X712903D01*
D68*
X705148Y338200D02*
D03*
X787652Y338200D02*
D03*
X843962Y408950D02*
D03*
X839445Y402500D02*
D03*
X834929Y396050D02*
D03*
X830413Y389600D02*
D03*
X825896Y383150D02*
D03*
X821380Y376700D02*
D03*
X816864Y370250D02*
D03*
X812347Y363800D02*
D03*
X807831Y357350D02*
D03*
X835899Y414596D02*
D03*
X831383Y408146D02*
D03*
X826867Y401696D02*
D03*
X822350Y395246D02*
D03*
X817834Y388795D02*
D03*
X813318Y382346D02*
D03*
X808801Y375896D02*
D03*
X804285Y369445D02*
D03*
X799769Y362996D02*
D03*
X705148Y547200D02*
D03*
X787652Y547200D02*
D03*
D69*
X845912Y508468D02*
D03*
D70*
X850912Y499808D02*
D03*
X855912Y491148D02*
D03*
X649273Y497576D02*
D03*
X654273Y506236D02*
D03*
X634703Y427192D02*
D03*
X632967Y437040D02*
D03*
X863133Y420431D02*
D03*
X864870Y430279D02*
D03*
D71*
X644273Y488916D02*
D03*
D72*
X636440Y417344D02*
D03*
D73*
X866606Y440127D02*
D03*
D74*
X852574Y410610D02*
D03*
X834514Y423256D02*
D03*
X791157Y361336D02*
D03*
X809217Y348690D02*
D03*
D75*
X736579Y500430D02*
D03*
X678046Y376777D02*
D03*
X692408Y372379D02*
D03*
X694496Y374809D02*
D03*
X690439D02*
D03*
X692572Y377859D02*
D03*
X694094Y381032D02*
D03*
X690604D02*
D03*
X676030Y355049D02*
D03*
X754790Y520979D02*
D03*
X752134Y523409D02*
D03*
X756615Y517379D02*
D03*
X766865Y509132D02*
D03*
X750602Y481851D02*
D03*
X702032Y463130D02*
D03*
X696653Y463422D02*
D03*
X704431Y523949D02*
D03*
X720333Y525611D02*
D03*
X707932Y533428D02*
D03*
X711400Y541826D02*
D03*
X703607Y534755D02*
D03*
X721400Y552574D02*
D03*
X727842Y367557D02*
D03*
X709186Y407600D02*
D03*
X788646Y459687D02*
D03*
X763682Y434980D02*
D03*
X827236Y476613D02*
D03*
X869313Y448080D02*
D03*
X746899Y488916D02*
D03*
X787215Y494771D02*
D03*
X722129Y421404D02*
D03*
X846770Y443641D02*
D03*
X820100Y460353D02*
D03*
X709186Y481374D02*
D03*
X725429Y488916D02*
D03*
X685428Y460863D02*
D03*
X629869Y454201D02*
D03*
X788646Y473798D02*
D03*
X805192Y474269D02*
D03*
X802509Y520913D02*
D03*
X810680Y502879D02*
D03*
X815053Y502868D02*
D03*
X664059Y508679D02*
D03*
X694740Y507929D02*
D03*
X718564Y488464D02*
D03*
X717324Y461748D02*
D03*
X679916Y428600D02*
D03*
X721371Y496594D02*
D03*
X763549Y445152D02*
D03*
X781400Y430279D02*
D03*
X783057Y456017D02*
D03*
X705148Y519362D02*
D03*
X726155Y389600D02*
D03*
X723058Y379335D02*
D03*
X750575Y370675D02*
D03*
X776400Y332826D02*
D03*
X781400Y332826D02*
D03*
Y343574D02*
D03*
X776400D02*
D03*
X771400D02*
D03*
X766400D02*
D03*
X761400Y343574D02*
D03*
X756400Y343574D02*
D03*
X751400D02*
D03*
X771400Y332826D02*
D03*
X766400D02*
D03*
X761400D02*
D03*
X756400D02*
D03*
X751400Y332826D02*
D03*
X746400Y332826D02*
D03*
Y343574D02*
D03*
X716400D02*
D03*
X721400D02*
D03*
X726400D02*
D03*
X731400D02*
D03*
X736400D02*
D03*
X741400D02*
D03*
Y332826D02*
D03*
X736400Y332826D02*
D03*
X731400Y332826D02*
D03*
X726400Y332826D02*
D03*
X721400Y332826D02*
D03*
X716400D02*
D03*
X711400Y332826D02*
D03*
X711400Y343574D02*
D03*
X731400Y541826D02*
D03*
X736400D02*
D03*
X741400D02*
D03*
X746400D02*
D03*
X751400D02*
D03*
X756400D02*
D03*
X761400D02*
D03*
X766400D02*
D03*
X771400D02*
D03*
X776400D02*
D03*
X781400D02*
D03*
Y552574D02*
D03*
X776400Y552574D02*
D03*
X771400Y552574D02*
D03*
X766400D02*
D03*
X761400D02*
D03*
X756400D02*
D03*
X751400Y552574D02*
D03*
X746400Y552574D02*
D03*
X741400D02*
D03*
X736400Y552574D02*
D03*
X731400Y552574D02*
D03*
X726400D02*
D03*
Y541826D02*
D03*
X721400D02*
D03*
X716400Y552574D02*
D03*
Y541826D02*
D03*
X711400Y552574D02*
D03*
X651986Y469752D02*
D03*
X739873Y446160D02*
D03*
X739943Y450334D02*
D03*
X740106Y454558D02*
D03*
X749572Y384158D02*
D03*
X662942Y378137D02*
D03*
X751266Y488464D02*
D03*
X727269Y484951D02*
D03*
X714743Y488916D02*
D03*
X710541Y484951D02*
D03*
X648437Y443054D02*
D03*
X837125Y474453D02*
D03*
X837473Y452196D02*
D03*
X818574Y425734D02*
D03*
X814137Y425817D02*
D03*
X846770Y448080D02*
D03*
X824106Y459507D02*
D03*
X829014Y480058D02*
D03*
X852078Y471590D02*
D03*
X785535Y491270D02*
D03*
X726661Y450334D02*
D03*
X718564Y424215D02*
D03*
X678668Y424215D02*
D03*
X652416Y465401D02*
D03*
X811641Y534299D02*
D03*
X779708Y500430D02*
D03*
X732172Y492832D02*
D03*
X664059Y503972D02*
D03*
X869203Y451821D02*
D03*
X783770Y474453D02*
D03*
X721072Y459035D02*
D03*
X717321Y457286D02*
D03*
X794376Y473798D02*
D03*
X808779Y475940D02*
D03*
X682180Y458058D02*
D03*
X630002D02*
D03*
X794521Y460353D02*
D03*
X760947Y476613D02*
D03*
X768353Y434368D02*
D03*
X777768Y428831D02*
D03*
X774070Y427532D02*
D03*
X691033Y471868D02*
D03*
X666870D02*
D03*
X726155Y371100D02*
D03*
X821728Y452065D02*
D03*
X684039Y430361D02*
D03*
X644352Y442755D02*
D03*
X713219Y406373D02*
D03*
X698822Y534250D02*
D03*
X754943Y370250D02*
D03*
X721869Y430540D02*
D03*
X718057Y499374D02*
D03*
X689758D02*
D03*
X690508Y503063D02*
D03*
X712903Y513433D02*
D03*
X694852Y523011D02*
D03*
D82*
X781400Y343574D02*
D03*
Y332826D02*
D03*
X776400Y343574D02*
D03*
Y332826D02*
D03*
X771400Y343574D02*
D03*
Y332826D02*
D03*
X766400Y343574D02*
D03*
Y332826D02*
D03*
X761400Y343574D02*
D03*
X761400Y332826D02*
D03*
X756400Y343574D02*
D03*
Y332826D02*
D03*
X751400Y343574D02*
D03*
X751400Y332826D02*
D03*
X746400Y343574D02*
D03*
Y332826D02*
D03*
X741400Y343574D02*
D03*
Y332826D02*
D03*
X736400Y343574D02*
D03*
X736400Y332826D02*
D03*
X731400Y343574D02*
D03*
Y332826D02*
D03*
X726400Y343574D02*
D03*
X726400Y332826D02*
D03*
X721400Y343574D02*
D03*
Y332826D02*
D03*
X716400Y343574D02*
D03*
Y332826D02*
D03*
X711400Y343574D02*
D03*
X711400Y332826D02*
D03*
X781400Y552574D02*
D03*
Y541826D02*
D03*
X776400Y552574D02*
D03*
Y541826D02*
D03*
X771400Y552574D02*
D03*
Y541826D02*
D03*
X766400Y552574D02*
D03*
Y541826D02*
D03*
X761400Y552574D02*
D03*
X761400Y541826D02*
D03*
X756400Y552574D02*
D03*
Y541826D02*
D03*
X751400Y552574D02*
D03*
X751400Y541826D02*
D03*
X746400Y552574D02*
D03*
Y541826D02*
D03*
X741400Y552574D02*
D03*
Y541826D02*
D03*
X736400Y552574D02*
D03*
X736400Y541826D02*
D03*
X731400Y552574D02*
D03*
Y541826D02*
D03*
X726400Y552574D02*
D03*
Y541826D02*
D03*
X721400Y552574D02*
D03*
Y541826D02*
D03*
X716400Y552574D02*
D03*
Y541826D02*
D03*
X711400Y552574D02*
D03*
Y541826D02*
D03*
M02*
