G04*
G04 #@! TF.GenerationSoftware,Altium Limited,Altium Designer,22.3.1 (43)*
G04*
G04 Layer_Color=128*
%FSLAX25Y25*%
%MOIN*%
G70*
G04*
G04 #@! TF.SameCoordinates,26406105-7067-4880-9C5C-2A59F93044AC*
G04*
G04*
G04 #@! TF.FilePolarity,Positive*
G04*
G01*
G75*
%ADD14C,0.00500*%
%ADD83R,0.04913X0.10740*%
G36*
X772857Y347944D02*
Y339204D01*
X769943D01*
X769943Y347944D01*
X772857Y347944D01*
D02*
G37*
G36*
X767857Y339204D02*
X764943D01*
Y347944D01*
X767857D01*
X767857Y339204D01*
D02*
G37*
G36*
X762857D02*
X759943D01*
Y347944D01*
X762857D01*
X762857Y339204D01*
D02*
G37*
G36*
X757857D02*
X754943D01*
X754943Y347944D01*
X757857Y347944D01*
Y339204D01*
D02*
G37*
G36*
X747857D02*
X744943D01*
X744943Y347944D01*
X747857D01*
Y339204D01*
D02*
G37*
G36*
X737857D02*
X734943D01*
Y347944D01*
X737857D01*
X737857Y339204D01*
D02*
G37*
G36*
X732857D02*
X729943D01*
Y347944D01*
X732857D01*
X732857Y339204D01*
D02*
G37*
G36*
X722857D02*
X719943D01*
Y347944D01*
X722857D01*
Y339204D01*
D02*
G37*
G36*
X712857D02*
X709943D01*
X709943Y347944D01*
X712857D01*
Y339204D01*
D02*
G37*
G36*
X782857D02*
X779943Y339204D01*
Y347944D01*
X782857D01*
X782857Y339204D01*
D02*
G37*
G36*
X777857Y339204D02*
X774943Y339204D01*
Y347944D01*
X777857D01*
Y339204D01*
D02*
G37*
G36*
X752857D02*
X749943Y339204D01*
Y347944D01*
X752857D01*
Y339204D01*
D02*
G37*
G36*
X742857D02*
X739943Y339204D01*
Y347944D01*
X742857D01*
Y339204D01*
D02*
G37*
G36*
X727857Y339204D02*
X724943Y339204D01*
Y347944D01*
X727857D01*
X727857Y339204D01*
D02*
G37*
G36*
X717857Y339204D02*
X714943D01*
Y347944D01*
X717857D01*
Y339204D01*
D02*
G37*
G36*
X782857Y328456D02*
X779943D01*
X779943Y337196D01*
X782857D01*
X782857Y328456D01*
D02*
G37*
G36*
X777857D02*
X774943D01*
Y337196D01*
X777857D01*
X777857Y328456D01*
D02*
G37*
G36*
X767857D02*
X764943D01*
Y337196D01*
X767857D01*
Y328456D01*
D02*
G37*
G36*
X757857D02*
X754943D01*
X754943Y337196D01*
X757857D01*
Y328456D01*
D02*
G37*
G36*
X752857D02*
X749943D01*
Y337196D01*
X752857Y337196D01*
Y328456D01*
D02*
G37*
G36*
X747857D02*
X744943D01*
X744943Y337196D01*
X747857D01*
Y328456D01*
D02*
G37*
G36*
X742857D02*
X739943D01*
Y337196D01*
X742857D01*
Y328456D01*
D02*
G37*
G36*
X727857Y337196D02*
X727857Y328456D01*
X724943D01*
X724943Y337196D01*
X727857Y337196D01*
D02*
G37*
G36*
X722857Y328456D02*
X719943D01*
Y337196D01*
X722857D01*
Y328456D01*
D02*
G37*
G36*
X717857D02*
X714943D01*
Y337196D01*
X717857D01*
X717857Y328456D01*
D02*
G37*
G36*
X712857D02*
X709943D01*
X709943Y337196D01*
X712857Y337196D01*
Y328456D01*
D02*
G37*
G36*
X772857D02*
X769943Y328456D01*
Y337196D01*
X772857D01*
Y328456D01*
D02*
G37*
G36*
X762857Y328456D02*
X759943D01*
Y337196D01*
X762857D01*
Y328456D01*
D02*
G37*
G36*
X737857Y328456D02*
X734943Y328456D01*
Y337196D01*
X737857D01*
X737857Y328456D01*
D02*
G37*
G36*
X732857Y328456D02*
X729943Y328456D01*
Y337196D01*
X732857D01*
Y328456D01*
D02*
G37*
G36*
X772857Y548204D02*
X769943D01*
X769943Y556944D01*
X772857D01*
Y548204D01*
D02*
G37*
G36*
X767857D02*
X764943D01*
Y556944D01*
X767857D01*
X767857Y548204D01*
D02*
G37*
G36*
X762857D02*
X759943D01*
Y556944D01*
X762857D01*
Y548204D01*
D02*
G37*
G36*
X757857D02*
X754943D01*
X754943Y556944D01*
X757857D01*
Y548204D01*
D02*
G37*
G36*
X747857D02*
X744943D01*
Y556944D01*
X747857D01*
Y548204D01*
D02*
G37*
G36*
X737857D02*
X734943D01*
Y556944D01*
X737857D01*
X737857Y548204D01*
D02*
G37*
G36*
X732857D02*
X729943D01*
Y556944D01*
X732857D01*
X732857Y548204D01*
D02*
G37*
G36*
X722857D02*
X719943D01*
Y556944D01*
X722857D01*
Y548204D01*
D02*
G37*
G36*
X782857D02*
X779943Y548204D01*
Y556944D01*
X782857D01*
X782857Y548204D01*
D02*
G37*
G36*
X777857Y548204D02*
X774943D01*
Y556944D01*
X777857D01*
Y548204D01*
D02*
G37*
G36*
X752857D02*
X749943D01*
Y556944D01*
X752857D01*
Y548204D01*
D02*
G37*
G36*
X742857D02*
X739943Y548204D01*
Y556944D01*
X742857D01*
Y548204D01*
D02*
G37*
G36*
X727857Y548204D02*
X724943Y548204D01*
Y556944D01*
X727857D01*
X727857Y548204D01*
D02*
G37*
G36*
X717857Y548204D02*
X714943D01*
Y556944D01*
X717857D01*
Y548204D01*
D02*
G37*
G36*
X712857D02*
X709943Y548204D01*
X709943Y556944D01*
X712857D01*
Y548204D01*
D02*
G37*
G36*
X782857Y537456D02*
X779943D01*
Y546196D01*
X782857D01*
X782857Y537456D01*
D02*
G37*
G36*
X777857D02*
X774943D01*
Y546196D01*
X777857D01*
X777857Y537456D01*
D02*
G37*
G36*
X767857D02*
X764943D01*
Y546196D01*
X767857D01*
Y537456D01*
D02*
G37*
G36*
X752857D02*
X749943D01*
Y546196D01*
X752857D01*
Y537456D01*
D02*
G37*
G36*
X747857D02*
X744943D01*
X744943Y546196D01*
X747857D01*
Y537456D01*
D02*
G37*
G36*
X742857D02*
X739943D01*
Y546196D01*
X742857D01*
Y537456D01*
D02*
G37*
G36*
X727857D02*
X724943D01*
X724943Y546196D01*
X727857D01*
Y537456D01*
D02*
G37*
G36*
X722857D02*
X719943D01*
Y546196D01*
X722857D01*
Y537456D01*
D02*
G37*
G36*
X717857D02*
X714943D01*
Y546196D01*
X717857D01*
Y537456D01*
D02*
G37*
G36*
X712857D02*
X709943D01*
X709943Y546196D01*
X712857D01*
Y537456D01*
D02*
G37*
G36*
X772857D02*
X769943Y537456D01*
Y546196D01*
X772857D01*
Y537456D01*
D02*
G37*
G36*
X762857Y537456D02*
X759943D01*
Y546196D01*
X762857D01*
Y537456D01*
D02*
G37*
G36*
X757857D02*
X754943Y537456D01*
X754943Y546196D01*
X757857D01*
Y537456D01*
D02*
G37*
G36*
X737857Y537456D02*
X734943Y537456D01*
Y546196D01*
X737857D01*
X737857Y537456D01*
D02*
G37*
G36*
X732857Y537456D02*
X729943D01*
Y546196D01*
X732857D01*
Y537456D01*
D02*
G37*
D14*
X876400Y442700D02*
G03*
X876400Y442700I-130000J0D01*
G01*
D83*
X781400Y343574D02*
D03*
Y332826D02*
D03*
X776400Y343574D02*
D03*
Y332826D02*
D03*
X771400Y343574D02*
D03*
Y332826D02*
D03*
X766400Y343574D02*
D03*
Y332826D02*
D03*
X761400Y343574D02*
D03*
X761400Y332826D02*
D03*
X756400Y343574D02*
D03*
Y332826D02*
D03*
X751400Y343574D02*
D03*
X751400Y332826D02*
D03*
X746400Y343574D02*
D03*
Y332826D02*
D03*
X741400Y343574D02*
D03*
Y332826D02*
D03*
X736400Y343574D02*
D03*
X736400Y332826D02*
D03*
X731400Y343574D02*
D03*
Y332826D02*
D03*
X726400Y343574D02*
D03*
X726400Y332826D02*
D03*
X721400Y343574D02*
D03*
Y332826D02*
D03*
X716400Y343574D02*
D03*
Y332826D02*
D03*
X711400Y343574D02*
D03*
X711400Y332826D02*
D03*
X781400Y552574D02*
D03*
Y541826D02*
D03*
X776400Y552574D02*
D03*
Y541826D02*
D03*
X771400Y552574D02*
D03*
Y541826D02*
D03*
X766400Y552574D02*
D03*
Y541826D02*
D03*
X761400Y552574D02*
D03*
X761400Y541826D02*
D03*
X756400Y552574D02*
D03*
Y541826D02*
D03*
X751400Y552574D02*
D03*
X751400Y541826D02*
D03*
X746400Y552574D02*
D03*
Y541826D02*
D03*
X741400Y552574D02*
D03*
Y541826D02*
D03*
X736400Y552574D02*
D03*
X736400Y541826D02*
D03*
X731400Y552574D02*
D03*
Y541826D02*
D03*
X726400Y552574D02*
D03*
Y541826D02*
D03*
X721400Y552574D02*
D03*
Y541826D02*
D03*
X716400Y552574D02*
D03*
Y541826D02*
D03*
X711400Y552574D02*
D03*
Y541826D02*
D03*
M02*
