G04*
G04 #@! TF.GenerationSoftware,Altium Limited,Altium Designer,22.3.1 (43)*
G04*
G04 Layer_Physical_Order=1*
G04 Layer_Color=255*
%FSLAX25Y25*%
%MOIN*%
G70*
G04*
G04 #@! TF.SameCoordinates,26406105-7067-4880-9C5C-2A59F93044AC*
G04*
G04*
G04 #@! TF.FilePolarity,Positive*
G04*
G01*
G75*
%ADD14C,0.00500*%
%ADD16R,0.03740X0.05315*%
%ADD21R,0.05725X0.01716*%
G04:AMPARAMS|DCode=22|XSize=57.25mil|YSize=17.16mil|CornerRadius=8.58mil|HoleSize=0mil|Usage=FLASHONLY|Rotation=0.000|XOffset=0mil|YOffset=0mil|HoleType=Round|Shape=RoundedRectangle|*
%AMROUNDEDRECTD22*
21,1,0.05725,0.00000,0,0,0.0*
21,1,0.04009,0.01716,0,0,0.0*
1,1,0.01716,0.02005,0.00000*
1,1,0.01716,-0.02005,0.00000*
1,1,0.01716,-0.02005,0.00000*
1,1,0.01716,0.02005,0.00000*
%
%ADD22ROUNDEDRECTD22*%
%ADD26R,0.10630X0.03150*%
%ADD27R,0.03600X0.04800*%
%ADD32R,0.05315X0.03740*%
%ADD34R,0.02253X0.06120*%
G04:AMPARAMS|DCode=35|XSize=61.2mil|YSize=22.53mil|CornerRadius=11.26mil|HoleSize=0mil|Usage=FLASHONLY|Rotation=270.000|XOffset=0mil|YOffset=0mil|HoleType=Round|Shape=RoundedRectangle|*
%AMROUNDEDRECTD35*
21,1,0.06120,0.00000,0,0,270.0*
21,1,0.03867,0.02253,0,0,270.0*
1,1,0.02253,0.00000,-0.01934*
1,1,0.02253,0.00000,0.01934*
1,1,0.02253,0.00000,0.01934*
1,1,0.02253,0.00000,-0.01934*
%
%ADD35ROUNDEDRECTD35*%
%ADD49O,0.06102X0.01378*%
%ADD50R,0.03937X0.05315*%
%ADD51R,0.04724X0.05709*%
%ADD52R,0.05315X0.03347*%
%ADD53R,0.05315X0.03937*%
%ADD54R,0.04331X0.06693*%
%ADD55R,0.05906X0.06102*%
%ADD56R,0.02913X0.11496*%
%ADD57O,0.06299X0.01181*%
%ADD58R,0.06102X0.06102*%
%ADD59R,0.05315X0.06102*%
%ADD60R,0.02756X0.05118*%
%ADD61O,0.05512X0.01378*%
%ADD62R,0.03347X0.05315*%
%ADD63O,0.01772X0.06693*%
%ADD64R,0.03740X0.05315*%
%ADD65R,0.06102X0.05315*%
%ADD66C,0.01000*%
%ADD67C,0.02000*%
%ADD68C,0.05512*%
%ADD69P,0.09187X4X165.0*%
%ADD70C,0.06496*%
%ADD71P,0.09187X4X285.0*%
%ADD72P,0.09187X4X325.0*%
%ADD73P,0.09187X4X125.0*%
%ADD74C,0.08465*%
%ADD75C,0.02800*%
G36*
X696214Y370675D02*
X688930D01*
Y382880D01*
X696214D01*
Y370675D01*
D02*
G37*
D14*
X876400Y442700D02*
G03*
X876400Y442700I-130000J0D01*
G01*
D16*
X696653Y457985D02*
D03*
X702559D02*
D03*
X763322Y440295D02*
D03*
X769227D02*
D03*
X833123Y452204D02*
D03*
X827217Y452204D02*
D03*
X819967Y431240D02*
D03*
X814062D02*
D03*
X729292Y446102D02*
D03*
X735197D02*
D03*
X672988Y378012D02*
D03*
X667082D02*
D03*
X683517Y362877D02*
D03*
X689423D02*
D03*
X662066Y471918D02*
D03*
X656160Y471918D02*
D03*
X643368Y448661D02*
D03*
X649273Y448661D02*
D03*
X779708Y505961D02*
D03*
X773802D02*
D03*
X747055Y500430D02*
D03*
X741150D02*
D03*
X726103D02*
D03*
X732009D02*
D03*
X715462Y519732D02*
D03*
X709556D02*
D03*
X729220Y454639D02*
D03*
X735125D02*
D03*
X841227Y475240D02*
D03*
X847133D02*
D03*
X756507Y476652D02*
D03*
X750602D02*
D03*
D21*
X740731Y468540D02*
D03*
X660991Y456662D02*
D03*
X847317Y460017D02*
D03*
D22*
X740731Y465981D02*
D03*
Y463422D02*
D03*
Y460863D02*
D03*
X756482Y460863D02*
D03*
Y463422D02*
D03*
Y465981D02*
D03*
Y468540D02*
D03*
X660991Y459221D02*
D03*
Y461780D02*
D03*
Y464339D02*
D03*
X645240D02*
D03*
Y461780D02*
D03*
Y459221D02*
D03*
Y456662D02*
D03*
X847317Y462577D02*
D03*
Y465136D02*
D03*
Y467695D02*
D03*
X831565Y467695D02*
D03*
Y465136D02*
D03*
Y462577D02*
D03*
Y460017D02*
D03*
D26*
X669807Y385569D02*
D03*
Y394231D02*
D03*
X670172Y370528D02*
D03*
Y361866D02*
D03*
D27*
X676030Y350200D02*
D03*
X688930D02*
D03*
X698524Y360908D02*
D03*
X711424D02*
D03*
X695380Y391568D02*
D03*
X682480D02*
D03*
D32*
X825214Y520410D02*
D03*
Y526315D02*
D03*
X797493Y527015D02*
D03*
Y521110D02*
D03*
X764943Y522982D02*
D03*
Y517077D02*
D03*
X694740Y518060D02*
D03*
Y512154D02*
D03*
X669260Y504190D02*
D03*
Y510096D02*
D03*
D34*
X781237Y524362D02*
D03*
D35*
X777496D02*
D03*
X773756D02*
D03*
Y515698D02*
D03*
X781237D02*
D03*
D49*
X805695Y434980D02*
D03*
Y437539D02*
D03*
Y440098D02*
D03*
Y442657D02*
D03*
X805695Y445216D02*
D03*
X805695Y447775D02*
D03*
X805695Y450334D02*
D03*
X805695Y452893D02*
D03*
X783057Y434980D02*
D03*
Y437539D02*
D03*
Y440098D02*
D03*
Y442657D02*
D03*
X783057Y445216D02*
D03*
X783057Y447775D02*
D03*
X783057Y450334D02*
D03*
X783057Y452893D02*
D03*
X714926Y433307D02*
D03*
Y435865D02*
D03*
Y438425D02*
D03*
Y440984D02*
D03*
Y443543D02*
D03*
Y446102D02*
D03*
Y448661D02*
D03*
Y451220D02*
D03*
X692288Y433307D02*
D03*
Y435865D02*
D03*
Y438425D02*
D03*
Y440984D02*
D03*
Y443543D02*
D03*
Y446102D02*
D03*
Y448661D02*
D03*
Y451220D02*
D03*
D50*
X863588Y451489D02*
D03*
X856501D02*
D03*
X815439Y475240D02*
D03*
X822526D02*
D03*
X771393Y459954D02*
D03*
X764306D02*
D03*
X726832Y466670D02*
D03*
X733919D02*
D03*
X669851Y458826D02*
D03*
X676938D02*
D03*
X629528Y463962D02*
D03*
X636615D02*
D03*
D51*
X815031Y466670D02*
D03*
X822905D02*
D03*
X863942Y460063D02*
D03*
X856068D02*
D03*
X771196Y451489D02*
D03*
X763322D02*
D03*
X726438Y474684D02*
D03*
X734312D02*
D03*
X670172Y450629D02*
D03*
X678046D02*
D03*
X629725Y472409D02*
D03*
X637599D02*
D03*
D52*
X801846Y418155D02*
D03*
Y424651D02*
D03*
X793614Y418155D02*
D03*
Y424651D02*
D03*
X785300Y418155D02*
D03*
Y424651D02*
D03*
X711809Y417719D02*
D03*
Y424215D02*
D03*
X703005Y424215D02*
D03*
Y417719D02*
D03*
X693700Y424609D02*
D03*
Y418113D02*
D03*
D53*
X728856Y421066D02*
D03*
Y428152D02*
D03*
X755523Y377237D02*
D03*
Y384324D02*
D03*
D54*
X743984Y371100D02*
D03*
X733747D02*
D03*
Y383667D02*
D03*
X743984D02*
D03*
D55*
X727815Y360167D02*
D03*
X720729D02*
D03*
D56*
X711400Y331448D02*
D03*
Y344952D02*
D03*
X716400Y331448D02*
D03*
Y344952D02*
D03*
X721400Y331448D02*
D03*
Y344952D02*
D03*
X726400Y331448D02*
D03*
Y344952D02*
D03*
X731400Y331448D02*
D03*
X731400Y344952D02*
D03*
X736400Y331448D02*
D03*
Y344952D02*
D03*
X741400Y331448D02*
D03*
X741400Y344952D02*
D03*
X746400Y331448D02*
D03*
Y344952D02*
D03*
X751400Y331448D02*
D03*
Y344952D02*
D03*
X756400Y331448D02*
D03*
X756400Y344952D02*
D03*
X761400Y331448D02*
D03*
Y344952D02*
D03*
X766400Y331448D02*
D03*
X766400Y344952D02*
D03*
X771400Y331448D02*
D03*
Y344952D02*
D03*
X776400Y331448D02*
D03*
Y344952D02*
D03*
X781400Y331448D02*
D03*
Y344952D02*
D03*
X711400Y540448D02*
D03*
Y553952D02*
D03*
X716400Y540448D02*
D03*
Y553952D02*
D03*
X721400Y540448D02*
D03*
X721400Y553952D02*
D03*
X726400Y540448D02*
D03*
Y553952D02*
D03*
X731400Y540448D02*
D03*
Y553952D02*
D03*
X736400Y540448D02*
D03*
Y553952D02*
D03*
X741400Y540448D02*
D03*
Y553952D02*
D03*
X746400Y540448D02*
D03*
Y553952D02*
D03*
X751400Y540448D02*
D03*
X751400Y553952D02*
D03*
X756400Y540448D02*
D03*
Y553952D02*
D03*
X761400Y540448D02*
D03*
Y553952D02*
D03*
X766400Y540448D02*
D03*
Y553952D02*
D03*
X771400Y540448D02*
D03*
Y553952D02*
D03*
X776400Y540448D02*
D03*
Y553952D02*
D03*
X781400Y540448D02*
D03*
Y553952D02*
D03*
D57*
X700938Y372840D02*
D03*
Y374809D02*
D03*
X700938Y376777D02*
D03*
Y378746D02*
D03*
X700938Y380714D02*
D03*
X684206Y372840D02*
D03*
Y374809D02*
D03*
X684206Y376777D02*
D03*
Y378746D02*
D03*
X684206Y380714D02*
D03*
D58*
X724272Y399700D02*
D03*
X716989D02*
D03*
D59*
X807704Y509800D02*
D03*
X815382D02*
D03*
D60*
Y520322D02*
D03*
X807901D02*
D03*
X807901Y529771D02*
D03*
X811641D02*
D03*
X815382D02*
D03*
D61*
X747326Y507143D02*
D03*
Y509702D02*
D03*
Y512261D02*
D03*
Y514820D02*
D03*
Y517379D02*
D03*
Y519938D02*
D03*
Y522497D02*
D03*
Y525056D02*
D03*
X725279Y507143D02*
D03*
Y509702D02*
D03*
Y512261D02*
D03*
Y514820D02*
D03*
Y517379D02*
D03*
Y519938D02*
D03*
Y522497D02*
D03*
Y525056D02*
D03*
D62*
X688676Y530595D02*
D03*
X682180D02*
D03*
X718564Y371100D02*
D03*
X712068D02*
D03*
D63*
X685723Y519873D02*
D03*
X683164D02*
D03*
X680605D02*
D03*
X678046D02*
D03*
X685723Y503337D02*
D03*
X683164Y503337D02*
D03*
X680605Y503337D02*
D03*
X678046D02*
D03*
D64*
X712264Y379730D02*
D03*
X718367D02*
D03*
X721812Y389600D02*
D03*
X715709D02*
D03*
D65*
X705860Y390600D02*
D03*
Y398277D02*
D03*
D66*
X678046Y376777D02*
X684206D01*
X674223D02*
X678046D01*
X671913Y385569D02*
X672988Y384494D01*
Y378012D02*
Y384494D01*
X669807Y385569D02*
X671913D01*
Y370361D02*
X672988Y371436D01*
X671426Y370361D02*
X671913D01*
X672988Y371436D02*
Y378012D01*
X674223Y376777D01*
X671426Y361700D02*
X682340D01*
X683517Y362877D01*
X683378Y363664D02*
Y372757D01*
X682480Y392199D02*
Y393600D01*
X682564Y380714D02*
X684206D01*
X682480Y380798D02*
Y392199D01*
Y380798D02*
X682564Y380714D01*
X747326Y509702D02*
X754817D01*
X754804Y512261D02*
X785064Y482000D01*
X760888Y498087D02*
Y503631D01*
X747326Y512261D02*
X754804D01*
X785810Y483800D02*
X833536D01*
X754790Y514820D02*
X785810Y483800D01*
X754817Y509702D02*
X760888Y503631D01*
X785064Y482000D02*
X826855D01*
X676030Y350200D02*
Y355049D01*
X754303Y520979D02*
X754790D01*
X747326Y519938D02*
X753262D01*
X750807Y522569D02*
X751647Y523409D01*
X753262Y519938D02*
X754303Y520979D01*
X751647Y523409D02*
X752134D01*
X747398Y522569D02*
X750807D01*
X747326Y514820D02*
X754790D01*
X770036Y505961D02*
X773802D01*
X766865Y509132D02*
X770036Y505961D01*
X766378Y509132D02*
X766865D01*
X764863Y510624D02*
X764886D01*
X766378Y509132D01*
X764156Y511331D02*
X764863Y510624D01*
X764156Y511331D02*
Y515707D01*
X765526Y517077D02*
X765731D01*
X764156Y515707D02*
X765526Y517077D01*
X773802Y505961D02*
Y510379D01*
X750602Y476652D02*
Y481851D01*
X711549Y497576D02*
Y503602D01*
X722197Y514250D01*
X722681Y512189D02*
X725206D01*
X714743Y488916D02*
Y504250D01*
X722681Y512189D01*
X725206D02*
X725279Y512261D01*
X722197Y514250D02*
X722539D01*
X702032Y458512D02*
X703929Y456615D01*
X702032Y458512D02*
Y463130D01*
X695283Y455828D02*
X696653Y457198D01*
Y463422D01*
X692288Y451220D02*
Y453620D01*
X694496Y455828D02*
X695283D01*
X692288Y453620D02*
X694496Y455828D01*
X707848Y451220D02*
X714926D01*
X703929Y455139D02*
Y456615D01*
Y455139D02*
X707848Y451220D01*
X655029Y452597D02*
X669131Y438495D01*
X669851Y458826D02*
X670048Y458629D01*
X664891Y445280D02*
X669877Y440295D01*
X681636D01*
X669131Y438495D02*
X682381D01*
X656829Y453342D02*
X664891Y445280D01*
X665314D02*
X670172Y450137D01*
X655029Y452597D02*
Y454488D01*
X664891Y445280D02*
X665314D01*
X656829Y453342D02*
Y458058D01*
X704718Y524236D02*
X717324D01*
X689849Y528849D02*
X714330D01*
X688676Y530022D02*
X689849Y528849D01*
X702860Y527049D02*
X715076D01*
X716876Y528849D01*
X704431Y523949D02*
X704718Y524236D01*
X688676Y530022D02*
Y530595D01*
X714330Y528849D02*
X716130Y530649D01*
X700260Y524449D02*
X702860Y527049D01*
X716876Y528849D02*
X729092D01*
X736400Y536157D01*
X720333Y525611D02*
X720820D01*
X721302Y525129D01*
X693089Y546080D02*
X708438Y561429D01*
X677363Y532899D02*
X708263Y563799D01*
X677363Y526709D02*
Y532899D01*
X708263Y563799D02*
X727654D01*
X708438Y561429D02*
X725814D01*
X693089Y539983D02*
Y546080D01*
X709016Y533773D02*
X711400Y536157D01*
X716130Y530649D02*
X725892D01*
X708276Y533773D02*
X709016D01*
X707932Y533428D02*
X708276Y533773D01*
X708306Y404169D02*
X711015D01*
X705985Y401849D02*
X708306Y404169D01*
X711015D02*
X713219Y406373D01*
X718256D01*
X703989Y417719D02*
X707282Y414426D01*
X713967Y416546D02*
X749114D01*
X707282Y414426D02*
X746792D01*
X788154Y373064D01*
X712793Y417719D02*
X713967Y416546D01*
X749114D02*
X799207Y366453D01*
X696086Y412040D02*
X744064D01*
X693700Y414426D02*
X696086Y412040D01*
X744064D02*
X784886Y371219D01*
X693700Y414426D02*
Y418113D01*
X763322Y440295D02*
X763682Y439934D01*
Y434980D02*
Y439934D01*
X677363Y526709D02*
X680457Y523615D01*
Y520021D02*
X680605Y519873D01*
X680457Y520021D02*
Y523615D01*
X728518Y421404D02*
X728856Y421066D01*
X722129Y421404D02*
X728518D01*
X805695Y447775D02*
X812374D01*
X824106Y459507D02*
X827038Y462440D01*
X805768Y450406D02*
X812347D01*
X812374Y447775D02*
X824106Y459507D01*
X812347Y450406D02*
X817000Y455058D01*
Y463730D01*
X797493Y521110D02*
X797690Y520913D01*
X802509D01*
X809862Y504184D02*
Y507642D01*
Y504184D02*
X810680Y503366D01*
Y502879D02*
Y503366D01*
X807704Y509800D02*
X809862Y507642D01*
X815053Y509471D02*
X815382Y509800D01*
X815053Y502868D02*
Y509471D01*
X664059Y508679D02*
X664060D01*
X665476Y510096D02*
X669260D01*
X664060Y508679D02*
X665476Y510096D01*
X669260D02*
X670631Y511466D01*
X672099D02*
X678046Y517412D01*
Y519873D01*
X670631Y511466D02*
X672099D01*
X694740Y507929D02*
Y512154D01*
X683312Y500197D02*
Y503190D01*
Y500197D02*
X684818Y498691D01*
X688588D02*
X689271Y499374D01*
X683164Y503337D02*
X683312Y503190D01*
X684818Y498691D02*
X688588D01*
X689271Y499374D02*
X689758D01*
X740057Y492645D02*
X747055Y499643D01*
X732360Y492645D02*
X740057D01*
X732172Y492832D02*
X732360Y492645D01*
X732172Y492832D02*
X732517Y492488D01*
X755537Y445152D02*
X763549D01*
X738537Y428152D02*
X755537Y445152D01*
X767869Y445216D02*
X783057D01*
X767534Y448097D02*
X768295Y447335D01*
X765184Y447901D02*
X767869Y445216D01*
X767534Y455603D02*
X767575Y455644D01*
X767534Y448097D02*
Y455603D01*
X767575Y455644D02*
Y463150D01*
X765184Y447901D02*
Y449627D01*
X781400Y430766D02*
X783057Y432423D01*
Y434980D01*
X781400Y430279D02*
Y430766D01*
X783057Y456017D02*
X800517D01*
X803261Y453273D01*
X783057Y452893D02*
Y456017D01*
X721525Y430884D02*
X723419Y428990D01*
X728018D01*
X728856Y428152D01*
X721302Y525129D02*
X725206D01*
X725892Y530649D02*
X731400Y536157D01*
X725206Y525129D02*
X725279Y525056D01*
X719063Y522497D02*
X725279D01*
X717324Y524236D02*
X719063Y522497D01*
X709186Y519362D02*
X709556Y519732D01*
X705148Y519362D02*
X709186D01*
X683016Y503485D02*
X683164Y503337D01*
X721812Y389600D02*
X726155D01*
X709490Y384914D02*
X724272D01*
X731949Y377237D01*
X706891Y382315D02*
X709490Y384914D01*
X718367Y379730D02*
X718761Y379335D01*
X723058D01*
X692408Y376777D02*
X692572D01*
X684206Y374809D02*
X690439D01*
X692408Y376777D02*
X692572D01*
X684206Y378746D02*
X690439D01*
X690439Y374809D02*
X692408Y376777D01*
X690439Y378746D02*
X692408Y376777D01*
X692572D02*
X700938D01*
X733747Y389600D02*
Y390225D01*
Y383667D02*
Y389600D01*
X758374D01*
X763716Y384259D01*
Y371778D02*
Y384259D01*
X751400Y359463D02*
X763716Y371778D01*
X751400Y344952D02*
Y359463D01*
X744409Y370675D02*
X750575D01*
X743984Y371100D02*
X744409Y370675D01*
X709514Y322200D02*
X746443D01*
X705238Y326475D02*
Y328236D01*
Y326475D02*
X709514Y322200D01*
X746443D02*
X751400Y327157D01*
Y331448D01*
X697574Y335900D02*
X705238Y328236D01*
X697574Y335900D02*
Y346459D01*
X711424Y360308D02*
Y360908D01*
X697574Y346459D02*
X711424Y360308D01*
X651994Y469760D02*
X654790D01*
X656160Y471130D02*
Y471918D01*
X654790Y469760D02*
X656160Y471130D01*
X651986Y469752D02*
X651994Y469760D01*
X645240Y464339D02*
Y468016D01*
X657418Y480194D02*
X659813D01*
X645240Y468016D02*
X657418Y480194D01*
X735197Y446102D02*
X739815D01*
X739873Y446160D01*
X726661Y450334D02*
X739943D01*
X740025Y454639D02*
X740106Y454558D01*
X735125Y454639D02*
X740025D01*
X743984Y383667D02*
X744475Y384158D01*
X749572D01*
X749737Y384324D01*
X755523D01*
X662942Y378137D02*
X666957D01*
X667082Y378012D01*
X731828Y493177D02*
X732517Y492488D01*
X736579Y500430D02*
X741150D01*
X732009D02*
X736579D01*
X751266Y488464D02*
X760888Y498087D01*
X746400Y483599D02*
X751266Y488464D01*
X704505Y484951D02*
X710541D01*
X721585Y479267D02*
X727269Y484951D01*
X696149Y476594D02*
X704505Y484951D01*
X649273Y444377D02*
Y448661D01*
X648437Y443054D02*
Y443541D01*
X649273Y444377D01*
X840440Y474453D02*
X841227Y475240D01*
X837125Y474453D02*
X840440D01*
X833536Y473146D02*
X841409Y465273D01*
X833536Y473146D02*
Y483800D01*
X841409Y465273D02*
X847180D01*
X833123Y452204D02*
X833131Y452196D01*
X837473D01*
X818574Y425734D02*
Y425759D01*
X819967Y427151D02*
Y431240D01*
X818574Y425759D02*
X819967Y427151D01*
X854120Y433208D02*
X861039Y440127D01*
X830720Y433208D02*
X854120D01*
X861039Y440127D02*
X866606D01*
X819190Y421678D02*
X830720Y433208D01*
X789257Y421678D02*
X819190D01*
X786284Y424651D02*
X789257Y421678D01*
X785300Y424651D02*
X786284D01*
X842600Y430974D02*
X860005Y413569D01*
X831393Y430974D02*
X842600D01*
X818574Y418155D02*
X831393Y430974D01*
X860005Y402105D02*
Y413569D01*
X800861Y424651D02*
X801846D01*
Y418155D02*
X818574D01*
X805695Y437539D02*
X849015D01*
X860320Y448843D01*
X814062Y425892D02*
X814137Y425817D01*
X814062Y425892D02*
Y431240D01*
X838491Y440098D02*
X846621Y448228D01*
X860320Y448843D02*
Y455948D01*
X828797Y480058D02*
X829014D01*
X826855Y482000D02*
X828797Y480058D01*
X833536Y483800D02*
X834904D01*
X828709Y479753D02*
X829014Y479448D01*
X831565Y476896D01*
Y467695D02*
Y476896D01*
X834904Y483800D02*
X850912Y499808D01*
X847180Y465273D02*
X847317Y465136D01*
Y474269D02*
X849651Y471934D01*
X851733D02*
X852078Y471590D01*
X849651Y471934D02*
X851733D01*
X785535Y491270D02*
X828714D01*
X845912Y508468D01*
X721072Y459035D02*
X721371D01*
X722857Y457549D01*
Y448171D02*
Y457549D01*
X646862Y421115D02*
X687988D01*
X640785Y427192D02*
X646862Y421115D01*
X634703Y427192D02*
X640785D01*
X690309Y423436D02*
X692527D01*
X693700Y424609D01*
X698892Y421086D02*
X702021Y424215D01*
X690504Y421086D02*
X698892D01*
X636440Y417344D02*
X686762D01*
X687988Y421115D02*
X690309Y423436D01*
X686762Y417344D02*
X690504Y421086D01*
X693700Y424609D02*
X694685D01*
X711809Y424215D02*
X711809Y424215D01*
X718564D01*
X652548Y424215D02*
X678668D01*
X632967Y437040D02*
X639723D01*
X652548Y424215D01*
X714743Y472295D02*
Y488916D01*
X692335Y492832D02*
X700260Y500757D01*
X685468Y492832D02*
X692335D01*
X680753Y497547D02*
X685468Y492832D01*
X659813Y480194D02*
X691622D01*
X659813D02*
Y487036D01*
X649273Y497576D02*
X659813Y487036D01*
X656037Y461780D02*
X660991D01*
X652416Y465401D02*
X656037Y461780D01*
X680753Y497547D02*
Y503190D01*
X691622Y480194D02*
X708955Y497527D01*
X680924Y478394D02*
X692368D01*
X711549Y497576D01*
X714743Y472295D02*
X726174Y460863D01*
X708955Y497527D02*
Y504748D01*
X814504Y528893D02*
X815382Y529771D01*
X814504Y526858D02*
Y528893D01*
X813558Y525912D02*
X814504Y526858D01*
X809725Y525912D02*
X813558D01*
X808779Y526858D02*
Y528893D01*
X807901Y529771D02*
X808779Y528893D01*
Y526858D02*
X809725Y525912D01*
X825214Y526315D02*
Y529185D01*
X811641Y534299D02*
X820100D01*
X825214Y529185D01*
X811641Y534299D02*
X811641Y534299D01*
X811641Y529771D02*
Y534299D01*
X779273Y505526D02*
X779708Y505091D01*
X779273Y505526D02*
X779708Y505961D01*
Y500430D02*
Y505091D01*
X726103Y499643D02*
Y506832D01*
X747055Y499643D02*
Y500430D01*
X731828Y493177D02*
Y493918D01*
X726103Y499643D02*
X731828Y493918D01*
X664059Y503972D02*
X664277Y504190D01*
X669260D01*
X669486Y503965D02*
X677689D01*
X678046Y503337D02*
Y503608D01*
X677689Y503965D02*
X678046Y503608D01*
X747055Y500430D02*
X747191Y500566D01*
X686798Y476594D02*
X696149D01*
X664320Y461790D02*
X680924Y478394D01*
X682180Y471976D02*
X686798Y476594D01*
X868871Y451489D02*
X869203Y451821D01*
X863588Y451489D02*
X868871D01*
X682180Y458058D02*
Y471976D01*
X783770Y474453D02*
X787215Y477898D01*
X772706Y463388D02*
X783770Y474453D01*
X721585Y468638D02*
Y479267D01*
Y468638D02*
X723554Y466670D01*
X726832D01*
X691033Y471868D02*
X712623D01*
X725429Y459063D01*
X725584D01*
X726174Y460863D02*
X735245D01*
X725584Y459063D02*
X729220Y455427D01*
X720631Y449247D02*
Y453976D01*
X717321Y457286D02*
X720631Y453976D01*
X729220Y454639D02*
Y455427D01*
X806335Y477898D02*
X808292Y475940D01*
X787215Y477898D02*
X806335D01*
X772706Y461267D02*
Y463388D01*
X771393Y459954D02*
X772706Y461267D01*
X808292Y475940D02*
X808779D01*
X794449Y460426D02*
X794521Y460353D01*
X794376Y473798D02*
X794449Y473726D01*
Y460426D02*
Y473726D01*
X808779Y475940D02*
X814740D01*
X815439Y475240D01*
X815382Y509800D02*
Y520322D01*
X815469Y520410D02*
X825214D01*
X815382Y520322D02*
X815469Y520410D01*
X680925Y458826D02*
X681693Y458058D01*
X676938Y458826D02*
X680925D01*
X681693Y458058D02*
X682180D01*
X630002D02*
Y463488D01*
X629528Y463962D02*
X630002Y463488D01*
X847317Y467695D02*
Y474269D01*
X847133Y474453D02*
X847317Y474269D01*
X847133Y474453D02*
Y475240D01*
X760947Y476613D02*
X761291Y476958D01*
X756546Y476613D02*
X760947D01*
X756507Y476652D02*
X756546Y476613D01*
X803261Y453068D02*
X803435Y452893D01*
X803261Y453068D02*
Y453273D01*
X803435Y452893D02*
X805695D01*
X756482Y468540D02*
Y476628D01*
X756507Y476652D01*
X764744Y465981D02*
X767575Y463150D01*
X756482Y465981D02*
X764744D01*
X769227Y440295D02*
Y441082D01*
Y435729D02*
Y440295D01*
X728856Y428152D02*
X738537D01*
X768353Y434368D02*
Y434855D01*
X769227Y435729D01*
X777768Y428831D02*
Y434866D01*
X774070Y427532D02*
Y438070D01*
X776098Y440098D01*
X729220Y455427D02*
X732554Y458761D01*
X738726Y460863D02*
X740731D01*
X732554Y458761D02*
X736625D01*
X738726Y460863D01*
X720787Y446102D02*
X722857Y448171D01*
X666821Y471918D02*
X666870Y471868D01*
X662066Y471918D02*
X666821D01*
X727005Y449176D02*
X729292Y446889D01*
Y446102D02*
Y446889D01*
X727005Y449176D02*
Y449990D01*
X726661Y450334D02*
X727005Y449990D01*
X726155Y371100D02*
X733747D01*
X718564D02*
X726155D01*
X727005Y451637D02*
X729220Y453852D01*
X726661Y450334D02*
X727005Y450678D01*
X729220Y453852D02*
Y454639D01*
X727005Y450678D02*
Y451637D01*
X746400Y472813D02*
X750602Y468612D01*
X748699Y443207D02*
Y467352D01*
X737974Y478077D02*
Y478077D01*
X746400Y472813D02*
Y483599D01*
X737974Y478077D02*
X748699Y467352D01*
X728505Y479605D02*
X736446D01*
X750602Y463130D02*
Y468612D01*
X736446Y479605D02*
X737974Y478077D01*
X821728Y452065D02*
X827078D01*
X827217Y452204D01*
X720774Y443543D02*
X722447Y445216D01*
X714926Y443543D02*
X720774D01*
X728406Y445216D02*
X729292Y446102D01*
X722447Y445216D02*
X728406D01*
X684039Y430361D02*
X686985Y433307D01*
X643368Y444227D02*
X644352Y443242D01*
X643368Y444227D02*
Y448661D01*
X644352Y442755D02*
Y443242D01*
X705985Y398403D02*
Y401849D01*
X705860Y398277D02*
X705985Y398403D01*
X718256Y406373D02*
X721721Y402909D01*
X827217Y452204D02*
Y452991D01*
X830392Y460017D02*
X831565D01*
X830061Y459687D02*
X830392Y460017D01*
X830061Y455835D02*
Y459687D01*
X827217Y452991D02*
X830061Y455835D01*
X827038Y462440D02*
X831428D01*
X808130Y433801D02*
Y434805D01*
X810691Y431240D02*
X814062D01*
X808130Y433801D02*
X810691Y431240D01*
X807955Y434980D02*
X808130Y434805D01*
X805695Y434980D02*
X807955D01*
X770802Y442657D02*
X783057D01*
X769227Y441082D02*
X770802Y442657D01*
X660991Y470843D02*
X662066Y471918D01*
X660991Y464339D02*
Y470843D01*
X643699Y456662D02*
X645240D01*
X643368Y448661D02*
Y456331D01*
X643699Y456662D01*
X700260Y500757D02*
Y524449D01*
X693089Y539983D02*
X698822Y534250D01*
X725814Y561429D02*
X726400Y560843D01*
Y553952D02*
Y560843D01*
X727654Y563799D02*
X730839Y560614D01*
X754943Y376658D02*
X755523Y377237D01*
X754943Y370250D02*
Y376658D01*
X777768Y434866D02*
X779872Y436969D01*
X780023D01*
X780593Y437539D01*
X783057D01*
X686985Y433307D02*
X692288D01*
X717288D02*
X719710Y430884D01*
X721525D01*
X714926Y433307D02*
X717288D01*
X714926Y448661D02*
X720045D01*
X776098Y440098D02*
X783057D01*
X771014Y331062D02*
X771400Y331448D01*
X771014Y324786D02*
Y331062D01*
Y324786D02*
X772800Y323000D01*
X799207Y363557D02*
Y366453D01*
Y363557D02*
X799769Y362996D01*
X801142Y406800D02*
X821762D01*
X826867Y401696D01*
X837979Y393000D02*
X850900D01*
X834929Y396050D02*
X837979Y393000D01*
X808421Y387243D02*
X813318Y382346D01*
X803808Y387243D02*
X808421D01*
X830170Y357549D02*
Y369773D01*
X821380Y376700D02*
X822243Y375837D01*
X824106D02*
X830170Y369773D01*
X822243Y375837D02*
X824106D01*
X803476Y352995D02*
X807831Y357350D01*
X832423Y357257D02*
Y376624D01*
X812563Y337397D02*
X832423Y357257D01*
X785185Y323000D02*
X799582Y337397D01*
X772800Y323000D02*
X785185D01*
X799582Y337397D02*
X812563D01*
X812721Y340100D02*
X830170Y357549D01*
X797676Y340100D02*
X812721D01*
X782064Y355712D02*
X797676Y340100D01*
X825896Y383150D02*
X832423Y376624D01*
X720045Y448661D02*
X720631Y449247D01*
X741384Y440984D02*
X745098Y444698D01*
X714926Y440984D02*
X741384D01*
X714926Y446102D02*
X720787D01*
X782064Y367569D02*
X784886Y370391D01*
Y371219D01*
X782064Y355712D02*
Y367569D01*
X788154Y369034D02*
Y373064D01*
X784495Y365375D02*
X788154Y369034D01*
X784495Y357206D02*
X788705Y352995D01*
X784495Y357206D02*
Y365375D01*
X788705Y352995D02*
X803476D01*
X711809Y417719D02*
X712793D01*
X785300Y405750D02*
X803808Y387243D01*
X785300Y405750D02*
Y418155D01*
X793614Y414328D02*
Y418155D01*
Y414328D02*
X801142Y406800D01*
X850900Y393000D02*
X860005Y402105D01*
X761400Y327157D02*
Y331448D01*
X703005Y417719D02*
X703989D01*
X706891Y429133D02*
X709652Y426373D01*
X706891Y433006D02*
X711740Y437854D01*
X706891Y429133D02*
Y433006D01*
X694685Y424609D02*
X698087Y428011D01*
Y435242D01*
X695474Y437854D02*
X698087Y435242D01*
X799688Y425825D02*
Y426809D01*
Y425825D02*
X800861Y424651D01*
X798900Y427597D02*
X799688Y426809D01*
X798900Y427597D02*
Y435919D01*
X802509Y439528D01*
X802661D01*
X803231Y440098D01*
X805695D01*
X793614Y424651D02*
Y438310D01*
X803007Y447703D01*
X805623D01*
X805695Y447775D01*
X785522D02*
X786092Y447205D01*
X786244D01*
X790071Y443378D01*
Y432913D02*
Y443378D01*
X783057Y447775D02*
X785522D01*
X785300Y428142D02*
X790071Y432913D01*
X785300Y424651D02*
Y428142D01*
X721721Y402251D02*
X724272Y399700D01*
X721721Y402251D02*
Y402909D01*
X705466Y398277D02*
X705860D01*
X695380Y391568D02*
X698757D01*
X705466Y398277D01*
X706891Y378711D02*
Y382315D01*
X700973Y378711D02*
X706891D01*
Y376461D02*
Y378711D01*
X731949Y377237D02*
X755523D01*
X700938Y374809D02*
X705238D01*
X706891Y376461D01*
X700938Y378746D02*
X700973Y378711D01*
X724272Y399700D02*
X733747Y390225D01*
X718564Y371100D02*
X718564Y371100D01*
X727815Y360265D02*
X733747Y366197D01*
X727815Y360167D02*
Y360265D01*
X733747Y366197D02*
Y371100D01*
X725363Y356958D02*
Y357714D01*
X723453Y355049D02*
X725363Y356958D01*
Y357714D02*
X727815Y360167D01*
X714110Y355049D02*
X723453D01*
X712724Y356435D02*
Y359608D01*
Y356435D02*
X714110Y355049D01*
X711424Y360908D02*
X712724Y359608D01*
X712264Y371297D02*
Y379730D01*
X706859Y389600D02*
X715709D01*
Y398421D01*
X716989Y399700D01*
X705860Y390600D02*
X706859Y389600D01*
X712264Y371297D02*
X713241Y370320D01*
X712068Y371100D02*
Y371667D01*
Y371100D02*
X712264Y371297D01*
X700938Y372840D02*
X710894D01*
X712068Y371667D01*
X689423Y362877D02*
X690327Y361972D01*
X698524D01*
X673547Y394231D02*
X674622Y393156D01*
Y392785D02*
X675208Y392199D01*
X669807Y394231D02*
X673547D01*
X674622Y392785D02*
Y393156D01*
X675208Y392199D02*
X682480D01*
X713241Y367754D02*
Y370320D01*
X720729Y360167D02*
Y360265D01*
X713241Y367754D02*
X720729Y360265D01*
X700938Y386072D02*
X705466Y390600D01*
X705860D01*
X700938Y380714D02*
Y386072D01*
X688930Y360919D02*
X689284Y361272D01*
X688930Y350200D02*
Y360919D01*
X683517Y362877D02*
Y363664D01*
X683378Y372757D02*
X683462Y372840D01*
X684206D01*
X815031Y466670D02*
X816893Y464808D01*
Y463836D02*
Y464808D01*
Y463836D02*
X817000Y463730D01*
X831428Y462440D02*
X831565Y462577D01*
X752869Y460863D02*
X756482D01*
X750602Y463130D02*
X752869Y460863D01*
X741357Y435865D02*
X748699Y443207D01*
X743586Y468182D02*
X746899Y464869D01*
Y443952D02*
Y464869D01*
X743629Y465580D02*
X745098Y464110D01*
Y444698D02*
Y464110D01*
X741371Y438425D02*
X746899Y443952D01*
X734607Y465981D02*
X740731D01*
X742929D01*
X747191Y500566D02*
Y507007D01*
X708955Y504748D02*
X721585Y517379D01*
X735245Y460863D02*
X737667Y463285D01*
X740594D01*
X740731Y463422D01*
X661002Y461790D02*
X664320D01*
X660991Y461780D02*
X661002Y461790D01*
X682559Y450629D02*
X684527Y448661D01*
X678046Y450629D02*
X682559D01*
X684527Y448661D02*
X692288D01*
X740731Y468540D02*
X741089Y468182D01*
X733919Y466670D02*
X734607Y465981D01*
X742929D02*
X743330Y465580D01*
X741089Y468182D02*
X743586D01*
X743330Y465580D02*
X743629D01*
X733919Y466670D02*
Y474093D01*
X764306Y459954D02*
Y460643D01*
X763322Y451489D02*
Y458970D01*
X756482Y463422D02*
X761527D01*
X764306Y460643D01*
X834464Y464735D02*
X840807Y458392D01*
X826767Y466670D02*
X828164Y465273D01*
X831428D02*
X831565Y465136D01*
X828164Y465273D02*
X831428D01*
X833764Y465136D02*
X834165Y464735D01*
X834464D01*
X831565Y465136D02*
X833764D01*
X822526Y467049D02*
X822905Y466670D01*
X826767D01*
X763322Y458970D02*
X764306Y459954D01*
X714926Y438425D02*
X741371D01*
X714926Y435865D02*
X741357D01*
X847317Y448924D02*
Y460017D01*
X837125Y442657D02*
X842613Y448144D01*
X805695Y445216D02*
X837138D01*
X840807Y448884D02*
Y458392D01*
X837138Y445216D02*
X840807Y448884D01*
X805695Y442657D02*
X837125D01*
X842613Y448144D02*
Y460872D01*
X844180Y462440D01*
X805695Y440098D02*
X838491D01*
X844180Y462440D02*
X847180D01*
X847317Y462577D01*
X856068Y451923D02*
Y460063D01*
Y451923D02*
X856501Y451489D01*
X860320Y455948D02*
X863942Y459571D01*
Y460063D01*
X847317Y462577D02*
X854047D01*
X856068Y460555D01*
Y460063D02*
Y460555D01*
X805695Y450334D02*
X805768Y450406D01*
X822526Y467049D02*
Y475240D01*
X727422Y474684D02*
Y478523D01*
X728505Y479605D01*
X675518Y446102D02*
X692288D01*
X660991Y456662D02*
X665551D01*
X674066Y447554D02*
Y453790D01*
X672988Y454869D02*
X674066Y453790D01*
X667344Y454869D02*
X672988D01*
X665551Y456662D02*
X667344Y454869D01*
X674066Y447554D02*
X675518Y446102D01*
X670172Y450137D02*
Y450629D01*
X653229Y451851D02*
X668385Y436695D01*
X653229Y451851D02*
Y453729D01*
X668385Y436695D02*
X683127D01*
X648139Y461379D02*
X655029Y454488D01*
X648139Y458820D02*
X653229Y453729D01*
X656829Y458058D02*
X657855Y459084D01*
X660854D02*
X660991Y459221D01*
X657855Y459084D02*
X660854D01*
X630709Y470933D02*
X633268Y468373D01*
Y449054D02*
X647428Y434895D01*
X633268Y449054D02*
Y468373D01*
X647428Y434895D02*
X683872D01*
X763322Y451489D02*
X765184Y449627D01*
X780593Y447775D02*
X783057D01*
X780153Y447335D02*
X780593Y447775D01*
X768295Y447335D02*
X780153D01*
X770212Y450801D02*
X771680Y449332D01*
X770212Y450801D02*
Y451489D01*
X776248D02*
X777403Y450334D01*
X783057D01*
X771196Y451489D02*
X776248D01*
X682381Y438495D02*
X684870Y440984D01*
X681636Y440295D02*
X684883Y443543D01*
X692288D01*
X684870Y440984D02*
X692288D01*
X709652Y425388D02*
X710825Y424215D01*
X711809D01*
X709652Y425388D02*
Y426373D01*
X711740Y437854D02*
X711891D01*
X712461Y438425D01*
X714926D01*
X692288Y446102D02*
X692360Y446030D01*
X694976D01*
X700848Y425388D02*
Y440158D01*
X694976Y446030D02*
X700848Y440158D01*
Y425388D02*
X702021Y424215D01*
X703005D01*
X694752Y438425D02*
X695322Y437854D01*
X695474D01*
X692288Y438425D02*
X694752D01*
X645240Y461780D02*
X647438D01*
X647839Y461379D02*
X648139D01*
X647438Y461780D02*
X647839Y461379D01*
X636615Y463962D02*
Y472409D01*
Y463273D02*
Y463962D01*
X638108Y461780D02*
X645240D01*
X636615Y463273D02*
X638108Y461780D01*
X683872Y434895D02*
X684843Y435865D01*
X692288D01*
X647438Y459221D02*
X647839Y458820D01*
X645240Y459221D02*
X647438D01*
X647839Y458820D02*
X648139D01*
X684857Y438425D02*
X692288D01*
X683127Y436695D02*
X684857Y438425D01*
X663190Y459221D02*
X663584Y458826D01*
X660991Y459221D02*
X663190D01*
X663584Y458826D02*
X669851D01*
X807704Y509800D02*
Y510193D01*
X747326Y522497D02*
X747398Y522569D01*
X777496Y514073D02*
Y524362D01*
X773802Y510379D02*
X777496Y514073D01*
X780958Y513716D02*
X781120D01*
X779708Y512466D02*
X780958Y513716D01*
X781237Y513833D02*
Y515698D01*
X779708Y505961D02*
Y512466D01*
X781120Y513716D02*
X781237Y513833D01*
X685723Y503337D02*
X685997Y503063D01*
X690508D01*
X718057Y499374D02*
Y504802D01*
X722388Y509132D01*
X722539Y514250D02*
X723109Y514820D01*
X725279D01*
X721585Y517379D02*
X725279D01*
X715668Y519938D02*
X725279D01*
X730839Y554513D02*
X731400Y553952D01*
X730839Y554513D02*
Y560614D01*
X682180Y525982D02*
X683164Y524998D01*
X682180Y525982D02*
Y530595D01*
X683164Y519873D02*
Y524998D01*
X723109Y509702D02*
X725279D01*
X722539Y509132D02*
X723109Y509702D01*
X722388Y509132D02*
X722539D01*
X680605Y503337D02*
X680753Y503190D01*
X736400Y536157D02*
Y540448D01*
X711400Y536157D02*
Y540448D01*
X731400Y536157D02*
Y540448D01*
X745187Y525231D02*
Y527195D01*
X745361Y525056D02*
X747326D01*
X736400Y540448D02*
X737357Y539491D01*
Y535025D02*
Y539491D01*
Y535025D02*
X745187Y527195D01*
Y525231D02*
X745361Y525056D01*
D67*
X778991Y529797D02*
X778991Y529797D01*
X778916Y529721D02*
X778991Y529797D01*
X776400Y540448D02*
Y553952D01*
X780894Y527893D02*
Y527893D01*
Y524704D02*
Y527893D01*
X766001Y524040D02*
X766180Y523862D01*
X756615Y517379D02*
X761348Y522112D01*
X764073D01*
X764943Y522982D01*
X806082Y527015D02*
X807352Y528285D01*
X825214Y520410D02*
X825718Y520913D01*
X829481D02*
X832138Y523570D01*
Y528671D01*
X825718Y520913D02*
X829481D01*
X771857Y559721D02*
X774436Y562300D01*
X785741D02*
X806215Y541826D01*
X774436Y562300D02*
X785741D01*
X806215Y541826D02*
X818983D01*
X771857Y554409D02*
Y559721D01*
X771400Y553952D02*
X771857Y554409D01*
X818983Y541826D02*
X832138Y528671D01*
X669807Y385569D02*
X669807Y385569D01*
X778991Y529797D02*
X793925D01*
X778991Y529797D02*
X780894Y527893D01*
X776077Y529721D02*
X778916D01*
X774070Y527714D02*
X776077Y529721D01*
X774070Y524675D02*
Y527714D01*
X780894Y524704D02*
X781237Y524362D01*
X773382Y523862D02*
X773756Y524236D01*
Y524362D01*
X766180Y523862D02*
X773382D01*
X776400Y534991D02*
X778991Y532400D01*
X776400Y534991D02*
Y540448D01*
X715462Y519732D02*
X715668Y519938D01*
X715092Y515622D02*
Y519362D01*
X712903Y513433D02*
X715092Y515622D01*
Y519362D02*
X715462Y519732D01*
X686080Y518060D02*
X694740D01*
Y522899D01*
X694852Y523011D01*
X793925Y529797D02*
X796336Y527385D01*
X797123D02*
X797493Y527015D01*
X796336Y527385D02*
X797123D01*
X778991Y529797D02*
Y532400D01*
X797493Y527015D02*
X806082D01*
D68*
X705148Y338200D02*
D03*
X787652Y338200D02*
D03*
X843962Y408950D02*
D03*
X839445Y402500D02*
D03*
X834929Y396050D02*
D03*
X830413Y389600D02*
D03*
X825896Y383150D02*
D03*
X821380Y376700D02*
D03*
X816864Y370250D02*
D03*
X812347Y363800D02*
D03*
X807831Y357350D02*
D03*
X835899Y414596D02*
D03*
X831383Y408146D02*
D03*
X826867Y401696D02*
D03*
X822350Y395246D02*
D03*
X817834Y388795D02*
D03*
X813318Y382346D02*
D03*
X808801Y375896D02*
D03*
X804285Y369445D02*
D03*
X799769Y362996D02*
D03*
X705148Y547200D02*
D03*
X787652Y547200D02*
D03*
D69*
X845912Y508468D02*
D03*
D70*
X850912Y499808D02*
D03*
X855912Y491148D02*
D03*
X649273Y497576D02*
D03*
X654273Y506236D02*
D03*
X634703Y427192D02*
D03*
X632967Y437040D02*
D03*
X863133Y420431D02*
D03*
X864870Y430279D02*
D03*
D71*
X644273Y488916D02*
D03*
D72*
X636440Y417344D02*
D03*
D73*
X866606Y440127D02*
D03*
D74*
X852574Y410610D02*
D03*
X834514Y423256D02*
D03*
X791157Y361336D02*
D03*
X809217Y348690D02*
D03*
D75*
X736579Y500430D02*
D03*
X678046Y376777D02*
D03*
X692408Y372379D02*
D03*
X694496Y374809D02*
D03*
X690439D02*
D03*
X692572Y377859D02*
D03*
X694094Y381032D02*
D03*
X690604D02*
D03*
X676030Y355049D02*
D03*
X754790Y520979D02*
D03*
X752134Y523409D02*
D03*
X756615Y517379D02*
D03*
X766865Y509132D02*
D03*
X750602Y481851D02*
D03*
X702032Y463130D02*
D03*
X696653Y463422D02*
D03*
X704431Y523949D02*
D03*
X720333Y525611D02*
D03*
X707932Y533428D02*
D03*
X711400Y541826D02*
D03*
X703607Y534755D02*
D03*
X721400Y552574D02*
D03*
X727842Y367557D02*
D03*
X709186Y407600D02*
D03*
X788646Y459687D02*
D03*
X763682Y434980D02*
D03*
X827236Y476613D02*
D03*
X869313Y448080D02*
D03*
X746899Y488916D02*
D03*
X787215Y494771D02*
D03*
X722129Y421404D02*
D03*
X846770Y443641D02*
D03*
X820100Y460353D02*
D03*
X709186Y481374D02*
D03*
X725429Y488916D02*
D03*
X685428Y460863D02*
D03*
X629869Y454201D02*
D03*
X788646Y473798D02*
D03*
X805192Y474269D02*
D03*
X802509Y520913D02*
D03*
X810680Y502879D02*
D03*
X815053Y502868D02*
D03*
X664059Y508679D02*
D03*
X694740Y507929D02*
D03*
X718564Y488464D02*
D03*
X717324Y461748D02*
D03*
X679916Y428600D02*
D03*
X721371Y496594D02*
D03*
X763549Y445152D02*
D03*
X781400Y430279D02*
D03*
X783057Y456017D02*
D03*
X705148Y519362D02*
D03*
X726155Y389600D02*
D03*
X723058Y379335D02*
D03*
X750575Y370675D02*
D03*
X776400Y332826D02*
D03*
X781400Y332826D02*
D03*
Y343574D02*
D03*
X776400D02*
D03*
X771400D02*
D03*
X766400D02*
D03*
X761400Y343574D02*
D03*
X756400Y343574D02*
D03*
X751400D02*
D03*
X771400Y332826D02*
D03*
X766400D02*
D03*
X761400D02*
D03*
X756400D02*
D03*
X751400Y332826D02*
D03*
X746400Y332826D02*
D03*
Y343574D02*
D03*
X716400D02*
D03*
X721400D02*
D03*
X726400D02*
D03*
X731400D02*
D03*
X736400D02*
D03*
X741400D02*
D03*
Y332826D02*
D03*
X736400Y332826D02*
D03*
X731400Y332826D02*
D03*
X726400Y332826D02*
D03*
X721400Y332826D02*
D03*
X716400D02*
D03*
X711400Y332826D02*
D03*
X711400Y343574D02*
D03*
X731400Y541826D02*
D03*
X736400D02*
D03*
X741400D02*
D03*
X746400D02*
D03*
X751400D02*
D03*
X756400D02*
D03*
X761400D02*
D03*
X766400D02*
D03*
X771400D02*
D03*
X776400D02*
D03*
X781400D02*
D03*
Y552574D02*
D03*
X776400Y552574D02*
D03*
X771400Y552574D02*
D03*
X766400D02*
D03*
X761400D02*
D03*
X756400D02*
D03*
X751400Y552574D02*
D03*
X746400Y552574D02*
D03*
X741400D02*
D03*
X736400Y552574D02*
D03*
X731400Y552574D02*
D03*
X726400D02*
D03*
Y541826D02*
D03*
X721400D02*
D03*
X716400Y552574D02*
D03*
Y541826D02*
D03*
X711400Y552574D02*
D03*
X651986Y469752D02*
D03*
X739873Y446160D02*
D03*
X739943Y450334D02*
D03*
X740106Y454558D02*
D03*
X749572Y384158D02*
D03*
X662942Y378137D02*
D03*
X751266Y488464D02*
D03*
X727269Y484951D02*
D03*
X714743Y488916D02*
D03*
X710541Y484951D02*
D03*
X648437Y443054D02*
D03*
X837125Y474453D02*
D03*
X837473Y452196D02*
D03*
X818574Y425734D02*
D03*
X814137Y425817D02*
D03*
X846770Y448080D02*
D03*
X824106Y459507D02*
D03*
X829014Y480058D02*
D03*
X852078Y471590D02*
D03*
X785535Y491270D02*
D03*
X726661Y450334D02*
D03*
X718564Y424215D02*
D03*
X678668Y424215D02*
D03*
X652416Y465401D02*
D03*
X811641Y534299D02*
D03*
X779708Y500430D02*
D03*
X732172Y492832D02*
D03*
X664059Y503972D02*
D03*
X869203Y451821D02*
D03*
X783770Y474453D02*
D03*
X721072Y459035D02*
D03*
X717321Y457286D02*
D03*
X794376Y473798D02*
D03*
X808779Y475940D02*
D03*
X682180Y458058D02*
D03*
X630002D02*
D03*
X794521Y460353D02*
D03*
X760947Y476613D02*
D03*
X768353Y434368D02*
D03*
X777768Y428831D02*
D03*
X774070Y427532D02*
D03*
X691033Y471868D02*
D03*
X666870D02*
D03*
X726155Y371100D02*
D03*
X821728Y452065D02*
D03*
X684039Y430361D02*
D03*
X644352Y442755D02*
D03*
X713219Y406373D02*
D03*
X698822Y534250D02*
D03*
X754943Y370250D02*
D03*
X721869Y430540D02*
D03*
X718057Y499374D02*
D03*
X689758D02*
D03*
X690508Y503063D02*
D03*
X712903Y513433D02*
D03*
X694852Y523011D02*
D03*
M02*
