G04*
G04 #@! TF.GenerationSoftware,Altium Limited,Altium Designer,22.3.1 (43)*
G04*
G04 Layer_Color=8421504*
%FSLAX25Y25*%
%MOIN*%
G70*
G04*
G04 #@! TF.SameCoordinates,26406105-7067-4880-9C5C-2A59F93044AC*
G04*
G04*
G04 #@! TF.FilePolarity,Positive*
G04*
G01*
G75*
%ADD14C,0.00500*%
%ADD16R,0.03740X0.05315*%
%ADD17O,0.08102X0.03378*%
%ADD18R,0.05937X0.07315*%
%ADD19R,0.06724X0.07709*%
%ADD20R,0.07315X0.05347*%
%ADD21R,0.05725X0.01716*%
G04:AMPARAMS|DCode=22|XSize=57.25mil|YSize=17.16mil|CornerRadius=8.58mil|HoleSize=0mil|Usage=FLASHONLY|Rotation=0.000|XOffset=0mil|YOffset=0mil|HoleType=Round|Shape=RoundedRectangle|*
%AMROUNDEDRECTD22*
21,1,0.05725,0.00000,0,0,0.0*
21,1,0.04009,0.01716,0,0,0.0*
1,1,0.01716,0.02005,0.00000*
1,1,0.01716,-0.02005,0.00000*
1,1,0.01716,-0.02005,0.00000*
1,1,0.01716,0.02005,0.00000*
%
%ADD22ROUNDEDRECTD22*%
%ADD23R,0.07315X0.05937*%
%ADD24R,0.06331X0.08693*%
%ADD25R,0.07906X0.08102*%
%ADD26R,0.10630X0.03150*%
%ADD27R,0.03600X0.04800*%
%ADD28R,0.04913X0.13496*%
%ADD29O,0.08299X0.03181*%
%ADD30R,0.08102X0.08102*%
%ADD31R,0.07315X0.08102*%
%ADD32R,0.05315X0.03740*%
%ADD33R,0.04756X0.07118*%
%ADD34R,0.02253X0.06120*%
G04:AMPARAMS|DCode=35|XSize=61.2mil|YSize=22.53mil|CornerRadius=11.26mil|HoleSize=0mil|Usage=FLASHONLY|Rotation=270.000|XOffset=0mil|YOffset=0mil|HoleType=Round|Shape=RoundedRectangle|*
%AMROUNDEDRECTD35*
21,1,0.06120,0.00000,0,0,270.0*
21,1,0.03867,0.02253,0,0,270.0*
1,1,0.02253,0.00000,-0.01934*
1,1,0.02253,0.00000,0.01934*
1,1,0.02253,0.00000,0.01934*
1,1,0.02253,0.00000,-0.01934*
%
%ADD35ROUNDEDRECTD35*%
%ADD36O,0.07512X0.03378*%
%ADD37R,0.05347X0.07315*%
%ADD38O,0.03772X0.08693*%
%ADD39R,0.05740X0.07315*%
%ADD40R,0.08102X0.07315*%
D14*
X876400Y442700D02*
G03*
X876400Y442700I-130000J0D01*
G01*
D16*
X696653Y457985D02*
D03*
X702559D02*
D03*
X763322Y440295D02*
D03*
X769227D02*
D03*
X833123Y452204D02*
D03*
X827217Y452204D02*
D03*
X819967Y431240D02*
D03*
X814062D02*
D03*
X729292Y446102D02*
D03*
X735197D02*
D03*
X672988Y378012D02*
D03*
X667082D02*
D03*
X683517Y362877D02*
D03*
X689423D02*
D03*
X662066Y471918D02*
D03*
X656160Y471918D02*
D03*
X643368Y448661D02*
D03*
X649273Y448661D02*
D03*
X779708Y505961D02*
D03*
X773802D02*
D03*
X747055Y500430D02*
D03*
X741150D02*
D03*
X726103D02*
D03*
X732009D02*
D03*
X715462Y519732D02*
D03*
X709556D02*
D03*
X729220Y454639D02*
D03*
X735125D02*
D03*
X841227Y475240D02*
D03*
X847133D02*
D03*
X756507Y476652D02*
D03*
X750602D02*
D03*
D17*
X805695Y434980D02*
D03*
Y437539D02*
D03*
Y440098D02*
D03*
Y442657D02*
D03*
X805695Y445216D02*
D03*
X805695Y447775D02*
D03*
X805695Y450334D02*
D03*
X805695Y452893D02*
D03*
X783057Y434980D02*
D03*
Y437539D02*
D03*
Y440098D02*
D03*
Y442657D02*
D03*
X783057Y445216D02*
D03*
X783057Y447775D02*
D03*
X783057Y450334D02*
D03*
X783057Y452893D02*
D03*
X714926Y433307D02*
D03*
Y435865D02*
D03*
Y438425D02*
D03*
Y440984D02*
D03*
Y443543D02*
D03*
Y446102D02*
D03*
Y448661D02*
D03*
Y451220D02*
D03*
X692288Y433307D02*
D03*
Y435865D02*
D03*
Y438425D02*
D03*
Y440984D02*
D03*
Y443543D02*
D03*
Y446102D02*
D03*
Y448661D02*
D03*
Y451220D02*
D03*
D18*
X863588Y451489D02*
D03*
X856501D02*
D03*
X815439Y475240D02*
D03*
X822526D02*
D03*
X771393Y459954D02*
D03*
X764306D02*
D03*
X726832Y466670D02*
D03*
X733919D02*
D03*
X669851Y458826D02*
D03*
X676938D02*
D03*
X629528Y463962D02*
D03*
X636615D02*
D03*
D19*
X815031Y466670D02*
D03*
X822905D02*
D03*
X863942Y460063D02*
D03*
X856068D02*
D03*
X771196Y451489D02*
D03*
X763322D02*
D03*
X726438Y474684D02*
D03*
X734312D02*
D03*
X670172Y450629D02*
D03*
X678046D02*
D03*
X629725Y472409D02*
D03*
X637599D02*
D03*
D20*
X801846Y418155D02*
D03*
Y424651D02*
D03*
X793614Y418155D02*
D03*
Y424651D02*
D03*
X785300Y418155D02*
D03*
Y424651D02*
D03*
X711809Y417719D02*
D03*
Y424215D02*
D03*
X703005Y424215D02*
D03*
Y417719D02*
D03*
X693700Y424609D02*
D03*
Y418113D02*
D03*
D21*
X740731Y468540D02*
D03*
X660991Y456662D02*
D03*
X847317Y460017D02*
D03*
D22*
X740731Y465981D02*
D03*
Y463422D02*
D03*
Y460863D02*
D03*
X756482Y460863D02*
D03*
Y463422D02*
D03*
Y465981D02*
D03*
Y468540D02*
D03*
X660991Y459221D02*
D03*
Y461780D02*
D03*
Y464339D02*
D03*
X645240D02*
D03*
Y461780D02*
D03*
Y459221D02*
D03*
Y456662D02*
D03*
X847317Y462577D02*
D03*
Y465136D02*
D03*
Y467695D02*
D03*
X831565Y467695D02*
D03*
Y465136D02*
D03*
Y462577D02*
D03*
Y460017D02*
D03*
D23*
X728856Y421066D02*
D03*
Y428152D02*
D03*
X755523Y377237D02*
D03*
Y384324D02*
D03*
D24*
X743984Y371100D02*
D03*
X733747D02*
D03*
Y383667D02*
D03*
X743984D02*
D03*
D25*
X727815Y360167D02*
D03*
X720729D02*
D03*
D26*
X669807Y385569D02*
D03*
Y394231D02*
D03*
X670172Y370528D02*
D03*
Y361866D02*
D03*
D27*
X676030Y350200D02*
D03*
X688930D02*
D03*
X698524Y360908D02*
D03*
X711424D02*
D03*
X695380Y391568D02*
D03*
X682480D02*
D03*
D28*
X711400Y331448D02*
D03*
Y344952D02*
D03*
X716400Y331448D02*
D03*
Y344952D02*
D03*
X721400Y331448D02*
D03*
Y344952D02*
D03*
X726400Y331448D02*
D03*
Y344952D02*
D03*
X731400Y331448D02*
D03*
X731400Y344952D02*
D03*
X736400Y331448D02*
D03*
Y344952D02*
D03*
X741400Y331448D02*
D03*
X741400Y344952D02*
D03*
X746400Y331448D02*
D03*
Y344952D02*
D03*
X751400Y331448D02*
D03*
Y344952D02*
D03*
X756400Y331448D02*
D03*
X756400Y344952D02*
D03*
X761400Y331448D02*
D03*
Y344952D02*
D03*
X766400Y331448D02*
D03*
X766400Y344952D02*
D03*
X771400Y331448D02*
D03*
Y344952D02*
D03*
X776400Y331448D02*
D03*
Y344952D02*
D03*
X781400Y331448D02*
D03*
Y344952D02*
D03*
X711400Y540448D02*
D03*
Y553952D02*
D03*
X716400Y540448D02*
D03*
Y553952D02*
D03*
X721400Y540448D02*
D03*
X721400Y553952D02*
D03*
X726400Y540448D02*
D03*
Y553952D02*
D03*
X731400Y540448D02*
D03*
Y553952D02*
D03*
X736400Y540448D02*
D03*
Y553952D02*
D03*
X741400Y540448D02*
D03*
Y553952D02*
D03*
X746400Y540448D02*
D03*
Y553952D02*
D03*
X751400Y540448D02*
D03*
X751400Y553952D02*
D03*
X756400Y540448D02*
D03*
Y553952D02*
D03*
X761400Y540448D02*
D03*
Y553952D02*
D03*
X766400Y540448D02*
D03*
Y553952D02*
D03*
X771400Y540448D02*
D03*
Y553952D02*
D03*
X776400Y540448D02*
D03*
Y553952D02*
D03*
X781400Y540448D02*
D03*
Y553952D02*
D03*
D29*
X700938Y372840D02*
D03*
Y374809D02*
D03*
X700938Y376777D02*
D03*
Y378746D02*
D03*
X700938Y380714D02*
D03*
X684206Y372840D02*
D03*
Y374809D02*
D03*
X684206Y376777D02*
D03*
Y378746D02*
D03*
X684206Y380714D02*
D03*
D30*
X724272Y399700D02*
D03*
X716989D02*
D03*
D31*
X807704Y509800D02*
D03*
X815382D02*
D03*
D32*
X825214Y520410D02*
D03*
Y526315D02*
D03*
X797493Y527015D02*
D03*
Y521110D02*
D03*
X764943Y522982D02*
D03*
Y517077D02*
D03*
X694740Y518060D02*
D03*
Y512154D02*
D03*
X669260Y504190D02*
D03*
Y510096D02*
D03*
D33*
X815382Y520322D02*
D03*
X807901D02*
D03*
X807901Y529771D02*
D03*
X811641D02*
D03*
X815382D02*
D03*
D34*
X781237Y524362D02*
D03*
D35*
X777496D02*
D03*
X773756D02*
D03*
Y515698D02*
D03*
X781237D02*
D03*
D36*
X747326Y507143D02*
D03*
Y509702D02*
D03*
Y512261D02*
D03*
Y514820D02*
D03*
Y517379D02*
D03*
Y519938D02*
D03*
Y522497D02*
D03*
Y525056D02*
D03*
X725279Y507143D02*
D03*
Y509702D02*
D03*
Y512261D02*
D03*
Y514820D02*
D03*
Y517379D02*
D03*
Y519938D02*
D03*
Y522497D02*
D03*
Y525056D02*
D03*
D37*
X688676Y530595D02*
D03*
X682180D02*
D03*
X718564Y371100D02*
D03*
X712068D02*
D03*
D38*
X685723Y519873D02*
D03*
X683164D02*
D03*
X680605D02*
D03*
X678046D02*
D03*
X685723Y503337D02*
D03*
X683164Y503337D02*
D03*
X680605Y503337D02*
D03*
X678046D02*
D03*
D39*
X712264Y379730D02*
D03*
X718367D02*
D03*
X721812Y389600D02*
D03*
X715709D02*
D03*
D40*
X705860Y390600D02*
D03*
Y398277D02*
D03*
M02*
