M48
;Layer_Color=9474304
;FILE_FORMAT=2:5
INCH,TZ
;TYPE=PLATED
T1F00S00C0.01400
T2F00S00C0.03937
T3F00S00C0.04331
T4F00S00C0.05906
;TYPE=NON_PLATED
T5F00S00C0.05512
%
T01
X676030Y355049
X678046Y376777
X690439Y374809
X694496
X692408Y372379
X692572Y377859
X694094Y381032
X690604
X662942Y378137
X723058Y379335
X726155Y371100
X727842Y367557
X726155Y389600
X749572Y384158
X750575Y370675
X754943Y370250
X756400Y343574
X751400
X746400
X741400
X736400
X731400
X726400
X721400
X716400
X711400
X711400Y332826
X716400Y332826
X721400
X726400Y332826
X731400Y332826
X736400Y332826
X741400Y332826
X746400
X751400Y332826
X756400Y332826
X761400
X766400
X771400
X776400Y332826
Y343574
X771400
X766400
X761400Y343574
X763682Y434980
X768353Y434368
X774070Y427532
X777768Y428831
X763549Y445152
X739873Y446160
X739943Y450334
X740106Y454558
X726661Y450334
X721072Y459035
X717321Y457286
X717324Y461748
X702032Y463130
X696653Y463422
X685428Y460863
X682180Y458058
X684039Y430361
X679916Y428600
X678668Y424215
X718564Y424215
X722129Y421404
X721869Y430540
X713219Y406373
X709186Y407600
X648437Y443054
X644352Y442755
X629869Y454201
X630002Y458058
X652416Y465401
X783057Y456017
X788646Y459687
X794521Y460353
X820100
X824106Y459507
X821728Y452065
X837473Y452196
X846770Y448080
Y443641
X869313Y448080
X869203Y451821
X818574Y425734
X814137Y425817
X781400Y430279
Y343574
Y332826
X783770Y474453
X788646Y473798
X794376Y473798
X805192Y474269
X808779Y475940
X827236Y476613
X829014Y480058
X837125Y474453
X852078Y471590
X815053Y502868
X810680Y502879
X802509Y520913
X811641Y534299
X781400Y541826
Y552574
X787215Y494771
X785535Y491270
X779708Y500430
X766865Y509132
X756615Y517379
X754790Y520979
X752134Y523409
X751400Y541826
X746400
X741400
X736400
X731400
X726400
X721400
X716400
X711400
Y552574
X716400Y552574
X721400
X726400
X731400
X736400Y552574
X741400Y552574
X746400
X751400Y552574
X756400Y552574
X761400
X766400
X771400
X776400Y552574
Y541826
X771400
X766400
X761400
X756400
X720333Y525611
X704431Y523949
X705148Y519362
X712903Y513433
X718057Y499374
X721371Y496594
X718564Y488464
X714743Y488916
X710541Y484951
X709186Y481374
X727269Y484951
X725429Y488916
X732172Y492832
X736579Y500430
X746899Y488916
X751266Y488464
X750602Y481851
X760947Y476613
X691033Y471868
X666870
X651986Y469752
X664059Y503972
Y508679
X694740Y507929
X690508Y503063
X689758Y499374
X694852Y523011
X698822Y534250
X703607Y534755
X707932Y533428
T02
X799769Y362996
X804285Y369445
X808801Y375896
X813318Y382346
X817834Y388795
X822350Y395246
X826867Y401696
X831383Y408146
X835899Y414596
X843962Y408950
X839445Y402500
X834929Y396050
X830413Y389600
X825896Y383150
X821380Y376700
X816864Y370250
X812347Y363800
X807831Y357350
T03
X636440Y417344
X634703Y427192
X632967Y437040
X866606Y440127
X864870Y430279
X863133Y420431
X855912Y491148
X850912Y499808
X845912Y508468
X654273Y506236
X649273Y497576
X644273Y488916
T04
X791157Y361336
X809217Y348690
X834514Y423256
X852574Y410610
T05
X705148Y338200
X787652Y338200
Y547200
X705148Y547200
M30
